<svg version="1.1" id="Layer_1" xmlns="http://www.w3.org/2000/svg" xmlns:xlink="http://www.w3.org/1999/xlink" xml:space="preserve" viewBox="0 0 512 512"><defs><mask id="frameOuter"><g fill="white"><g id="frameInner" stroke-linejoin="round"><rect x="0" y="0" rx="42" ry="42" width="512" height="512"/></g></g></mask><mask id="shapeOuter"><rect x="0" y="0" width="512" height="512" fill="white"/><g fill="black"><g id="shapeInner" stroke-linejoin="round"><use href="#clockCirclesLarge"/><use href="#clockCirclesSmall" transform="rotate(30, 256, 256)"/><use href="#clockCirclesSmall" transform="rotate(60, 256, 256)"/><g><path d="M 256 100 A 1000 1000 0 0 1 262 180 A 16 16 0 0 1 261 210 A 109 109 0 0 0 270 256 A 14 14 0 0 1 242 256 A 109 109 0 0 0 251 210 A 16 16 0 0 1 250 180 A 1000 1000 0 0 1 256 100 Z"/><animateTransform type="rotate" dur="43200s" values="0 256 256; 360 256 256" attributeName="transform" attributeType="XML" repeatCount="indefinite" additive="sum"/></g><g><path d="M 256 68 A 800 800 0 0 1 262 150 A 12 12 0 0 1 261 170 A 315 315 0 0 0 266 256 A 10 10 0 0 1 246 256 A 315 315 0 0 0 251 170 A 12 12 0 0 1 250 150 A 800 800 0 0 1 256 68 Z"/><animateTransform type="rotate" dur="3600s" values="0 256 256; 360 256 256" attributeName="transform" attributeType="XML" repeatCount="indefinite" additive="sum"/></g><g><path d="M 256 48 A 2400 2400 0 0 0 262 256 A 6 6 0 0 1 250 256 A 2400 2400 0 0 0 256 48 Z"/><animateTransform type="rotate" dur="60s" values="0 256 256; 360 256 256" attributeName="transform" attributeType="XML" repeatCount="indefinite" additive="sum"/></g></g></g></mask><g id="clockCirclesLarge"><circle cx="256" cy="48" r="20"/><circle cx="48" cy="256" r="20"/><circle cx="256" cy="464" r="20"/><circle cx="464" cy="256" r="20"/></g><g id="clockCirclesSmall"><circle cx="256" cy="48" r="12"/><circle cx="48" cy="256" r="12"/><circle cx="256" cy="464" r="12"/><circle cx="464" cy="256" r="12"/></g></defs><g stroke-width="0" stroke="black" stroke-opacity="1" mask="url(#frameOuter)" ><rect x="0" y="0" width="512" height="512" fill="white"/><g transform-origin="256 256" transform="scale(1,1) rotate(4950)"><rect x="-128" width="768" y="-64" height="192" stroke="black" stroke-width="8" fill="yellow" fill-opacity="0.2"/><animateTransform dur="287s" values="0 128;0 128;0 128;0 128;0 128;0 32;0 0;0 0;0 0;0 0;0 0;0 0;0 0;0 0;0 64;0 192;0 384;0 384;0 128" type="translate" attributeName="transform" attributeType="XML" repeatCount="indefinite" additive="sum"/></g><g transform-origin="256 256" transform="scale(-1,1) rotate(5490)"><rect x="-128" width="768" y="-64" height="256" stroke="black" stroke-width="2" fill="blue" fill-opacity="0.8"/><animateTransform dur="287s" values="0 192;0 192;0 192;0 256;0 256;0 256;0 256;0 128;0 128;0 128;0 128;0 192;0 384;0 384;0 256;0 0;0 0;0 0;0 0;0 0;0 192" type="translate" attributeName="transform" attributeType="XML" repeatCount="indefinite" additive="sum"/></g><g transform-origin="256 256" transform="scale(-1,1) rotate(2520)"><rect x="-128" width="768" y="-64" height="192" stroke="black" stroke-width="1" fill="yellow" fill-opacity="0.8"/><animateTransform dur="329s" values="0 128;0 128;0 128;0 128;0 128;0 128;0 96;0 0;0 0;0 0;0 0;0 0;0 0;0 64;0 128;0 128" type="translate" attributeName="transform" attributeType="XML" repeatCount="indefinite" additive="sum"/></g><g transform-origin="256 256" transform="scale(-1,1) rotate(2160)"><rect x="-128" width="768" y="-64" height="384" stroke="black" stroke-width="2" fill="blue" fill-opacity="0.2"/><animateTransform dur="287s" values="0 128;0 128;0 128;0 128;0 128;0 32;0 0;0 0;0 0;0 0;0 0;0 0;0 0;0 0;0 64;0 192;0 384;0 384;0 128" type="translate" attributeName="transform" attributeType="XML" repeatCount="indefinite" additive="sum"/></g><g transform-origin="256 256" transform="scale(1,1) rotate(4230)"><rect x="-128" width="768" y="-64" height="256" stroke="black" stroke-width="1" fill="red" fill-opacity="0.4"/><animateTransform dur="287s" values="0 256;0 256;0 128;0 128;0 128;0 128;0 384;0 384;0 384;0 384;0 384;0 0;0 0;0 0;0 0;0 0;0 0;0 192;0 256;0 256;0 256" type="translate" attributeName="transform" attributeType="XML" repeatCount="indefinite" additive="sum"/></g><g transform-origin="256 256" transform="scale(1,1) rotate(1710)"><rect x="-128" width="768" y="-64" height="128" stroke="black" stroke-width="8" fill="yellow" fill-opacity="0.8"/><animateTransform dur="287s" values="0 256;0 256;0 192;0 64;0 0;0 0;0 0;0 0;0 0;0 0;0 128;0 128;0 192;0 256;0 256;0 256;0 256;0 256" type="translate" attributeName="transform" attributeType="XML" repeatCount="indefinite" additive="sum"/></g><g mask="url(#shapeOuter)"><g transform-origin="256 256" transform="scale(1,1) rotate(2520)"><rect x="-128" width="768" y="-64" height="256" stroke="black" stroke-width="2" fill="yellow" fill-opacity="0.6"/><animateTransform dur="203s" values="0 256;0 256;0 128;0 128;0 128;0 128;0 384;0 384;0 384;0 384;0 384;0 0;0 0;0 0;0 0;0 0;0 0;0 192;0 256;0 256;0 256" type="translate" attributeName="transform" attributeType="XML" repeatCount="indefinite" additive="sum"/></g><g transform-origin="256 256" transform="scale(1,1) rotate(3780)"><rect x="-128" width="768" y="-64" height="192" stroke="black" stroke-width="4" fill="yellow" fill-opacity="0.8"/><animateTransform dur="413s" values="0 64;0 256;0 192;0 192;0 192;0 192;0 128;0 0;0 0;0 0;0;0 0;0 0;0 64;0 64;0 64;0 64;0 64;0 64;0 64" type="translate" attributeName="transform" attributeType="XML" repeatCount="indefinite" additive="sum"/></g><g transform-origin="256 256" transform="scale(1,1) rotate(4230)"><rect x="-128" width="768" y="-64" height="192" stroke="black" stroke-width="4" fill="red" fill-opacity="0.4"/><animateTransform dur="287s" values="0 0;0 0;0 0;0 0;0 0;0 0;0 0;0 0;0 0;0 32;0 256;0 256;0 256;0 256;0 256;0 256;0 256;0 192;0 0" type="translate" attributeName="transform" attributeType="XML" repeatCount="indefinite" additive="sum"/></g><g transform-origin="256 256" transform="scale(-1,1) rotate(3420)"><rect x="-128" width="768" y="-64" height="384" stroke="black" stroke-width="1" fill="white" fill-opacity="0.2"/><animateTransform dur="203s" values="0 128;0 128;0 128;0 128;0 128;0 32;0 0;0 0;0 0;0 0;0 0;0 0;0 0;0 0;0 64;0 192;0 384;0 384;0 128" type="translate" attributeName="transform" attributeType="XML" repeatCount="indefinite" additive="sum"/></g><g transform-origin="256 256" transform="scale(-1,1) rotate(540)"><rect x="-128" width="768" y="-64" height="192" stroke="black" stroke-width="1" fill="blue" fill-opacity="0.2"/><animateTransform dur="91s" values="0 0;0 0;0 0;0 0;0 0;0 0;0 0;0 0;0 0;0 32;0 256;0 256;0 256;0 256;0 256;0 256;0 256;0 192;0 0" type="translate" attributeName="transform" attributeType="XML" repeatCount="indefinite" additive="sum"/></g><g transform-origin="256 256" transform="scale(-1,1) rotate(1440)"><rect x="-128" width="768" y="-64" height="192" stroke="black" stroke-width="1" fill="yellow" fill-opacity="0.2"/><animateTransform dur="161s" values="0 256;0 256;0 192;0 64;0 0;0 0;0 0;0 0;0 0;0 0;0 128;0 128;0 192;0 256;0 256;0 256;0 256;0 256" type="translate" attributeName="transform" attributeType="XML" repeatCount="indefinite" additive="sum"/></g></g><g stroke-width="1" fill="transparent"><use href="#shapeInner" stroke="white" transform="scale(1.005)" transform-origin="256 256"/><use href="#shapeInner" stroke="black"/></g><g stroke-width="2" fill="transparent" stroke-opacity="1"><use href="#frameInner" stroke="white" transform="scale(0.999)" transform-origin="256 256"/><use href="#frameInner" stroke="black"/></g></g></svg>