OFF
48 48 0

0.324234267330003 1.99421044293487 3.40842400530797
-0.324234267330003 1.99421044293487 3.40842400530797
1.99421044293487 0.324234267330003 3.40842400530797
0.324234267330003 3.40842400530797 1.99421044293487
1.99421044293487 -0.324234267330003 3.40842400530797
-0.324234267330003 3.40842400530797 1.99421044293487
-1.99421044293487 0.324234267330003 3.40842400530797
1.99421044293487 3.40842400530797 0.324234267330003
3.40842400530797 0.324234267330003 1.99421044293487
-1.99421044293487 -0.324234267330003 3.40842400530797
1.99421044293487 3.40842400530797 -0.324234267330003
3.40842400530797 -0.324234267330003 1.99421044293487
0.324234267330003 -1.99421044293487 3.40842400530797
-1.99421044293487 3.40842400530797 0.324234267330003
3.40842400530797 1.99421044293487 0.324234267330003
-3.40842400530797 0.324234267330003 1.99421044293487
-0.324234267330003 -1.99421044293487 3.40842400530797
-1.99421044293487 3.40842400530797 -0.324234267330003
3.40842400530797 1.99421044293487 -0.324234267330003
-3.40842400530797 -0.324234267330003 1.99421044293487
0.324234267330003 3.40842400530797 -1.99421044293487
3.40842400530797 -1.99421044293487 0.324234267330003
-3.40842400530797 1.99421044293487 0.324234267330003
0.324234267330003 -3.40842400530797 1.99421044293487
-0.324234267330003 3.40842400530797 -1.99421044293487
3.40842400530797 -1.99421044293487 -0.324234267330003
-3.40842400530797 1.99421044293487 -0.324234267330003
-0.324234267330003 -3.40842400530797 1.99421044293487
3.40842400530797 0.324234267330003 -1.99421044293487
-3.40842400530797 -1.99421044293487 0.324234267330003
1.99421044293487 -3.40842400530797 0.324234267330003
0.324234267330003 1.99421044293487 -3.40842400530797
3.40842400530797 -0.324234267330003 -1.99421044293487
-3.40842400530797 -1.99421044293487 -0.324234267330003
1.99421044293487 -3.40842400530797 -0.324234267330003
-0.324234267330003 1.99421044293487 -3.40842400530797
-3.40842400530797 0.324234267330003 -1.99421044293487
-1.99421044293487 -3.40842400530797 0.324234267330003
1.99421044293487 0.324234267330003 -3.40842400530797
-3.40842400530797 -0.324234267330003 -1.99421044293487
-1.99421044293487 -3.40842400530797 -0.324234267330003
1.99421044293487 -0.324234267330003 -3.40842400530797
0.324234267330003 -3.40842400530797 -1.99421044293487
-1.99421044293487 0.324234267330003 -3.40842400530797
-0.324234267330003 -3.40842400530797 -1.99421044293487
-1.99421044293487 -0.324234267330003 -3.40842400530797
0.324234267330003 -1.99421044293487 -3.40842400530797
-0.324234267330003 -1.99421044293487 -3.40842400530797

5 43 10 19 31 1
5 0 21 24 4 38
5 25 31 37 28 39
5 23 32 1 34 7
5 2 13 32 1 31
5 41 40 8 47 12
5 27 39 0 40 13
5 8 20 9 18 22
5 28 3 45 14 26
5 32 23 43 21 33
5 46 18 27 38 4
5 38 17 11 35 0
5 3 28 16 10 30
5 26 47 7 39 28
5 12 14 44 2 41
5 36 5 41 22 18
5 15 24 4 26 14
5 11 42 6 25 29
5 13 2 33 3 27
5 18 46 13 32 36
5 7 6 25 5 23
5 14 12 17 11 15
5 16 22 42 6 45
5 30 9 18 27 3
5 34 45 14 44 20
5 37 4 26 23 5
5 20 8 47 7 34
5 40 41 22 42 24
5 33 35 30 36 32
5 44 19 31 37 17
5 6 7 39 0 35
5 42 11 35 30 10
5 45 34 15 46 16
5 22 16 10 19 8
5 21 0 40 8 19
5 39 27 38 29 25
5 35 33 3 45 6
5 19 44 2 33 21
5 17 38 29 20 44
5 1 29 20 9 43
5 31 25 5 41 2
5 5 36 12 17 37
5 29 1 34 15 11
5 4 37 28 16 46
5 24 15 46 13 40
5 10 43 21 24 42
5 9 30 36 12 47
5 47 26 23 43 9
