OFF
48 48 0

0.346450874759487 3.64197001111025 5.05618357348335
-0.346450874759487 3.64197001111025 5.05618357348335
3.64197001111025 0.346450874759487 5.05618357348335
0.346450874759487 5.05618357348335 3.64197001111025
3.64197001111025 -0.346450874759487 5.05618357348335
-0.346450874759487 5.05618357348335 3.64197001111025
-3.64197001111025 0.346450874759487 5.05618357348335
3.64197001111025 5.05618357348335 0.346450874759487
5.05618357348335 0.346450874759487 3.64197001111025
-3.64197001111025 -0.346450874759487 5.05618357348335
3.64197001111025 5.05618357348335 -0.346450874759487
5.05618357348335 -0.346450874759487 3.64197001111025
0.346450874759487 -3.64197001111025 5.05618357348335
-3.64197001111025 5.05618357348335 0.346450874759487
5.05618357348335 3.64197001111025 0.346450874759487
-5.05618357348335 0.346450874759487 3.64197001111025
-0.346450874759487 -3.64197001111025 5.05618357348335
-3.64197001111025 5.05618357348335 -0.346450874759487
5.05618357348335 3.64197001111025 -0.346450874759487
-5.05618357348335 -0.346450874759487 3.64197001111025
0.346450874759487 5.05618357348335 -3.64197001111025
5.05618357348335 -3.64197001111025 0.346450874759487
-5.05618357348335 3.64197001111025 0.346450874759487
0.346450874759487 -5.05618357348335 3.64197001111025
-0.346450874759487 5.05618357348335 -3.64197001111025
5.05618357348335 -3.64197001111025 -0.346450874759487
-5.05618357348335 3.64197001111025 -0.346450874759487
-0.346450874759487 -5.05618357348335 3.64197001111025
5.05618357348335 0.346450874759487 -3.64197001111025
-5.05618357348335 -3.64197001111025 0.346450874759487
3.64197001111025 -5.05618357348335 0.346450874759487
0.346450874759487 3.64197001111025 -5.05618357348335
5.05618357348335 -0.346450874759487 -3.64197001111025
-5.05618357348335 -3.64197001111025 -0.346450874759487
3.64197001111025 -5.05618357348335 -0.346450874759487
-0.346450874759487 3.64197001111025 -5.05618357348335
-5.05618357348335 0.346450874759487 -3.64197001111025
-3.64197001111025 -5.05618357348335 0.346450874759487
3.64197001111025 0.346450874759487 -5.05618357348335
-5.05618357348335 -0.346450874759487 -3.64197001111025
-3.64197001111025 -5.05618357348335 -0.346450874759487
3.64197001111025 -0.346450874759487 -5.05618357348335
0.346450874759487 -5.05618357348335 -3.64197001111025
-3.64197001111025 0.346450874759487 -5.05618357348335
-0.346450874759487 -5.05618357348335 -3.64197001111025
-3.64197001111025 -0.346450874759487 -5.05618357348335
0.346450874759487 -3.64197001111025 -5.05618357348335
-0.346450874759487 -3.64197001111025 -5.05618357348335

5 43 22 3 28 41
5 0 10 32 23 16
5 25 44 43 10 14
5 23 2 18 46 44
5 2 18 24 15 9
5 41 21 27 39 43
5 27 6 26 47 42
5 8 1 17 38 32
5 28 35 13 2 11
5 32 47 37 4 8
5 46 30 8 20 35
5 38 14 5 36 45
5 3 4 25 31 24
5 26 20 41 40 29
5 12 34 28 3 1
5 36 31 7 6 19
5 15 0 10 43 39
5 11 16 40 41 28
5 13 19 12 14 10
5 18 24 45 34 21
5 7 11 16 22 17
5 14 5 9 30 25
5 16 40 36 5 0
5 30 8 1 29 40
5 34 28 35 33 37
5 37 15 0 21 34
5 20 41 21 0 5
5 40 36 31 25 30
5 33 42 38 17 22
5 44 43 22 16 23
5 6 26 20 8 4
5 42 38 14 12 27
5 45 29 23 32 38
5 22 3 4 37 33
5 21 27 6 7 18
5 39 46 30 9 15
5 35 13 19 44 46
5 19 12 34 45 36
5 17 39 46 18 7
5 1 17 39 27 12
5 31 7 11 42 47
5 5 9 33 35 20
5 29 23 2 13 26
5 4 25 44 19 6
5 24 45 29 1 3
5 10 32 47 26 13
5 9 33 42 11 2
5 47 37 15 24 31
