OFF
48 24 0

0.482478617078917 2.55510932982289 3.96932289219598
-0.482478617078917 2.55510932982289 3.96932289219598
2.55510932982289 0.482478617078917 3.96932289219598
0.482478617078917 3.96932289219598 2.55510932982289
2.55510932982289 -0.482478617078917 3.96932289219598
-0.482478617078917 3.96932289219598 2.55510932982289
-2.55510932982289 0.482478617078917 3.96932289219598
2.55510932982289 3.96932289219598 0.482478617078917
3.96932289219598 0.482478617078917 2.55510932982289
-2.55510932982289 -0.482478617078917 3.96932289219598
2.55510932982289 3.96932289219598 -0.482478617078917
3.96932289219598 -0.482478617078917 2.55510932982289
0.482478617078917 -2.55510932982289 3.96932289219598
-2.55510932982289 3.96932289219598 0.482478617078917
3.96932289219598 2.55510932982289 0.482478617078917
-3.96932289219598 0.482478617078917 2.55510932982289
-0.482478617078917 -2.55510932982289 3.96932289219598
-2.55510932982289 3.96932289219598 -0.482478617078917
3.96932289219598 2.55510932982289 -0.482478617078917
-3.96932289219598 -0.482478617078917 2.55510932982289
0.482478617078917 3.96932289219598 -2.55510932982289
3.96932289219598 -2.55510932982289 0.482478617078917
-3.96932289219598 2.55510932982289 0.482478617078917
0.482478617078917 -3.96932289219598 2.55510932982289
-0.482478617078917 3.96932289219598 -2.55510932982289
3.96932289219598 -2.55510932982289 -0.482478617078917
-3.96932289219598 2.55510932982289 -0.482478617078917
-0.482478617078917 -3.96932289219598 2.55510932982289
3.96932289219598 0.482478617078917 -2.55510932982289
-3.96932289219598 -2.55510932982289 0.482478617078917
2.55510932982289 -3.96932289219598 0.482478617078917
0.482478617078917 2.55510932982289 -3.96932289219598
3.96932289219598 -0.482478617078917 -2.55510932982289
-3.96932289219598 -2.55510932982289 -0.482478617078917
2.55510932982289 -3.96932289219598 -0.482478617078917
-0.482478617078917 2.55510932982289 -3.96932289219598
-3.96932289219598 0.482478617078917 -2.55510932982289
-2.55510932982289 -3.96932289219598 0.482478617078917
2.55510932982289 0.482478617078917 -3.96932289219598
-3.96932289219598 -0.482478617078917 -2.55510932982289
-2.55510932982289 -3.96932289219598 -0.482478617078917
2.55510932982289 -0.482478617078917 -3.96932289219598
0.482478617078917 -3.96932289219598 -2.55510932982289
-2.55510932982289 0.482478617078917 -3.96932289219598
-0.482478617078917 -3.96932289219598 -2.55510932982289
-2.55510932982289 -0.482478617078917 -3.96932289219598
0.482478617078917 -2.55510932982289 -3.96932289219598
-0.482478617078917 -2.55510932982289 -3.96932289219598

8 43 10 34 45 14 44 24 21
8 0 21 29 1 34 15 8 40
8 25 31 0 21 24 4 41 5
8 23 32 39 27 38 29 21 43
8 2 13 37 4 26 23 3 33
8 41 40 17 38 29 20 42 22
8 8 20 42 11 35 30 7 47
8 28 3 23 32 1 34 10 16
8 46 18 26 47 7 39 32 13
8 3 28 36 5 41 22 14 45
8 26 47 16 22 42 6 43 23
8 12 14 22 16 10 19 11 17
8 36 5 27 39 0 40 17 12
8 15 24 44 19 31 37 13 46
8 13 2 38 17 11 35 1 32
8 18 46 12 14 44 2 38 27
8 7 6 43 10 19 31 0 39
8 30 9 45 34 15 46 12 36
8 37 4 41 40 8 47 16 28
8 20 8 15 24 4 26 18 9
8 33 35 1 29 20 9 45 3
8 44 19 11 42 6 25 33 2
8 6 7 30 9 18 27 5 25
8 35 33 25 31 37 28 36 30
