OFF
120 120 0

0.583126702293754 0.618033988749895 5.76271350385248
-0.583126702293754 0.618033988749895 5.76271350385248
0.583126702293754 -0.618033988749895 5.76271350385248
2.20116069104365 1.61803398874989 5.14467951510258
-0.583126702293754 -0.618033988749895 5.76271350385248
2.56155281280883 2.56155281280883 4.56155281280883
3.20116069104365 1.00000000000000 4.76271350385248
-2.20116069104365 1.61803398874989 5.14467951510258
2.20116069104365 -1.61803398874989 5.14467951510258
3.56155281280883 1.94351882405894 4.17958680155873
-2.56155281280883 2.56155281280883 4.56155281280883
2.56155281280883 -2.56155281280883 4.56155281280883
-3.20116069104365 1.00000000000000 4.76271350385248
3.20116069104365 -1.00000000000000 4.76271350385248
-2.20116069104365 -1.61803398874989 5.14467951510258
1.94351882405894 4.17958680155873 3.56155281280883
-3.56155281280883 1.94351882405894 4.17958680155873
3.56155281280883 -1.94351882405894 4.17958680155873
-2.56155281280883 -2.56155281280883 4.56155281280883
1.00000000000000 4.76271350385248 3.20116069104365
-3.20116069104365 -1.00000000000000 4.76271350385248
2.56155281280883 4.56155281280883 2.56155281280883
4.56155281280883 2.56155281280883 2.56155281280883
-1.94351882405894 4.17958680155873 3.56155281280883
1.94351882405894 -4.17958680155873 3.56155281280883
-3.56155281280883 -1.94351882405894 4.17958680155873
1.61803398874989 5.14467951510258 2.20116069104365
5.14467951510258 2.20116069104365 1.61803398874989
-1.00000000000000 4.76271350385248 3.20116069104365
1.00000000000000 -4.76271350385248 3.20116069104365
4.17958680155873 3.56155281280883 1.94351882405894
-2.56155281280883 4.56155281280883 2.56155281280883
2.56155281280883 -4.56155281280883 2.56155281280883
-4.56155281280883 2.56155281280883 2.56155281280883
4.56155281280883 -2.56155281280883 2.56155281280883
-1.94351882405894 -4.17958680155873 3.56155281280883
4.76271350385248 3.20116069104365 1.00000000000000
-1.61803398874989 5.14467951510258 2.20116069104365
1.61803398874989 -5.14467951510258 2.20116069104365
-5.14467951510258 2.20116069104365 1.61803398874989
5.14467951510258 -2.20116069104365 1.61803398874989
-1.00000000000000 -4.76271350385248 3.20116069104365
-4.17958680155873 3.56155281280883 1.94351882405894
4.17958680155873 -3.56155281280883 1.94351882405894
-2.56155281280883 -4.56155281280883 2.56155281280883
-4.56155281280883 -2.56155281280883 2.56155281280883
0.618033988749895 5.76271350385248 0.583126702293754
5.76271350385248 0.583126702293754 0.618033988749895
-4.76271350385248 3.20116069104365 1.00000000000000
4.76271350385248 -3.20116069104365 1.00000000000000
-1.61803398874989 -5.14467951510258 2.20116069104365
-5.14467951510258 -2.20116069104365 1.61803398874989
0.618033988749895 5.76271350385248 -0.583126702293754
5.76271350385248 -0.583126702293754 0.618033988749895
-4.17958680155873 -3.56155281280883 1.94351882405894
-0.618033988749895 5.76271350385248 0.583126702293754
5.76271350385248 0.583126702293754 -0.618033988749895
4.76271350385248 3.20116069104365 -1.00000000000000
0.618033988749895 -5.76271350385248 0.583126702293754
-5.76271350385248 0.583126702293754 0.618033988749895
-4.76271350385248 -3.20116069104365 1.00000000000000
-0.618033988749895 5.76271350385248 -0.583126702293754
5.76271350385248 -0.583126702293754 -0.618033988749895
4.17958680155873 3.56155281280883 -1.94351882405894
0.618033988749895 -5.76271350385248 -0.583126702293754
-5.76271350385248 -0.583126702293754 0.618033988749895
5.14467951510258 2.20116069104365 -1.61803398874989
-0.618033988749895 -5.76271350385248 0.583126702293754
-5.76271350385248 0.583126702293754 -0.618033988749895
-4.76271350385248 3.20116069104365 -1.00000000000000
4.76271350385248 -3.20116069104365 -1.00000000000000
1.61803398874989 5.14467951510258 -2.20116069104365
4.56155281280883 2.56155281280883 -2.56155281280883
-0.618033988749895 -5.76271350385248 -0.583126702293754
-5.76271350385248 -0.583126702293754 -0.618033988749895
-4.17958680155873 3.56155281280883 -1.94351882405894
4.17958680155873 -3.56155281280883 -1.94351882405894
2.56155281280883 4.56155281280883 -2.56155281280883
-5.14467951510258 2.20116069104365 -1.61803398874989
5.14467951510258 -2.20116069104365 -1.61803398874989
1.00000000000000 4.76271350385248 -3.20116069104365
-4.76271350385248 -3.20116069104365 -1.00000000000000
-1.61803398874989 5.14467951510258 -2.20116069104365
1.61803398874989 -5.14467951510258 -2.20116069104365
-4.56155281280883 2.56155281280883 -2.56155281280883
4.56155281280883 -2.56155281280883 -2.56155281280883
1.94351882405894 4.17958680155873 -3.56155281280883
-4.17958680155873 -3.56155281280883 -1.94351882405894
-2.56155281280883 4.56155281280883 -2.56155281280883
2.56155281280883 -4.56155281280883 -2.56155281280883
-5.14467951510258 -2.20116069104365 -1.61803398874989
-1.00000000000000 4.76271350385248 -3.20116069104365
1.00000000000000 -4.76271350385248 -3.20116069104365
3.56155281280883 1.94351882405894 -4.17958680155873
-1.61803398874989 -5.14467951510258 -2.20116069104365
-4.56155281280883 -2.56155281280883 -2.56155281280883
-1.94351882405894 4.17958680155873 -3.56155281280883
1.94351882405894 -4.17958680155873 -3.56155281280883
3.20116069104365 1.00000000000000 -4.76271350385248
-2.56155281280883 -4.56155281280883 -2.56155281280883
2.56155281280883 2.56155281280883 -4.56155281280883
-1.00000000000000 -4.76271350385248 -3.20116069104365
-3.56155281280883 1.94351882405894 -4.17958680155873
3.56155281280883 -1.94351882405894 -4.17958680155873
2.20116069104365 1.61803398874989 -5.14467951510258
-1.94351882405894 -4.17958680155873 -3.56155281280883
-3.20116069104365 1.00000000000000 -4.76271350385248
3.20116069104365 -1.00000000000000 -4.76271350385248
-2.56155281280883 2.56155281280883 -4.56155281280883
2.56155281280883 -2.56155281280883 -4.56155281280883
-3.56155281280883 -1.94351882405894 -4.17958680155873
-2.20116069104365 1.61803398874989 -5.14467951510258
2.20116069104365 -1.61803398874989 -5.14467951510258
-3.20116069104365 -1.00000000000000 -4.76271350385248
-2.56155281280883 -2.56155281280883 -4.56155281280883
0.583126702293754 0.618033988749895 -5.76271350385248
-2.20116069104365 -1.61803398874989 -5.14467951510258
-0.583126702293754 0.618033988749895 -5.76271350385248
0.583126702293754 -0.618033988749895 -5.76271350385248
-0.583126702293754 -0.618033988749895 -5.76271350385248

5 75 12 118 117 24
5 21 88 11 13 95
5 28 25 86 71 94
5 90 118 14 25 56
5 14 73 37 23 118
5 94 68 79 76 55
5 20 87 9 3 112
5 9 29 61 46 87
5 4 40 48 33 98
5 97 81 47 62 16
5 35 49 68 65 93
5 42 106 2 1 97
5 80 103 23 37 38
5 44 89 10 12 72
5 99 32 108 106 22
5 119 79 69 84 6
5 41 16 97 83 82
5 70 105 30 27 78
5 31 77 18 20 85
5 79 119 8 17 68
5 55 111 6 5 92
5 102 101 46 61 43
5 111 55 94 105 0
5 57 96 43 40 90
5 48 15 87 90 40
5 52 3 106 108 41
5 71 62 78 75 58
5 107 43 102 111 14
5 108 109 33 48 32
5 51 2 116 110 47
5 74 82 41 44 36
5 17 19 73 58 75
5 11 10 85 70 88
5 8 64 26 15 119
5 106 42 103 112 3
5 30 98 4 0 105
5 53 26 92 89 69
5 78 115 7 16 62
5 98 30 110 116 7
5 13 76 16 7 116
5 65 37 101 99 57
5 88 21 114 113 34
5 96 57 65 68 17
5 22 85 31 28 114
5 118 90 57 72 12
5 112 58 71 86 4
5 10 11 84 69 89
5 32 99 5 6 84
5 93 92 55 52 54
5 49 35 63 66 39
5 36 23 76 79 51
5 67 116 13 11 80
5 81 97 42 39 66
5 104 46 83 97 1
5 116 67 82 96 2
5 39 0 111 102 53
5 24 60 56 53 102
5 38 47 51 54 52
5 7 61 50 35 115
5 76 13 117 118 23
5 100 114 22 36 44
5 47 38 80 77 81
5 5 18 72 57 99
5 25 28 64 67 63
5 117 66 81 95 13
5 113 54 93 104 8
5 2 51 36 22 106
5 23 36 74 59 103
5 72 34 88 91 18
5 86 69 53 56 25
5 69 86 54 51 79
5 58 112 20 18 91
5 19 17 96 82 83
5 103 80 67 64 42
5 29 9 105 94 71
5 87 20 115 119 15
5 26 53 39 42 64
5 15 48 62 47 110
5 34 72 44 41 108
5 92 93 35 50 26
5 83 56 90 87 46
5 46 104 12 10 101
5 105 70 59 74 9
5 16 41 52 55 76
5 82 74 66 63 67
5 89 44 100 98 33
5 91 110 15 26 50
5 45 84 32 29 100
5 3 52 38 24 117
5 54 113 0 4 86
5 37 65 27 30 73
5 56 83 19 21 60
5 73 14 107 109 19
5 115 78 70 85 20
5 63 6 119 115 35
5 59 50 91 88 70
5 84 45 77 80 11
5 64 8 113 114 28
5 101 102 24 38 37
5 12 75 17 8 104
5 33 95 21 19 109
5 27 1 104 93 65
5 43 107 1 2 96
5 109 108 34 49 31
5 66 117 3 9 74
5 77 31 109 107 45
5 50 59 40 43 61
5 114 100 45 60 21
5 18 5 95 81 77
5 0 39 49 34 113
5 40 4 112 103 59
5 60 24 75 78 27
5 62 71 29 32 48
5 1 27 60 45 107
5 6 63 25 14 111
5 68 94 28 31 49
5 61 7 98 100 29
5 110 91 58 73 30
5 95 33 89 92 5
5 85 22 99 101 10
