OFF
120 120 0

0.312433545057020 1.50374485868696 6.48713990944810
-0.312433545057020 1.50374485868696 6.48713990944810
0.312433545057020 -1.50374485868696 6.48713990944810
1.93046753380691 2.50374485868696 5.86910592069820
-0.312433545057020 -1.50374485868696 6.48713990944810
2.12356208387777 3.00927295381484 5.55667237564118
4.36357782557032 1.00000000000000 4.93974048762175
-1.93046753380691 2.50374485868696 5.86910592069820
1.93046753380691 -2.50374485868696 5.86910592069820
4.55667237564118 1.50552809512788 4.62730694256473
-2.12356208387777 3.00927295381484 5.55667237564118
2.12356208387777 -3.00927295381484 5.55667237564118
-4.36357782557032 1.00000000000000 4.93974048762175
4.36357782557032 -1.00000000000000 4.93974048762175
-1.93046753380691 -2.50374485868696 5.86910592069820
1.50552809512788 4.62730694256473 4.55667237564118
-4.55667237564118 1.50552809512788 4.62730694256473
4.55667237564118 -1.50552809512788 4.62730694256473
-2.12356208387777 -3.00927295381484 5.55667237564118
1.00000000000000 4.93974048762175 4.36357782557032
-4.36357782557032 -1.00000000000000 4.93974048762175
3.00927295381484 5.55667237564118 2.12356208387777
5.55667237564118 2.12356208387777 3.00927295381484
-1.50552809512788 4.62730694256473 4.55667237564118
1.50552809512788 -4.62730694256473 4.55667237564118
-4.55667237564118 -1.50552809512788 4.62730694256473
2.50374485868696 5.86910592069820 1.93046753380691
5.86910592069820 1.93046753380691 2.50374485868696
-1.00000000000000 4.93974048762175 4.36357782557032
1.00000000000000 -4.93974048762175 4.36357782557032
4.62730694256473 4.55667237564118 1.50552809512788
-3.00927295381484 5.55667237564118 2.12356208387777
3.00927295381484 -5.55667237564118 2.12356208387777
-5.55667237564118 2.12356208387777 3.00927295381484
5.55667237564118 -2.12356208387777 3.00927295381484
-1.50552809512788 -4.62730694256473 4.55667237564118
4.93974048762175 4.36357782557032 1.00000000000000
-2.50374485868696 5.86910592069820 1.93046753380691
2.50374485868696 -5.86910592069820 1.93046753380691
-5.86910592069820 1.93046753380691 2.50374485868696
5.86910592069820 -1.93046753380691 2.50374485868696
-1.00000000000000 -4.93974048762175 4.36357782557032
-4.62730694256473 4.55667237564118 1.50552809512788
4.62730694256473 -4.55667237564118 1.50552809512788
-3.00927295381484 -5.55667237564118 2.12356208387777
-5.55667237564118 -2.12356208387777 3.00927295381484
1.50374485868696 6.48713990944810 0.312433545057020
6.48713990944810 0.312433545057020 1.50374485868696
-4.93974048762175 4.36357782557032 1.00000000000000
4.93974048762175 -4.36357782557032 1.00000000000000
-2.50374485868696 -5.86910592069820 1.93046753380691
-5.86910592069820 -1.93046753380691 2.50374485868696
1.50374485868696 6.48713990944810 -0.312433545057020
6.48713990944810 -0.312433545057020 1.50374485868696
-4.62730694256473 -4.55667237564118 1.50552809512788
-1.50374485868696 6.48713990944810 0.312433545057020
6.48713990944810 0.312433545057020 -1.50374485868696
4.93974048762175 4.36357782557032 -1.00000000000000
1.50374485868696 -6.48713990944810 0.312433545057020
-6.48713990944810 0.312433545057020 1.50374485868696
-4.93974048762175 -4.36357782557032 1.00000000000000
-1.50374485868696 6.48713990944810 -0.312433545057020
6.48713990944810 -0.312433545057020 -1.50374485868696
4.62730694256473 4.55667237564118 -1.50552809512788
1.50374485868696 -6.48713990944810 -0.312433545057020
-6.48713990944810 -0.312433545057020 1.50374485868696
5.86910592069820 1.93046753380691 -2.50374485868696
-1.50374485868696 -6.48713990944810 0.312433545057020
-6.48713990944810 0.312433545057020 -1.50374485868696
-4.93974048762175 4.36357782557032 -1.00000000000000
4.93974048762175 -4.36357782557032 -1.00000000000000
2.50374485868696 5.86910592069820 -1.93046753380691
5.55667237564118 2.12356208387777 -3.00927295381484
-1.50374485868696 -6.48713990944810 -0.312433545057020
-6.48713990944810 -0.312433545057020 -1.50374485868696
-4.62730694256473 4.55667237564118 -1.50552809512788
4.62730694256473 -4.55667237564118 -1.50552809512788
3.00927295381484 5.55667237564118 -2.12356208387777
-5.86910592069820 1.93046753380691 -2.50374485868696
5.86910592069820 -1.93046753380691 -2.50374485868696
1.00000000000000 4.93974048762175 -4.36357782557032
-4.93974048762175 -4.36357782557032 -1.00000000000000
-2.50374485868696 5.86910592069820 -1.93046753380691
2.50374485868696 -5.86910592069820 -1.93046753380691
-5.55667237564118 2.12356208387777 -3.00927295381484
5.55667237564118 -2.12356208387777 -3.00927295381484
1.50552809512788 4.62730694256473 -4.55667237564118
-4.62730694256473 -4.55667237564118 -1.50552809512788
-3.00927295381484 5.55667237564118 -2.12356208387777
3.00927295381484 -5.55667237564118 -2.12356208387777
-5.86910592069820 -1.93046753380691 -2.50374485868696
-1.00000000000000 4.93974048762175 -4.36357782557032
1.00000000000000 -4.93974048762175 -4.36357782557032
4.55667237564118 1.50552809512788 -4.62730694256473
-2.50374485868696 -5.86910592069820 -1.93046753380691
-5.55667237564118 -2.12356208387777 -3.00927295381484
-1.50552809512788 4.62730694256473 -4.55667237564118
1.50552809512788 -4.62730694256473 -4.55667237564118
4.36357782557032 1.00000000000000 -4.93974048762175
-3.00927295381484 -5.55667237564118 -2.12356208387777
2.12356208387777 3.00927295381484 -5.55667237564118
-1.00000000000000 -4.93974048762175 -4.36357782557032
-4.55667237564118 1.50552809512788 -4.62730694256473
4.55667237564118 -1.50552809512788 -4.62730694256473
1.93046753380691 2.50374485868696 -5.86910592069820
-1.50552809512788 -4.62730694256473 -4.55667237564118
-4.36357782557032 1.00000000000000 -4.93974048762175
4.36357782557032 -1.00000000000000 -4.93974048762175
-2.12356208387777 3.00927295381484 -5.55667237564118
2.12356208387777 -3.00927295381484 -5.55667237564118
-4.55667237564118 -1.50552809512788 -4.62730694256473
-1.93046753380691 2.50374485868696 -5.86910592069820
1.93046753380691 -2.50374485868696 -5.86910592069820
-4.36357782557032 -1.00000000000000 -4.93974048762175
-2.12356208387777 -3.00927295381484 -5.55667237564118
0.312433545057020 1.50374485868696 -6.48713990944810
-1.93046753380691 -2.50374485868696 -5.86910592069820
-0.312433545057020 1.50374485868696 -6.48713990944810
0.312433545057020 -1.50374485868696 -6.48713990944810
-0.312433545057020 -1.50374485868696 -6.48713990944810

5 75 46 27 68 34
5 21 72 109 28 105
5 28 6 49 42 83
5 90 75 46 99 36
5 14 17 56 45 98
5 94 35 0 114 19
5 20 48 91 35 104
5 9 62 112 0 114
5 4 50 105 3 118
5 97 117 82 64 31
5 35 0 26 67 77
5 42 52 66 59 85
5 80 106 81 63 50
5 44 95 108 29 86
5 99 45 10 92 15
5 119 94 35 104 2
5 41 13 36 54 71
5 70 29 20 103 39
5 31 84 114 19 97
5 79 63 55 89 48
5 55 39 54 71 73
5 102 65 14 117 11
5 111 93 53 84 13
5 57 19 12 93 51
5 48 91 98 16 79
5 52 66 76 37 58
5 71 15 4 100 41
5 107 57 19 97 7
5 108 77 22 113 17
5 51 42 52 44 57
5 74 116 103 39 56
5 17 56 104 2 108
5 11 44 95 6 102
5 8 25 68 34 106
5 106 81 41 96 8
5 30 61 78 47 95
5 53 8 25 66 59
5 78 87 58 88 49
5 98 70 29 86 14
5 13 36 80 24 111
5 65 14 17 78 47
5 88 33 18 80 24
5 96 118 83 61 32
5 22 11 44 57 87
5 118 83 24 111 4
5 112 110 59 85 12
5 10 21 72 20 103
5 32 85 100 41 96
5 93 53 8 115 18
5 49 92 113 17 78
5 36 80 106 9 90
5 67 51 42 83 61
5 81 41 13 110 27
5 104 102 65 72 20
5 116 103 47 95 6
5 39 54 64 31 70
5 24 1 37 58 88
5 38 97 117 11 91
5 7 9 62 33 107
5 76 67 51 62 33
5 100 88 33 107 25
5 47 3 16 79 65
5 5 31 84 13 110
5 25 68 111 4 100
5 117 82 23 112 0
5 113 69 28 105 3
5 2 38 97 7 119
5 23 2 38 55 89
5 72 109 99 36 54
5 86 119 94 52 44
5 69 28 6 102 40
5 58 40 30 94 52
5 19 12 60 30 94
5 103 47 3 118 10
5 29 20 48 43 82
5 87 58 40 74 22
5 26 86 119 5 101
5 15 4 50 46 99
5 34 5 31 70 75
5 92 113 69 76 37
5 83 24 1 109 28
5 46 27 43 82 64
5 105 115 71 73 21
5 16 74 116 1 109
5 82 23 2 108 29
5 89 34 5 101 23
5 91 98 70 75 38
5 45 10 21 81 63
5 3 16 74 22 113
5 54 64 79 65 72
5 37 96 118 10 92
5 56 104 102 40 74
5 73 90 75 38 55
5 115 71 15 116 1
5 63 55 39 56 45
5 59 7 9 90 53
5 84 114 89 48 43
5 64 79 63 50 46
5 101 107 57 87 26
5 12 60 101 23 112
5 33 18 32 69 76
5 27 43 73 21 81
5 43 73 90 53 84
5 109 99 45 98 16
5 66 76 67 77 60
5 77 22 11 91 35
5 50 105 115 18 80
5 114 89 34 106 9
5 18 32 85 12 93
5 0 26 86 14 117
5 40 30 61 32 69
5 60 101 107 25 66
5 62 112 110 27 68
5 1 37 96 8 115
5 6 49 92 15 116
5 68 111 93 51 62
5 61 78 87 26 67
5 110 59 7 119 5
5 95 108 77 60 30
5 85 100 88 49 42
