OFF
120 120 0

0.698478440423237 1.61803398874989 7.68274226368674
-0.698478440423237 1.61803398874989 7.68274226368674
0.698478440423237 -1.61803398874989 7.68274226368674
2.31651242917313 2.61803398874989 7.06470827493684
-0.698478440423237 -1.61803398874989 7.68274226368674
2.74819584576371 3.74819584576371 6.36622983451361
4.93454641792303 1.00000000000000 6.06470827493684
-2.31651242917313 2.61803398874989 7.06470827493684
2.31651242917313 -2.61803398874989 7.06470827493684
5.36622983451361 2.13016185701382 5.36622983451361
-2.74819584576371 3.74819584576371 6.36622983451361
2.74819584576371 -3.74819584576371 6.36622983451361
-4.93454641792303 1.00000000000000 6.06470827493684
4.93454641792303 -1.00000000000000 6.06470827493684
-2.31651242917313 -2.61803398874989 7.06470827493684
2.13016185701382 5.36622983451361 5.36622983451361
-5.36622983451361 2.13016185701382 5.36622983451361
5.36622983451361 -2.13016185701382 5.36622983451361
-2.74819584576371 -3.74819584576371 6.36622983451361
1.00000000000000 6.06470827493684 4.93454641792303
-4.93454641792303 -1.00000000000000 6.06470827493684
3.74819584576371 6.36622983451361 2.74819584576371
6.36622983451361 2.74819584576371 3.74819584576371
-2.13016185701382 5.36622983451361 5.36622983451361
2.13016185701382 -5.36622983451361 5.36622983451361
-5.36622983451361 -2.13016185701382 5.36622983451361
2.61803398874989 7.06470827493684 2.31651242917313
7.06470827493684 2.31651242917313 2.61803398874989
-1.00000000000000 6.06470827493684 4.93454641792303
1.00000000000000 -6.06470827493684 4.93454641792303
5.36622983451361 5.36622983451361 2.13016185701382
-3.74819584576371 6.36622983451361 2.74819584576371
3.74819584576371 -6.36622983451361 2.74819584576371
-6.36622983451361 2.74819584576371 3.74819584576371
6.36622983451361 -2.74819584576371 3.74819584576371
-2.13016185701382 -5.36622983451361 5.36622983451361
6.06470827493684 4.93454641792303 1.00000000000000
-2.61803398874989 7.06470827493684 2.31651242917313
2.61803398874989 -7.06470827493684 2.31651242917313
-7.06470827493684 2.31651242917313 2.61803398874989
7.06470827493684 -2.31651242917313 2.61803398874989
-1.00000000000000 -6.06470827493684 4.93454641792303
-5.36622983451361 5.36622983451361 2.13016185701382
5.36622983451361 -5.36622983451361 2.13016185701382
-3.74819584576371 -6.36622983451361 2.74819584576371
-6.36622983451361 -2.74819584576371 3.74819584576371
1.61803398874989 7.68274226368674 0.698478440423237
7.68274226368674 0.698478440423237 1.61803398874989
-6.06470827493684 4.93454641792303 1.00000000000000
6.06470827493684 -4.93454641792303 1.00000000000000
-2.61803398874989 -7.06470827493684 2.31651242917313
-7.06470827493684 -2.31651242917313 2.61803398874989
1.61803398874989 7.68274226368674 -0.698478440423237
7.68274226368674 -0.698478440423237 1.61803398874989
-5.36622983451361 -5.36622983451361 2.13016185701382
-1.61803398874989 7.68274226368674 0.698478440423237
7.68274226368674 0.698478440423237 -1.61803398874989
6.06470827493684 4.93454641792303 -1.00000000000000
1.61803398874989 -7.68274226368674 0.698478440423237
-7.68274226368674 0.698478440423237 1.61803398874989
-6.06470827493684 -4.93454641792303 1.00000000000000
-1.61803398874989 7.68274226368674 -0.698478440423237
7.68274226368674 -0.698478440423237 -1.61803398874989
5.36622983451361 5.36622983451361 -2.13016185701382
1.61803398874989 -7.68274226368674 -0.698478440423237
-7.68274226368674 -0.698478440423237 1.61803398874989
7.06470827493684 2.31651242917313 -2.61803398874989
-1.61803398874989 -7.68274226368674 0.698478440423237
-7.68274226368674 0.698478440423237 -1.61803398874989
-6.06470827493684 4.93454641792303 -1.00000000000000
6.06470827493684 -4.93454641792303 -1.00000000000000
2.61803398874989 7.06470827493684 -2.31651242917313
6.36622983451361 2.74819584576371 -3.74819584576371
-1.61803398874989 -7.68274226368674 -0.698478440423237
-7.68274226368674 -0.698478440423237 -1.61803398874989
-5.36622983451361 5.36622983451361 -2.13016185701382
5.36622983451361 -5.36622983451361 -2.13016185701382
3.74819584576371 6.36622983451361 -2.74819584576371
-7.06470827493684 2.31651242917313 -2.61803398874989
7.06470827493684 -2.31651242917313 -2.61803398874989
1.00000000000000 6.06470827493684 -4.93454641792303
-6.06470827493684 -4.93454641792303 -1.00000000000000
-2.61803398874989 7.06470827493684 -2.31651242917313
2.61803398874989 -7.06470827493684 -2.31651242917313
-6.36622983451361 2.74819584576371 -3.74819584576371
6.36622983451361 -2.74819584576371 -3.74819584576371
2.13016185701382 5.36622983451361 -5.36622983451361
-5.36622983451361 -5.36622983451361 -2.13016185701382
-3.74819584576371 6.36622983451361 -2.74819584576371
3.74819584576371 -6.36622983451361 -2.74819584576371
-7.06470827493684 -2.31651242917313 -2.61803398874989
-1.00000000000000 6.06470827493684 -4.93454641792303
1.00000000000000 -6.06470827493684 -4.93454641792303
5.36622983451361 2.13016185701382 -5.36622983451361
-2.61803398874989 -7.06470827493684 -2.31651242917313
-6.36622983451361 -2.74819584576371 -3.74819584576371
-2.13016185701382 5.36622983451361 -5.36622983451361
2.13016185701382 -5.36622983451361 -5.36622983451361
4.93454641792303 1.00000000000000 -6.06470827493684
-3.74819584576371 -6.36622983451361 -2.74819584576371
2.74819584576371 3.74819584576371 -6.36622983451361
-1.00000000000000 -6.06470827493684 -4.93454641792303
-5.36622983451361 2.13016185701382 -5.36622983451361
5.36622983451361 -2.13016185701382 -5.36622983451361
2.31651242917313 2.61803398874989 -7.06470827493684
-2.13016185701382 -5.36622983451361 -5.36622983451361
-4.93454641792303 1.00000000000000 -6.06470827493684
4.93454641792303 -1.00000000000000 -6.06470827493684
-2.74819584576371 3.74819584576371 -6.36622983451361
2.74819584576371 -3.74819584576371 -6.36622983451361
-5.36622983451361 -2.13016185701382 -5.36622983451361
-2.31651242917313 2.61803398874989 -7.06470827493684
2.31651242917313 -2.61803398874989 -7.06470827493684
-4.93454641792303 -1.00000000000000 -6.06470827493684
-2.74819584576371 -3.74819584576371 -6.36622983451361
0.698478440423237 1.61803398874989 -7.68274226368674
-2.31651242917313 -2.61803398874989 -7.06470827493684
-0.698478440423237 1.61803398874989 -7.68274226368674
0.698478440423237 -1.61803398874989 -7.68274226368674
-0.698478440423237 -1.61803398874989 -7.68274226368674

5 75 101 27 110 70
5 21 18 109 1 73
5 28 111 49 88 109
5 90 24 46 50 9
5 14 75 56 39 86
5 94 93 0 112 30
5 20 40 91 11 72
5 9 48 112 23 106
5 4 61 105 28 111
5 97 13 82 43 19
5 35 113 26 87 91
5 42 41 66 25 49
5 80 3 81 21 18
5 44 5 108 2 52
5 99 100 10 118 46
5 119 55 35 91 7
5 41 116 36 99 100
5 70 71 20 72 31
5 31 11 114 0 64
5 79 35 55 38 16
5 55 53 54 36 38
5 102 57 14 86 6
5 111 54 53 90 24
5 57 83 12 85 44
5 48 50 98 45 89
5 52 74 76 69 94
5 71 110 4 111 54
5 107 90 19 114 33
5 108 45 22 74 2
5 51 97 52 94 93
5 74 2 103 20 40
5 17 60 104 35 113
5 11 72 95 47 117
5 8 63 68 27 96
5 106 66 41 100 34
5 30 29 78 17 60
5 53 119 25 107 90
5 78 15 58 37 17
5 98 78 29 108 45
5 13 51 80 18 84
5 65 118 17 113 79
5 88 109 18 115 58
5 96 12 83 42 41
5 22 88 44 52 74
5 118 46 24 80 3
5 112 30 59 66 23
5 10 95 72 65 118
5 32 10 100 4 61
5 93 69 8 96 12
5 49 26 113 22 88
5 36 38 106 34 99
5 67 47 42 49 26
5 81 82 13 84 21
5 104 43 65 79 35
5 116 42 47 78 15
5 39 86 64 82 103
5 24 107 37 76 80
5 38 16 117 14 75
5 7 87 62 51 97
5 76 80 51 93 69
5 100 34 33 62 4
5 47 117 16 98 78
5 5 85 84 53 119
5 25 49 111 24 107
5 117 67 23 101 14
5 113 79 28 109 22
5 2 52 97 19 104
5 23 106 38 75 101
5 72 31 99 46 65
5 86 6 94 30 29
5 69 94 6 95 32
5 58 59 30 60 37
5 19 104 60 77 114
5 103 81 3 105 20
5 29 112 48 89 108
5 87 91 40 102 57
5 26 25 119 7 87
5 15 98 50 63 92
5 34 99 31 64 68
5 92 8 69 32 10
5 83 102 1 116 42
5 46 65 43 48 50
5 105 20 71 54 28
5 16 36 116 15 98
5 82 103 2 104 43
5 89 108 5 119 55
5 91 7 70 31 11
5 45 89 21 73 56
5 3 76 74 40 105
5 54 28 79 16 36
5 37 17 118 3 76
5 56 1 102 6 39
5 73 56 75 70 71
5 115 58 15 92 8
5 63 92 39 103 81
5 59 115 9 106 66
5 84 21 89 55 53
5 64 68 63 81 82
5 101 14 57 44 5
5 12 27 101 5 85
5 33 77 32 61 62
5 27 96 73 71 110
5 43 19 90 9 48
5 109 22 45 56 1
5 66 23 67 26 25
5 77 114 11 117 67
5 50 9 115 8 63
5 114 33 34 68 0
5 18 84 85 59 115
5 0 64 86 29 112
5 40 105 61 83 102
5 60 37 107 33 77
5 62 4 110 13 51
5 1 73 96 41 116
5 6 39 92 10 95
5 68 0 93 12 27
5 61 62 87 57 83
5 110 70 7 97 13
5 95 32 77 67 47
5 85 44 88 58 59
