OFF
120 120 0

0.373512898027520 1.51198310285809 6.66037749061223
-0.373512898027520 1.51198310285809 6.66037749061223
0.373512898027520 -1.51198310285809 6.66037749061223
1.99154688677742 2.51198310285809 6.04234350186233
-0.373512898027520 -1.51198310285809 6.66037749061223
2.22239055299490 3.11633966710309 5.66883060383481
4.43798693761733 1.00000000000000 5.10788655388050
-1.99154688677742 2.51198310285809 6.04234350186233
1.99154688677742 -2.51198310285809 6.04234350186233
4.66883060383481 1.60435656424500 4.73437365585298
-2.22239055299490 3.11633966710309 5.66883060383481
2.22239055299490 -3.11633966710309 5.66883060383481
-4.43798693761733 1.00000000000000 5.10788655388050
4.43798693761733 -1.00000000000000 5.10788655388050
-1.99154688677742 -2.51198310285809 6.04234350186233
1.60435656424500 4.73437365585298 4.66883060383481
-4.66883060383481 1.60435656424500 4.73437365585298
4.66883060383481 -1.60435656424500 4.73437365585298
-2.22239055299490 -3.11633966710309 5.66883060383481
1.00000000000000 5.10788655388050 4.43798693761733
-4.43798693761733 -1.00000000000000 5.10788655388050
3.11633966710309 5.66883060383481 2.22239055299490
5.66883060383481 2.22239055299490 3.11633966710309
-1.60435656424500 4.73437365585298 4.66883060383481
1.60435656424500 -4.73437365585298 4.66883060383481
-4.66883060383481 -1.60435656424500 4.73437365585298
2.51198310285809 6.04234350186233 1.99154688677742
6.04234350186233 1.99154688677742 2.51198310285809
-1.00000000000000 5.10788655388050 4.43798693761733
1.00000000000000 -5.10788655388050 4.43798693761733
4.73437365585298 4.66883060383481 1.60435656424500
-3.11633966710309 5.66883060383481 2.22239055299490
3.11633966710309 -5.66883060383481 2.22239055299490
-5.66883060383481 2.22239055299490 3.11633966710309
5.66883060383481 -2.22239055299490 3.11633966710309
-1.60435656424500 -4.73437365585298 4.66883060383481
5.10788655388050 4.43798693761733 1.00000000000000
-2.51198310285809 6.04234350186233 1.99154688677742
2.51198310285809 -6.04234350186233 1.99154688677742
-6.04234350186233 1.99154688677742 2.51198310285809
6.04234350186233 -1.99154688677742 2.51198310285809
-1.00000000000000 -5.10788655388050 4.43798693761733
-4.73437365585298 4.66883060383481 1.60435656424500
4.73437365585298 -4.66883060383481 1.60435656424500
-3.11633966710309 -5.66883060383481 2.22239055299490
-5.66883060383481 -2.22239055299490 3.11633966710309
1.51198310285809 6.66037749061223 0.373512898027520
6.66037749061223 0.373512898027520 1.51198310285809
-5.10788655388050 4.43798693761733 1.00000000000000
5.10788655388050 -4.43798693761733 1.00000000000000
-2.51198310285809 -6.04234350186233 1.99154688677742
-6.04234350186233 -1.99154688677742 2.51198310285809
1.51198310285809 6.66037749061223 -0.373512898027520
6.66037749061223 -0.373512898027520 1.51198310285809
-4.73437365585298 -4.66883060383481 1.60435656424500
-1.51198310285809 6.66037749061223 0.373512898027520
6.66037749061223 0.373512898027520 -1.51198310285809
5.10788655388050 4.43798693761733 -1.00000000000000
1.51198310285809 -6.66037749061223 0.373512898027520
-6.66037749061223 0.373512898027520 1.51198310285809
-5.10788655388050 -4.43798693761733 1.00000000000000
-1.51198310285809 6.66037749061223 -0.373512898027520
6.66037749061223 -0.373512898027520 -1.51198310285809
4.73437365585298 4.66883060383481 -1.60435656424500
1.51198310285809 -6.66037749061223 -0.373512898027520
-6.66037749061223 -0.373512898027520 1.51198310285809
6.04234350186233 1.99154688677742 -2.51198310285809
-1.51198310285809 -6.66037749061223 0.373512898027520
-6.66037749061223 0.373512898027520 -1.51198310285809
-5.10788655388050 4.43798693761733 -1.00000000000000
5.10788655388050 -4.43798693761733 -1.00000000000000
2.51198310285809 6.04234350186233 -1.99154688677742
5.66883060383481 2.22239055299490 -3.11633966710309
-1.51198310285809 -6.66037749061223 -0.373512898027520
-6.66037749061223 -0.373512898027520 -1.51198310285809
-4.73437365585298 4.66883060383481 -1.60435656424500
4.73437365585298 -4.66883060383481 -1.60435656424500
3.11633966710309 5.66883060383481 -2.22239055299490
-6.04234350186233 1.99154688677742 -2.51198310285809
6.04234350186233 -1.99154688677742 -2.51198310285809
1.00000000000000 5.10788655388050 -4.43798693761733
-5.10788655388050 -4.43798693761733 -1.00000000000000
-2.51198310285809 6.04234350186233 -1.99154688677742
2.51198310285809 -6.04234350186233 -1.99154688677742
-5.66883060383481 2.22239055299490 -3.11633966710309
5.66883060383481 -2.22239055299490 -3.11633966710309
1.60435656424500 4.73437365585298 -4.66883060383481
-4.73437365585298 -4.66883060383481 -1.60435656424500
-3.11633966710309 5.66883060383481 -2.22239055299490
3.11633966710309 -5.66883060383481 -2.22239055299490
-6.04234350186233 -1.99154688677742 -2.51198310285809
-1.00000000000000 5.10788655388050 -4.43798693761733
1.00000000000000 -5.10788655388050 -4.43798693761733
4.66883060383481 1.60435656424500 -4.73437365585298
-2.51198310285809 -6.04234350186233 -1.99154688677742
-5.66883060383481 -2.22239055299490 -3.11633966710309
-1.60435656424500 4.73437365585298 -4.66883060383481
1.60435656424500 -4.73437365585298 -4.66883060383481
4.43798693761733 1.00000000000000 -5.10788655388050
-3.11633966710309 -5.66883060383481 -2.22239055299490
2.22239055299490 3.11633966710309 -5.66883060383481
-1.00000000000000 -5.10788655388050 -4.43798693761733
-4.66883060383481 1.60435656424500 -4.73437365585298
4.66883060383481 -1.60435656424500 -4.73437365585298
1.99154688677742 2.51198310285809 -6.04234350186233
-1.60435656424500 -4.73437365585298 -4.66883060383481
-4.43798693761733 1.00000000000000 -5.10788655388050
4.43798693761733 -1.00000000000000 -5.10788655388050
-2.22239055299490 3.11633966710309 -5.66883060383481
2.22239055299490 -3.11633966710309 -5.66883060383481
-4.66883060383481 -1.60435656424500 -4.73437365585298
-1.99154688677742 2.51198310285809 -6.04234350186233
1.99154688677742 -2.51198310285809 -6.04234350186233
-4.43798693761733 -1.00000000000000 -5.10788655388050
-2.22239055299490 -3.11633966710309 -5.66883060383481
0.373512898027520 1.51198310285809 -6.66037749061223
-1.99154688677742 -2.51198310285809 -6.04234350186233
-0.373512898027520 1.51198310285809 -6.66037749061223
0.373512898027520 -1.51198310285809 -6.66037749061223
-0.373512898027520 -1.51198310285809 -6.66037749061223

5 75 30 27 68 34
5 21 107 109 28 105
5 28 34 49 42 83
5 90 61 46 99 36
5 14 53 56 45 98
5 94 4 0 114 19
5 20 88 91 35 104
5 9 103 112 0 114
5 4 94 105 3 118
5 97 96 82 64 31
5 35 15 26 67 77
5 42 63 66 59 85
5 80 95 81 63 50
5 44 106 108 29 86
5 99 12 10 92 15
5 119 50 35 104 2
5 41 22 36 54 71
5 70 18 20 103 39
5 31 113 114 19 97
5 79 52 55 89 48
5 55 51 54 71 73
5 102 25 14 117 11
5 111 56 53 84 13
5 57 10 12 93 51
5 48 100 98 16 79
5 52 79 76 37 58
5 71 0 4 100 41
5 107 21 19 97 7
5 108 36 22 113 17
5 51 55 52 44 57
5 74 112 103 39 56
5 17 93 104 2 108
5 11 81 95 6 102
5 8 65 68 34 106
5 106 44 41 96 8
5 30 75 78 47 95
5 53 14 25 66 59
5 78 73 58 88 49
5 98 32 29 86 14
5 13 77 80 24 111
5 65 8 17 78 47
5 88 20 18 80 24
5 96 97 83 61 32
5 22 41 44 57 87
5 118 38 24 111 4
5 112 74 59 85 12
5 10 57 72 20 103
5 32 98 100 41 96
5 93 17 8 115 18
5 49 114 113 17 78
5 36 108 106 9 90
5 67 39 42 83 61
5 81 11 13 110 27
5 104 68 65 72 20
5 116 62 47 95 6
5 39 67 64 31 70
5 24 23 37 58 88
5 38 118 117 11 91
5 7 47 62 33 107
5 76 54 51 62 33
5 100 48 33 107 25
5 47 7 16 79 65
5 5 69 84 13 110
5 25 102 111 4 100
5 117 37 23 112 0
5 113 31 28 105 3
5 2 83 97 7 119
5 23 24 38 55 89
5 72 101 99 36 54
5 86 105 94 52 44
5 69 5 6 102 40
5 58 27 30 94 52
5 19 45 60 30 94
5 103 9 3 118 10
5 29 33 48 43 82
5 87 43 40 74 22
5 26 115 119 5 101
5 15 35 50 46 99
5 34 28 31 70 75
5 92 84 69 76 37
5 83 2 1 109 28
5 46 40 43 82 64
5 105 86 71 73 21
5 16 110 116 1 109
5 82 1 2 108 29
5 89 6 5 101 23
5 91 85 70 75 38
5 45 19 21 81 63
5 3 59 74 22 113
5 54 76 79 65 72
5 37 117 118 10 92
5 56 111 102 40 74
5 73 78 75 38 55
5 115 26 15 116 1
5 63 42 39 56 45
5 59 3 9 90 53
5 84 92 89 48 43
5 64 66 63 50 46
5 101 72 57 87 26
5 12 99 101 23 112
5 33 29 32 69 76
5 27 58 73 21 81
5 43 87 90 53 84
5 109 60 45 98 16
5 66 64 67 77 60
5 77 13 11 91 35
5 50 119 115 18 80
5 114 49 34 106 9
5 18 70 85 12 93
5 0 71 86 14 117
5 40 46 61 32 69
5 60 109 107 25 66
5 62 116 110 27 68
5 1 82 96 8 115
5 6 89 92 15 116
5 68 104 93 51 62
5 61 90 87 26 67
5 110 16 7 119 5
5 95 80 77 60 30
5 85 91 88 49 42
