OFF
120 120 0

0.562073432809691 1.61803398874989 7.32562931751879
-0.562073432809691 1.61803398874989 7.32562931751879
0.562073432809691 -1.61803398874989 7.32562931751879
2.18010742155959 2.61803398874989 6.70759532876889
-0.562073432809691 -1.61803398874989 7.32562931751879
2.52748790720931 3.52748790720931 6.14552189595920
4.79814141030948 1.00000000000000 5.70759532876889
-2.18010742155959 2.61803398874989 6.70759532876889
2.18010742155959 -2.61803398874989 6.70759532876889
5.14552189595920 1.90945391845941 5.14552189595920
-2.52748790720931 3.52748790720931 6.14552189595920
2.52748790720931 -3.52748790720931 6.14552189595920
-4.79814141030948 1.00000000000000 5.70759532876889
4.79814141030948 -1.00000000000000 5.70759532876889
-2.18010742155959 -2.61803398874989 6.70759532876889
1.90945391845941 5.14552189595920 5.14552189595920
-5.14552189595920 1.90945391845941 5.14552189595920
5.14552189595920 -1.90945391845941 5.14552189595920
-2.52748790720931 -3.52748790720931 6.14552189595920
1.00000000000000 5.70759532876889 4.79814141030948
-4.79814141030948 -1.00000000000000 5.70759532876889
3.52748790720931 6.14552189595920 2.52748790720931
6.14552189595920 2.52748790720931 3.52748790720931
-1.90945391845941 5.14552189595920 5.14552189595920
1.90945391845941 -5.14552189595920 5.14552189595920
-5.14552189595920 -1.90945391845941 5.14552189595920
2.61803398874989 6.70759532876889 2.18010742155959
6.70759532876889 2.18010742155959 2.61803398874989
-1.00000000000000 5.70759532876889 4.79814141030948
1.00000000000000 -5.70759532876889 4.79814141030948
5.14552189595920 5.14552189595920 1.90945391845941
-3.52748790720931 6.14552189595920 2.52748790720931
3.52748790720931 -6.14552189595920 2.52748790720931
-6.14552189595920 2.52748790720931 3.52748790720931
6.14552189595920 -2.52748790720931 3.52748790720931
-1.90945391845941 -5.14552189595920 5.14552189595920
5.70759532876889 4.79814141030948 1.00000000000000
-2.61803398874989 6.70759532876889 2.18010742155959
2.61803398874989 -6.70759532876889 2.18010742155959
-6.70759532876889 2.18010742155959 2.61803398874989
6.70759532876889 -2.18010742155959 2.61803398874989
-1.00000000000000 -5.70759532876889 4.79814141030948
-5.14552189595920 5.14552189595920 1.90945391845941
5.14552189595920 -5.14552189595920 1.90945391845941
-3.52748790720931 -6.14552189595920 2.52748790720931
-6.14552189595920 -2.52748790720931 3.52748790720931
1.61803398874989 7.32562931751879 0.562073432809691
7.32562931751879 0.562073432809691 1.61803398874989
-5.70759532876889 4.79814141030948 1.00000000000000
5.70759532876889 -4.79814141030948 1.00000000000000
-2.61803398874989 -6.70759532876889 2.18010742155959
-6.70759532876889 -2.18010742155959 2.61803398874989
1.61803398874989 7.32562931751879 -0.562073432809691
7.32562931751879 -0.562073432809691 1.61803398874989
-5.14552189595920 -5.14552189595920 1.90945391845941
-1.61803398874989 7.32562931751879 0.562073432809691
7.32562931751879 0.562073432809691 -1.61803398874989
5.70759532876889 4.79814141030948 -1.00000000000000
1.61803398874989 -7.32562931751879 0.562073432809691
-7.32562931751879 0.562073432809691 1.61803398874989
-5.70759532876889 -4.79814141030948 1.00000000000000
-1.61803398874989 7.32562931751879 -0.562073432809691
7.32562931751879 -0.562073432809691 -1.61803398874989
5.14552189595920 5.14552189595920 -1.90945391845941
1.61803398874989 -7.32562931751879 -0.562073432809691
-7.32562931751879 -0.562073432809691 1.61803398874989
6.70759532876889 2.18010742155959 -2.61803398874989
-1.61803398874989 -7.32562931751879 0.562073432809691
-7.32562931751879 0.562073432809691 -1.61803398874989
-5.70759532876889 4.79814141030948 -1.00000000000000
5.70759532876889 -4.79814141030948 -1.00000000000000
2.61803398874989 6.70759532876889 -2.18010742155959
6.14552189595920 2.52748790720931 -3.52748790720931
-1.61803398874989 -7.32562931751879 -0.562073432809691
-7.32562931751879 -0.562073432809691 -1.61803398874989
-5.14552189595920 5.14552189595920 -1.90945391845941
5.14552189595920 -5.14552189595920 -1.90945391845941
3.52748790720931 6.14552189595920 -2.52748790720931
-6.70759532876889 2.18010742155959 -2.61803398874989
6.70759532876889 -2.18010742155959 -2.61803398874989
1.00000000000000 5.70759532876889 -4.79814141030948
-5.70759532876889 -4.79814141030948 -1.00000000000000
-2.61803398874989 6.70759532876889 -2.18010742155959
2.61803398874989 -6.70759532876889 -2.18010742155959
-6.14552189595920 2.52748790720931 -3.52748790720931
6.14552189595920 -2.52748790720931 -3.52748790720931
1.90945391845941 5.14552189595920 -5.14552189595920
-5.14552189595920 -5.14552189595920 -1.90945391845941
-3.52748790720931 6.14552189595920 -2.52748790720931
3.52748790720931 -6.14552189595920 -2.52748790720931
-6.70759532876889 -2.18010742155959 -2.61803398874989
-1.00000000000000 5.70759532876889 -4.79814141030948
1.00000000000000 -5.70759532876889 -4.79814141030948
5.14552189595920 1.90945391845941 -5.14552189595920
-2.61803398874989 -6.70759532876889 -2.18010742155959
-6.14552189595920 -2.52748790720931 -3.52748790720931
-1.90945391845941 5.14552189595920 -5.14552189595920
1.90945391845941 -5.14552189595920 -5.14552189595920
4.79814141030948 1.00000000000000 -5.70759532876889
-3.52748790720931 -6.14552189595920 -2.52748790720931
2.52748790720931 3.52748790720931 -6.14552189595920
-1.00000000000000 -5.70759532876889 -4.79814141030948
-5.14552189595920 1.90945391845941 -5.14552189595920
5.14552189595920 -1.90945391845941 -5.14552189595920
2.18010742155959 2.61803398874989 -6.70759532876889
-1.90945391845941 -5.14552189595920 -5.14552189595920
-4.79814141030948 1.00000000000000 -5.70759532876889
4.79814141030948 -1.00000000000000 -5.70759532876889
-2.52748790720931 3.52748790720931 -6.14552189595920
2.52748790720931 -3.52748790720931 -6.14552189595920
-5.14552189595920 -1.90945391845941 -5.14552189595920
-2.18010742155959 2.61803398874989 -6.70759532876889
2.18010742155959 -2.61803398874989 -6.70759532876889
-4.79814141030948 -1.00000000000000 -5.70759532876889
-2.52748790720931 -3.52748790720931 -6.14552189595920
0.562073432809691 1.61803398874989 -7.32562931751879
-2.18010742155959 -2.61803398874989 -6.70759532876889
-0.562073432809691 1.61803398874989 -7.32562931751879
0.562073432809691 -1.61803398874989 -7.32562931751879
-0.562073432809691 -1.61803398874989 -7.32562931751879

5 75 93 16 96 34
5 21 49 82 22 105
5 28 66 20 26 83
5 90 10 119 65 36
5 14 21 67 1 98
5 94 34 74 64 19
5 20 26 81 7 104
5 9 86 24 30 114
5 4 74 34 20 118
5 97 63 87 103 31
5 35 42 43 25 77
5 42 9 102 23 85
5 80 39 107 82 50
5 44 48 83 45 86
5 99 69 38 95 15
5 119 65 85 113 2
5 41 79 12 38 71
5 70 3 101 40 39
5 31 60 71 33 97
5 79 5 118 53 48
5 55 4 108 28 73
5 102 23 105 75 11
5 111 89 61 119 13
5 57 8 91 27 51
5 48 116 19 78 79
5 52 118 5 80 58
5 71 33 56 61 41
5 107 82 49 104 7
5 108 28 112 88 17
5 51 108 4 74 57
5 74 64 88 81 56
5 17 97 15 43 108
5 11 92 7 32 102
5 8 31 58 0 106
5 106 83 48 116 8
5 30 16 93 15 95
5 53 67 21 49 59
5 78 18 117 59 49
5 98 94 36 112 14
5 13 37 70 3 111
5 65 58 31 60 47
5 88 81 26 84 24
5 96 87 63 102 32
5 22 12 79 5 87
5 118 53 95 107 4
5 112 88 64 115 12
5 10 91 8 31 103
5 32 36 94 34 96
5 93 15 97 63 18
5 49 104 41 79 78
5 36 112 28 66 90
5 67 1 114 41 61
5 81 7 92 51 27
5 104 99 52 118 20
5 116 77 73 117 6
5 39 114 1 68 70
5 24 30 54 17 88
5 38 95 53 67 91
5 7 32 55 4 107
5 76 110 17 97 33
5 100 19 116 77 25
5 47 55 32 36 65
5 5 80 14 21 110
5 25 105 23 54 100
5 117 59 72 106 0
5 113 71 60 111 3
5 2 62 45 13 119
5 23 54 30 16 89
5 72 106 40 100 54
5 86 76 75 93 44
5 69 14 80 39 40
5 58 0 109 29 52
5 19 78 13 37 94
5 103 24 86 76 10
5 29 90 6 50 82
5 87 103 25 105 22
5 26 84 47 55 101
5 15 43 42 9 99
5 34 20 66 11 75
5 92 51 98 94 37
5 83 45 62 73 28
5 46 2 100 19 64
5 105 75 76 110 21
5 16 96 35 42 109
5 82 22 68 52 29
5 89 57 50 85 23
5 91 27 113 71 38
5 45 13 78 18 63
5 3 44 46 2 113
5 54 17 110 35 72
5 37 72 59 46 92
5 56 61 89 57 74
5 73 117 18 101 55
5 115 47 84 98 1
5 63 102 9 86 45
5 59 46 44 48 53
5 84 98 51 108 43
5 64 115 11 92 46
5 101 40 106 83 26
5 12 38 69 14 112
5 33 6 90 10 76
5 27 109 0 56 81
5 43 25 103 24 84
5 109 29 111 89 16
5 66 11 115 47 60
5 77 70 37 72 35
5 50 85 65 58 80
5 114 41 104 99 9
5 18 101 3 44 93
5 0 56 33 6 117
5 40 100 2 62 69
5 60 111 29 90 66
5 62 73 77 70 68
5 1 68 22 12 115
5 6 50 57 8 116
5 68 52 99 69 62
5 61 119 10 91 67
5 110 35 96 87 5
5 95 107 39 114 30
5 85 113 27 109 42
