OFF
120 120 0

0.0110837200948051 0.112127951086999 3.44651236937743
-0.0110837200948051 0.112127951086999 3.44651236937743
0.0110837200948051 -0.112127951086999 3.44651236937743
1.62911770884470 1.11212795108700 2.82847838062753
-0.0110837200948051 -0.112127951086999 3.44651236937743
1.63596782458508 1.13006178692218 2.81739466053273
1.81054454479235 1.00000000000000 2.75917949576688
-1.62911770884470 1.11212795108700 2.82847838062753
1.62911770884470 -1.11212795108700 2.82847838062753
1.81739466053273 1.01793383583518 2.74809577567208
-1.63596782458508 1.13006178692218 2.81739466053273
1.63596782458508 -1.13006178692218 2.81739466053273
-1.81054454479235 1.00000000000000 2.75917949576688
1.81054454479235 -1.00000000000000 2.75917949576688
-1.62911770884470 -1.11212795108700 2.82847838062753
1.01793383583518 2.74809577567208 1.81739466053273
-1.81739466053273 1.01793383583518 2.74809577567208
1.81739466053273 -1.01793383583518 2.74809577567208
-1.63596782458508 -1.13006178692218 2.81739466053273
1.00000000000000 2.75917949576688 1.81054454479235
-1.81054454479235 -1.00000000000000 2.75917949576688
1.13006178692218 2.81739466053273 1.63596782458508
2.81739466053273 1.63596782458508 1.13006178692218
-1.01793383583518 2.74809577567208 1.81739466053273
1.01793383583518 -2.74809577567208 1.81739466053273
-1.81739466053273 -1.01793383583518 2.74809577567208
1.11212795108700 2.82847838062753 1.62911770884470
2.82847838062753 1.62911770884470 1.11212795108700
-1.00000000000000 2.75917949576688 1.81054454479235
1.00000000000000 -2.75917949576688 1.81054454479235
2.74809577567208 1.81739466053273 1.01793383583518
-1.13006178692218 2.81739466053273 1.63596782458508
1.13006178692218 -2.81739466053273 1.63596782458508
-2.81739466053273 1.63596782458508 1.13006178692218
2.81739466053273 -1.63596782458508 1.13006178692218
-1.01793383583518 -2.74809577567208 1.81739466053273
2.75917949576688 1.81054454479235 1.00000000000000
-1.11212795108700 2.82847838062753 1.62911770884470
1.11212795108700 -2.82847838062753 1.62911770884470
-2.82847838062753 1.62911770884470 1.11212795108700
2.82847838062753 -1.62911770884470 1.11212795108700
-1.00000000000000 -2.75917949576688 1.81054454479235
-2.74809577567208 1.81739466053273 1.01793383583518
2.74809577567208 -1.81739466053273 1.01793383583518
-1.13006178692218 -2.81739466053273 1.63596782458508
-2.81739466053273 -1.63596782458508 1.13006178692218
0.112127951086999 3.44651236937743 0.0110837200948051
3.44651236937743 0.0110837200948051 0.112127951086999
-2.75917949576688 1.81054454479235 1.00000000000000
2.75917949576688 -1.81054454479235 1.00000000000000
-1.11212795108700 -2.82847838062753 1.62911770884470
-2.82847838062753 -1.62911770884470 1.11212795108700
0.112127951086999 3.44651236937743 -0.0110837200948051
3.44651236937743 -0.0110837200948051 0.112127951086999
-2.74809577567208 -1.81739466053273 1.01793383583518
-0.112127951086999 3.44651236937743 0.0110837200948051
3.44651236937743 0.0110837200948051 -0.112127951086999
2.75917949576688 1.81054454479235 -1.00000000000000
0.112127951086999 -3.44651236937743 0.0110837200948051
-3.44651236937743 0.0110837200948051 0.112127951086999
-2.75917949576688 -1.81054454479235 1.00000000000000
-0.112127951086999 3.44651236937743 -0.0110837200948051
3.44651236937743 -0.0110837200948051 -0.112127951086999
2.74809577567208 1.81739466053273 -1.01793383583518
0.112127951086999 -3.44651236937743 -0.0110837200948051
-3.44651236937743 -0.0110837200948051 0.112127951086999
2.82847838062753 1.62911770884470 -1.11212795108700
-0.112127951086999 -3.44651236937743 0.0110837200948051
-3.44651236937743 0.0110837200948051 -0.112127951086999
-2.75917949576688 1.81054454479235 -1.00000000000000
2.75917949576688 -1.81054454479235 -1.00000000000000
1.11212795108700 2.82847838062753 -1.62911770884470
2.81739466053273 1.63596782458508 -1.13006178692218
-0.112127951086999 -3.44651236937743 -0.0110837200948051
-3.44651236937743 -0.0110837200948051 -0.112127951086999
-2.74809577567208 1.81739466053273 -1.01793383583518
2.74809577567208 -1.81739466053273 -1.01793383583518
1.13006178692218 2.81739466053273 -1.63596782458508
-2.82847838062753 1.62911770884470 -1.11212795108700
2.82847838062753 -1.62911770884470 -1.11212795108700
1.00000000000000 2.75917949576688 -1.81054454479235
-2.75917949576688 -1.81054454479235 -1.00000000000000
-1.11212795108700 2.82847838062753 -1.62911770884470
1.11212795108700 -2.82847838062753 -1.62911770884470
-2.81739466053273 1.63596782458508 -1.13006178692218
2.81739466053273 -1.63596782458508 -1.13006178692218
1.01793383583518 2.74809577567208 -1.81739466053273
-2.74809577567208 -1.81739466053273 -1.01793383583518
-1.13006178692218 2.81739466053273 -1.63596782458508
1.13006178692218 -2.81739466053273 -1.63596782458508
-2.82847838062753 -1.62911770884470 -1.11212795108700
-1.00000000000000 2.75917949576688 -1.81054454479235
1.00000000000000 -2.75917949576688 -1.81054454479235
1.81739466053273 1.01793383583518 -2.74809577567208
-1.11212795108700 -2.82847838062753 -1.62911770884470
-2.81739466053273 -1.63596782458508 -1.13006178692218
-1.01793383583518 2.74809577567208 -1.81739466053273
1.01793383583518 -2.74809577567208 -1.81739466053273
1.81054454479235 1.00000000000000 -2.75917949576688
-1.13006178692218 -2.81739466053273 -1.63596782458508
1.63596782458508 1.13006178692218 -2.81739466053273
-1.00000000000000 -2.75917949576688 -1.81054454479235
-1.81739466053273 1.01793383583518 -2.74809577567208
1.81739466053273 -1.01793383583518 -2.74809577567208
1.62911770884470 1.11212795108700 -2.82847838062753
-1.01793383583518 -2.74809577567208 -1.81739466053273
-1.81054454479235 1.00000000000000 -2.75917949576688
1.81054454479235 -1.00000000000000 -2.75917949576688
-1.63596782458508 1.13006178692218 -2.81739466053273
1.63596782458508 -1.13006178692218 -2.81739466053273
-1.81739466053273 -1.01793383583518 -2.74809577567208
-1.62911770884470 1.11212795108700 -2.82847838062753
1.62911770884470 -1.11212795108700 -2.82847838062753
-1.81054454479235 -1.00000000000000 -2.75917949576688
-1.63596782458508 -1.13006178692218 -2.81739466053273
0.0110837200948051 0.112127951086999 -3.44651236937743
-1.62911770884470 -1.11212795108700 -2.82847838062753
-0.0110837200948051 0.112127951086999 -3.44651236937743
0.0110837200948051 -0.112127951086999 -3.44651236937743
-0.0110837200948051 -0.112127951086999 -3.44651236937743

5 75 78 29 17 3
5 21 19 90 114 117
5 28 31 99 64 29
5 90 87 62 57 86
5 14 25 119 107 76
5 94 105 61 28 16
5 20 18 109 115 106
5 9 3 81 105 83
5 4 0 93 112 89
5 97 83 12 42 78
5 35 50 98 63 27
5 42 39 92 103 104
5 80 77 32 67 101
5 44 41 66 100 118
5 99 101 27 5 2
5 119 115 9 8 32
5 41 44 88 52 19
5 70 85 84 59 60
5 31 28 79 109 115
5 79 76 74 69 96
5 55 52 97 94 95
5 102 111 49 24 50
5 111 102 1 6 30
5 57 72 95 65 48
5 48 33 34 62 57
5 52 55 35 38 34
5 71 86 64 29 17
5 107 109 18 1 6
5 108 106 38 34 62
5 51 54 53 36 15
5 74 59 30 66 100
5 17 8 69 96 71
5 11 13 82 84 59
5 8 17 118 113 87
5 106 108 5 2 20
5 30 27 101 110 111
5 53 56 75 39 10
5 78 75 56 70 97
5 98 100 10 4 13
5 13 11 114 117 98
5 65 68 63 27 5
5 88 91 40 11 0
5 96 82 13 43 79
5 22 36 116 99 64
5 118 117 16 14 44
5 112 103 2 20 54
5 10 12 83 85 53
5 32 29 78 108 119
5 93 104 60 35 38
5 49 34 33 68 81
5 36 22 45 74 69
5 67 64 86 82 84
5 81 95 72 47 49
5 104 93 0 12 42
5 116 110 4 13 43
5 39 42 47 49 24
5 24 38 106 75 39
5 38 24 46 80 93
5 7 16 117 98 63
5 76 79 28 16 14
5 100 98 50 45 74
5 47 62 87 51 18
5 5 6 94 95 65
5 25 14 57 86 82
5 117 118 17 3 21
5 113 114 11 0 12
5 2 1 102 116 99
5 23 37 107 76 40
5 72 57 14 44 58
5 86 71 20 54 90
5 69 84 85 53 36
5 58 73 96 71 72
5 19 21 89 73 41
5 103 112 48 23 26
5 29 32 77 61 28
5 87 90 19 9 8
5 26 15 58 92 103
5 15 26 113 87 51
5 34 49 111 88 52
5 92 89 21 55 91
5 83 97 52 19 9
5 46 61 105 83 85
5 105 94 6 30 66
5 16 7 70 97 94
5 82 96 73 41 25
5 89 92 39 10 4
5 91 88 44 58 92
5 45 60 104 77 61
5 3 9 115 106 75
5 54 51 80 93 112
5 37 23 67 101 110
5 56 53 54 90 114
5 73 58 15 37 33
5 115 119 25 7 31
5 63 66 41 25 7
5 59 74 76 40 11
5 84 69 8 32 67
5 64 67 23 26 22
5 101 99 31 46 80
5 12 10 100 118 113
5 33 48 112 89 73
5 27 30 59 60 35
5 43 40 91 102 116
5 109 107 37 33 68
5 66 63 68 81 105
5 77 80 51 18 1
5 50 35 55 91 102
5 114 113 26 22 56
5 18 20 71 72 47
5 0 4 110 111 88
5 40 43 65 48 23
5 60 45 22 56 70
5 62 47 42 78 108
5 1 2 103 104 77
5 6 5 108 119 107
5 68 65 43 79 109
5 61 46 24 50 45
5 110 116 36 15 37
5 95 81 3 21 55
5 85 70 7 31 46
