OFF
120 120 0

0.353115728457535 1.10579595496772 5.94975239632372
-0.353115728457535 1.10579595496772 5.94975239632372
0.353115728457535 -1.10579595496772 5.94975239632372
1.97114971720743 2.10579595496772 5.33171840757383
-0.353115728457535 -1.10579595496772 5.94975239632372
2.18938723935636 2.67714920557419 4.97860267911629
3.76036515696736 1.00000000000000 4.64829892278162
-1.97114971720743 2.10579595496772 5.33171840757383
1.97114971720743 -2.10579595496772 5.33171840757383
3.97860267911629 1.57135325060647 4.29518319432409
-2.18938723935636 2.67714920557419 4.97860267911629
2.18938723935636 -2.67714920557419 4.97860267911629
-3.76036515696736 1.00000000000000 4.64829892278162
3.76036515696736 -1.00000000000000 4.64829892278162
-1.97114971720743 -2.10579595496772 5.33171840757383
1.57135325060647 4.29518319432409 3.97860267911629
-3.97860267911629 1.57135325060647 4.29518319432409
3.97860267911629 -1.57135325060647 4.29518319432409
-2.18938723935636 -2.67714920557419 4.97860267911629
1.00000000000000 4.64829892278162 3.76036515696736
-3.76036515696736 -1.00000000000000 4.64829892278162
2.67714920557419 4.97860267911629 2.18938723935636
4.97860267911629 2.18938723935636 2.67714920557419
-1.57135325060647 4.29518319432409 3.97860267911629
1.57135325060647 -4.29518319432409 3.97860267911629
-3.97860267911629 -1.57135325060647 4.29518319432409
2.10579595496772 5.33171840757383 1.97114971720743
5.33171840757383 1.97114971720743 2.10579595496772
-1.00000000000000 4.64829892278162 3.76036515696736
1.00000000000000 -4.64829892278162 3.76036515696736
4.29518319432409 3.97860267911629 1.57135325060647
-2.67714920557419 4.97860267911629 2.18938723935636
2.67714920557419 -4.97860267911629 2.18938723935636
-4.97860267911629 2.18938723935636 2.67714920557419
4.97860267911629 -2.18938723935636 2.67714920557419
-1.57135325060647 -4.29518319432409 3.97860267911629
4.64829892278162 3.76036515696736 1.00000000000000
-2.10579595496772 5.33171840757383 1.97114971720743
2.10579595496772 -5.33171840757383 1.97114971720743
-5.33171840757383 1.97114971720743 2.10579595496772
5.33171840757383 -1.97114971720743 2.10579595496772
-1.00000000000000 -4.64829892278162 3.76036515696736
-4.29518319432409 3.97860267911629 1.57135325060647
4.29518319432409 -3.97860267911629 1.57135325060647
-2.67714920557419 -4.97860267911629 2.18938723935636
-4.97860267911629 -2.18938723935636 2.67714920557419
1.10579595496772 5.94975239632372 0.353115728457535
5.94975239632372 0.353115728457535 1.10579595496772
-4.64829892278162 3.76036515696736 1.00000000000000
4.64829892278162 -3.76036515696736 1.00000000000000
-2.10579595496772 -5.33171840757383 1.97114971720743
-5.33171840757383 -1.97114971720743 2.10579595496772
1.10579595496772 5.94975239632372 -0.353115728457535
5.94975239632372 -0.353115728457535 1.10579595496772
-4.29518319432409 -3.97860267911629 1.57135325060647
-1.10579595496772 5.94975239632372 0.353115728457535
5.94975239632372 0.353115728457535 -1.10579595496772
4.64829892278162 3.76036515696736 -1.00000000000000
1.10579595496772 -5.94975239632372 0.353115728457535
-5.94975239632372 0.353115728457535 1.10579595496772
-4.64829892278162 -3.76036515696736 1.00000000000000
-1.10579595496772 5.94975239632372 -0.353115728457535
5.94975239632372 -0.353115728457535 -1.10579595496772
4.29518319432409 3.97860267911629 -1.57135325060647
1.10579595496772 -5.94975239632372 -0.353115728457535
-5.94975239632372 -0.353115728457535 1.10579595496772
5.33171840757383 1.97114971720743 -2.10579595496772
-1.10579595496772 -5.94975239632372 0.353115728457535
-5.94975239632372 0.353115728457535 -1.10579595496772
-4.64829892278162 3.76036515696736 -1.00000000000000
4.64829892278162 -3.76036515696736 -1.00000000000000
2.10579595496772 5.33171840757383 -1.97114971720743
4.97860267911629 2.18938723935636 -2.67714920557419
-1.10579595496772 -5.94975239632372 -0.353115728457535
-5.94975239632372 -0.353115728457535 -1.10579595496772
-4.29518319432409 3.97860267911629 -1.57135325060647
4.29518319432409 -3.97860267911629 -1.57135325060647
2.67714920557419 4.97860267911629 -2.18938723935636
-5.33171840757383 1.97114971720743 -2.10579595496772
5.33171840757383 -1.97114971720743 -2.10579595496772
1.00000000000000 4.64829892278162 -3.76036515696736
-4.64829892278162 -3.76036515696736 -1.00000000000000
-2.10579595496772 5.33171840757383 -1.97114971720743
2.10579595496772 -5.33171840757383 -1.97114971720743
-4.97860267911629 2.18938723935636 -2.67714920557419
4.97860267911629 -2.18938723935636 -2.67714920557419
1.57135325060647 4.29518319432409 -3.97860267911629
-4.29518319432409 -3.97860267911629 -1.57135325060647
-2.67714920557419 4.97860267911629 -2.18938723935636
2.67714920557419 -4.97860267911629 -2.18938723935636
-5.33171840757383 -1.97114971720743 -2.10579595496772
-1.00000000000000 4.64829892278162 -3.76036515696736
1.00000000000000 -4.64829892278162 -3.76036515696736
3.97860267911629 1.57135325060647 -4.29518319432409
-2.10579595496772 -5.33171840757383 -1.97114971720743
-4.97860267911629 -2.18938723935636 -2.67714920557419
-1.57135325060647 4.29518319432409 -3.97860267911629
1.57135325060647 -4.29518319432409 -3.97860267911629
3.76036515696736 1.00000000000000 -4.64829892278162
-2.67714920557419 -4.97860267911629 -2.18938723935636
2.18938723935636 2.67714920557419 -4.97860267911629
-1.00000000000000 -4.64829892278162 -3.76036515696736
-3.97860267911629 1.57135325060647 -4.29518319432409
3.97860267911629 -1.57135325060647 -4.29518319432409
1.97114971720743 2.10579595496772 -5.33171840757383
-1.57135325060647 -4.29518319432409 -3.97860267911629
-3.76036515696736 1.00000000000000 -4.64829892278162
3.76036515696736 -1.00000000000000 -4.64829892278162
-2.18938723935636 2.67714920557419 -4.97860267911629
2.18938723935636 -2.67714920557419 -4.97860267911629
-3.97860267911629 -1.57135325060647 -4.29518319432409
-1.97114971720743 2.10579595496772 -5.33171840757383
1.97114971720743 -2.10579595496772 -5.33171840757383
-3.76036515696736 -1.00000000000000 -4.64829892278162
-2.18938723935636 -2.67714920557419 -4.97860267911629
0.353115728457535 1.10579595496772 -5.94975239632372
-1.97114971720743 -2.10579595496772 -5.33171840757383
-0.353115728457535 1.10579595496772 -5.94975239632372
0.353115728457535 -1.10579595496772 -5.94975239632372
-0.353115728457535 -1.10579595496772 -5.94975239632372

5 75 12 66 33 47
5 21 88 76 61 97
5 28 25 62 12 70
5 90 118 28 116 26
5 14 73 36 50 66
5 94 68 13 90 3
5 20 87 52 60 80
5 9 29 104 11 118
5 4 40 95 17 114
5 97 81 71 99 61
5 35 49 37 32 46
5 42 106 27 84 56
5 80 103 65 98 60
5 44 89 75 64 96
5 99 32 42 58 23
5 119 79 45 103 18
5 41 16 56 20 57
5 70 105 1 92 12
5 31 77 87 52 105
5 79 119 19 112 37
5 55 111 18 96 44
5 102 101 7 114 4
5 111 55 70 82 40
5 57 96 4 80 20
5 48 15 118 28 107
5 52 3 109 15 89
5 71 62 12 66 14
5 107 43 55 70 28
5 108 109 15 118 9
5 51 2 91 14 71
5 74 82 89 75 85
5 17 19 112 5 115
5 11 10 105 1 110
5 8 64 48 38 78
5 106 42 58 69 29
5 30 98 39 72 68
5 53 26 44 30 45
5 78 115 41 111 38
5 98 30 67 57 41
5 13 76 61 49 91
5 65 37 32 42 34
5 88 21 54 46 35
5 96 57 94 77 64
5 22 85 25 62 54
5 118 90 34 110 11
5 112 58 69 83 39
5 10 11 86 2 93
5 32 99 63 73 86
5 93 92 3 109 2
5 49 35 117 29 106
5 36 23 119 19 113
5 67 116 10 105 31
5 81 97 0 101 6
5 104 46 81 71 51
5 116 67 57 94 27
5 39 0 101 7 83
5 24 60 26 44 55
5 38 47 113 40 111
5 7 61 49 37 79
5 76 13 90 34 65
5 100 114 23 119 16
5 47 38 31 43 33
5 5 18 96 4 102
5 25 28 116 10 117
5 117 66 33 93 10
5 113 54 46 81 19
5 2 51 85 25 109
5 23 36 50 21 58
5 72 34 110 53 87
5 86 69 83 88 73
5 69 86 2 91 13
5 58 112 5 97 21
5 19 17 74 6 81
5 103 80 8 100 0
5 29 9 68 13 69
5 87 20 79 45 53
5 26 53 106 27 116
5 15 48 38 31 67
5 34 72 16 56 42
5 92 93 59 107 48
5 83 56 20 79 7
5 46 104 11 86 32
5 105 70 82 89 52
5 16 41 111 18 119
5 82 74 6 78 8
5 89 44 30 67 15
5 91 110 53 106 49
5 45 84 9 68 30
5 3 52 60 26 90
5 54 113 40 95 62
5 37 65 98 39 112
5 56 83 88 76 84
5 73 14 108 35 88
5 115 78 22 102 5
5 63 6 78 22 59
5 59 50 21 54 22
5 84 45 103 65 76
5 64 8 100 24 77
5 101 102 47 113 36
5 12 75 64 48 92
5 33 95 17 74 43
5 27 1 92 3 94
5 43 107 51 85 74
5 109 108 35 117 25
5 66 117 29 104 50
5 77 31 43 55 24
5 50 59 107 51 104
5 114 100 24 115 17
5 18 5 97 0 103
5 0 39 72 16 100
5 40 4 80 8 82
5 60 24 115 41 98
5 62 71 99 63 95
5 1 27 84 9 108
5 6 63 73 36 101
5 68 94 77 87 72
5 61 7 114 23 99
5 110 91 14 108 1
5 95 33 93 59 63
5 85 22 102 47 75
