OFF
120 120 0

0.554636316563766 0.659868089579119 5.75581370268925
-0.554636316563766 0.659868089579119 5.75581370268925
0.554636316563766 -0.659868089579119 5.75581370268925
2.17267030531366 1.65986808957912 5.13777971393936
-0.554636316563766 -0.659868089579119 5.75581370268925
2.51545440034511 2.55728850117434 4.58314339737559
3.24035930234414 1.00000000000000 4.72995880648800
-2.17267030531366 1.65986808957912 5.13777971393936
2.17267030531366 -1.65986808957912 5.13777971393936
3.58314339737559 1.89742041159522 4.17532248992423
-2.51545440034511 2.55728850117434 4.58314339737559
2.51545440034511 -2.55728850117434 4.58314339737559
-3.24035930234414 1.00000000000000 4.72995880648800
3.24035930234414 -1.00000000000000 4.72995880648800
-2.17267030531366 -1.65986808957912 5.13777971393936
1.89742041159522 4.17532248992423 3.58314339737559
-3.58314339737559 1.89742041159522 4.17532248992423
3.58314339737559 -1.89742041159522 4.17532248992423
-2.51545440034511 -2.55728850117434 4.58314339737559
1.00000000000000 4.72995880648800 3.24035930234414
-3.24035930234414 -1.00000000000000 4.72995880648800
2.55728850117434 4.58314339737559 2.51545440034511
4.58314339737559 2.51545440034511 2.55728850117434
-1.89742041159522 4.17532248992423 3.58314339737559
1.89742041159522 -4.17532248992423 3.58314339737559
-3.58314339737559 -1.89742041159522 4.17532248992423
1.65986808957912 5.13777971393936 2.17267030531366
5.13777971393936 2.17267030531366 1.65986808957912
-1.00000000000000 4.72995880648800 3.24035930234414
1.00000000000000 -4.72995880648800 3.24035930234414
4.17532248992423 3.58314339737559 1.89742041159522
-2.55728850117434 4.58314339737559 2.51545440034511
2.55728850117434 -4.58314339737559 2.51545440034511
-4.58314339737559 2.51545440034511 2.55728850117434
4.58314339737559 -2.51545440034511 2.55728850117434
-1.89742041159522 -4.17532248992423 3.58314339737559
4.72995880648800 3.24035930234414 1.00000000000000
-1.65986808957912 5.13777971393936 2.17267030531366
1.65986808957912 -5.13777971393936 2.17267030531366
-5.13777971393936 2.17267030531366 1.65986808957912
5.13777971393936 -2.17267030531366 1.65986808957912
-1.00000000000000 -4.72995880648800 3.24035930234414
-4.17532248992423 3.58314339737559 1.89742041159522
4.17532248992423 -3.58314339737559 1.89742041159522
-2.55728850117434 -4.58314339737559 2.51545440034511
-4.58314339737559 -2.51545440034511 2.55728850117434
0.659868089579119 5.75581370268925 0.554636316563766
5.75581370268925 0.554636316563766 0.659868089579119
-4.72995880648800 3.24035930234414 1.00000000000000
4.72995880648800 -3.24035930234414 1.00000000000000
-1.65986808957912 -5.13777971393936 2.17267030531366
-5.13777971393936 -2.17267030531366 1.65986808957912
0.659868089579119 5.75581370268925 -0.554636316563766
5.75581370268925 -0.554636316563766 0.659868089579119
-4.17532248992423 -3.58314339737559 1.89742041159522
-0.659868089579119 5.75581370268925 0.554636316563766
5.75581370268925 0.554636316563766 -0.659868089579119
4.72995880648800 3.24035930234414 -1.00000000000000
0.659868089579119 -5.75581370268925 0.554636316563766
-5.75581370268925 0.554636316563766 0.659868089579119
-4.72995880648800 -3.24035930234414 1.00000000000000
-0.659868089579119 5.75581370268925 -0.554636316563766
5.75581370268925 -0.554636316563766 -0.659868089579119
4.17532248992423 3.58314339737559 -1.89742041159522
0.659868089579119 -5.75581370268925 -0.554636316563766
-5.75581370268925 -0.554636316563766 0.659868089579119
5.13777971393936 2.17267030531366 -1.65986808957912
-0.659868089579119 -5.75581370268925 0.554636316563766
-5.75581370268925 0.554636316563766 -0.659868089579119
-4.72995880648800 3.24035930234414 -1.00000000000000
4.72995880648800 -3.24035930234414 -1.00000000000000
1.65986808957912 5.13777971393936 -2.17267030531366
4.58314339737559 2.51545440034511 -2.55728850117434
-0.659868089579119 -5.75581370268925 -0.554636316563766
-5.75581370268925 -0.554636316563766 -0.659868089579119
-4.17532248992423 3.58314339737559 -1.89742041159522
4.17532248992423 -3.58314339737559 -1.89742041159522
2.55728850117434 4.58314339737559 -2.51545440034511
-5.13777971393936 2.17267030531366 -1.65986808957912
5.13777971393936 -2.17267030531366 -1.65986808957912
1.00000000000000 4.72995880648800 -3.24035930234414
-4.72995880648800 -3.24035930234414 -1.00000000000000
-1.65986808957912 5.13777971393936 -2.17267030531366
1.65986808957912 -5.13777971393936 -2.17267030531366
-4.58314339737559 2.51545440034511 -2.55728850117434
4.58314339737559 -2.51545440034511 -2.55728850117434
1.89742041159522 4.17532248992423 -3.58314339737559
-4.17532248992423 -3.58314339737559 -1.89742041159522
-2.55728850117434 4.58314339737559 -2.51545440034511
2.55728850117434 -4.58314339737559 -2.51545440034511
-5.13777971393936 -2.17267030531366 -1.65986808957912
-1.00000000000000 4.72995880648800 -3.24035930234414
1.00000000000000 -4.72995880648800 -3.24035930234414
3.58314339737559 1.89742041159522 -4.17532248992423
-1.65986808957912 -5.13777971393936 -2.17267030531366
-4.58314339737559 -2.51545440034511 -2.55728850117434
-1.89742041159522 4.17532248992423 -3.58314339737559
1.89742041159522 -4.17532248992423 -3.58314339737559
3.24035930234414 1.00000000000000 -4.72995880648800
-2.55728850117434 -4.58314339737559 -2.51545440034511
2.51545440034511 2.55728850117434 -4.58314339737559
-1.00000000000000 -4.72995880648800 -3.24035930234414
-3.58314339737559 1.89742041159522 -4.17532248992423
3.58314339737559 -1.89742041159522 -4.17532248992423
2.17267030531366 1.65986808957912 -5.13777971393936
-1.89742041159522 -4.17532248992423 -3.58314339737559
-3.24035930234414 1.00000000000000 -4.72995880648800
3.24035930234414 -1.00000000000000 -4.72995880648800
-2.51545440034511 2.55728850117434 -4.58314339737559
2.51545440034511 -2.55728850117434 -4.58314339737559
-3.58314339737559 -1.89742041159522 -4.17532248992423
-2.17267030531366 1.65986808957912 -5.13777971393936
2.17267030531366 -1.65986808957912 -5.13777971393936
-3.24035930234414 -1.00000000000000 -4.72995880648800
-2.51545440034511 -2.55728850117434 -4.58314339737559
0.554636316563766 0.659868089579119 -5.75581370268925
-2.17267030531366 -1.65986808957912 -5.13777971393936
-0.554636316563766 0.659868089579119 -5.75581370268925
0.554636316563766 -0.659868089579119 -5.75581370268925
-0.554636316563766 -0.659868089579119 -5.75581370268925

5 75 82 110 100 80
5 21 36 1 40 47
5 28 15 88 57 30
5 90 68 50 16 39
5 14 2 39 15 3
5 94 67 112 43 38
5 20 16 11 19 23
5 9 27 23 77 57
5 4 18 28 65 45
5 97 112 43 72 98
5 35 14 87 33 12
5 42 37 25 5 19
5 80 96 21 48 75
5 44 60 2 39 65
5 99 81 118 78 74
5 119 114 91 74 95
5 41 24 99 70 43
5 70 43 72 6 17
5 31 48 0 51 59
5 79 56 38 9 27
5 55 31 36 1 10
5 102 78 86 31 48
5 111 115 90 97 112
5 57 30 85 13 9
5 48 75 45 113 102
5 52 77 69 115 100
5 71 46 111 42 37
5 107 93 114 91 86
5 108 91 74 37 61
5 51 59 94 102 78
5 74 95 20 73 99
5 17 40 35 89 70
5 11 29 47 83 58
5 8 4 27 23 7
5 106 110 100 92 105
5 30 26 17 10 28
5 53 34 107 58 32
5 78 74 37 25 51
5 98 103 108 101 97
5 13 9 18 28 15
5 65 45 113 67 44
5 88 69 115 90 68
5 96 111 42 95 113
5 22 6 52 7 0
5 118 109 80 62 85
5 112 119 66 96 111
5 10 28 65 82 55
5 32 49 4 27 53
5 93 66 96 21 36
5 49 76 22 98 103
5 36 63 34 107 93
5 67 44 49 4 18
5 81 54 84 12 25
5 104 117 79 105 116
5 116 118 78 86 104
5 39 65 82 110 90
5 24 8 76 22 6
5 38 64 14 87 94
5 7 0 51 24 8
5 76 83 93 114 101
5 100 80 62 26 52
5 47 22 98 46 21
5 5 19 53 71 46
5 25 51 24 99 81
5 117 108 101 68 84
5 113 102 109 80 96
5 2 11 19 53 34
5 23 7 75 45 20
5 72 98 46 111 115
5 86 104 30 85 107
5 69 42 95 20 16
5 58 32 60 2 11
5 19 23 77 69 42
5 103 79 105 32 49
5 29 35 89 81 54
5 87 94 102 109 92
5 26 52 7 75 82
5 15 3 63 34 13
5 34 13 64 14 2
5 92 105 32 60 87
5 83 58 116 54 50
5 46 21 48 0 5
5 105 116 54 84 106
5 16 39 15 88 69
5 82 55 104 30 26
5 89 70 119 66 62
5 91 86 31 36 63
5 45 20 73 8 4
5 3 1 40 35 14
5 54 50 16 11 29
5 37 61 3 63 71
5 56 72 6 52 77
5 73 99 70 119 114
5 115 100 92 56 72
5 63 71 103 108 91
5 59 33 106 55 31
5 84 106 55 104 117
5 64 89 81 118 109
5 101 97 44 49 76
5 12 25 5 29 35
5 33 12 61 3 1
5 27 53 71 103 79
5 43 38 9 18 41
5 109 92 56 38 64
5 66 62 26 17 40
5 77 57 117 79 56
5 50 73 8 76 83
5 114 101 68 50 73
5 18 41 59 94 67
5 0 5 29 47 22
5 40 47 83 93 66
5 60 87 33 106 110
5 62 85 13 64 89
5 1 10 41 59 33
5 6 17 10 41 24
5 68 84 12 61 88
5 61 88 57 117 108
5 110 90 97 44 60
5 95 113 67 112 119
5 85 107 58 116 118
