OFF
120 120 0

0.554636316563766 1.39516236309153 6.94554482896550
-0.554636316563766 1.39516236309153 6.94554482896550
0.554636316563766 -1.39516236309153 6.94554482896550
2.17267030531366 2.39516236309153 6.32751084021560
-0.554636316563766 -1.39516236309153 6.94554482896550
2.51545440034511 3.29258277468675 5.77287452365184
4.43009042862038 1.00000000000000 5.46525308000041
-2.17267030531366 2.39516236309153 6.32751084021560
2.17267030531366 -2.39516236309153 6.32751084021560
4.77287452365184 1.89742041159522 4.91061676343665
-2.51545440034511 3.29258277468675 5.77287452365184
2.51545440034511 -3.29258277468675 5.77287452365184
-4.43009042862038 1.00000000000000 5.46525308000041
4.43009042862038 -1.00000000000000 5.46525308000041
-2.17267030531366 -2.39516236309153 6.32751084021560
1.89742041159522 4.91061676343665 4.77287452365184
-4.77287452365184 1.89742041159522 4.91061676343665
4.77287452365184 -1.89742041159522 4.91061676343665
-2.51545440034511 -3.29258277468675 5.77287452365184
1.00000000000000 5.46525308000041 4.43009042862038
-4.43009042862038 -1.00000000000000 5.46525308000041
3.29258277468675 5.77287452365184 2.51545440034511
5.77287452365184 2.51545440034511 3.29258277468675
-1.89742041159522 4.91061676343665 4.77287452365184
1.89742041159522 -4.91061676343665 4.77287452365184
-4.77287452365184 -1.89742041159522 4.91061676343665
2.39516236309153 6.32751084021560 2.17267030531366
6.32751084021560 2.17267030531366 2.39516236309153
-1.00000000000000 5.46525308000041 4.43009042862038
1.00000000000000 -5.46525308000041 4.43009042862038
4.91061676343665 4.77287452365184 1.89742041159522
-3.29258277468675 5.77287452365184 2.51545440034511
3.29258277468675 -5.77287452365184 2.51545440034511
-5.77287452365184 2.51545440034511 3.29258277468675
5.77287452365184 -2.51545440034511 3.29258277468675
-1.89742041159522 -4.91061676343665 4.77287452365184
5.46525308000041 4.43009042862038 1.00000000000000
-2.39516236309153 6.32751084021560 2.17267030531366
2.39516236309153 -6.32751084021560 2.17267030531366
-6.32751084021560 2.17267030531366 2.39516236309153
6.32751084021560 -2.17267030531366 2.39516236309153
-1.00000000000000 -5.46525308000041 4.43009042862038
-4.91061676343665 4.77287452365184 1.89742041159522
4.91061676343665 -4.77287452365184 1.89742041159522
-3.29258277468675 -5.77287452365184 2.51545440034511
-5.77287452365184 -2.51545440034511 3.29258277468675
1.39516236309153 6.94554482896550 0.554636316563766
6.94554482896550 0.554636316563766 1.39516236309153
-5.46525308000041 4.43009042862038 1.00000000000000
5.46525308000041 -4.43009042862038 1.00000000000000
-2.39516236309153 -6.32751084021560 2.17267030531366
-6.32751084021560 -2.17267030531366 2.39516236309153
1.39516236309153 6.94554482896550 -0.554636316563766
6.94554482896550 -0.554636316563766 1.39516236309153
-4.91061676343665 -4.77287452365184 1.89742041159522
-1.39516236309153 6.94554482896550 0.554636316563766
6.94554482896550 0.554636316563766 -1.39516236309153
5.46525308000041 4.43009042862038 -1.00000000000000
1.39516236309153 -6.94554482896550 0.554636316563766
-6.94554482896550 0.554636316563766 1.39516236309153
-5.46525308000041 -4.43009042862038 1.00000000000000
-1.39516236309153 6.94554482896550 -0.554636316563766
6.94554482896550 -0.554636316563766 -1.39516236309153
4.91061676343665 4.77287452365184 -1.89742041159522
1.39516236309153 -6.94554482896550 -0.554636316563766
-6.94554482896550 -0.554636316563766 1.39516236309153
6.32751084021560 2.17267030531366 -2.39516236309153
-1.39516236309153 -6.94554482896550 0.554636316563766
-6.94554482896550 0.554636316563766 -1.39516236309153
-5.46525308000041 4.43009042862038 -1.00000000000000
5.46525308000041 -4.43009042862038 -1.00000000000000
2.39516236309153 6.32751084021560 -2.17267030531366
5.77287452365184 2.51545440034511 -3.29258277468675
-1.39516236309153 -6.94554482896550 -0.554636316563766
-6.94554482896550 -0.554636316563766 -1.39516236309153
-4.91061676343665 4.77287452365184 -1.89742041159522
4.91061676343665 -4.77287452365184 -1.89742041159522
3.29258277468675 5.77287452365184 -2.51545440034511
-6.32751084021560 2.17267030531366 -2.39516236309153
6.32751084021560 -2.17267030531366 -2.39516236309153
1.00000000000000 5.46525308000041 -4.43009042862038
-5.46525308000041 -4.43009042862038 -1.00000000000000
-2.39516236309153 6.32751084021560 -2.17267030531366
2.39516236309153 -6.32751084021560 -2.17267030531366
-5.77287452365184 2.51545440034511 -3.29258277468675
5.77287452365184 -2.51545440034511 -3.29258277468675
1.89742041159522 4.91061676343665 -4.77287452365184
-4.91061676343665 -4.77287452365184 -1.89742041159522
-3.29258277468675 5.77287452365184 -2.51545440034511
3.29258277468675 -5.77287452365184 -2.51545440034511
-6.32751084021560 -2.17267030531366 -2.39516236309153
-1.00000000000000 5.46525308000041 -4.43009042862038
1.00000000000000 -5.46525308000041 -4.43009042862038
4.77287452365184 1.89742041159522 -4.91061676343665
-2.39516236309153 -6.32751084021560 -2.17267030531366
-5.77287452365184 -2.51545440034511 -3.29258277468675
-1.89742041159522 4.91061676343665 -4.77287452365184
1.89742041159522 -4.91061676343665 -4.77287452365184
4.43009042862038 1.00000000000000 -5.46525308000041
-3.29258277468675 -5.77287452365184 -2.51545440034511
2.51545440034511 3.29258277468675 -5.77287452365184
-1.00000000000000 -5.46525308000041 -4.43009042862038
-4.77287452365184 1.89742041159522 -4.91061676343665
4.77287452365184 -1.89742041159522 -4.91061676343665
2.17267030531366 2.39516236309153 -6.32751084021560
-1.89742041159522 -4.91061676343665 -4.77287452365184
-4.43009042862038 1.00000000000000 -5.46525308000041
4.43009042862038 -1.00000000000000 -5.46525308000041
-2.51545440034511 3.29258277468675 -5.77287452365184
2.51545440034511 -3.29258277468675 -5.77287452365184
-4.77287452365184 -1.89742041159522 -4.91061676343665
-2.17267030531366 2.39516236309153 -6.32751084021560
2.17267030531366 -2.39516236309153 -6.32751084021560
-4.43009042862038 -1.00000000000000 -5.46525308000041
-2.51545440034511 -3.29258277468675 -5.77287452365184
0.554636316563766 1.39516236309153 -6.94554482896550
-2.17267030531366 -2.39516236309153 -6.32751084021560
-0.554636316563766 1.39516236309153 -6.94554482896550
0.554636316563766 -1.39516236309153 -6.94554482896550
-0.554636316563766 -1.39516236309153 -6.94554482896550

5 75 12 82 46 15
5 21 88 36 72 104
5 28 25 15 6 11
5 90 118 68 75 91
5 14 73 2 17 49
5 94 68 67 35 20
5 20 87 16 48 84
5 9 29 27 62 76
5 4 40 18 50 64
5 97 81 112 117 102
5 35 49 14 0 9
5 42 106 37 52 86
5 80 103 96 106 114
5 44 89 60 95 116
5 99 32 81 45 14
5 119 79 114 94 58
5 41 16 24 13 5
5 70 105 43 29 44
5 31 77 48 84 111
5 79 119 56 63 80
5 55 111 31 39 74
5 102 101 78 65 54
5 111 55 115 93 57
5 57 96 30 19 31
5 48 15 75 91 77
5 52 3 77 66 53
5 71 62 46 15 6
5 107 43 93 57 22
5 108 109 91 77 66
5 51 2 59 42 28
5 74 82 95 116 115
5 17 19 40 56 63
5 11 10 29 44 51
5 8 64 4 25 60
5 106 42 110 81 45
5 30 98 26 61 96
5 53 26 34 8 1
5 78 115 74 87 101
5 98 30 103 70 34
5 13 76 9 36 72
5 65 37 45 14 0
5 88 21 69 33 7
5 96 57 111 118 103
5 22 85 6 11 38
5 118 90 109 83 67
5 112 58 119 110 81
5 10 11 28 21 27
5 32 99 49 85 112
5 93 92 66 53 43
5 49 35 76 92 99
5 36 23 63 80 88
5 67 116 44 51 68
5 81 97 54 41 32
5 104 46 117 102 69
5 116 67 118 103 70
5 39 0 65 54 41
5 24 60 8 1 16
5 38 47 64 97 107
5 7 61 0 9 36
5 76 13 83 67 35
5 100 114 80 88 78
5 47 38 22 3 4
5 5 18 19 31 39
5 25 28 51 68 75
5 117 66 108 82 46
5 113 54 102 69 33
5 2 51 11 38 73
5 23 36 7 2 17
5 72 34 98 109 83
5 86 69 104 119 110
5 69 86 42 28 21
5 58 112 32 40 56
5 19 17 23 12 18
5 103 80 79 47 30
5 29 9 35 20 10
5 87 20 94 58 24
5 26 53 52 86 98
5 15 48 3 4 25
5 34 72 13 5 26
5 92 93 105 113 108
5 83 56 58 24 13
5 46 104 21 27 62
5 105 70 116 115 93
5 16 41 39 74 87
5 82 74 55 23 12
5 89 44 70 34 8
5 91 110 86 98 109
5 45 84 20 10 37
5 3 52 1 16 48
5 54 113 50 64 97
5 37 65 61 96 106
5 56 83 72 104 119
5 73 14 99 90 59
5 115 78 100 71 55
5 63 6 71 55 23
5 59 50 33 7 2
5 84 45 106 114 94
5 64 8 89 79 47
5 101 102 97 107 100
5 12 75 25 60 95
5 33 95 12 18 50
5 27 1 53 43 29
5 43 107 38 73 105
5 109 108 92 99 90
5 66 117 62 76 92
5 77 31 57 22 3
5 50 59 73 105 113
5 114 100 101 89 79
5 18 5 41 32 40
5 0 39 5 26 61
5 40 4 47 30 19
5 60 24 87 101 89
5 62 71 85 112 117
5 1 27 10 37 52
5 6 63 17 49 85
5 68 94 84 111 118
5 61 7 88 78 65
5 110 91 90 59 42
5 95 33 113 108 82
5 85 22 107 100 71
