OFF
120 120 0

0.328387746462995 1.03137278693532 5.76459448356194
-0.328387746462995 1.03137278693532 5.76459448356194
0.328387746462995 -1.03137278693532 5.76459448356194
1.94642173521289 2.03137278693532 5.14656049481205
-0.328387746462995 -1.03137278693532 5.76459448356194
2.14937652401600 2.56271532220143 4.81817274834905
3.61521795954594 1.00000000000000 4.50913705741432
-1.94642173521289 2.03137278693532 5.14656049481205
1.94642173521289 -2.03137278693532 5.14656049481205
3.81817274834905 1.53134253526611 4.18074931095132
-2.14937652401600 2.56271532220143 4.81817274834905
2.14937652401600 -2.56271532220143 4.81817274834905
-3.61521795954594 1.00000000000000 4.50913705741432
3.61521795954594 -1.00000000000000 4.50913705741432
-1.94642173521289 -2.03137278693532 5.14656049481205
1.53134253526611 4.18074931095132 3.81817274834905
-3.81817274834905 1.53134253526611 4.18074931095132
3.81817274834905 -1.53134253526611 4.18074931095132
-2.14937652401600 -2.56271532220143 4.81817274834905
1.00000000000000 4.50913705741432 3.61521795954594
-3.61521795954594 -1.00000000000000 4.50913705741432
2.56271532220143 4.81817274834905 2.14937652401600
4.81817274834905 2.14937652401600 2.56271532220143
-1.53134253526611 4.18074931095132 3.81817274834905
1.53134253526611 -4.18074931095132 3.81817274834905
-3.81817274834905 -1.53134253526611 4.18074931095132
2.03137278693532 5.14656049481205 1.94642173521289
5.14656049481205 1.94642173521289 2.03137278693532
-1.00000000000000 4.50913705741432 3.61521795954594
1.00000000000000 -4.50913705741432 3.61521795954594
4.18074931095132 3.81817274834905 1.53134253526611
-2.56271532220143 4.81817274834905 2.14937652401600
2.56271532220143 -4.81817274834905 2.14937652401600
-4.81817274834905 2.14937652401600 2.56271532220143
4.81817274834905 -2.14937652401600 2.56271532220143
-1.53134253526611 -4.18074931095132 3.81817274834905
4.50913705741432 3.61521795954594 1.00000000000000
-2.03137278693532 5.14656049481205 1.94642173521289
2.03137278693532 -5.14656049481205 1.94642173521289
-5.14656049481205 1.94642173521289 2.03137278693532
5.14656049481205 -1.94642173521289 2.03137278693532
-1.00000000000000 -4.50913705741432 3.61521795954594
-4.18074931095132 3.81817274834905 1.53134253526611
4.18074931095132 -3.81817274834905 1.53134253526611
-2.56271532220143 -4.81817274834905 2.14937652401600
-4.81817274834905 -2.14937652401600 2.56271532220143
1.03137278693532 5.76459448356194 0.328387746462995
5.76459448356194 0.328387746462995 1.03137278693532
-4.50913705741432 3.61521795954594 1.00000000000000
4.50913705741432 -3.61521795954594 1.00000000000000
-2.03137278693532 -5.14656049481205 1.94642173521289
-5.14656049481205 -1.94642173521289 2.03137278693532
1.03137278693532 5.76459448356194 -0.328387746462995
5.76459448356194 -0.328387746462995 1.03137278693532
-4.18074931095132 -3.81817274834905 1.53134253526611
-1.03137278693532 5.76459448356194 0.328387746462995
5.76459448356194 0.328387746462995 -1.03137278693532
4.50913705741432 3.61521795954594 -1.00000000000000
1.03137278693532 -5.76459448356194 0.328387746462995
-5.76459448356194 0.328387746462995 1.03137278693532
-4.50913705741432 -3.61521795954594 1.00000000000000
-1.03137278693532 5.76459448356194 -0.328387746462995
5.76459448356194 -0.328387746462995 -1.03137278693532
4.18074931095132 3.81817274834905 -1.53134253526611
1.03137278693532 -5.76459448356194 -0.328387746462995
-5.76459448356194 -0.328387746462995 1.03137278693532
5.14656049481205 1.94642173521289 -2.03137278693532
-1.03137278693532 -5.76459448356194 0.328387746462995
-5.76459448356194 0.328387746462995 -1.03137278693532
-4.50913705741432 3.61521795954594 -1.00000000000000
4.50913705741432 -3.61521795954594 -1.00000000000000
2.03137278693532 5.14656049481205 -1.94642173521289
4.81817274834905 2.14937652401600 -2.56271532220143
-1.03137278693532 -5.76459448356194 -0.328387746462995
-5.76459448356194 -0.328387746462995 -1.03137278693532
-4.18074931095132 3.81817274834905 -1.53134253526611
4.18074931095132 -3.81817274834905 -1.53134253526611
2.56271532220143 4.81817274834905 -2.14937652401600
-5.14656049481205 1.94642173521289 -2.03137278693532
5.14656049481205 -1.94642173521289 -2.03137278693532
1.00000000000000 4.50913705741432 -3.61521795954594
-4.50913705741432 -3.61521795954594 -1.00000000000000
-2.03137278693532 5.14656049481205 -1.94642173521289
2.03137278693532 -5.14656049481205 -1.94642173521289
-4.81817274834905 2.14937652401600 -2.56271532220143
4.81817274834905 -2.14937652401600 -2.56271532220143
1.53134253526611 4.18074931095132 -3.81817274834905
-4.18074931095132 -3.81817274834905 -1.53134253526611
-2.56271532220143 4.81817274834905 -2.14937652401600
2.56271532220143 -4.81817274834905 -2.14937652401600
-5.14656049481205 -1.94642173521289 -2.03137278693532
-1.00000000000000 4.50913705741432 -3.61521795954594
1.00000000000000 -4.50913705741432 -3.61521795954594
3.81817274834905 1.53134253526611 -4.18074931095132
-2.03137278693532 -5.14656049481205 -1.94642173521289
-4.81817274834905 -2.14937652401600 -2.56271532220143
-1.53134253526611 4.18074931095132 -3.81817274834905
1.53134253526611 -4.18074931095132 -3.81817274834905
3.61521795954594 1.00000000000000 -4.50913705741432
-2.56271532220143 -4.81817274834905 -2.14937652401600
2.14937652401600 2.56271532220143 -4.81817274834905
-1.00000000000000 -4.50913705741432 -3.61521795954594
-3.81817274834905 1.53134253526611 -4.18074931095132
3.81817274834905 -1.53134253526611 -4.18074931095132
1.94642173521289 2.03137278693532 -5.14656049481205
-1.53134253526611 -4.18074931095132 -3.81817274834905
-3.61521795954594 1.00000000000000 -4.50913705741432
3.61521795954594 -1.00000000000000 -4.50913705741432
-2.14937652401600 2.56271532220143 -4.81817274834905
2.14937652401600 -2.56271532220143 -4.81817274834905
-3.81817274834905 -1.53134253526611 -4.18074931095132
-1.94642173521289 2.03137278693532 -5.14656049481205
1.94642173521289 -2.03137278693532 -5.14656049481205
-3.61521795954594 -1.00000000000000 -4.50913705741432
-2.14937652401600 -2.56271532220143 -4.81817274834905
0.328387746462995 1.03137278693532 -5.76459448356194
-1.94642173521289 -2.03137278693532 -5.14656049481205
-0.328387746462995 1.03137278693532 -5.76459448356194
0.328387746462995 -1.03137278693532 -5.76459448356194
-0.328387746462995 -1.03137278693532 -5.76459448356194

5 75 12 72 33 47
5 21 88 70 61 97
5 28 25 56 12 70
5 90 118 23 116 26
5 14 73 30 50 66
5 94 68 17 90 3
5 20 87 46 60 80
5 9 29 100 11 118
5 4 40 90 17 114
5 97 81 77 99 61
5 35 49 31 32 46
5 42 106 22 84 56
5 80 103 59 98 60
5 44 89 69 64 96
5 99 32 48 58 23
5 119 79 51 103 18
5 41 16 62 20 57
5 70 105 0 92 12
5 31 77 81 52 105
5 79 119 15 112 37
5 55 111 14 96 44
5 102 101 10 114 4
5 111 55 76 82 40
5 57 96 2 80 20
5 48 15 119 28 107
5 52 3 112 15 89
5 71 62 16 66 14
5 107 43 61 70 28
5 108 109 19 118 9
5 51 2 96 14 71
5 74 82 83 75 85
5 17 19 109 5 115
5 11 10 101 1 110
5 8 64 42 38 78
5 106 42 64 69 29
5 30 98 33 72 68
5 53 26 50 30 45
5 78 115 35 111 38
5 98 30 73 57 41
5 13 76 55 49 91
5 65 37 38 42 34
5 88 21 60 46 35
5 96 57 99 77 64
5 22 85 20 62 54
5 118 90 40 110 11
5 112 58 75 83 39
5 10 11 80 2 93
5 32 99 57 73 86
5 93 92 5 109 2
5 49 35 115 29 106
5 36 23 118 19 113
5 67 116 7 105 31
5 81 97 1 101 6
5 104 46 87 71 51
5 116 67 63 94 27
5 39 0 105 7 83
5 24 60 21 44 55
5 38 47 110 40 111
5 7 61 43 37 79
5 76 13 95 34 65
5 100 114 28 119 16
5 47 38 37 43 33
5 5 18 91 4 102
5 25 28 114 10 117
5 117 66 39 93 10
5 113 54 52 81 19
5 2 51 79 25 109
5 23 36 44 21 58
5 72 34 113 53 87
5 86 69 89 88 73
5 69 86 4 91 13
5 58 112 3 97 21
5 19 17 68 6 81
5 103 80 11 100 0
5 29 9 74 13 69
5 87 20 85 45 53
5 26 53 102 27 116
5 15 48 32 31 67
5 34 72 12 56 42
5 92 93 65 107 48
5 83 56 25 79 7
5 46 104 8 86 32
5 105 70 88 89 52
5 16 41 108 18 119
5 82 74 9 78 8
5 89 44 36 67 15
5 91 110 47 106 49
5 45 84 6 68 30
5 3 52 54 26 90
5 54 113 34 95 62
5 37 65 93 39 112
5 56 83 82 76 84
5 73 14 111 35 88
5 115 78 27 102 5
5 63 6 84 22 59
5 59 50 26 54 22
5 84 45 107 65 76
5 64 8 104 24 77
5 101 102 53 113 36
5 12 75 58 48 92
5 33 95 13 74 43
5 27 1 97 3 94
5 43 107 45 85 74
5 109 108 41 117 25
5 66 117 24 104 50
5 77 31 49 55 24
5 50 59 103 51 104
5 114 100 29 115 17
5 18 5 92 0 103
5 0 39 66 16 100
5 40 4 86 8 82
5 60 24 117 41 98
5 62 71 94 63 95
5 1 27 78 9 108
5 6 63 67 36 101
5 68 94 71 87 72
5 61 7 116 23 99
5 110 91 18 108 1
5 95 33 98 59 63
5 85 22 106 47 75
