OFF
120 120 0

0.392345792299904 0.564847992203540 5.17718584694641
-0.392345792299904 0.564847992203540 5.17718584694641
0.392345792299904 -0.564847992203540 5.17718584694641
2.01037978104980 1.56484799220354 4.55915185819651
-0.392345792299904 -0.564847992203540 5.17718584694641
2.25286281603415 2.19967681948779 4.16680606589661
2.92432303091226 1.00000000000000 4.21005660053759
-2.01037978104980 1.56484799220354 4.55915185819651
2.01037978104980 -1.56484799220354 4.55915185819651
3.16680606589661 1.63482882728425 3.81771080823769
-2.25286281603415 2.19967681948779 4.16680606589661
2.25286281603415 -2.19967681948779 4.16680606589661
-2.92432303091226 1.00000000000000 4.21005660053759
2.92432303091226 -1.00000000000000 4.21005660053759
-2.01037978104980 -1.56484799220354 4.55915185819651
1.63482882728425 3.81771080823769 3.16680606589661
-3.16680606589661 1.63482882728425 3.81771080823769
3.16680606589661 -1.63482882728425 3.81771080823769
-2.25286281603415 -2.19967681948779 4.16680606589661
1.00000000000000 4.21005660053759 2.92432303091226
-2.92432303091226 -1.00000000000000 4.21005660053759
2.19967681948779 4.16680606589661 2.25286281603415
4.16680606589661 2.25286281603415 2.19967681948779
-1.63482882728425 3.81771080823769 3.16680606589661
1.63482882728425 -3.81771080823769 3.16680606589661
-3.16680606589661 -1.63482882728425 3.81771080823769
1.56484799220354 4.55915185819651 2.01037978104980
4.55915185819651 2.01037978104980 1.56484799220354
-1.00000000000000 4.21005660053759 2.92432303091226
1.00000000000000 -4.21005660053759 2.92432303091226
3.81771080823769 3.16680606589661 1.63482882728425
-2.19967681948779 4.16680606589661 2.25286281603415
2.19967681948779 -4.16680606589661 2.25286281603415
-4.16680606589661 2.25286281603415 2.19967681948779
4.16680606589661 -2.25286281603415 2.19967681948779
-1.63482882728425 -3.81771080823769 3.16680606589661
4.21005660053759 2.92432303091226 1.00000000000000
-1.56484799220354 4.55915185819651 2.01037978104980
1.56484799220354 -4.55915185819651 2.01037978104980
-4.55915185819651 2.01037978104980 1.56484799220354
4.55915185819651 -2.01037978104980 1.56484799220354
-1.00000000000000 -4.21005660053759 2.92432303091226
-3.81771080823769 3.16680606589661 1.63482882728425
3.81771080823769 -3.16680606589661 1.63482882728425
-2.19967681948779 -4.16680606589661 2.25286281603415
-4.16680606589661 -2.25286281603415 2.19967681948779
0.564847992203540 5.17718584694641 0.392345792299904
5.17718584694641 0.392345792299904 0.564847992203540
-4.21005660053759 2.92432303091226 1.00000000000000
4.21005660053759 -2.92432303091226 1.00000000000000
-1.56484799220354 -4.55915185819651 2.01037978104980
-4.55915185819651 -2.01037978104980 1.56484799220354
0.564847992203540 5.17718584694641 -0.392345792299904
5.17718584694641 -0.392345792299904 0.564847992203540
-3.81771080823769 -3.16680606589661 1.63482882728425
-0.564847992203540 5.17718584694641 0.392345792299904
5.17718584694641 0.392345792299904 -0.564847992203540
4.21005660053759 2.92432303091226 -1.00000000000000
0.564847992203540 -5.17718584694641 0.392345792299904
-5.17718584694641 0.392345792299904 0.564847992203540
-4.21005660053759 -2.92432303091226 1.00000000000000
-0.564847992203540 5.17718584694641 -0.392345792299904
5.17718584694641 -0.392345792299904 -0.564847992203540
3.81771080823769 3.16680606589661 -1.63482882728425
0.564847992203540 -5.17718584694641 -0.392345792299904
-5.17718584694641 -0.392345792299904 0.564847992203540
4.55915185819651 2.01037978104980 -1.56484799220354
-0.564847992203540 -5.17718584694641 0.392345792299904
-5.17718584694641 0.392345792299904 -0.564847992203540
-4.21005660053759 2.92432303091226 -1.00000000000000
4.21005660053759 -2.92432303091226 -1.00000000000000
1.56484799220354 4.55915185819651 -2.01037978104980
4.16680606589661 2.25286281603415 -2.19967681948779
-0.564847992203540 -5.17718584694641 -0.392345792299904
-5.17718584694641 -0.392345792299904 -0.564847992203540
-3.81771080823769 3.16680606589661 -1.63482882728425
3.81771080823769 -3.16680606589661 -1.63482882728425
2.19967681948779 4.16680606589661 -2.25286281603415
-4.55915185819651 2.01037978104980 -1.56484799220354
4.55915185819651 -2.01037978104980 -1.56484799220354
1.00000000000000 4.21005660053759 -2.92432303091226
-4.21005660053759 -2.92432303091226 -1.00000000000000
-1.56484799220354 4.55915185819651 -2.01037978104980
1.56484799220354 -4.55915185819651 -2.01037978104980
-4.16680606589661 2.25286281603415 -2.19967681948779
4.16680606589661 -2.25286281603415 -2.19967681948779
1.63482882728425 3.81771080823769 -3.16680606589661
-3.81771080823769 -3.16680606589661 -1.63482882728425
-2.19967681948779 4.16680606589661 -2.25286281603415
2.19967681948779 -4.16680606589661 -2.25286281603415
-4.55915185819651 -2.01037978104980 -1.56484799220354
-1.00000000000000 4.21005660053759 -2.92432303091226
1.00000000000000 -4.21005660053759 -2.92432303091226
3.16680606589661 1.63482882728425 -3.81771080823769
-1.56484799220354 -4.55915185819651 -2.01037978104980
-4.16680606589661 -2.25286281603415 -2.19967681948779
-1.63482882728425 3.81771080823769 -3.16680606589661
1.63482882728425 -3.81771080823769 -3.16680606589661
2.92432303091226 1.00000000000000 -4.21005660053759
-2.19967681948779 -4.16680606589661 -2.25286281603415
2.25286281603415 2.19967681948779 -4.16680606589661
-1.00000000000000 -4.21005660053759 -2.92432303091226
-3.16680606589661 1.63482882728425 -3.81771080823769
3.16680606589661 -1.63482882728425 -3.81771080823769
2.01037978104980 1.56484799220354 -4.55915185819651
-1.63482882728425 -3.81771080823769 -3.16680606589661
-2.92432303091226 1.00000000000000 -4.21005660053759
2.92432303091226 -1.00000000000000 -4.21005660053759
-2.25286281603415 2.19967681948779 -4.16680606589661
2.25286281603415 -2.19967681948779 -4.16680606589661
-3.16680606589661 -1.63482882728425 -3.81771080823769
-2.01037978104980 1.56484799220354 -4.55915185819651
2.01037978104980 -1.56484799220354 -4.55915185819651
-2.92432303091226 -1.00000000000000 -4.21005660053759
-2.25286281603415 -2.19967681948779 -4.16680606589661
0.392345792299904 0.564847992203540 -5.17718584694641
-2.01037978104980 -1.56484799220354 -4.55915185819651
-0.392345792299904 0.564847992203540 -5.17718584694641
0.392345792299904 -0.564847992203540 -5.17718584694641
-0.392345792299904 -0.564847992203540 -5.17718584694641

6 75 78 24 52 50 22
6 21 19 95 66 65 112
6 28 31 94 9 95 43
6 90 87 56 69 70 52
6 14 25 118 13 113 62
6 94 105 55 41 91 1
6 20 18 112 42 89 96
6 9 3 87 56 51 109
6 4 0 98 44 63 101
6 97 83 16 115 14 88
6 35 50 93 1 112 21
6 42 39 97 46 94 72
6 80 77 38 102 34 87
6 44 41 72 90 47 111
6 99 101 22 51 56 7
6 119 115 6 99 30 41
6 41 44 82 17 84 30
6 70 85 78 24 108 25
6 31 28 85 78 53 116
6 79 76 68 57 81 61
6 55 52 92 33 103 60
6 102 111 43 59 79 18
6 111 102 0 98 12 47
6 57 72 90 15 114 16
6 48 33 40 96 11 93
6 52 55 41 72 25 70
6 71 86 58 19 92 2
6 107 109 14 63 44 15
6 108 106 32 71 67 27
6 51 54 47 48 49 46
6 74 59 36 114 15 107
6 17 8 75 62 39 100
6 11 13 88 50 52 90
6 8 17 119 20 107 74
6 106 108 3 87 21 35
6 30 27 105 55 83 84
6 53 56 69 11 96 20
6 78 75 62 81 57 64
6 98 100 7 76 31 24
6 13 11 116 30 99 86
6 65 68 57 18 86 13
6 88 91 34 39 62 14
6 96 82 17 119 3 89
6 22 36 114 8 117 50
6 118 117 12 89 42 29
6 112 103 4 113 13 65
6 10 12 89 26 73 66
6 32 29 84 79 59 104
6 93 104 54 47 90 11
6 49 34 39 97 10 110
6 36 22 51 86 18 102
6 67 64 80 45 93 48
6 81 95 66 35 100 17
6 104 93 1 106 6 59
6 116 110 2 107 20 53
6 39 42 53 60 36 58
6 24 38 102 0 116 31
6 38 24 52 92 19 115
6 7 16 115 6 106 56
6 76 79 23 73 26 45
6 100 98 44 82 58 39
6 47 62 81 5 105 12
6 5 6 99 37 64 78
6 25 14 63 74 27 108
6 117 118 13 88 43 28
6 113 114 8 75 32 23
6 2 1 106 32 75 92
6 23 37 103 4 104 32
6 72 57 18 112 1 94
6 86 71 25 118 7 99
6 69 84 79 23 109 9
6 58 73 91 34 102 36
6 19 21 83 16 85 54
6 103 112 42 53 78 5
6 29 32 71 25 72 42
6 87 90 15 64 37 34
6 26 15 64 80 29 118
6 15 26 110 2 111 44
6 34 49 108 3 119 37
6 92 89 26 110 22 75
6 83 97 46 29 80 0
6 46 61 101 22 110 49
6 105 94 9 117 8 77
6 16 7 76 68 40 114
6 82 96 67 28 101 4
6 89 92 33 40 68 3
6 91 88 50 93 45 76
6 45 60 100 7 118 26
6 3 9 117 12 98 68
6 54 51 86 58 82 85
6 37 23 73 91 41 119
6 56 53 60 100 35 106
6 73 58 19 95 9 69
6 115 119 20 77 54 19
6 63 66 35 61 38 33
6 59 74 70 10 97 6
6 84 69 11 116 0 83
6 64 67 28 85 16 57
6 101 99 37 103 33 63
6 12 10 104 54 77 105
6 33 48 109 14 115 38
6 27 30 65 49 48 67
6 43 40 96 67 71 95
6 109 107 31 94 46 51
6 66 63 74 70 69 73
6 77 80 45 27 74 8
6 50 35 61 101 28 117
6 114 113 21 83 55 40
6 18 20 77 38 61 79
6 0 4 113 21 87 80
6 40 43 59 36 60 55
6 60 45 27 105 5 103
6 62 47 48 109 23 113
6 1 2 107 31 76 91
6 6 5 111 43 88 97
6 68 65 49 108 24 98
6 61 46 29 84 17 81
6 110 116 30 65 66 10
6 95 81 5 111 2 71
6 85 70 10 104 4 82
