OFF
120 120 0

1.31752105769268 0.262188539288551 7.10961285546251
-1.31752105769268 0.262188539288551 7.10961285546251
1.31752105769268 -0.262188539288551 7.10961285546251
2.93555504644258 1.26218853928855 6.49157886671261
-1.31752105769268 -0.262188539288551 7.10961285546251
3.74982784099037 3.39398239152902 5.17405780901993
3.35978501447214 1.00000000000000 6.32953743797160
-2.93555504644258 1.26218853928855 6.49157886671261
2.93555504644258 -1.26218853928855 6.49157886671261
4.17405780901993 3.13179385224047 5.01201638027892
-3.74982784099037 3.39398239152902 5.17405780901993
3.74982784099037 -3.39398239152902 5.17405780901993
-3.35978501447214 1.00000000000000 6.32953743797160
3.35978501447214 -1.00000000000000 6.32953743797160
-2.93555504644258 -1.26218853928855 6.49157886671261
3.13179385224047 5.01201638027892 4.17405780901993
-4.17405780901993 3.13179385224047 5.01201638027892
4.17405780901993 -3.13179385224047 5.01201638027892
-3.74982784099037 -3.39398239152902 5.17405780901993
1.00000000000000 6.32953743797160 3.35978501447214
-3.35978501447214 -1.00000000000000 6.32953743797160
3.39398239152902 5.17405780901993 3.74982784099037
5.17405780901993 3.74982784099037 3.39398239152902
-3.13179385224047 5.01201638027892 4.17405780901993
3.13179385224047 -5.01201638027892 4.17405780901993
-4.17405780901993 -3.13179385224047 5.01201638027892
1.26218853928855 6.49157886671261 2.93555504644258
6.49157886671261 2.93555504644258 1.26218853928855
-1.00000000000000 6.32953743797160 3.35978501447214
1.00000000000000 -6.32953743797160 3.35978501447214
5.01201638027892 4.17405780901993 3.13179385224047
-3.39398239152902 5.17405780901993 3.74982784099037
3.39398239152902 -5.17405780901993 3.74982784099037
-5.17405780901993 3.74982784099037 3.39398239152902
5.17405780901993 -3.74982784099037 3.39398239152902
-3.13179385224047 -5.01201638027892 4.17405780901993
6.32953743797160 3.35978501447214 1.00000000000000
-1.26218853928855 6.49157886671261 2.93555504644258
1.26218853928855 -6.49157886671261 2.93555504644258
-6.49157886671261 2.93555504644258 1.26218853928855
6.49157886671261 -2.93555504644258 1.26218853928855
-1.00000000000000 -6.32953743797160 3.35978501447214
-5.01201638027892 4.17405780901993 3.13179385224047
5.01201638027892 -4.17405780901993 3.13179385224047
-3.39398239152902 -5.17405780901993 3.74982784099037
-5.17405780901993 -3.74982784099037 3.39398239152902
0.262188539288551 7.10961285546251 1.31752105769268
7.10961285546251 1.31752105769268 0.262188539288551
-6.32953743797160 3.35978501447214 1.00000000000000
6.32953743797160 -3.35978501447214 1.00000000000000
-1.26218853928855 -6.49157886671261 2.93555504644258
-6.49157886671261 -2.93555504644258 1.26218853928855
0.262188539288551 7.10961285546251 -1.31752105769268
7.10961285546251 -1.31752105769268 0.262188539288551
-5.01201638027892 -4.17405780901993 3.13179385224047
-0.262188539288551 7.10961285546251 1.31752105769268
7.10961285546251 1.31752105769268 -0.262188539288551
6.32953743797160 3.35978501447214 -1.00000000000000
0.262188539288551 -7.10961285546251 1.31752105769268
-7.10961285546251 1.31752105769268 0.262188539288551
-6.32953743797160 -3.35978501447214 1.00000000000000
-0.262188539288551 7.10961285546251 -1.31752105769268
7.10961285546251 -1.31752105769268 -0.262188539288551
5.01201638027892 4.17405780901993 -3.13179385224047
0.262188539288551 -7.10961285546251 -1.31752105769268
-7.10961285546251 -1.31752105769268 0.262188539288551
6.49157886671261 2.93555504644258 -1.26218853928855
-0.262188539288551 -7.10961285546251 1.31752105769268
-7.10961285546251 1.31752105769268 -0.262188539288551
-6.32953743797160 3.35978501447214 -1.00000000000000
6.32953743797160 -3.35978501447214 -1.00000000000000
1.26218853928855 6.49157886671261 -2.93555504644258
5.17405780901993 3.74982784099037 -3.39398239152902
-0.262188539288551 -7.10961285546251 -1.31752105769268
-7.10961285546251 -1.31752105769268 -0.262188539288551
-5.01201638027892 4.17405780901993 -3.13179385224047
5.01201638027892 -4.17405780901993 -3.13179385224047
3.39398239152902 5.17405780901993 -3.74982784099037
-6.49157886671261 2.93555504644258 -1.26218853928855
6.49157886671261 -2.93555504644258 -1.26218853928855
1.00000000000000 6.32953743797160 -3.35978501447214
-6.32953743797160 -3.35978501447214 -1.00000000000000
-1.26218853928855 6.49157886671261 -2.93555504644258
1.26218853928855 -6.49157886671261 -2.93555504644258
-5.17405780901993 3.74982784099037 -3.39398239152902
5.17405780901993 -3.74982784099037 -3.39398239152902
3.13179385224047 5.01201638027892 -4.17405780901993
-5.01201638027892 -4.17405780901993 -3.13179385224047
-3.39398239152902 5.17405780901993 -3.74982784099037
3.39398239152902 -5.17405780901993 -3.74982784099037
-6.49157886671261 -2.93555504644258 -1.26218853928855
-1.00000000000000 6.32953743797160 -3.35978501447214
1.00000000000000 -6.32953743797160 -3.35978501447214
4.17405780901993 3.13179385224047 -5.01201638027892
-1.26218853928855 -6.49157886671261 -2.93555504644258
-5.17405780901993 -3.74982784099037 -3.39398239152902
-3.13179385224047 5.01201638027892 -4.17405780901993
3.13179385224047 -5.01201638027892 -4.17405780901993
3.35978501447214 1.00000000000000 -6.32953743797160
-3.39398239152902 -5.17405780901993 -3.74982784099037
3.74982784099037 3.39398239152902 -5.17405780901993
-1.00000000000000 -6.32953743797160 -3.35978501447214
-4.17405780901993 3.13179385224047 -5.01201638027892
4.17405780901993 -3.13179385224047 -5.01201638027892
2.93555504644258 1.26218853928855 -6.49157886671261
-3.13179385224047 -5.01201638027892 -4.17405780901993
-3.35978501447214 1.00000000000000 -6.32953743797160
3.35978501447214 -1.00000000000000 -6.32953743797160
-3.74982784099037 3.39398239152902 -5.17405780901993
3.74982784099037 -3.39398239152902 -5.17405780901993
-4.17405780901993 -3.13179385224047 -5.01201638027892
-2.93555504644258 1.26218853928855 -6.49157886671261
2.93555504644258 -1.26218853928855 -6.49157886671261
-3.35978501447214 -1.00000000000000 -6.32953743797160
-3.74982784099037 -3.39398239152902 -5.17405780901993
1.31752105769268 0.262188539288551 -7.10961285546251
-2.93555504644258 -1.26218853928855 -6.49157886671261
-1.31752105769268 0.262188539288551 -7.10961285546251
1.31752105769268 -0.262188539288551 -7.10961285546251
-1.31752105769268 -0.262188539288551 -7.10961285546251

5 75 119 1 102 24
5 21 8 108 5 95
5 28 80 35 55 94
5 90 18 104 60 56
5 14 31 83 12 118
5 94 85 39 92 55
5 20 6 110 4 112
5 9 55 58 15 87
5 4 42 70 7 98
5 97 53 74 76 16
5 35 74 53 54 93
5 42 4 117 16 97
5 80 28 97 52 38
5 44 7 109 18 72
5 99 111 11 114 22
5 119 75 49 111 6
5 41 92 23 67 82
5 70 36 87 62 78
5 31 14 100 10 85
5 79 11 111 49 68
5 55 9 113 26 92
5 102 52 73 96 43
5 111 99 26 113 0
5 57 49 75 56 90
5 48 81 30 59 40
5 52 102 13 82 41
5 71 84 40 91 58
5 107 106 17 118 14
5 108 39 85 84 32
5 51 114 3 81 47
5 74 35 80 51 36
5 17 67 46 24 75
5 11 79 33 34 88
5 8 21 94 6 119
5 106 107 16 117 3
5 30 2 115 9 105
5 53 97 28 79 69
5 78 10 112 48 62
5 98 113 9 115 7
5 13 12 103 2 116
5 65 105 19 90 57
5 88 116 5 108 34
5 96 59 56 75 17
5 22 37 89 21 114
5 118 63 60 104 12
5 112 77 50 98 4
5 10 78 34 33 89
5 32 3 114 11 84
5 93 61 64 86 54
5 49 57 54 53 39
5 36 70 42 47 51
5 67 17 106 38 80
5 81 48 76 74 66
5 104 89 37 107 1
5 116 88 38 106 2
5 39 108 8 69 53
5 24 62 65 43 102
5 38 45 66 41 52
5 7 44 71 20 115
5 76 115 2 103 23
5 100 27 95 72 44
5 47 86 41 66 81
5 5 66 45 22 99
5 25 58 55 35 63
5 117 87 36 116 13
5 113 98 25 119 8
5 2 30 81 3 106
5 23 68 47 42 103
5 72 82 32 77 18
5 86 47 68 63 25
5 69 60 63 68 79
5 58 25 98 50 91
5 19 91 24 46 83
5 103 73 52 97 42
5 29 101 15 58 71
5 87 117 4 110 15
5 26 33 79 28 64
5 15 56 59 30 110
5 34 50 77 32 108
5 92 41 86 64 26
5 83 95 27 101 46
5 46 16 107 37 101
5 105 65 62 87 9
5 16 46 67 23 76
5 82 72 51 80 67
5 89 104 18 109 33
5 91 19 105 61 50
5 45 38 88 44 100
5 3 32 82 13 117
5 54 1 119 25 86
5 37 22 90 19 73
5 56 15 101 27 60
5 73 103 12 83 19
5 115 76 48 112 20
5 63 118 0 93 35
5 59 96 29 78 70
5 84 71 44 88 11
5 64 110 6 94 28
5 101 29 96 73 37
5 12 13 102 1 104
5 33 26 99 31 109
5 27 100 14 57 65
5 43 0 118 17 96
5 109 40 84 85 31
5 66 5 116 36 74
5 77 112 10 100 45
5 50 34 78 29 61
5 114 51 72 95 21
5 18 90 22 45 77
5 0 43 69 8 113
5 40 109 7 70 59
5 60 69 43 65 27
5 62 24 91 40 48
5 1 54 57 14 107
5 6 20 93 0 111
5 68 23 92 39 49
5 61 93 20 71 29
5 110 64 61 105 30
5 95 83 31 99 5
5 85 94 21 89 10
