OFF
120 120 0

0.903560902467395 27.9948087579476 50.8981732099774
-0.903560902467395 27.9948087579476 50.8981732099774
0.903560902467395 -27.9948087579476 50.8981732099774
2.52159489121729 28.9948087579476 50.2801392212275
-0.903560902467395 -27.9948087579476 50.8981732099774
3.08002623984767 30.4568010090453 49.3765783187601
47.8181469701297 1.00000000000000 32.9783959002626
-2.52159489121729 28.9948087579476 50.2801392212275
2.52159489121729 -28.9948087579476 50.2801392212275
48.3765783187601 2.46199225109777 32.0748349977952
-3.08002623984767 30.4568010090453 49.3765783187601
3.08002623984767 -30.4568010090453 49.3765783187601
-47.8181469701297 1.00000000000000 32.9783959002626
47.8181469701297 -1.00000000000000 32.9783959002626
-2.52159489121729 -28.9948087579476 50.2801392212275
2.46199225109777 32.0748349977952 48.3765783187601
-48.3765783187601 2.46199225109777 32.0748349977952
48.3765783187601 -2.46199225109777 32.0748349977952
-3.08002623984767 -30.4568010090453 49.3765783187601
1.00000000000000 32.9783959002626 47.8181469701297
-47.8181469701297 -1.00000000000000 32.9783959002626
30.4568010090453 49.3765783187601 3.08002623984767
49.3765783187601 3.08002623984767 30.4568010090453
-2.46199225109777 32.0748349977952 48.3765783187601
2.46199225109777 -32.0748349977952 48.3765783187601
-48.3765783187601 -2.46199225109777 32.0748349977952
28.9948087579476 50.2801392212275 2.52159489121729
50.2801392212275 2.52159489121729 28.9948087579476
-1.00000000000000 32.9783959002626 47.8181469701297
1.00000000000000 -32.9783959002626 47.8181469701297
32.0748349977952 48.3765783187601 2.46199225109777
-30.4568010090453 49.3765783187601 3.08002623984767
30.4568010090453 -49.3765783187601 3.08002623984767
-49.3765783187601 3.08002623984767 30.4568010090453
49.3765783187601 -3.08002623984767 30.4568010090453
-2.46199225109777 -32.0748349977952 48.3765783187601
32.9783959002626 47.8181469701297 1.00000000000000
-28.9948087579476 50.2801392212275 2.52159489121729
28.9948087579476 -50.2801392212275 2.52159489121729
-50.2801392212275 2.52159489121729 28.9948087579476
50.2801392212275 -2.52159489121729 28.9948087579476
-1.00000000000000 -32.9783959002626 47.8181469701297
-32.0748349977952 48.3765783187601 2.46199225109777
32.0748349977952 -48.3765783187601 2.46199225109777
-30.4568010090453 -49.3765783187601 3.08002623984767
-49.3765783187601 -3.08002623984767 30.4568010090453
27.9948087579476 50.8981732099774 0.903560902467395
50.8981732099774 0.903560902467395 27.9948087579476
-32.9783959002626 47.8181469701297 1.00000000000000
32.9783959002626 -47.8181469701297 1.00000000000000
-28.9948087579476 -50.2801392212275 2.52159489121729
-50.2801392212275 -2.52159489121729 28.9948087579476
27.9948087579476 50.8981732099774 -0.903560902467395
50.8981732099774 -0.903560902467395 27.9948087579476
-32.0748349977952 -48.3765783187601 2.46199225109777
-27.9948087579476 50.8981732099774 0.903560902467395
50.8981732099774 0.903560902467395 -27.9948087579476
32.9783959002626 47.8181469701297 -1.00000000000000
27.9948087579476 -50.8981732099774 0.903560902467395
-50.8981732099774 0.903560902467395 27.9948087579476
-32.9783959002626 -47.8181469701297 1.00000000000000
-27.9948087579476 50.8981732099774 -0.903560902467395
50.8981732099774 -0.903560902467395 -27.9948087579476
32.0748349977952 48.3765783187601 -2.46199225109777
27.9948087579476 -50.8981732099774 -0.903560902467395
-50.8981732099774 -0.903560902467395 27.9948087579476
50.2801392212275 2.52159489121729 -28.9948087579476
-27.9948087579476 -50.8981732099774 0.903560902467395
-50.8981732099774 0.903560902467395 -27.9948087579476
-32.9783959002626 47.8181469701297 -1.00000000000000
32.9783959002626 -47.8181469701297 -1.00000000000000
28.9948087579476 50.2801392212275 -2.52159489121729
49.3765783187601 3.08002623984767 -30.4568010090453
-27.9948087579476 -50.8981732099774 -0.903560902467395
-50.8981732099774 -0.903560902467395 -27.9948087579476
-32.0748349977952 48.3765783187601 -2.46199225109777
32.0748349977952 -48.3765783187601 -2.46199225109777
30.4568010090453 49.3765783187601 -3.08002623984767
-50.2801392212275 2.52159489121729 -28.9948087579476
50.2801392212275 -2.52159489121729 -28.9948087579476
1.00000000000000 32.9783959002626 -47.8181469701297
-32.9783959002626 -47.8181469701297 -1.00000000000000
-28.9948087579476 50.2801392212275 -2.52159489121729
28.9948087579476 -50.2801392212275 -2.52159489121729
-49.3765783187601 3.08002623984767 -30.4568010090453
49.3765783187601 -3.08002623984767 -30.4568010090453
2.46199225109777 32.0748349977952 -48.3765783187601
-32.0748349977952 -48.3765783187601 -2.46199225109777
-30.4568010090453 49.3765783187601 -3.08002623984767
30.4568010090453 -49.3765783187601 -3.08002623984767
-50.2801392212275 -2.52159489121729 -28.9948087579476
-1.00000000000000 32.9783959002626 -47.8181469701297
1.00000000000000 -32.9783959002626 -47.8181469701297
48.3765783187601 2.46199225109777 -32.0748349977952
-28.9948087579476 -50.2801392212275 -2.52159489121729
-49.3765783187601 -3.08002623984767 -30.4568010090453
-2.46199225109777 32.0748349977952 -48.3765783187601
2.46199225109777 -32.0748349977952 -48.3765783187601
47.8181469701297 1.00000000000000 -32.9783959002626
-30.4568010090453 -49.3765783187601 -3.08002623984767
3.08002623984767 30.4568010090453 -49.3765783187601
-1.00000000000000 -32.9783959002626 -47.8181469701297
-48.3765783187601 2.46199225109777 -32.0748349977952
48.3765783187601 -2.46199225109777 -32.0748349977952
2.52159489121729 28.9948087579476 -50.2801392212275
-2.46199225109777 -32.0748349977952 -48.3765783187601
-47.8181469701297 1.00000000000000 -32.9783959002626
47.8181469701297 -1.00000000000000 -32.9783959002626
-3.08002623984767 30.4568010090453 -49.3765783187601
3.08002623984767 -30.4568010090453 -49.3765783187601
-48.3765783187601 -2.46199225109777 -32.0748349977952
-2.52159489121729 28.9948087579476 -50.2801392212275
2.52159489121729 -28.9948087579476 -50.2801392212275
-47.8181469701297 -1.00000000000000 -32.9783959002626
-3.08002623984767 -30.4568010090453 -49.3765783187601
0.903560902467395 27.9948087579476 -50.8981732099774
-2.52159489121729 -28.9948087579476 -50.2801392212275
-0.903560902467395 27.9948087579476 -50.8981732099774
0.903560902467395 -27.9948087579476 -50.8981732099774
-0.903560902467395 -27.9948087579476 -50.8981732099774

5 75 119 7 97 83
5 21 8 96 41 44
5 28 80 18 115 119
5 90 18 115 8 17
5 14 31 64 82 96
5 94 85 59 66 63
5 20 6 95 47 62
5 9 55 38 75 78
5 4 42 49 88 91
5 97 53 90 9 3
5 35 74 40 102 111
5 42 4 111 24 38
5 80 28 109 1 2
5 44 7 97 19 21
5 99 111 24 80 77
5 119 75 70 31 28
5 41 92 10 118 117
5 70 36 99 46 61
5 31 14 86 29 32
5 79 11 117 14 25
5 55 9 106 34 49
5 102 52 94 30 27
5 111 99 46 50 35
5 57 49 88 58 73
5 48 81 21 73 58
5 52 102 6 95 81
5 71 84 53 90 87
5 107 106 34 68 65
5 108 39 103 20 18
5 51 114 0 112 103
5 74 35 91 11 13
5 17 67 26 87 90
5 11 79 16 98 100
5 8 21 73 71 86
5 106 107 33 62 47
5 30 2 104 35 50
5 53 97 19 114 113
5 78 10 118 3 9
5 98 113 22 74 59
5 13 12 85 59 74
5 65 105 28 109 107
5 88 116 15 92 89
5 96 59 66 25 14
5 22 37 76 69 84
5 118 63 81 21 19
5 112 77 67 26 15
5 10 78 17 113 114
5 32 3 105 28 31
5 93 61 83 42 39
5 49 57 44 52 55
5 36 70 31 64 67
5 67 17 113 22 36
5 81 48 89 55 52
5 104 89 55 38 24
5 116 88 58 37 23
5 39 108 2 104 93
5 24 62 51 93 104
5 38 45 56 39 42
5 7 44 52 94 105
5 76 115 8 96 82
5 100 27 110 13 11
5 47 86 29 108 106
5 5 66 25 107 109
5 25 58 37 76 79
5 117 87 57 44 41
5 113 98 45 56 53
5 2 30 60 77 80
5 23 68 27 110 116
5 72 82 43 48 33
5 86 47 78 17 8
5 69 60 77 67 64
5 58 25 107 33 48
5 19 91 11 117 118
5 103 73 71 54 51
5 29 101 5 119 115
5 87 117 14 86 71
5 26 33 62 51 54
5 15 56 39 103 112
5 34 50 63 81 95
5 92 41 100 4 0
5 83 95 47 78 75
5 46 16 98 45 60
5 105 65 79 16 7
5 16 46 50 63 66
5 82 72 65 79 76
5 89 104 35 91 88
5 91 19 114 0 4
5 45 38 75 70 85
5 3 32 61 83 97
5 54 1 116 15 26
5 37 22 74 40 43
5 56 15 92 10 12
5 73 103 20 72 57
5 115 76 69 32 29
5 63 118 3 105 94
5 59 96 41 100 98
5 84 71 54 36 22
5 64 110 13 84 69
5 101 29 108 2 1
5 12 13 84 53 56
5 33 26 87 57 72
5 27 100 4 111 102
5 43 0 112 23 37
5 109 40 102 6 5
5 66 5 119 7 16
5 77 112 23 101 99
5 50 34 68 27 30
5 114 51 93 12 10
5 18 90 9 106 108
5 0 43 48 89 92
5 40 109 1 116 110
5 60 69 32 61 46
5 62 24 80 18 20
5 1 54 36 99 101
5 6 20 72 65 68
5 68 23 101 5 6
5 61 93 12 85 70
5 110 64 82 43 40
5 95 83 42 49 34
5 85 94 30 60 45
