OFF
120 120 0

1.01611818567772 0.401066854800703 6.54523972701950
-1.01611818567772 0.401066854800703 6.54523972701950
1.01611818567772 -0.401066854800703 6.54523972701950
2.63415217442762 1.40106685480070 5.92720573826961
-1.01611818567772 -0.401066854800703 6.54523972701950
3.26214774976333 3.04518061581414 4.91108755259188
3.28309197725617 1.00000000000000 5.67933279024175
-2.63415217442762 1.40106685480070 5.92720573826961
2.63415217442762 -1.40106685480070 5.92720573826961
3.91108755259188 2.64411376101343 4.66321460456403
-3.26214774976333 3.04518061581414 4.91108755259188
3.26214774976333 -3.04518061581414 4.91108755259188
-3.28309197725617 1.00000000000000 5.67933279024175
3.28309197725617 -1.00000000000000 5.67933279024175
-2.63415217442762 -1.40106685480070 5.92720573826961
2.64411376101343 4.66321460456403 3.91108755259188
-3.91108755259188 2.64411376101343 4.66321460456403
3.91108755259188 -2.64411376101343 4.66321460456403
-3.26214774976333 -3.04518061581414 4.91108755259188
1.00000000000000 5.67933279024175 3.28309197725617
-3.28309197725617 -1.00000000000000 5.67933279024175
3.04518061581414 4.91108755259188 3.26214774976333
4.91108755259188 3.26214774976333 3.04518061581414
-2.64411376101343 4.66321460456403 3.91108755259188
2.64411376101343 -4.66321460456403 3.91108755259188
-3.91108755259188 -2.64411376101343 4.66321460456403
1.40106685480070 5.92720573826961 2.63415217442762
5.92720573826961 2.63415217442762 1.40106685480070
-1.00000000000000 5.67933279024175 3.28309197725617
1.00000000000000 -5.67933279024175 3.28309197725617
4.66321460456403 3.91108755259188 2.64411376101343
-3.04518061581414 4.91108755259188 3.26214774976333
3.04518061581414 -4.91108755259188 3.26214774976333
-4.91108755259188 3.26214774976333 3.04518061581414
4.91108755259188 -3.26214774976333 3.04518061581414
-2.64411376101343 -4.66321460456403 3.91108755259188
5.67933279024175 3.28309197725617 1.00000000000000
-1.40106685480070 5.92720573826961 2.63415217442762
1.40106685480070 -5.92720573826961 2.63415217442762
-5.92720573826961 2.63415217442762 1.40106685480070
5.92720573826961 -2.63415217442762 1.40106685480070
-1.00000000000000 -5.67933279024175 3.28309197725617
-4.66321460456403 3.91108755259188 2.64411376101343
4.66321460456403 -3.91108755259188 2.64411376101343
-3.04518061581414 -4.91108755259188 3.26214774976333
-4.91108755259188 -3.26214774976333 3.04518061581414
0.401066854800703 6.54523972701950 1.01611818567772
6.54523972701950 1.01611818567772 0.401066854800703
-5.67933279024175 3.28309197725617 1.00000000000000
5.67933279024175 -3.28309197725617 1.00000000000000
-1.40106685480070 -5.92720573826961 2.63415217442762
-5.92720573826961 -2.63415217442762 1.40106685480070
0.401066854800703 6.54523972701950 -1.01611818567772
6.54523972701950 -1.01611818567772 0.401066854800703
-4.66321460456403 -3.91108755259188 2.64411376101343
-0.401066854800703 6.54523972701950 1.01611818567772
6.54523972701950 1.01611818567772 -0.401066854800703
5.67933279024175 3.28309197725617 -1.00000000000000
0.401066854800703 -6.54523972701950 1.01611818567772
-6.54523972701950 1.01611818567772 0.401066854800703
-5.67933279024175 -3.28309197725617 1.00000000000000
-0.401066854800703 6.54523972701950 -1.01611818567772
6.54523972701950 -1.01611818567772 -0.401066854800703
4.66321460456403 3.91108755259188 -2.64411376101343
0.401066854800703 -6.54523972701950 -1.01611818567772
-6.54523972701950 -1.01611818567772 0.401066854800703
5.92720573826961 2.63415217442762 -1.40106685480070
-0.401066854800703 -6.54523972701950 1.01611818567772
-6.54523972701950 1.01611818567772 -0.401066854800703
-5.67933279024175 3.28309197725617 -1.00000000000000
5.67933279024175 -3.28309197725617 -1.00000000000000
1.40106685480070 5.92720573826961 -2.63415217442762
4.91108755259188 3.26214774976333 -3.04518061581414
-0.401066854800703 -6.54523972701950 -1.01611818567772
-6.54523972701950 -1.01611818567772 -0.401066854800703
-4.66321460456403 3.91108755259188 -2.64411376101343
4.66321460456403 -3.91108755259188 -2.64411376101343
3.04518061581414 4.91108755259188 -3.26214774976333
-5.92720573826961 2.63415217442762 -1.40106685480070
5.92720573826961 -2.63415217442762 -1.40106685480070
1.00000000000000 5.67933279024175 -3.28309197725617
-5.67933279024175 -3.28309197725617 -1.00000000000000
-1.40106685480070 5.92720573826961 -2.63415217442762
1.40106685480070 -5.92720573826961 -2.63415217442762
-4.91108755259188 3.26214774976333 -3.04518061581414
4.91108755259188 -3.26214774976333 -3.04518061581414
2.64411376101343 4.66321460456403 -3.91108755259188
-4.66321460456403 -3.91108755259188 -2.64411376101343
-3.04518061581414 4.91108755259188 -3.26214774976333
3.04518061581414 -4.91108755259188 -3.26214774976333
-5.92720573826961 -2.63415217442762 -1.40106685480070
-1.00000000000000 5.67933279024175 -3.28309197725617
1.00000000000000 -5.67933279024175 -3.28309197725617
3.91108755259188 2.64411376101343 -4.66321460456403
-1.40106685480070 -5.92720573826961 -2.63415217442762
-4.91108755259188 -3.26214774976333 -3.04518061581414
-2.64411376101343 4.66321460456403 -3.91108755259188
2.64411376101343 -4.66321460456403 -3.91108755259188
3.28309197725617 1.00000000000000 -5.67933279024175
-3.04518061581414 -4.91108755259188 -3.26214774976333
3.26214774976333 3.04518061581414 -4.91108755259188
-1.00000000000000 -5.67933279024175 -3.28309197725617
-3.91108755259188 2.64411376101343 -4.66321460456403
3.91108755259188 -2.64411376101343 -4.66321460456403
2.63415217442762 1.40106685480070 -5.92720573826961
-2.64411376101343 -4.66321460456403 -3.91108755259188
-3.28309197725617 1.00000000000000 -5.67933279024175
3.28309197725617 -1.00000000000000 -5.67933279024175
-3.26214774976333 3.04518061581414 -4.91108755259188
3.26214774976333 -3.04518061581414 -4.91108755259188
-3.91108755259188 -2.64411376101343 -4.66321460456403
-2.63415217442762 1.40106685480070 -5.92720573826961
2.63415217442762 -1.40106685480070 -5.92720573826961
-3.28309197725617 -1.00000000000000 -5.67933279024175
-3.26214774976333 -3.04518061581414 -4.91108755259188
1.01611818567772 0.401066854800703 -6.54523972701950
-2.63415217442762 -1.40106685480070 -5.92720573826961
-1.01611818567772 0.401066854800703 -6.54523972701950
1.01611818567772 -0.401066854800703 -6.54523972701950
-1.01611818567772 -0.401066854800703 -6.54523972701950

5 75 78 13 36 80
5 21 19 116 103 47
5 28 31 58 40 30
5 90 87 63 55 39
5 14 25 103 47 3
5 94 105 23 2 38
5 20 18 117 82 23
5 9 3 101 107 57
5 4 0 109 99 45
5 97 83 48 91 98
5 35 50 57 19 12
5 42 39 107 57 19
5 80 77 73 90 75
5 44 41 104 102 65
5 99 101 3 16 74
5 119 115 11 44 95
5 41 44 46 27 43
5 70 85 65 14 17
5 31 28 112 110 59
5 79 76 75 46 27
5 55 52 99 45 10
5 102 111 29 20 48
5 111 102 9 62 112
5 57 72 59 7 9
5 48 33 56 104 102
5 52 55 32 85 100
5 71 86 24 1 37
5 107 109 0 26 86
5 108 106 40 30 61
5 51 54 30 61 78
5 74 59 72 109 99
5 17 8 91 98 70
5 11 13 78 87 58
5 8 17 110 59 7
5 106 108 4 50 105
5 30 27 113 69 28
5 53 56 33 18 32
5 78 75 76 67 51
5 98 100 2 38 97
5 13 11 115 71 15
5 65 68 22 11 44
5 88 91 8 25 68
5 96 82 49 92 113
5 22 36 94 35 0
5 118 117 18 32 85
5 112 103 25 68 111
5 10 12 79 63 55
5 32 29 111 93 53
5 93 104 41 13 36
5 49 34 74 116 103
5 36 22 68 111 93
5 67 64 88 33 18
5 81 95 53 8 25
5 104 93 16 74 116
5 116 110 17 56 104
5 39 42 43 73 90
5 24 38 69 28 6
5 38 24 86 119 94
5 7 16 93 53 8
5 76 79 12 60 101
5 100 98 51 42 52
5 47 62 45 10 21
5 5 6 90 75 46
5 25 14 80 106 81
5 117 118 5 31 84
5 113 114 1 37 96
5 2 1 114 89 34
5 23 37 70 29 20
5 72 57 50 105 115
5 86 71 60 101 107
5 69 84 47 3 16
5 58 73 77 22 11
5 19 21 67 51 42
5 103 112 28 6 49
5 29 32 55 39 54
5 87 90 6 49 92
5 26 15 97 117 82
5 15 26 81 41 13
5 34 49 82 23 2
5 92 89 61 78 87
5 83 97 15 4 50
5 46 61 89 34 5
5 105 94 36 80 106
5 16 7 92 113 69
5 82 96 35 0 26
5 89 92 7 9 62
5 91 88 64 79 63
5 45 60 71 15 4
5 3 9 102 65 14
5 54 51 98 70 29
5 37 23 105 115 71
5 56 53 95 108 77
5 73 58 31 84 114
5 115 119 10 21 72
5 63 66 20 48 91
5 59 74 34 5 31
5 84 69 38 97 117
5 64 67 21 72 109
5 101 99 52 66 76
5 12 10 119 94 35
5 33 48 83 24 1
5 27 30 54 64 79
5 43 40 106 81 41
5 109 107 39 54 64
5 66 63 87 58 40
5 77 80 14 17 56
5 50 35 96 118 83
5 114 113 27 43 73
5 18 20 66 76 67
5 0 4 108 77 22
5 40 43 42 52 66
5 60 45 62 112 110
5 62 47 84 114 89
5 1 2 100 88 33
5 6 5 118 83 24
5 68 65 85 100 88
5 61 46 44 95 108
5 110 116 19 12 60
5 95 81 26 86 119
5 85 70 37 96 118
