OFF
120 120 0

1.09253461466337 3.06310999954836 11.0525768231232
-1.09253461466337 3.06310999954836 11.0525768231232
1.09253461466337 -3.06310999954836 11.0525768231232
2.71056860341326 4.06310999954836 10.4345428343733
-1.09253461466337 -3.06310999954836 11.0525768231232
3.38579212916099 5.83086813995946 9.34200821970992
7.66678469396218 1.00000000000000 8.54143674337272
-2.71056860341326 4.06310999954836 10.4345428343733
2.71056860341326 -4.06310999954836 10.4345428343733
8.34200821970992 2.76775814041110 7.44890212870935
-3.38579212916099 5.83086813995946 9.34200821970992
3.38579212916099 -5.83086813995946 9.34200821970992
-7.66678469396218 1.00000000000000 8.54143674337272
7.66678469396218 -1.00000000000000 8.54143674337272
-2.71056860341326 -4.06310999954836 10.4345428343733
2.76775814041110 7.44890212870935 8.34200821970992
-8.34200821970992 2.76775814041110 7.44890212870935
8.34200821970992 -2.76775814041110 7.44890212870935
-3.38579212916099 -5.83086813995946 9.34200821970992
1.00000000000000 8.54143674337272 7.66678469396218
-7.66678469396218 -1.00000000000000 8.54143674337272
5.83086813995946 9.34200821970992 3.38579212916099
9.34200821970992 3.38579212916099 5.83086813995946
-2.76775814041110 7.44890212870935 8.34200821970992
2.76775814041110 -7.44890212870935 8.34200821970992
-8.34200821970992 -2.76775814041110 7.44890212870935
4.06310999954836 10.4345428343733 2.71056860341326
10.4345428343733 2.71056860341326 4.06310999954836
-1.00000000000000 8.54143674337272 7.66678469396218
1.00000000000000 -8.54143674337272 7.66678469396218
7.44890212870935 8.34200821970992 2.76775814041110
-5.83086813995946 9.34200821970992 3.38579212916099
5.83086813995946 -9.34200821970992 3.38579212916099
-9.34200821970992 3.38579212916099 5.83086813995946
9.34200821970992 -3.38579212916099 5.83086813995946
-2.76775814041110 -7.44890212870935 8.34200821970992
8.54143674337272 7.66678469396218 1.00000000000000
-4.06310999954836 10.4345428343733 2.71056860341326
4.06310999954836 -10.4345428343733 2.71056860341326
-10.4345428343733 2.71056860341326 4.06310999954836
10.4345428343733 -2.71056860341326 4.06310999954836
-1.00000000000000 -8.54143674337272 7.66678469396218
-7.44890212870935 8.34200821970992 2.76775814041110
7.44890212870935 -8.34200821970992 2.76775814041110
-5.83086813995946 -9.34200821970992 3.38579212916099
-9.34200821970992 -3.38579212916099 5.83086813995946
3.06310999954836 11.0525768231232 1.09253461466337
11.0525768231232 1.09253461466337 3.06310999954836
-8.54143674337272 7.66678469396218 1.00000000000000
8.54143674337272 -7.66678469396218 1.00000000000000
-4.06310999954836 -10.4345428343733 2.71056860341326
-10.4345428343733 -2.71056860341326 4.06310999954836
3.06310999954836 11.0525768231232 -1.09253461466337
11.0525768231232 -1.09253461466337 3.06310999954836
-7.44890212870935 -8.34200821970992 2.76775814041110
-3.06310999954836 11.0525768231232 1.09253461466337
11.0525768231232 1.09253461466337 -3.06310999954836
8.54143674337272 7.66678469396218 -1.00000000000000
3.06310999954836 -11.0525768231232 1.09253461466337
-11.0525768231232 1.09253461466337 3.06310999954836
-8.54143674337272 -7.66678469396218 1.00000000000000
-3.06310999954836 11.0525768231232 -1.09253461466337
11.0525768231232 -1.09253461466337 -3.06310999954836
7.44890212870935 8.34200821970992 -2.76775814041110
3.06310999954836 -11.0525768231232 -1.09253461466337
-11.0525768231232 -1.09253461466337 3.06310999954836
10.4345428343733 2.71056860341326 -4.06310999954836
-3.06310999954836 -11.0525768231232 1.09253461466337
-11.0525768231232 1.09253461466337 -3.06310999954836
-8.54143674337272 7.66678469396218 -1.00000000000000
8.54143674337272 -7.66678469396218 -1.00000000000000
4.06310999954836 10.4345428343733 -2.71056860341326
9.34200821970992 3.38579212916099 -5.83086813995946
-3.06310999954836 -11.0525768231232 -1.09253461466337
-11.0525768231232 -1.09253461466337 -3.06310999954836
-7.44890212870935 8.34200821970992 -2.76775814041110
7.44890212870935 -8.34200821970992 -2.76775814041110
5.83086813995946 9.34200821970992 -3.38579212916099
-10.4345428343733 2.71056860341326 -4.06310999954836
10.4345428343733 -2.71056860341326 -4.06310999954836
1.00000000000000 8.54143674337272 -7.66678469396218
-8.54143674337272 -7.66678469396218 -1.00000000000000
-4.06310999954836 10.4345428343733 -2.71056860341326
4.06310999954836 -10.4345428343733 -2.71056860341326
-9.34200821970992 3.38579212916099 -5.83086813995946
9.34200821970992 -3.38579212916099 -5.83086813995946
2.76775814041110 7.44890212870935 -8.34200821970992
-7.44890212870935 -8.34200821970992 -2.76775814041110
-5.83086813995946 9.34200821970992 -3.38579212916099
5.83086813995946 -9.34200821970992 -3.38579212916099
-10.4345428343733 -2.71056860341326 -4.06310999954836
-1.00000000000000 8.54143674337272 -7.66678469396218
1.00000000000000 -8.54143674337272 -7.66678469396218
8.34200821970992 2.76775814041110 -7.44890212870935
-4.06310999954836 -10.4345428343733 -2.71056860341326
-9.34200821970992 -3.38579212916099 -5.83086813995946
-2.76775814041110 7.44890212870935 -8.34200821970992
2.76775814041110 -7.44890212870935 -8.34200821970992
7.66678469396218 1.00000000000000 -8.54143674337272
-5.83086813995946 -9.34200821970992 -3.38579212916099
3.38579212916099 5.83086813995946 -9.34200821970992
-1.00000000000000 -8.54143674337272 -7.66678469396218
-8.34200821970992 2.76775814041110 -7.44890212870935
8.34200821970992 -2.76775814041110 -7.44890212870935
2.71056860341326 4.06310999954836 -10.4345428343733
-2.76775814041110 -7.44890212870935 -8.34200821970992
-7.66678469396218 1.00000000000000 -8.54143674337272
7.66678469396218 -1.00000000000000 -8.54143674337272
-3.38579212916099 5.83086813995946 -9.34200821970992
3.38579212916099 -5.83086813995946 -9.34200821970992
-8.34200821970992 -2.76775814041110 -7.44890212870935
-2.71056860341326 4.06310999954836 -10.4345428343733
2.71056860341326 -4.06310999954836 -10.4345428343733
-7.66678469396218 -1.00000000000000 -8.54143674337272
-3.38579212916099 -5.83086813995946 -9.34200821970992
1.09253461466337 3.06310999954836 -11.0525768231232
-2.71056860341326 -4.06310999954836 -10.4345428343733
-1.09253461466337 3.06310999954836 -11.0525768231232
1.09253461466337 -3.06310999954836 -11.0525768231232
-1.09253461466337 -3.06310999954836 -11.0525768231232

5 75 12 66 33 34
5 21 88 76 61 105
5 28 25 62 12 83
5 90 118 28 116 36
5 14 73 36 50 98
5 94 68 13 90 19
5 20 87 52 60 104
5 9 29 104 11 114
5 4 40 95 17 118
5 97 81 71 99 31
5 35 49 37 32 77
5 42 106 27 84 85
5 80 103 65 98 50
5 44 89 75 64 86
5 99 32 42 58 15
5 119 79 45 103 2
5 41 16 56 20 71
5 70 105 1 92 39
5 31 77 87 52 97
5 79 119 19 112 48
5 55 111 18 96 73
5 102 101 7 114 11
5 111 55 70 82 13
5 57 96 4 80 51
5 48 15 118 28 79
5 52 3 109 15 58
5 71 62 12 66 41
5 107 43 55 70 7
5 108 109 15 118 17
5 51 2 91 14 57
5 74 82 89 75 56
5 17 19 112 5 108
5 11 10 105 1 102
5 8 64 48 38 106
5 106 42 58 69 8
5 30 98 39 72 95
5 53 26 44 30 59
5 78 115 41 111 49
5 98 30 67 57 14
5 13 76 61 49 111
5 65 37 32 42 47
5 88 21 54 46 24
5 96 57 94 77 32
5 22 85 25 62 87
5 118 90 34 110 4
5 112 58 69 83 12
5 10 11 86 2 103
5 32 99 63 73 96
5 93 92 3 109 18
5 49 35 117 29 78
5 36 23 119 19 90
5 67 116 10 105 61
5 81 97 0 101 27
5 104 46 81 71 20
5 116 67 57 94 6
5 39 0 101 7 70
5 24 60 26 44 88
5 38 47 113 40 91
5 7 61 49 37 107
5 76 13 90 34 33
5 100 114 23 119 25
5 47 38 31 43 65
5 5 18 96 4 110
5 25 28 116 10 100
5 117 66 33 93 0
5 113 54 46 81 3
5 2 51 85 25 119
5 23 36 50 21 89
5 72 34 110 53 54
5 86 69 83 88 44
5 69 86 2 91 40
5 58 112 5 97 52
5 19 17 74 6 94
5 103 80 8 100 10
5 29 9 68 13 82
5 87 20 79 45 22
5 26 53 106 27 101
5 15 48 38 31 99
5 34 72 16 56 75
5 92 93 59 107 37
5 83 56 20 79 28
5 46 104 11 86 64
5 105 70 82 89 21
5 16 41 111 18 109
5 82 74 6 78 29
5 89 44 30 67 23
5 91 110 53 106 38
5 45 84 9 68 63
5 3 52 60 26 113
5 54 113 40 95 72
5 37 65 98 39 92
5 56 83 88 76 74
5 73 14 108 35 55
5 115 78 22 102 1
5 63 6 78 22 45
5 59 50 21 54 53
5 84 45 103 65 43
5 64 8 100 24 46
5 101 102 47 113 26
5 12 75 64 48 112
5 33 95 17 74 76
5 27 1 92 3 81
5 43 107 51 85 84
5 109 108 35 117 16
5 66 117 29 104 60
5 77 31 43 55 35
5 50 59 107 51 80
5 114 100 24 115 9
5 18 5 97 0 93
5 0 39 72 16 117
5 40 4 80 8 69
5 60 24 115 41 66
5 62 71 99 63 68
5 1 27 84 9 115
5 6 63 73 36 116
5 68 94 77 87 62
5 61 7 114 23 67
5 110 91 14 108 5
5 95 33 93 59 30
5 85 22 102 47 42
