OFF
120 120 0

2.87943073057631 3.06248738797302 15.7297241822578
-2.87943073057631 3.06248738797302 15.7297241822578
2.87943073057631 -3.06248738797302 15.7297241822578
4.49746471932621 4.06248738797302 15.1116901935079
-2.87943073057631 -3.06248738797302 15.7297241822578
6.27705077907331 8.72150417829644 12.2322594629315
9.45267340318444 1.00000000000000 13.2189688976226
-4.49746471932621 4.06248738797302 15.1116901935079
4.49746471932621 -4.06248738797302 15.1116901935079
11.2322594629315 5.65901679032341 10.3395381670463
-6.27705077907331 8.72150417829644 12.2322594629315
6.27705077907331 -8.72150417829644 12.2322594629315
-9.45267340318444 1.00000000000000 13.2189688976226
9.45267340318444 -1.00000000000000 13.2189688976226
-4.49746471932621 -4.06248738797302 15.1116901935079
5.65901679032341 10.3395381670463 11.2322594629315
-11.2322594629315 5.65901679032341 10.3395381670463
11.2322594629315 -5.65901679032341 10.3395381670463
-6.27705077907331 -8.72150417829644 12.2322594629315
1.00000000000000 13.2189688976226 9.45267340318444
-9.45267340318444 -1.00000000000000 13.2189688976226
8.72150417829644 12.2322594629315 6.27705077907331
12.2322594629315 6.27705077907331 8.72150417829644
-5.65901679032341 10.3395381670463 11.2322594629315
5.65901679032341 -10.3395381670463 11.2322594629315
-11.2322594629315 -5.65901679032341 10.3395381670463
4.06248738797302 15.1116901935079 4.49746471932621
15.1116901935079 4.49746471932621 4.06248738797302
-1.00000000000000 13.2189688976226 9.45267340318444
1.00000000000000 -13.2189688976226 9.45267340318444
10.3395381670463 11.2322594629315 5.65901679032341
-8.72150417829644 12.2322594629315 6.27705077907331
8.72150417829644 -12.2322594629315 6.27705077907331
-12.2322594629315 6.27705077907331 8.72150417829644
12.2322594629315 -6.27705077907331 8.72150417829644
-5.65901679032341 -10.3395381670463 11.2322594629315
13.2189688976226 9.45267340318444 1.00000000000000
-4.06248738797302 15.1116901935079 4.49746471932621
4.06248738797302 -15.1116901935079 4.49746471932621
-15.1116901935079 4.49746471932621 4.06248738797302
15.1116901935079 -4.49746471932621 4.06248738797302
-1.00000000000000 -13.2189688976226 9.45267340318444
-10.3395381670463 11.2322594629315 5.65901679032341
10.3395381670463 -11.2322594629315 5.65901679032341
-8.72150417829644 -12.2322594629315 6.27705077907331
-12.2322594629315 -6.27705077907331 8.72150417829644
3.06248738797302 15.7297241822578 2.87943073057631
15.7297241822578 2.87943073057631 3.06248738797302
-13.2189688976226 9.45267340318444 1.00000000000000
13.2189688976226 -9.45267340318444 1.00000000000000
-4.06248738797302 -15.1116901935079 4.49746471932621
-15.1116901935079 -4.49746471932621 4.06248738797302
3.06248738797302 15.7297241822578 -2.87943073057631
15.7297241822578 -2.87943073057631 3.06248738797302
-10.3395381670463 -11.2322594629315 5.65901679032341
-3.06248738797302 15.7297241822578 2.87943073057631
15.7297241822578 2.87943073057631 -3.06248738797302
13.2189688976226 9.45267340318444 -1.00000000000000
3.06248738797302 -15.7297241822578 2.87943073057631
-15.7297241822578 2.87943073057631 3.06248738797302
-13.2189688976226 -9.45267340318444 1.00000000000000
-3.06248738797302 15.7297241822578 -2.87943073057631
15.7297241822578 -2.87943073057631 -3.06248738797302
10.3395381670463 11.2322594629315 -5.65901679032341
3.06248738797302 -15.7297241822578 -2.87943073057631
-15.7297241822578 -2.87943073057631 3.06248738797302
15.1116901935079 4.49746471932621 -4.06248738797302
-3.06248738797302 -15.7297241822578 2.87943073057631
-15.7297241822578 2.87943073057631 -3.06248738797302
-13.2189688976226 9.45267340318444 -1.00000000000000
13.2189688976226 -9.45267340318444 -1.00000000000000
4.06248738797302 15.1116901935079 -4.49746471932621
12.2322594629315 6.27705077907331 -8.72150417829644
-3.06248738797302 -15.7297241822578 -2.87943073057631
-15.7297241822578 -2.87943073057631 -3.06248738797302
-10.3395381670463 11.2322594629315 -5.65901679032341
10.3395381670463 -11.2322594629315 -5.65901679032341
8.72150417829644 12.2322594629315 -6.27705077907331
-15.1116901935079 4.49746471932621 -4.06248738797302
15.1116901935079 -4.49746471932621 -4.06248738797302
1.00000000000000 13.2189688976226 -9.45267340318444
-13.2189688976226 -9.45267340318444 -1.00000000000000
-4.06248738797302 15.1116901935079 -4.49746471932621
4.06248738797302 -15.1116901935079 -4.49746471932621
-12.2322594629315 6.27705077907331 -8.72150417829644
12.2322594629315 -6.27705077907331 -8.72150417829644
5.65901679032341 10.3395381670463 -11.2322594629315
-10.3395381670463 -11.2322594629315 -5.65901679032341
-8.72150417829644 12.2322594629315 -6.27705077907331
8.72150417829644 -12.2322594629315 -6.27705077907331
-15.1116901935079 -4.49746471932621 -4.06248738797302
-1.00000000000000 13.2189688976226 -9.45267340318444
1.00000000000000 -13.2189688976226 -9.45267340318444
11.2322594629315 5.65901679032341 -10.3395381670463
-4.06248738797302 -15.1116901935079 -4.49746471932621
-12.2322594629315 -6.27705077907331 -8.72150417829644
-5.65901679032341 10.3395381670463 -11.2322594629315
5.65901679032341 -10.3395381670463 -11.2322594629315
9.45267340318444 1.00000000000000 -13.2189688976226
-8.72150417829644 -12.2322594629315 -6.27705077907331
6.27705077907331 8.72150417829644 -12.2322594629315
-1.00000000000000 -13.2189688976226 -9.45267340318444
-11.2322594629315 5.65901679032341 -10.3395381670463
11.2322594629315 -5.65901679032341 -10.3395381670463
4.49746471932621 4.06248738797302 -15.1116901935079
-5.65901679032341 -10.3395381670463 -11.2322594629315
-9.45267340318444 1.00000000000000 -13.2189688976226
9.45267340318444 -1.00000000000000 -13.2189688976226
-6.27705077907331 8.72150417829644 -12.2322594629315
6.27705077907331 -8.72150417829644 -12.2322594629315
-11.2322594629315 -5.65901679032341 -10.3395381670463
-4.49746471932621 4.06248738797302 -15.1116901935079
4.49746471932621 -4.06248738797302 -15.1116901935079
-9.45267340318444 -1.00000000000000 -13.2189688976226
-6.27705077907331 -8.72150417829644 -12.2322594629315
2.87943073057631 3.06248738797302 -15.7297241822578
-4.49746471932621 -4.06248738797302 -15.1116901935079
-2.87943073057631 3.06248738797302 -15.7297241822578
2.87943073057631 -3.06248738797302 -15.7297241822578
-2.87943073057631 -3.06248738797302 -15.7297241822578

5 75 62 16 17 8
5 21 83 82 114 113
5 28 85 20 64 67
5 90 15 119 57 72
5 14 63 67 107 109
5 94 9 74 28 31
5 20 77 81 115 119
5 9 117 24 105 94
5 4 113 34 112 103
5 97 46 87 42 39
5 35 61 43 63 66
5 42 53 102 103 112
5 80 45 107 67 64
5 44 82 83 100 98
5 99 37 38 5 6
5 119 20 85 8 17
5 41 72 12 52 55
5 70 10 101 59 74
5 31 94 71 109 107
5 79 23 118 69 84
5 55 41 108 94 105
5 102 0 105 24 38
5 111 43 61 6 5
5 57 18 91 65 68
5 48 109 19 62 47
5 52 92 5 38 24
5 71 25 56 29 32
5 107 31 49 1 2
5 108 3 112 34 49
5 51 86 4 36 22
5 74 70 88 66 63
5 17 119 15 96 82
5 11 116 7 84 69
5 8 75 58 113 114
5 106 32 48 2 1
5 30 65 93 110 116
5 53 60 21 39 42
5 78 24 117 70 85
5 98 44 36 4 0
5 13 88 70 117 118
5 65 49 31 27 30
5 88 50 26 11 13
5 96 67 63 43 40
5 22 51 79 99 101
5 118 13 95 14 25
5 112 42 64 20 18
5 10 104 8 85 70
5 32 71 94 108 106
5 93 1 97 35 50
5 49 108 41 68 65
5 36 114 28 74 59
5 67 28 114 82 96
5 81 5 92 47 62
5 104 54 52 12 10
5 116 30 73 13 11
5 39 97 1 49 34
5 24 52 54 75 78
5 38 102 53 80 77
5 7 76 55 98 100
5 76 68 17 16 7
5 100 7 116 45 60
5 47 48 32 51 54
5 5 111 14 95 81
5 25 118 23 86 71
5 117 12 72 3 9
5 113 21 60 0 4
5 2 107 45 116 110
5 23 73 30 76 79
5 72 90 40 44 41
5 86 58 75 54 51
5 69 11 80 53 56
5 58 19 109 71 86
5 19 95 13 73 58
5 103 4 86 23 37
5 29 84 6 61 46
5 87 56 25 9 3
5 26 110 47 92 89
5 15 64 42 87 90
5 34 39 66 88 91
5 92 33 98 55 52
5 83 16 62 19 21
5 46 29 100 83 97
5 105 55 76 30 27
5 16 115 35 97 83
5 82 17 68 41 44
5 89 26 50 10 12
5 91 34 113 58 73
5 45 27 78 77 80
5 3 87 46 106 108
5 54 47 110 93 104
5 37 103 59 101 99
5 56 69 89 90 87
5 73 91 18 37 23
5 115 6 84 7 16
5 63 74 9 25 14
5 59 36 44 40 43
5 84 79 51 32 29
5 64 80 11 26 15
5 101 22 106 46 61
5 12 89 69 118 117
5 33 40 90 89 92
5 27 105 0 60 45
5 43 59 103 102 111
5 109 14 111 33 48
5 66 35 115 81 95
5 77 38 37 18 20
5 50 93 65 91 88
5 114 8 104 22 36
5 18 112 3 72 57
5 0 98 33 111 102
5 40 96 2 48 33
5 60 100 29 56 53
5 62 81 77 78 75
5 1 106 22 104 93
5 6 99 57 119 115
5 68 57 99 79 76
5 61 101 10 50 35
5 110 2 96 15 26
5 95 66 39 21 19
5 85 78 27 31 28
