OFF
120 30 0

1.00000000000000 1.61803398874989 8.47213595499958
-1.00000000000000 1.61803398874989 8.47213595499958
1.00000000000000 -1.61803398874989 8.47213595499958
2.61803398874989 2.61803398874989 7.85410196624968
-1.00000000000000 -1.61803398874989 8.47213595499958
3.23606797749979 4.23606797749979 6.85410196624968
5.23606797749979 1.00000000000000 6.85410196624968
-2.61803398874989 2.61803398874989 7.85410196624968
2.61803398874989 -2.61803398874989 7.85410196624968
5.85410196624968 2.61803398874989 5.85410196624968
-3.23606797749979 4.23606797749979 6.85410196624968
3.23606797749979 -4.23606797749979 6.85410196624968
-5.23606797749979 1.00000000000000 6.85410196624968
5.23606797749979 -1.00000000000000 6.85410196624968
-2.61803398874989 -2.61803398874989 7.85410196624968
2.61803398874989 5.85410196624968 5.85410196624968
-5.85410196624968 2.61803398874989 5.85410196624968
5.85410196624968 -2.61803398874989 5.85410196624968
-3.23606797749979 -4.23606797749979 6.85410196624968
1.00000000000000 6.85410196624968 5.23606797749979
-5.23606797749979 -1.00000000000000 6.85410196624968
4.23606797749979 6.85410196624968 3.23606797749979
6.85410196624968 3.23606797749979 4.23606797749979
-2.61803398874989 5.85410196624968 5.85410196624968
2.61803398874989 -5.85410196624968 5.85410196624968
-5.85410196624968 -2.61803398874989 5.85410196624968
2.61803398874989 7.85410196624968 2.61803398874989
7.85410196624968 2.61803398874989 2.61803398874989
-1.00000000000000 6.85410196624968 5.23606797749979
1.00000000000000 -6.85410196624968 5.23606797749979
5.85410196624968 5.85410196624968 2.61803398874989
-4.23606797749979 6.85410196624968 3.23606797749979
4.23606797749979 -6.85410196624968 3.23606797749979
-6.85410196624968 3.23606797749979 4.23606797749979
6.85410196624968 -3.23606797749979 4.23606797749979
-2.61803398874989 -5.85410196624968 5.85410196624968
6.85410196624968 5.23606797749979 1.00000000000000
-2.61803398874989 7.85410196624968 2.61803398874989
2.61803398874989 -7.85410196624968 2.61803398874989
-7.85410196624968 2.61803398874989 2.61803398874989
7.85410196624968 -2.61803398874989 2.61803398874989
-1.00000000000000 -6.85410196624968 5.23606797749979
-5.85410196624968 5.85410196624968 2.61803398874989
5.85410196624968 -5.85410196624968 2.61803398874989
-4.23606797749979 -6.85410196624968 3.23606797749979
-6.85410196624968 -3.23606797749979 4.23606797749979
1.61803398874989 8.47213595499958 1.00000000000000
8.47213595499958 1.00000000000000 1.61803398874989
-6.85410196624968 5.23606797749979 1.00000000000000
6.85410196624968 -5.23606797749979 1.00000000000000
-2.61803398874989 -7.85410196624968 2.61803398874989
-7.85410196624968 -2.61803398874989 2.61803398874989
1.61803398874989 8.47213595499958 -1.00000000000000
8.47213595499958 -1.00000000000000 1.61803398874989
-5.85410196624968 -5.85410196624968 2.61803398874989
-1.61803398874989 8.47213595499958 1.00000000000000
8.47213595499958 1.00000000000000 -1.61803398874989
6.85410196624968 5.23606797749979 -1.00000000000000
1.61803398874989 -8.47213595499958 1.00000000000000
-8.47213595499958 1.00000000000000 1.61803398874989
-6.85410196624968 -5.23606797749979 1.00000000000000
-1.61803398874989 8.47213595499958 -1.00000000000000
8.47213595499958 -1.00000000000000 -1.61803398874989
5.85410196624968 5.85410196624968 -2.61803398874989
1.61803398874989 -8.47213595499958 -1.00000000000000
-8.47213595499958 -1.00000000000000 1.61803398874989
7.85410196624968 2.61803398874989 -2.61803398874989
-1.61803398874989 -8.47213595499958 1.00000000000000
-8.47213595499958 1.00000000000000 -1.61803398874989
-6.85410196624968 5.23606797749979 -1.00000000000000
6.85410196624968 -5.23606797749979 -1.00000000000000
2.61803398874989 7.85410196624968 -2.61803398874989
6.85410196624968 3.23606797749979 -4.23606797749979
-1.61803398874989 -8.47213595499958 -1.00000000000000
-8.47213595499958 -1.00000000000000 -1.61803398874989
-5.85410196624968 5.85410196624968 -2.61803398874989
5.85410196624968 -5.85410196624968 -2.61803398874989
4.23606797749979 6.85410196624968 -3.23606797749979
-7.85410196624968 2.61803398874989 -2.61803398874989
7.85410196624968 -2.61803398874989 -2.61803398874989
1.00000000000000 6.85410196624968 -5.23606797749979
-6.85410196624968 -5.23606797749979 -1.00000000000000
-2.61803398874989 7.85410196624968 -2.61803398874989
2.61803398874989 -7.85410196624968 -2.61803398874989
-6.85410196624968 3.23606797749979 -4.23606797749979
6.85410196624968 -3.23606797749979 -4.23606797749979
2.61803398874989 5.85410196624968 -5.85410196624968
-5.85410196624968 -5.85410196624968 -2.61803398874989
-4.23606797749979 6.85410196624968 -3.23606797749979
4.23606797749979 -6.85410196624968 -3.23606797749979
-7.85410196624968 -2.61803398874989 -2.61803398874989
-1.00000000000000 6.85410196624968 -5.23606797749979
1.00000000000000 -6.85410196624968 -5.23606797749979
5.85410196624968 2.61803398874989 -5.85410196624968
-2.61803398874989 -7.85410196624968 -2.61803398874989
-6.85410196624968 -3.23606797749979 -4.23606797749979
-2.61803398874989 5.85410196624968 -5.85410196624968
2.61803398874989 -5.85410196624968 -5.85410196624968
5.23606797749979 1.00000000000000 -6.85410196624968
-4.23606797749979 -6.85410196624968 -3.23606797749979
3.23606797749979 4.23606797749979 -6.85410196624968
-1.00000000000000 -6.85410196624968 -5.23606797749979
-5.85410196624968 2.61803398874989 -5.85410196624968
5.85410196624968 -2.61803398874989 -5.85410196624968
2.61803398874989 2.61803398874989 -7.85410196624968
-2.61803398874989 -5.85410196624968 -5.85410196624968
-5.23606797749979 1.00000000000000 -6.85410196624968
5.23606797749979 -1.00000000000000 -6.85410196624968
-3.23606797749979 4.23606797749979 -6.85410196624968
3.23606797749979 -4.23606797749979 -6.85410196624968
-5.85410196624968 -2.61803398874989 -5.85410196624968
-2.61803398874989 2.61803398874989 -7.85410196624968
2.61803398874989 -2.61803398874989 -7.85410196624968
-5.23606797749979 -1.00000000000000 -6.85410196624968
-3.23606797749979 -4.23606797749979 -6.85410196624968
1.00000000000000 1.61803398874989 -8.47213595499958
-2.61803398874989 -2.61803398874989 -7.85410196624968
-1.00000000000000 1.61803398874989 -8.47213595499958
1.00000000000000 -1.61803398874989 -8.47213595499958
-1.00000000000000 -1.61803398874989 -8.47213595499958

12 75 78 9 60 46 61 11 13 74 21 44 41
12 21 19 118 33 72 57 110 116 23 98 59 74
12 28 31 32 68 6 5 73 58 48 17 90 87
12 90 87 71 83 75 78 66 63 94 82 76 79
12 14 25 79 90 17 8 112 103 51 40 110 116
12 94 105 7 111 35 50 37 23 116 14 96 82
12 20 18 108 58 48 33 118 117 41 75 83 97
12 9 3 97 20 62 47 99 101 1 85 45 60
12 4 0 92 30 50 35 107 109 5 73 57 72
12 42 39 93 81 52 55 109 107 65 77 99 101
12 80 77 99 47 106 108 58 73 57 110 40 43
12 44 41 117 34 95 81 93 104 24 113 53 56
12 119 115 29 63 94 105 13 11 100 67 36 22
12 70 85 45 115 29 32 68 65 107 35 111 102
12 31 28 119 22 84 69 103 112 15 106 47 62
12 111 102 27 39 93 104 3 9 78 66 16 7
12 48 33 72 4 91 88 53 56 12 86 8 17
12 52 55 49 16 66 63 29 32 31 62 20 18
12 71 86 8 112 15 26 38 24 104 3 97 83
12 51 54 26 38 42 39 27 30 50 37 43 40
12 106 108 18 52 81 95 0 4 91 54 26 15
12 30 27 102 70 61 46 114 113 53 88 89 92
12 98 100 11 61 70 85 1 2 80 43 37 23
12 65 68 6 96 14 25 36 22 84 2 80 77
12 96 82 76 19 118 117 34 49 55 109 5 6
12 10 12 56 44 21 19 76 79 25 36 67 64
12 49 34 95 0 92 89 59 74 13 105 7 16
12 67 64 69 103 51 54 91 88 89 59 98 100
12 24 38 42 101 1 2 84 69 64 10 114 113
12 86 71 87 28 119 115 45 60 46 114 10 12
