OFF
120 120 0

2.31651242917313 2.31651242917313 13.0489720982003
-2.31651242917313 2.31651242917313 13.0489720982003
2.31651242917313 -2.31651242917313 13.0489720982003
3.93454641792303 3.31651242917313 12.4309381094505
-2.31651242917313 -2.31651242917313 13.0489720982003
5.36622983451361 7.06470827493684 10.1144256802773
7.68274226368674 1.00000000000000 10.9992546928599
-3.93454641792303 3.31651242917313 12.4309381094505
3.93454641792303 -3.31651242917313 12.4309381094505
9.11442568027732 4.74819584576371 8.68274226368674
-5.36622983451361 7.06470827493684 10.1144256802773
5.36622983451361 -7.06470827493684 10.1144256802773
-7.68274226368674 1.00000000000000 10.9992546928599
7.68274226368674 -1.00000000000000 10.9992546928599
-3.93454641792303 -3.31651242917313 12.4309381094505
4.74819584576371 8.68274226368674 9.11442568027732
-9.11442568027732 4.74819584576371 8.68274226368674
9.11442568027732 -4.74819584576371 8.68274226368674
-5.36622983451361 -7.06470827493684 10.1144256802773
1.00000000000000 10.9992546928599 7.68274226368674
-7.68274226368674 -1.00000000000000 10.9992546928599
7.06470827493684 10.1144256802773 5.36622983451361
10.1144256802773 5.36622983451361 7.06470827493684
-4.74819584576371 8.68274226368674 9.11442568027732
4.74819584576371 -8.68274226368674 9.11442568027732
-9.11442568027732 -4.74819584576371 8.68274226368674
3.31651242917313 12.4309381094505 3.93454641792303
12.4309381094505 3.93454641792303 3.31651242917313
-1.00000000000000 10.9992546928599 7.68274226368674
1.00000000000000 -10.9992546928599 7.68274226368674
8.68274226368674 9.11442568027732 4.74819584576371
-7.06470827493684 10.1144256802773 5.36622983451361
7.06470827493684 -10.1144256802773 5.36622983451361
-10.1144256802773 5.36622983451361 7.06470827493684
10.1144256802773 -5.36622983451361 7.06470827493684
-4.74819584576371 -8.68274226368674 9.11442568027732
10.9992546928599 7.68274226368674 1.00000000000000
-3.31651242917313 12.4309381094505 3.93454641792303
3.31651242917313 -12.4309381094505 3.93454641792303
-12.4309381094505 3.93454641792303 3.31651242917313
12.4309381094505 -3.93454641792303 3.31651242917313
-1.00000000000000 -10.9992546928599 7.68274226368674
-8.68274226368674 9.11442568027732 4.74819584576371
8.68274226368674 -9.11442568027732 4.74819584576371
-7.06470827493684 -10.1144256802773 5.36622983451361
-10.1144256802773 -5.36622983451361 7.06470827493684
2.31651242917313 13.0489720982003 2.31651242917313
13.0489720982003 2.31651242917313 2.31651242917313
-10.9992546928599 7.68274226368674 1.00000000000000
10.9992546928599 -7.68274226368674 1.00000000000000
-3.31651242917313 -12.4309381094505 3.93454641792303
-12.4309381094505 -3.93454641792303 3.31651242917313
2.31651242917313 13.0489720982003 -2.31651242917313
13.0489720982003 -2.31651242917313 2.31651242917313
-8.68274226368674 -9.11442568027732 4.74819584576371
-2.31651242917313 13.0489720982003 2.31651242917313
13.0489720982003 2.31651242917313 -2.31651242917313
10.9992546928599 7.68274226368674 -1.00000000000000
2.31651242917313 -13.0489720982003 2.31651242917313
-13.0489720982003 2.31651242917313 2.31651242917313
-10.9992546928599 -7.68274226368674 1.00000000000000
-2.31651242917313 13.0489720982003 -2.31651242917313
13.0489720982003 -2.31651242917313 -2.31651242917313
8.68274226368674 9.11442568027732 -4.74819584576371
2.31651242917313 -13.0489720982003 -2.31651242917313
-13.0489720982003 -2.31651242917313 2.31651242917313
12.4309381094505 3.93454641792303 -3.31651242917313
-2.31651242917313 -13.0489720982003 2.31651242917313
-13.0489720982003 2.31651242917313 -2.31651242917313
-10.9992546928599 7.68274226368674 -1.00000000000000
10.9992546928599 -7.68274226368674 -1.00000000000000
3.31651242917313 12.4309381094505 -3.93454641792303
10.1144256802773 5.36622983451361 -7.06470827493684
-2.31651242917313 -13.0489720982003 -2.31651242917313
-13.0489720982003 -2.31651242917313 -2.31651242917313
-8.68274226368674 9.11442568027732 -4.74819584576371
8.68274226368674 -9.11442568027732 -4.74819584576371
7.06470827493684 10.1144256802773 -5.36622983451361
-12.4309381094505 3.93454641792303 -3.31651242917313
12.4309381094505 -3.93454641792303 -3.31651242917313
1.00000000000000 10.9992546928599 -7.68274226368674
-10.9992546928599 -7.68274226368674 -1.00000000000000
-3.31651242917313 12.4309381094505 -3.93454641792303
3.31651242917313 -12.4309381094505 -3.93454641792303
-10.1144256802773 5.36622983451361 -7.06470827493684
10.1144256802773 -5.36622983451361 -7.06470827493684
4.74819584576371 8.68274226368674 -9.11442568027732
-8.68274226368674 -9.11442568027732 -4.74819584576371
-7.06470827493684 10.1144256802773 -5.36622983451361
7.06470827493684 -10.1144256802773 -5.36622983451361
-12.4309381094505 -3.93454641792303 -3.31651242917313
-1.00000000000000 10.9992546928599 -7.68274226368674
1.00000000000000 -10.9992546928599 -7.68274226368674
9.11442568027732 4.74819584576371 -8.68274226368674
-3.31651242917313 -12.4309381094505 -3.93454641792303
-10.1144256802773 -5.36622983451361 -7.06470827493684
-4.74819584576371 8.68274226368674 -9.11442568027732
4.74819584576371 -8.68274226368674 -9.11442568027732
7.68274226368674 1.00000000000000 -10.9992546928599
-7.06470827493684 -10.1144256802773 -5.36622983451361
5.36622983451361 7.06470827493684 -10.1144256802773
-1.00000000000000 -10.9992546928599 -7.68274226368674
-9.11442568027732 4.74819584576371 -8.68274226368674
9.11442568027732 -4.74819584576371 -8.68274226368674
3.93454641792303 3.31651242917313 -12.4309381094505
-4.74819584576371 -8.68274226368674 -9.11442568027732
-7.68274226368674 1.00000000000000 -10.9992546928599
7.68274226368674 -1.00000000000000 -10.9992546928599
-5.36622983451361 7.06470827493684 -10.1144256802773
5.36622983451361 -7.06470827493684 -10.1144256802773
-9.11442568027732 -4.74819584576371 -8.68274226368674
-3.93454641792303 3.31651242917313 -12.4309381094505
3.93454641792303 -3.31651242917313 -12.4309381094505
-7.68274226368674 -1.00000000000000 -10.9992546928599
-5.36622983451361 -7.06470827493684 -10.1144256802773
2.31651242917313 2.31651242917313 -13.0489720982003
-3.93454641792303 -3.31651242917313 -12.4309381094505
-2.31651242917313 2.31651242917313 -13.0489720982003
2.31651242917313 -2.31651242917313 -13.0489720982003
-2.31651242917313 -2.31651242917313 -13.0489720982003

5 75 109 45 96 83
5 21 29 48 22 44
5 28 104 65 26 119
5 90 2 97 65 17
5 14 61 87 1 96
5 94 56 102 64 63
5 20 27 73 7 62
5 9 88 18 30 78
5 4 75 27 20 91
5 97 22 44 103 3
5 35 84 89 25 111
5 42 11 95 23 38
5 80 7 62 82 2
5 44 28 49 45 21
5 99 91 70 95 77
5 119 42 66 113 28
5 41 112 59 38 117
5 70 26 119 40 61
5 31 41 36 33 32
5 79 4 105 53 25
5 55 17 104 28 49
5 102 21 109 75 27
5 111 67 42 119 35
5 57 38 117 27 73
5 48 94 0 78 58
5 52 110 7 80 81
5 71 74 103 61 87
5 107 78 58 104 65
5 108 12 101 88 18
5 51 118 24 74 103
5 74 24 37 81 13
5 17 99 10 43 90
5 11 107 19 32 100
5 8 52 76 0 86
5 106 79 55 116 47
5 30 18 85 15 50
5 53 105 71 49 113
5 78 0 86 59 9
5 98 90 46 112 59
5 13 39 64 3 74
5 65 97 82 60 107
5 88 101 57 84 89
5 96 45 21 102 14
5 22 48 98 5 84
5 118 30 78 107 19
5 112 46 43 115 15
5 10 106 41 31 114
5 32 19 60 34 31
5 93 31 114 63 39
5 49 71 4 79 55
5 36 83 1 66 67
5 67 9 112 41 36
5 81 37 118 51 52
5 104 58 30 118 24
5 116 55 54 117 23
5 39 115 15 68 93
5 24 72 99 17 104
5 38 59 9 67 42
5 7 73 75 4 105
5 76 108 22 97 82
5 100 6 92 77 11
5 47 96 83 36 106
5 5 98 29 21 109
5 25 89 5 54 79
5 117 54 79 106 41
5 113 66 67 111 53
5 2 63 39 13 80
5 23 95 77 16 116
5 72 69 6 100 33
5 86 34 31 93 8
5 69 50 115 39 64
5 58 16 116 29 48
5 19 111 53 37 118
5 103 44 108 76 51
5 29 116 47 50 115
5 87 100 33 105 71
5 26 65 17 55 54
5 15 85 88 9 112
5 34 60 107 11 95
5 92 14 56 94 0
5 83 68 93 73 75
5 46 25 111 19 60
5 105 33 32 110 7
5 16 77 11 42 66
5 82 62 110 52 76
5 89 80 81 85 88
5 91 3 74 71 4
5 45 49 113 18 85
5 3 64 63 2 97
5 54 5 84 35 26
5 37 53 25 46 43
5 56 23 38 57 12
5 73 93 8 101 57
5 115 43 90 98 29
5 63 114 34 86 94
5 59 86 94 48 98
5 84 57 12 108 22
5 64 102 14 92 69
5 101 8 68 83 1
5 12 40 61 14 56
5 33 36 106 10 72
5 27 117 23 56 102
5 43 10 72 24 37
5 109 13 80 89 5
5 66 1 96 47 16
5 77 92 69 72 99
5 50 47 16 58 30
5 114 20 91 99 10
5 18 113 28 44 108
5 0 76 51 6 92
5 40 119 35 62 110
5 60 82 2 90 46
5 62 35 26 70 20
5 1 87 40 12 101
5 6 51 52 8 68
5 68 15 50 69 6
5 61 103 3 91 70
5 110 32 100 87 40
5 95 70 20 114 34
5 85 81 13 109 45
