OFF
120 120 0

0.942956353746427 0.306197331174452 6.20019745062038
-0.942956353746427 0.306197331174452 6.20019745062038
0.942956353746427 -0.306197331174452 6.20019745062038
2.56099034249632 1.30619733117445 5.58216346187048
-0.942956353746427 -0.306197331174452 6.20019745062038
3.14376941901928 2.83193276144384 4.63920710812406
3.05642803160109 1.00000000000000 5.39292310394016
-2.56099034249632 1.30619733117445 5.58216346187048
2.56099034249632 -1.30619733117445 5.58216346187048
3.63920710812406 2.52573543026939 4.44996675019374
-3.14376941901928 2.83193276144384 4.63920710812406
3.14376941901928 -2.83193276144384 4.63920710812406
-3.05642803160109 1.00000000000000 5.39292310394016
3.05642803160109 -1.00000000000000 5.39292310394016
-2.56099034249632 -1.30619733117445 5.58216346187048
2.52573543026939 4.44996675019374 3.63920710812406
-3.63920710812406 2.52573543026939 4.44996675019374
3.63920710812406 -2.52573543026939 4.44996675019374
-3.14376941901928 -2.83193276144384 4.63920710812406
1.00000000000000 5.39292310394016 3.05642803160109
-3.05642803160109 -1.00000000000000 5.39292310394016
2.83193276144384 4.63920710812406 3.14376941901928
4.63920710812406 3.14376941901928 2.83193276144384
-2.52573543026939 4.44996675019374 3.63920710812406
2.52573543026939 -4.44996675019374 3.63920710812406
-3.63920710812406 -2.52573543026939 4.44996675019374
1.30619733117445 5.58216346187048 2.56099034249632
5.58216346187048 2.56099034249632 1.30619733117445
-1.00000000000000 5.39292310394016 3.05642803160109
1.00000000000000 -5.39292310394016 3.05642803160109
4.44996675019374 3.63920710812406 2.52573543026939
-2.83193276144384 4.63920710812406 3.14376941901928
2.83193276144384 -4.63920710812406 3.14376941901928
-4.63920710812406 3.14376941901928 2.83193276144384
4.63920710812406 -3.14376941901928 2.83193276144384
-2.52573543026939 -4.44996675019374 3.63920710812406
5.39292310394016 3.05642803160109 1.00000000000000
-1.30619733117445 5.58216346187048 2.56099034249632
1.30619733117445 -5.58216346187048 2.56099034249632
-5.58216346187048 2.56099034249632 1.30619733117445
5.58216346187048 -2.56099034249632 1.30619733117445
-1.00000000000000 -5.39292310394016 3.05642803160109
-4.44996675019374 3.63920710812406 2.52573543026939
4.44996675019374 -3.63920710812406 2.52573543026939
-2.83193276144384 -4.63920710812406 3.14376941901928
-4.63920710812406 -3.14376941901928 2.83193276144384
0.306197331174452 6.20019745062038 0.942956353746427
6.20019745062038 0.942956353746427 0.306197331174452
-5.39292310394016 3.05642803160109 1.00000000000000
5.39292310394016 -3.05642803160109 1.00000000000000
-1.30619733117445 -5.58216346187048 2.56099034249632
-5.58216346187048 -2.56099034249632 1.30619733117445
0.306197331174452 6.20019745062038 -0.942956353746427
6.20019745062038 -0.942956353746427 0.306197331174452
-4.44996675019374 -3.63920710812406 2.52573543026939
-0.306197331174452 6.20019745062038 0.942956353746427
6.20019745062038 0.942956353746427 -0.306197331174452
5.39292310394016 3.05642803160109 -1.00000000000000
0.306197331174452 -6.20019745062038 0.942956353746427
-6.20019745062038 0.942956353746427 0.306197331174452
-5.39292310394016 -3.05642803160109 1.00000000000000
-0.306197331174452 6.20019745062038 -0.942956353746427
6.20019745062038 -0.942956353746427 -0.306197331174452
4.44996675019374 3.63920710812406 -2.52573543026939
0.306197331174452 -6.20019745062038 -0.942956353746427
-6.20019745062038 -0.942956353746427 0.306197331174452
5.58216346187048 2.56099034249632 -1.30619733117445
-0.306197331174452 -6.20019745062038 0.942956353746427
-6.20019745062038 0.942956353746427 -0.306197331174452
-5.39292310394016 3.05642803160109 -1.00000000000000
5.39292310394016 -3.05642803160109 -1.00000000000000
1.30619733117445 5.58216346187048 -2.56099034249632
4.63920710812406 3.14376941901928 -2.83193276144384
-0.306197331174452 -6.20019745062038 -0.942956353746427
-6.20019745062038 -0.942956353746427 -0.306197331174452
-4.44996675019374 3.63920710812406 -2.52573543026939
4.44996675019374 -3.63920710812406 -2.52573543026939
2.83193276144384 4.63920710812406 -3.14376941901928
-5.58216346187048 2.56099034249632 -1.30619733117445
5.58216346187048 -2.56099034249632 -1.30619733117445
1.00000000000000 5.39292310394016 -3.05642803160109
-5.39292310394016 -3.05642803160109 -1.00000000000000
-1.30619733117445 5.58216346187048 -2.56099034249632
1.30619733117445 -5.58216346187048 -2.56099034249632
-4.63920710812406 3.14376941901928 -2.83193276144384
4.63920710812406 -3.14376941901928 -2.83193276144384
2.52573543026939 4.44996675019374 -3.63920710812406
-4.44996675019374 -3.63920710812406 -2.52573543026939
-2.83193276144384 4.63920710812406 -3.14376941901928
2.83193276144384 -4.63920710812406 -3.14376941901928
-5.58216346187048 -2.56099034249632 -1.30619733117445
-1.00000000000000 5.39292310394016 -3.05642803160109
1.00000000000000 -5.39292310394016 -3.05642803160109
3.63920710812406 2.52573543026939 -4.44996675019374
-1.30619733117445 -5.58216346187048 -2.56099034249632
-4.63920710812406 -3.14376941901928 -2.83193276144384
-2.52573543026939 4.44996675019374 -3.63920710812406
2.52573543026939 -4.44996675019374 -3.63920710812406
3.05642803160109 1.00000000000000 -5.39292310394016
-2.83193276144384 -4.63920710812406 -3.14376941901928
3.14376941901928 2.83193276144384 -4.63920710812406
-1.00000000000000 -5.39292310394016 -3.05642803160109
-3.63920710812406 2.52573543026939 -4.44996675019374
3.63920710812406 -2.52573543026939 -4.44996675019374
2.56099034249632 1.30619733117445 -5.58216346187048
-2.52573543026939 -4.44996675019374 -3.63920710812406
-3.05642803160109 1.00000000000000 -5.39292310394016
3.05642803160109 -1.00000000000000 -5.39292310394016
-3.14376941901928 2.83193276144384 -4.63920710812406
3.14376941901928 -2.83193276144384 -4.63920710812406
-3.63920710812406 -2.52573543026939 -4.44996675019374
-2.56099034249632 1.30619733117445 -5.58216346187048
2.56099034249632 -1.30619733117445 -5.58216346187048
-3.05642803160109 -1.00000000000000 -5.39292310394016
-3.14376941901928 -2.83193276144384 -4.63920710812406
0.942956353746427 0.306197331174452 -6.20019745062038
-2.56099034249632 -1.30619733117445 -5.58216346187048
-0.942956353746427 0.306197331174452 -6.20019745062038
0.942956353746427 -0.306197331174452 -6.20019745062038
-0.942956353746427 -0.306197331174452 -6.20019745062038

5 75 91 77 73 90
5 21 27 62 45 10
5 28 21 27 113 69
5 90 59 42 43 73
5 14 0 9 102 65
5 94 58 24 86 119
5 20 10 37 70 29
5 9 36 72 59 7
5 4 25 60 71 15
5 97 107 100 2 38
5 35 20 10 119 94
5 42 28 21 67 51
5 80 88 78 13 36
5 44 51 68 22 11
5 99 90 59 72 109
5 119 110 81 26 86
5 41 32 40 106 81
5 70 34 8 91 98
5 31 39 74 34 5
5 79 47 30 54 64
5 55 23 12 79 63
5 102 69 33 56 104
5 111 118 103 25 68
5 57 22 3 101 107
5 48 84 111 29 20
5 52 86 98 51 42
5 71 55 23 105 115
5 107 100 71 60 101
5 108 82 46 44 95
5 51 68 75 76 67
5 74 87 101 3 16
5 17 49 85 65 14
5 11 38 73 77 22
5 8 1 16 93 53
5 106 114 94 36 80
5 30 19 31 58 40
5 53 43 29 111 93
5 78 65 54 30 61
5 98 109 83 48 91
5 13 5 26 81 41
5 65 54 41 104 102
5 88 78 65 85 100
5 96 106 114 1 37
5 22 3 4 108 77
5 118 103 70 37 96
5 112 117 102 9 62
5 10 37 52 99 45
5 32 40 56 33 18
5 93 57 22 68 111
5 49 85 112 28 6
5 36 72 104 41 13
5 67 35 20 66 76
5 81 45 14 80 106
5 104 119 110 17 56
5 116 115 93 16 74
5 39 74 87 63 55
5 24 13 5 118 83
5 38 73 105 23 2
5 7 2 17 110 59
5 76 92 99 52 66
5 100 71 55 32 85
5 47 30 19 116 103
5 5 26 61 89 34
5 25 60 95 53 8
5 117 102 69 38 97
5 113 108 82 49 92
5 2 17 49 82 23
5 23 12 18 117 82
5 72 104 119 10 21
5 86 98 109 0 26
5 69 33 7 92 113
5 58 24 13 78 87
5 19 31 39 107 57
5 103 70 34 74 116
5 29 44 51 98 70
5 87 101 89 61 78
5 26 61 96 35 0
5 15 6 11 115 71
5 34 8 1 114 89
5 92 99 90 6 49
5 83 67 35 96 118
5 46 15 6 90 75
5 105 113 108 4 50
5 16 48 84 47 3
5 82 46 15 97 117
5 89 79 47 84 114
5 91 77 66 20 48
5 45 14 0 109 99
5 3 4 25 103 47
5 54 41 32 55 39
5 37 52 86 24 1
5 56 63 80 14 17
5 73 105 113 27 43
5 115 93 57 50 105
5 63 80 88 64 79
5 59 42 28 112 110
5 84 111 118 5 31
5 64 97 107 39 54
5 101 89 79 12 60
5 12 18 50 57 19
5 33 7 2 100 88
5 27 62 76 75 46
5 43 29 44 46 27
5 109 83 67 21 72
5 66 53 43 42 52
5 77 66 53 95 108
5 50 64 97 15 4
5 114 94 58 31 84
5 18 50 64 88 33
5 0 9 36 94 35
5 40 56 63 87 58
5 60 95 116 19 12
5 62 76 92 7 9
5 1 16 48 83 24
5 6 11 38 69 28
5 68 75 91 8 25
5 61 96 106 40 30
5 110 81 45 62 112
5 95 116 115 11 44
5 85 112 117 18 32
