OFF
120 30 0

1.00000000000000 1.00000000000000 7.47213595499958
-1.00000000000000 1.00000000000000 7.47213595499958
1.00000000000000 -1.00000000000000 7.47213595499958
2.61803398874989 2.00000000000000 6.85410196624968
-1.00000000000000 -1.00000000000000 7.47213595499958
3.23606797749979 3.61803398874989 5.85410196624968
4.23606797749979 1.00000000000000 6.23606797749979
-2.61803398874989 2.00000000000000 6.85410196624968
2.61803398874989 -2.00000000000000 6.85410196624968
4.85410196624968 2.61803398874989 5.23606797749979
-3.23606797749979 3.61803398874989 5.85410196624968
3.23606797749979 -3.61803398874989 5.85410196624968
-4.23606797749979 1.00000000000000 6.23606797749979
4.23606797749979 -1.00000000000000 6.23606797749979
-2.61803398874989 -2.00000000000000 6.85410196624968
2.61803398874989 5.23606797749979 4.85410196624968
-4.85410196624968 2.61803398874989 5.23606797749979
4.85410196624968 -2.61803398874989 5.23606797749979
-3.23606797749979 -3.61803398874989 5.85410196624968
1.00000000000000 6.23606797749979 4.23606797749979
-4.23606797749979 -1.00000000000000 6.23606797749979
3.61803398874989 5.85410196624968 3.23606797749979
5.85410196624968 3.23606797749979 3.61803398874989
-2.61803398874989 5.23606797749979 4.85410196624968
2.61803398874989 -5.23606797749979 4.85410196624968
-4.85410196624968 -2.61803398874989 5.23606797749979
2.00000000000000 6.85410196624968 2.61803398874989
6.85410196624968 2.61803398874989 2.00000000000000
-1.00000000000000 6.23606797749979 4.23606797749979
1.00000000000000 -6.23606797749979 4.23606797749979
5.23606797749979 4.85410196624968 2.61803398874989
-3.61803398874989 5.85410196624968 3.23606797749979
3.61803398874989 -5.85410196624968 3.23606797749979
-5.85410196624968 3.23606797749979 3.61803398874989
5.85410196624968 -3.23606797749979 3.61803398874989
-2.61803398874989 -5.23606797749979 4.85410196624968
6.23606797749979 4.23606797749979 1.00000000000000
-2.00000000000000 6.85410196624968 2.61803398874989
2.00000000000000 -6.85410196624968 2.61803398874989
-6.85410196624968 2.61803398874989 2.00000000000000
6.85410196624968 -2.61803398874989 2.00000000000000
-1.00000000000000 -6.23606797749979 4.23606797749979
-5.23606797749979 4.85410196624968 2.61803398874989
5.23606797749979 -4.85410196624968 2.61803398874989
-3.61803398874989 -5.85410196624968 3.23606797749979
-5.85410196624968 -3.23606797749979 3.61803398874989
1.00000000000000 7.47213595499958 1.00000000000000
7.47213595499958 1.00000000000000 1.00000000000000
-6.23606797749979 4.23606797749979 1.00000000000000
6.23606797749979 -4.23606797749979 1.00000000000000
-2.00000000000000 -6.85410196624968 2.61803398874989
-6.85410196624968 -2.61803398874989 2.00000000000000
1.00000000000000 7.47213595499958 -1.00000000000000
7.47213595499958 -1.00000000000000 1.00000000000000
-5.23606797749979 -4.85410196624968 2.61803398874989
-1.00000000000000 7.47213595499958 1.00000000000000
7.47213595499958 1.00000000000000 -1.00000000000000
6.23606797749979 4.23606797749979 -1.00000000000000
1.00000000000000 -7.47213595499958 1.00000000000000
-7.47213595499958 1.00000000000000 1.00000000000000
-6.23606797749979 -4.23606797749979 1.00000000000000
-1.00000000000000 7.47213595499958 -1.00000000000000
7.47213595499958 -1.00000000000000 -1.00000000000000
5.23606797749979 4.85410196624968 -2.61803398874989
1.00000000000000 -7.47213595499958 -1.00000000000000
-7.47213595499958 -1.00000000000000 1.00000000000000
6.85410196624968 2.61803398874989 -2.00000000000000
-1.00000000000000 -7.47213595499958 1.00000000000000
-7.47213595499958 1.00000000000000 -1.00000000000000
-6.23606797749979 4.23606797749979 -1.00000000000000
6.23606797749979 -4.23606797749979 -1.00000000000000
2.00000000000000 6.85410196624968 -2.61803398874989
5.85410196624968 3.23606797749979 -3.61803398874989
-1.00000000000000 -7.47213595499958 -1.00000000000000
-7.47213595499958 -1.00000000000000 -1.00000000000000
-5.23606797749979 4.85410196624968 -2.61803398874989
5.23606797749979 -4.85410196624968 -2.61803398874989
3.61803398874989 5.85410196624968 -3.23606797749979
-6.85410196624968 2.61803398874989 -2.00000000000000
6.85410196624968 -2.61803398874989 -2.00000000000000
1.00000000000000 6.23606797749979 -4.23606797749979
-6.23606797749979 -4.23606797749979 -1.00000000000000
-2.00000000000000 6.85410196624968 -2.61803398874989
2.00000000000000 -6.85410196624968 -2.61803398874989
-5.85410196624968 3.23606797749979 -3.61803398874989
5.85410196624968 -3.23606797749979 -3.61803398874989
2.61803398874989 5.23606797749979 -4.85410196624968
-5.23606797749979 -4.85410196624968 -2.61803398874989
-3.61803398874989 5.85410196624968 -3.23606797749979
3.61803398874989 -5.85410196624968 -3.23606797749979
-6.85410196624968 -2.61803398874989 -2.00000000000000
-1.00000000000000 6.23606797749979 -4.23606797749979
1.00000000000000 -6.23606797749979 -4.23606797749979
4.85410196624968 2.61803398874989 -5.23606797749979
-2.00000000000000 -6.85410196624968 -2.61803398874989
-5.85410196624968 -3.23606797749979 -3.61803398874989
-2.61803398874989 5.23606797749979 -4.85410196624968
2.61803398874989 -5.23606797749979 -4.85410196624968
4.23606797749979 1.00000000000000 -6.23606797749979
-3.61803398874989 -5.85410196624968 -3.23606797749979
3.23606797749979 3.61803398874989 -5.85410196624968
-1.00000000000000 -6.23606797749979 -4.23606797749979
-4.85410196624968 2.61803398874989 -5.23606797749979
4.85410196624968 -2.61803398874989 -5.23606797749979
2.61803398874989 2.00000000000000 -6.85410196624968
-2.61803398874989 -5.23606797749979 -4.85410196624968
-4.23606797749979 1.00000000000000 -6.23606797749979
4.23606797749979 -1.00000000000000 -6.23606797749979
-3.23606797749979 3.61803398874989 -5.85410196624968
3.23606797749979 -3.61803398874989 -5.85410196624968
-4.85410196624968 -2.61803398874989 -5.23606797749979
-2.61803398874989 2.00000000000000 -6.85410196624968
2.61803398874989 -2.00000000000000 -6.85410196624968
-4.23606797749979 -1.00000000000000 -6.23606797749979
-3.23606797749979 -3.61803398874989 -5.85410196624968
1.00000000000000 1.00000000000000 -7.47213595499958
-2.61803398874989 -2.00000000000000 -6.85410196624968
-1.00000000000000 1.00000000000000 -7.47213595499958
1.00000000000000 -1.00000000000000 -7.47213595499958
-1.00000000000000 -1.00000000000000 -7.47213595499958

12 75 11 100 20 62 69 34 96 14 93 39 40
12 21 110 40 75 83 26 105 22 84 49 55 101
12 28 73 57 45 85 23 83 26 54 66 16 89
12 90 66 16 112 15 95 36 65 107 10 114 30
12 14 112 15 94 63 18 98 1 101 21 44 93
12 94 37 43 78 9 99 19 64 69 34 95 15
12 20 118 19 99 77 25 104 7 105 26 54 100
12 9 99 77 41 117 6 114 30 50 86 8 116
12 4 107 65 53 113 2 118 20 62 74 13 119
12 97 33 72 60 46 92 31 103 51 63 94 37
12 35 72 33 70 61 41 77 25 79 42 38 71
12 42 109 5 113 53 48 85 23 116 9 78 79
12 80 58 48 85 45 86 50 82 76 39 93 44
12 70 68 6 114 10 76 39 40 110 3 97 33
12 55 101 1 117 41 61 73 28 119 4 91 67
12 102 32 31 92 0 106 11 75 83 23 116 8
12 111 3 97 37 43 108 13 119 28 89 88 17
12 57 74 13 108 18 63 51 27 102 8 86 45
12 52 29 115 0 92 46 58 80 2 118 19 64
12 107 4 91 32 31 103 7 104 24 82 76 10
12 74 57 73 61 70 68 56 81 52 64 69 62
12 53 48 58 46 60 47 59 49 55 67 36 65
12 78 79 25 104 24 84 49 59 98 18 108 43
12 88 17 90 30 50 82 24 84 22 81 52 29
12 96 34 95 36 67 91 32 102 27 87 71 38
12 22 105 7 103 51 27 87 5 109 12 56 81
12 112 14 96 38 42 109 12 115 29 88 89 16
12 5 87 71 35 111 3 110 21 44 80 2 113
12 117 6 68 56 12 115 0 106 47 59 98 1
12 72 35 111 17 90 66 54 100 11 106 47 60
