OFF
120 30 0

1.61803398874989 0.618033988749895 8.47213595499958
-1.61803398874989 0.618033988749895 8.47213595499958
1.61803398874989 -0.618033988749895 8.47213595499958
3.23606797749979 1.61803398874989 7.85410196624968
-1.61803398874989 -0.618033988749895 8.47213595499958
4.23606797749979 4.23606797749979 6.23606797749979
4.23606797749979 1.00000000000000 7.47213595499958
-3.23606797749979 1.61803398874989 7.85410196624968
3.23606797749979 -1.61803398874989 7.85410196624968
5.23606797749979 3.61803398874989 5.85410196624968
-4.23606797749979 4.23606797749979 6.23606797749979
4.23606797749979 -4.23606797749979 6.23606797749979
-4.23606797749979 1.00000000000000 7.47213595499958
4.23606797749979 -1.00000000000000 7.47213595499958
-3.23606797749979 -1.61803398874989 7.85410196624968
3.61803398874989 5.85410196624968 5.23606797749979
-5.23606797749979 3.61803398874989 5.85410196624968
5.23606797749979 -3.61803398874989 5.85410196624968
-4.23606797749979 -4.23606797749979 6.23606797749979
1.00000000000000 7.47213595499958 4.23606797749979
-4.23606797749979 -1.00000000000000 7.47213595499958
4.23606797749979 6.23606797749979 4.23606797749979
6.23606797749979 4.23606797749979 4.23606797749979
-3.61803398874989 5.85410196624968 5.23606797749979
3.61803398874989 -5.85410196624968 5.23606797749979
-5.23606797749979 -3.61803398874989 5.85410196624968
1.61803398874989 7.85410196624968 3.23606797749979
7.85410196624968 3.23606797749979 1.61803398874989
-1.00000000000000 7.47213595499958 4.23606797749979
1.00000000000000 -7.47213595499958 4.23606797749979
5.85410196624968 5.23606797749979 3.61803398874989
-4.23606797749979 6.23606797749979 4.23606797749979
4.23606797749979 -6.23606797749979 4.23606797749979
-6.23606797749979 4.23606797749979 4.23606797749979
6.23606797749979 -4.23606797749979 4.23606797749979
-3.61803398874989 -5.85410196624968 5.23606797749979
7.47213595499958 4.23606797749979 1.00000000000000
-1.61803398874989 7.85410196624968 3.23606797749979
1.61803398874989 -7.85410196624968 3.23606797749979
-7.85410196624968 3.23606797749979 1.61803398874989
7.85410196624968 -3.23606797749979 1.61803398874989
-1.00000000000000 -7.47213595499958 4.23606797749979
-5.85410196624968 5.23606797749979 3.61803398874989
5.85410196624968 -5.23606797749979 3.61803398874989
-4.23606797749979 -6.23606797749979 4.23606797749979
-6.23606797749979 -4.23606797749979 4.23606797749979
0.618033988749895 8.47213595499958 1.61803398874989
8.47213595499958 1.61803398874989 0.618033988749895
-7.47213595499958 4.23606797749979 1.00000000000000
7.47213595499958 -4.23606797749979 1.00000000000000
-1.61803398874989 -7.85410196624968 3.23606797749979
-7.85410196624968 -3.23606797749979 1.61803398874989
0.618033988749895 8.47213595499958 -1.61803398874989
8.47213595499958 -1.61803398874989 0.618033988749895
-5.85410196624968 -5.23606797749979 3.61803398874989
-0.618033988749895 8.47213595499958 1.61803398874989
8.47213595499958 1.61803398874989 -0.618033988749895
7.47213595499958 4.23606797749979 -1.00000000000000
0.618033988749895 -8.47213595499958 1.61803398874989
-8.47213595499958 1.61803398874989 0.618033988749895
-7.47213595499958 -4.23606797749979 1.00000000000000
-0.618033988749895 8.47213595499958 -1.61803398874989
8.47213595499958 -1.61803398874989 -0.618033988749895
5.85410196624968 5.23606797749979 -3.61803398874989
0.618033988749895 -8.47213595499958 -1.61803398874989
-8.47213595499958 -1.61803398874989 0.618033988749895
7.85410196624968 3.23606797749979 -1.61803398874989
-0.618033988749895 -8.47213595499958 1.61803398874989
-8.47213595499958 1.61803398874989 -0.618033988749895
-7.47213595499958 4.23606797749979 -1.00000000000000
7.47213595499958 -4.23606797749979 -1.00000000000000
1.61803398874989 7.85410196624968 -3.23606797749979
6.23606797749979 4.23606797749979 -4.23606797749979
-0.618033988749895 -8.47213595499958 -1.61803398874989
-8.47213595499958 -1.61803398874989 -0.618033988749895
-5.85410196624968 5.23606797749979 -3.61803398874989
5.85410196624968 -5.23606797749979 -3.61803398874989
4.23606797749979 6.23606797749979 -4.23606797749979
-7.85410196624968 3.23606797749979 -1.61803398874989
7.85410196624968 -3.23606797749979 -1.61803398874989
1.00000000000000 7.47213595499958 -4.23606797749979
-7.47213595499958 -4.23606797749979 -1.00000000000000
-1.61803398874989 7.85410196624968 -3.23606797749979
1.61803398874989 -7.85410196624968 -3.23606797749979
-6.23606797749979 4.23606797749979 -4.23606797749979
6.23606797749979 -4.23606797749979 -4.23606797749979
3.61803398874989 5.85410196624968 -5.23606797749979
-5.85410196624968 -5.23606797749979 -3.61803398874989
-4.23606797749979 6.23606797749979 -4.23606797749979
4.23606797749979 -6.23606797749979 -4.23606797749979
-7.85410196624968 -3.23606797749979 -1.61803398874989
-1.00000000000000 7.47213595499958 -4.23606797749979
1.00000000000000 -7.47213595499958 -4.23606797749979
5.23606797749979 3.61803398874989 -5.85410196624968
-1.61803398874989 -7.85410196624968 -3.23606797749979
-6.23606797749979 -4.23606797749979 -4.23606797749979
-3.61803398874989 5.85410196624968 -5.23606797749979
3.61803398874989 -5.85410196624968 -5.23606797749979
4.23606797749979 1.00000000000000 -7.47213595499958
-4.23606797749979 -6.23606797749979 -4.23606797749979
4.23606797749979 4.23606797749979 -6.23606797749979
-1.00000000000000 -7.47213595499958 -4.23606797749979
-5.23606797749979 3.61803398874989 -5.85410196624968
5.23606797749979 -3.61803398874989 -5.85410196624968
3.23606797749979 1.61803398874989 -7.85410196624968
-3.61803398874989 -5.85410196624968 -5.23606797749979
-4.23606797749979 1.00000000000000 -7.47213595499958
4.23606797749979 -1.00000000000000 -7.47213595499958
-4.23606797749979 4.23606797749979 -6.23606797749979
4.23606797749979 -4.23606797749979 -6.23606797749979
-5.23606797749979 -3.61803398874989 -5.85410196624968
-3.23606797749979 1.61803398874989 -7.85410196624968
3.23606797749979 -1.61803398874989 -7.85410196624968
-4.23606797749979 -1.00000000000000 -7.47213595499958
-4.23606797749979 -4.23606797749979 -6.23606797749979
1.61803398874989 0.618033988749895 -8.47213595499958
-3.23606797749979 -1.61803398874989 -7.85410196624968
-1.61803398874989 0.618033988749895 -8.47213595499958
1.61803398874989 -0.618033988749895 -8.47213595499958
-1.61803398874989 -0.618033988749895 -8.47213595499958

12 75 78 4 0 71 59 3 9 91 88 20 30
12 21 19 102 111 56 37 117 118 27 30 75 107
12 28 31 44 41 22 33 29 32 21 19 45 34
12 90 87 98 100 48 105 86 71 59 74 112 61
12 14 25 92 89 6 54 76 79 0 4 94 53
12 94 105 48 33 29 110 16 7 58 73 78 4
12 20 18 114 113 31 44 106 108 10 12 99 88
12 9 3 67 64 66 2 83 97 36 22 41 103
12 97 83 65 68 104 73 78 75 107 109 60 96
12 35 50 62 47 7 58 27 30 20 18 70 15
12 42 39 119 115 26 68 104 93 28 31 113 63
12 80 77 89 92 84 72 101 99 88 91 85 95
12 44 41 103 112 74 38 118 117 51 54 76 106
12 99 101 17 8 65 83 2 1 90 87 43 12
12 119 115 40 43 87 98 32 29 110 116 62 50
12 70 85 95 81 11 109 60 45 34 49 114 18
12 79 76 106 108 36 97 96 82 47 62 116 52
12 55 52 116 110 16 80 95 81 23 37 117 51
12 102 111 64 67 39 119 50 35 69 84 92 25
12 57 72 84 69 5 100 48 33 22 36 108 10
12 52 55 8 17 93 28 34 49 86 71 0 79
12 107 109 11 13 77 89 6 5 100 98 32 21
12 51 54 6 5 69 35 15 26 68 65 8 55
12 11 13 42 39 67 3 59 74 38 24 23 81
12 53 56 37 23 24 57 10 12 43 40 46 14
12 93 104 73 58 27 118 38 24 57 72 101 17
12 7 16 80 77 13 42 63 66 2 1 82 47
12 25 14 46 61 90 1 82 96 60 45 19 102
12 103 112 61 46 40 115 26 15 70 85 91 9
12 105 94 53 56 111 64 66 63 113 114 49 86
