OFF
120 120 0

0.0238098302861875 0.243928030439930 3.69308676651602
-0.0238098302861875 0.243928030439930 3.69308676651602
0.0238098302861875 -0.243928030439930 3.69308676651602
1.64184381903608 1.24392803043993 3.07505277776613
-0.0238098302861875 -0.243928030439930 3.69308676651602
1.65655910341931 1.28245314510935 3.05124294747994
2.03652766309671 1.00000000000000 2.92429696414543
-1.64184381903608 1.24392803043993 3.07505277776613
1.64184381903608 -1.24392803043993 3.07505277776613
2.05124294747994 1.03852511466942 2.90048713385924
-1.65655910341931 1.28245314510935 3.05124294747994
1.65655910341931 -1.28245314510935 3.05124294747994
-2.03652766309671 1.00000000000000 2.92429696414543
2.03652766309671 -1.00000000000000 2.92429696414543
-1.64184381903608 -1.24392803043993 3.07505277776613
1.03852511466942 2.90048713385924 2.05124294747994
-2.05124294747994 1.03852511466942 2.90048713385924
2.05124294747994 -1.03852511466942 2.90048713385924
-1.65655910341931 -1.28245314510935 3.05124294747994
1.00000000000000 2.92429696414543 2.03652766309671
-2.03652766309671 -1.00000000000000 2.92429696414543
1.28245314510935 3.05124294747994 1.65655910341931
3.05124294747994 1.65655910341931 1.28245314510935
-1.03852511466942 2.90048713385924 2.05124294747994
1.03852511466942 -2.90048713385924 2.05124294747994
-2.05124294747994 -1.03852511466942 2.90048713385924
1.24392803043993 3.07505277776613 1.64184381903608
3.07505277776613 1.64184381903608 1.24392803043993
-1.00000000000000 2.92429696414543 2.03652766309671
1.00000000000000 -2.92429696414543 2.03652766309671
2.90048713385924 2.05124294747994 1.03852511466942
-1.28245314510935 3.05124294747994 1.65655910341931
1.28245314510935 -3.05124294747994 1.65655910341931
-3.05124294747994 1.65655910341931 1.28245314510935
3.05124294747994 -1.65655910341931 1.28245314510935
-1.03852511466942 -2.90048713385924 2.05124294747994
2.92429696414543 2.03652766309671 1.00000000000000
-1.24392803043993 3.07505277776613 1.64184381903608
1.24392803043993 -3.07505277776613 1.64184381903608
-3.07505277776613 1.64184381903608 1.24392803043993
3.07505277776613 -1.64184381903608 1.24392803043993
-1.00000000000000 -2.92429696414543 2.03652766309671
-2.90048713385924 2.05124294747994 1.03852511466942
2.90048713385924 -2.05124294747994 1.03852511466942
-1.28245314510935 -3.05124294747994 1.65655910341931
-3.05124294747994 -1.65655910341931 1.28245314510935
0.243928030439930 3.69308676651602 0.0238098302861875
3.69308676651602 0.0238098302861875 0.243928030439930
-2.92429696414543 2.03652766309671 1.00000000000000
2.92429696414543 -2.03652766309671 1.00000000000000
-1.24392803043993 -3.07505277776613 1.64184381903608
-3.07505277776613 -1.64184381903608 1.24392803043993
0.243928030439930 3.69308676651602 -0.0238098302861875
3.69308676651602 -0.0238098302861875 0.243928030439930
-2.90048713385924 -2.05124294747994 1.03852511466942
-0.243928030439930 3.69308676651602 0.0238098302861875
3.69308676651602 0.0238098302861875 -0.243928030439930
2.92429696414543 2.03652766309671 -1.00000000000000
0.243928030439930 -3.69308676651602 0.0238098302861875
-3.69308676651602 0.0238098302861875 0.243928030439930
-2.92429696414543 -2.03652766309671 1.00000000000000
-0.243928030439930 3.69308676651602 -0.0238098302861875
3.69308676651602 -0.0238098302861875 -0.243928030439930
2.90048713385924 2.05124294747994 -1.03852511466942
0.243928030439930 -3.69308676651602 -0.0238098302861875
-3.69308676651602 -0.0238098302861875 0.243928030439930
3.07505277776613 1.64184381903608 -1.24392803043993
-0.243928030439930 -3.69308676651602 0.0238098302861875
-3.69308676651602 0.0238098302861875 -0.243928030439930
-2.92429696414543 2.03652766309671 -1.00000000000000
2.92429696414543 -2.03652766309671 -1.00000000000000
1.24392803043993 3.07505277776613 -1.64184381903608
3.05124294747994 1.65655910341931 -1.28245314510935
-0.243928030439930 -3.69308676651602 -0.0238098302861875
-3.69308676651602 -0.0238098302861875 -0.243928030439930
-2.90048713385924 2.05124294747994 -1.03852511466942
2.90048713385924 -2.05124294747994 -1.03852511466942
1.28245314510935 3.05124294747994 -1.65655910341931
-3.07505277776613 1.64184381903608 -1.24392803043993
3.07505277776613 -1.64184381903608 -1.24392803043993
1.00000000000000 2.92429696414543 -2.03652766309671
-2.92429696414543 -2.03652766309671 -1.00000000000000
-1.24392803043993 3.07505277776613 -1.64184381903608
1.24392803043993 -3.07505277776613 -1.64184381903608
-3.05124294747994 1.65655910341931 -1.28245314510935
3.05124294747994 -1.65655910341931 -1.28245314510935
1.03852511466942 2.90048713385924 -2.05124294747994
-2.90048713385924 -2.05124294747994 -1.03852511466942
-1.28245314510935 3.05124294747994 -1.65655910341931
1.28245314510935 -3.05124294747994 -1.65655910341931
-3.07505277776613 -1.64184381903608 -1.24392803043993
-1.00000000000000 2.92429696414543 -2.03652766309671
1.00000000000000 -2.92429696414543 -2.03652766309671
2.05124294747994 1.03852511466942 -2.90048713385924
-1.24392803043993 -3.07505277776613 -1.64184381903608
-3.05124294747994 -1.65655910341931 -1.28245314510935
-1.03852511466942 2.90048713385924 -2.05124294747994
1.03852511466942 -2.90048713385924 -2.05124294747994
2.03652766309671 1.00000000000000 -2.92429696414543
-1.28245314510935 -3.05124294747994 -1.65655910341931
1.65655910341931 1.28245314510935 -3.05124294747994
-1.00000000000000 -2.92429696414543 -2.03652766309671
-2.05124294747994 1.03852511466942 -2.90048713385924
2.05124294747994 -1.03852511466942 -2.90048713385924
1.64184381903608 1.24392803043993 -3.07505277776613
-1.03852511466942 -2.90048713385924 -2.05124294747994
-2.03652766309671 1.00000000000000 -2.92429696414543
2.03652766309671 -1.00000000000000 -2.92429696414543
-1.65655910341931 1.28245314510935 -3.05124294747994
1.65655910341931 -1.28245314510935 -3.05124294747994
-2.05124294747994 -1.03852511466942 -2.90048713385924
-1.64184381903608 1.24392803043993 -3.07505277776613
1.64184381903608 -1.24392803043993 -3.07505277776613
-2.03652766309671 -1.00000000000000 -2.92429696414543
-1.65655910341931 -1.28245314510935 -3.05124294747994
0.0238098302861875 0.243928030439930 -3.69308676651602
-1.64184381903608 -1.24392803043993 -3.07505277776613
-0.0238098302861875 0.243928030439930 -3.69308676651602
0.0238098302861875 -0.243928030439930 -3.69308676651602
-0.0238098302861875 -0.243928030439930 -3.69308676651602

5 75 83 46 101 76
5 21 44 72 18 67
5 28 119 6 111 112
5 90 17 75 24 6
5 14 96 17 75 80
5 94 63 35 93 36
5 20 62 48 40 66
5 9 78 62 48 102
5 4 91 50 61 108
5 97 3 117 13 15
5 35 111 0 113 96
5 42 38 52 41 43
5 80 2 106 3 14
5 44 21 95 5 46
5 99 77 45 100 52
5 119 28 94 55 10
5 41 117 13 116 104
5 70 61 29 71 37
5 31 32 84 11 58
5 79 25 63 35 12
5 55 49 39 53 32
5 102 27 65 57 9
5 111 35 93 54 29
5 57 73 19 83 50
5 48 58 91 50 83
5 52 81 66 74 99
5 71 87 15 110 60
5 107 65 57 90 39
5 108 18 77 45 4
5 51 103 42 97 98
5 74 13 116 2 34
5 17 90 56 60 110
5 11 100 44 72 115
5 8 86 25 63 91
5 106 47 81 66 40
5 30 50 61 29 54
5 53 113 8 119 95
5 78 9 87 15 13
5 98 59 70 78 51
5 13 74 36 51 78
5 65 107 14 118 85
5 88 89 33 109 64
5 96 14 118 12 35
5 22 84 11 88 68
5 118 19 83 46 5
5 112 15 110 30 28
5 10 114 21 95 119
5 32 31 85 10 55
5 93 39 53 69 16
5 49 55 92 26 82
5 36 67 80 38 94
5 67 36 51 47 21
5 81 52 41 82 26
5 104 24 102 43 41
5 116 23 103 42 19
5 39 93 54 86 107
5 24 104 1 107 86
5 38 42 97 16 69
5 7 105 9 87 92
5 76 82 67 80 75
5 100 11 88 34 2
5 47 106 3 117 84
5 5 109 31 85 118
5 25 79 68 49 103
5 117 41 82 67 18
5 113 53 69 79 27
5 2 80 38 52 100
5 23 116 2 106 105
5 72 33 109 31 59
5 86 8 119 6 24
5 69 64 28 94 38
5 58 48 40 59 31
5 19 118 12 104 116
5 103 51 47 81 25
5 29 115 20 112 111
5 87 71 58 91 63
5 26 54 86 25 81
5 15 112 4 98 97
5 34 95 5 99 74
5 92 0 113 8 7
5 83 75 24 102 48
5 46 60 27 65 44
5 105 7 115 20 23
5 16 66 74 36 93
5 82 76 23 103 49
5 89 88 34 108 61
5 91 4 98 7 8
5 45 85 10 89 62
5 3 97 16 76 101
5 54 26 64 28 30
5 37 43 96 17 70
5 56 12 104 1 33
5 73 57 90 56 77
5 115 29 71 58 11
5 63 94 55 92 87
5 59 98 7 115 72
5 84 22 114 21 47
5 64 69 79 68 88
5 101 1 107 14 3
5 12 56 60 27 79
5 33 72 18 77 56
5 27 102 43 96 113
5 43 37 73 19 42
5 109 5 99 22 0
5 66 16 76 23 20
5 77 99 22 114 73
5 50 30 105 9 57
5 114 10 89 33 1
5 18 108 32 84 117
5 0 92 26 64 109
5 40 110 30 105 106
5 60 46 101 37 71
5 62 20 112 4 45
5 1 101 37 73 114
5 6 68 49 39 90
5 68 6 111 0 22
5 61 70 78 62 89
5 110 40 59 70 17
5 95 34 108 32 53
5 85 45 100 44 65
