OFF
120 120 0

13.5220331853894 19.1203500911601 69.5745867781473
-13.5220331853894 19.1203500911601 69.5745867781473
13.5220331853894 -19.1203500911601 69.5745867781473
15.1400671741393 20.1203500911601 68.9565527893974
-13.5220331853894 -19.1203500911601 69.5745867781473
23.4971432797139 41.9994593821241 55.4345196040081
46.0774434984335 1.00000000000000 57.1395265562634
-15.1400671741393 20.1203500911601 68.9565527893974
15.1400671741393 -20.1203500911601 68.9565527893974
54.4345196040081 22.8791092909640 43.6174933708740
-23.4971432797139 41.9994593821241 55.4345196040081
23.4971432797139 -41.9994593821241 55.4345196040081
-46.0774434984335 1.00000000000000 57.1395265562634
46.0774434984335 -1.00000000000000 57.1395265562634
-15.1400671741393 -20.1203500911601 68.9565527893974
22.8791092909640 43.6174933708740 54.4345196040081
-54.4345196040081 22.8791092909640 43.6174933708740
54.4345196040081 -22.8791092909640 43.6174933708740
-23.4971432797139 -41.9994593821241 55.4345196040081
1.00000000000000 57.1395265562634 46.0774434984335
-46.0774434984335 -1.00000000000000 57.1395265562634
41.9994593821241 55.4345196040081 23.4971432797139
55.4345196040081 23.4971432797139 41.9994593821241
-22.8791092909640 43.6174933708740 54.4345196040081
22.8791092909640 -43.6174933708740 54.4345196040081
-54.4345196040081 -22.8791092909640 43.6174933708740
20.1203500911601 68.9565527893974 15.1400671741393
68.9565527893974 15.1400671741393 20.1203500911601
-1.00000000000000 57.1395265562634 46.0774434984335
1.00000000000000 -57.1395265562634 46.0774434984335
43.6174933708740 54.4345196040081 22.8791092909640
-41.9994593821241 55.4345196040081 23.4971432797139
41.9994593821241 -55.4345196040081 23.4971432797139
-55.4345196040081 23.4971432797139 41.9994593821241
55.4345196040081 -23.4971432797139 41.9994593821241
-22.8791092909640 -43.6174933708740 54.4345196040081
57.1395265562634 46.0774434984335 1.00000000000000
-20.1203500911601 68.9565527893974 15.1400671741393
20.1203500911601 -68.9565527893974 15.1400671741393
-68.9565527893974 15.1400671741393 20.1203500911601
68.9565527893974 -15.1400671741393 20.1203500911601
-1.00000000000000 -57.1395265562634 46.0774434984335
-43.6174933708740 54.4345196040081 22.8791092909640
43.6174933708740 -54.4345196040081 22.8791092909640
-41.9994593821241 -55.4345196040081 23.4971432797139
-55.4345196040081 -23.4971432797139 41.9994593821241
19.1203500911601 69.5745867781473 13.5220331853894
69.5745867781473 13.5220331853894 19.1203500911601
-57.1395265562634 46.0774434984335 1.00000000000000
57.1395265562634 -46.0774434984335 1.00000000000000
-20.1203500911601 -68.9565527893974 15.1400671741393
-68.9565527893974 -15.1400671741393 20.1203500911601
19.1203500911601 69.5745867781473 -13.5220331853894
69.5745867781473 -13.5220331853894 19.1203500911601
-43.6174933708740 -54.4345196040081 22.8791092909640
-19.1203500911601 69.5745867781473 13.5220331853894
69.5745867781473 13.5220331853894 -19.1203500911601
57.1395265562634 46.0774434984335 -1.00000000000000
19.1203500911601 -69.5745867781473 13.5220331853894
-69.5745867781473 13.5220331853894 19.1203500911601
-57.1395265562634 -46.0774434984335 1.00000000000000
-19.1203500911601 69.5745867781473 -13.5220331853894
69.5745867781473 -13.5220331853894 -19.1203500911601
43.6174933708740 54.4345196040081 -22.8791092909640
19.1203500911601 -69.5745867781473 -13.5220331853894
-69.5745867781473 -13.5220331853894 19.1203500911601
68.9565527893974 15.1400671741393 -20.1203500911601
-19.1203500911601 -69.5745867781473 13.5220331853894
-69.5745867781473 13.5220331853894 -19.1203500911601
-57.1395265562634 46.0774434984335 -1.00000000000000
57.1395265562634 -46.0774434984335 -1.00000000000000
20.1203500911601 68.9565527893974 -15.1400671741393
55.4345196040081 23.4971432797139 -41.9994593821241
-19.1203500911601 -69.5745867781473 -13.5220331853894
-69.5745867781473 -13.5220331853894 -19.1203500911601
-43.6174933708740 54.4345196040081 -22.8791092909640
43.6174933708740 -54.4345196040081 -22.8791092909640
41.9994593821241 55.4345196040081 -23.4971432797139
-68.9565527893974 15.1400671741393 -20.1203500911601
68.9565527893974 -15.1400671741393 -20.1203500911601
1.00000000000000 57.1395265562634 -46.0774434984335
-57.1395265562634 -46.0774434984335 -1.00000000000000
-20.1203500911601 68.9565527893974 -15.1400671741393
20.1203500911601 -68.9565527893974 -15.1400671741393
-55.4345196040081 23.4971432797139 -41.9994593821241
55.4345196040081 -23.4971432797139 -41.9994593821241
22.8791092909640 43.6174933708740 -54.4345196040081
-43.6174933708740 -54.4345196040081 -22.8791092909640
-41.9994593821241 55.4345196040081 -23.4971432797139
41.9994593821241 -55.4345196040081 -23.4971432797139
-68.9565527893974 -15.1400671741393 -20.1203500911601
-1.00000000000000 57.1395265562634 -46.0774434984335
1.00000000000000 -57.1395265562634 -46.0774434984335
54.4345196040081 22.8791092909640 -43.6174933708740
-20.1203500911601 -68.9565527893974 -15.1400671741393
-55.4345196040081 -23.4971432797139 -41.9994593821241
-22.8791092909640 43.6174933708740 -54.4345196040081
22.8791092909640 -43.6174933708740 -54.4345196040081
46.0774434984335 1.00000000000000 -57.1395265562634
-41.9994593821241 -55.4345196040081 -23.4971432797139
23.4971432797139 41.9994593821241 -55.4345196040081
-1.00000000000000 -57.1395265562634 -46.0774434984335
-54.4345196040081 22.8791092909640 -43.6174933708740
54.4345196040081 -22.8791092909640 -43.6174933708740
15.1400671741393 20.1203500911601 -68.9565527893974
-22.8791092909640 -43.6174933708740 -54.4345196040081
-46.0774434984335 1.00000000000000 -57.1395265562634
46.0774434984335 -1.00000000000000 -57.1395265562634
-23.4971432797139 41.9994593821241 -55.4345196040081
23.4971432797139 -41.9994593821241 -55.4345196040081
-54.4345196040081 -22.8791092909640 -43.6174933708740
-15.1400671741393 20.1203500911601 -68.9565527893974
15.1400671741393 -20.1203500911601 -68.9565527893974
-46.0774434984335 -1.00000000000000 -57.1395265562634
-23.4971432797139 -41.9994593821241 -55.4345196040081
13.5220331853894 19.1203500911601 -69.5745867781473
-15.1400671741393 -20.1203500911601 -68.9565527893974
-13.5220331853894 19.1203500911601 -69.5745867781473
13.5220331853894 -19.1203500911601 -69.5745867781473
-13.5220331853894 -19.1203500911601 -69.5745867781473

5 75 86 8 17 16
5 21 53 113 114 82
5 28 36 67 64 20
5 90 33 72 57 119
5 14 5 109 107 67
5 94 32 31 28 74
5 20 28 119 115 81
5 9 63 94 105 24
5 4 51 103 112 34
5 97 93 39 42 87
5 35 16 66 63 43
5 42 15 112 103 102
5 80 69 64 67 107
5 44 59 98 100 83
5 99 68 6 5 38
5 119 90 17 8 85
5 41 49 55 52 12
5 70 13 74 59 101
5 31 65 107 109 71
5 79 22 84 69 118
5 55 7 105 94 108
5 102 42 38 24 105
5 111 109 5 6 61
5 57 6 68 65 91
5 48 106 47 62 19
5 52 104 24 38 5
5 71 31 32 29 56
5 107 80 2 1 49
5 108 55 49 34 112
5 51 84 22 36 4
5 74 94 63 66 88
5 17 76 82 96 15
5 11 64 69 84 7
5 8 10 114 113 58
5 106 101 1 2 48
5 30 23 116 110 93
5 53 38 42 39 21
5 78 45 85 70 117
5 98 92 0 4 36
5 13 19 118 117 70
5 65 50 30 27 31
5 88 74 13 11 26
5 96 110 40 43 63
5 22 1 101 99 79
5 118 79 25 14 95
5 112 108 18 20 64
5 10 61 70 85 8
5 32 47 106 108 94
5 93 30 50 35 97
5 49 107 65 68 41
5 36 98 59 74 28
5 67 14 96 82 114
5 81 20 62 47 92
5 104 114 10 12 52
5 116 100 11 13 73
5 39 95 34 49 1
5 24 9 78 75 54
5 38 99 77 80 53
5 7 11 100 98 55
5 76 105 7 16 17
5 100 46 60 45 116
5 47 26 54 51 32
5 5 52 81 95 14
5 25 87 71 86 23
5 117 78 9 3 72
5 113 91 4 0 60
5 2 40 110 116 45
5 23 25 79 76 30
5 72 117 41 44 40
5 86 103 51 54 75
5 69 12 56 53 80
5 58 8 86 71 109
5 19 48 58 73 13
5 103 43 37 23 86
5 29 60 46 61 6
5 87 97 3 9 25
5 26 88 89 92 47
5 15 17 90 87 42
5 34 4 91 88 66
5 92 81 52 55 98
5 83 44 21 19 62
5 46 3 97 83 100
5 105 102 27 30 76
5 16 75 83 97 35
5 82 21 44 41 68
5 89 56 12 10 50
5 91 57 73 58 113
5 45 2 80 77 78
5 3 18 108 106 46
5 54 24 104 93 110
5 37 77 99 101 59
5 56 71 87 90 89
5 73 116 23 37 18
5 115 66 16 7 84
5 63 96 14 25 9
5 59 37 43 40 44
5 84 115 29 32 51
5 64 112 15 26 11
5 101 70 61 46 106
5 12 41 117 118 69
5 33 0 92 89 90
5 27 85 45 60 0
5 43 35 111 102 103
5 109 58 48 33 111
5 66 34 95 81 115
5 77 62 20 18 37
5 50 89 88 91 65
5 114 67 36 22 104
5 18 73 57 72 3
5 0 27 102 111 33
5 40 72 33 48 2
5 60 113 53 56 29
5 62 83 75 78 77
5 1 39 93 104 22
5 6 29 115 119 57
5 68 82 76 79 99
5 61 111 35 50 10
5 110 54 26 15 96
5 95 118 19 21 39
5 85 119 28 31 27
