OFF
120 120 0

8.66154529958774 4.48764831144779 33.1734554643960
-8.66154529958774 4.48764831144779 33.1734554643960
8.66154529958774 -4.48764831144779 33.1734554643960
10.2795792883376 5.48764831144779 32.5554214756461
-8.66154529958774 -4.48764831144779 33.1734554643960
15.6327086785797 19.5023230012776 23.8938761760583
17.5407467858162 1.00000000000000 29.7819022896153
-10.2795792883376 5.48764831144779 32.5554214756461
10.2795792883376 -5.48764831144779 32.5554214756461
22.8938761760583 15.0146746898299 21.1203569900275
-15.6327086785797 19.5023230012776 23.8938761760583
15.6327086785797 -19.5023230012776 23.8938761760583
-17.5407467858162 1.00000000000000 29.7819022896153
17.5407467858162 -1.00000000000000 29.7819022896153
-10.2795792883376 -5.48764831144779 32.5554214756461
15.0146746898299 21.1203569900275 22.8938761760583
-22.8938761760583 15.0146746898299 21.1203569900275
22.8938761760583 -15.0146746898299 21.1203569900275
-15.6327086785797 -19.5023230012776 23.8938761760583
1.00000000000000 29.7819022896153 17.5407467858162
-17.5407467858162 -1.00000000000000 29.7819022896153
19.5023230012776 23.8938761760583 15.6327086785797
23.8938761760583 15.6327086785797 19.5023230012776
-15.0146746898299 21.1203569900275 22.8938761760583
15.0146746898299 -21.1203569900275 22.8938761760583
-22.8938761760583 -15.0146746898299 21.1203569900275
5.48764831144779 32.5554214756461 10.2795792883376
32.5554214756461 10.2795792883376 5.48764831144779
-1.00000000000000 29.7819022896153 17.5407467858162
1.00000000000000 -29.7819022896153 17.5407467858162
21.1203569900275 22.8938761760583 15.0146746898299
-19.5023230012776 23.8938761760583 15.6327086785797
19.5023230012776 -23.8938761760583 15.6327086785797
-23.8938761760583 15.6327086785797 19.5023230012776
23.8938761760583 -15.6327086785797 19.5023230012776
-15.0146746898299 -21.1203569900275 22.8938761760583
29.7819022896153 17.5407467858162 1.00000000000000
-5.48764831144779 32.5554214756461 10.2795792883376
5.48764831144779 -32.5554214756461 10.2795792883376
-32.5554214756461 10.2795792883376 5.48764831144779
32.5554214756461 -10.2795792883376 5.48764831144779
-1.00000000000000 -29.7819022896153 17.5407467858162
-21.1203569900275 22.8938761760583 15.0146746898299
21.1203569900275 -22.8938761760583 15.0146746898299
-19.5023230012776 -23.8938761760583 15.6327086785797
-23.8938761760583 -15.6327086785797 19.5023230012776
4.48764831144779 33.1734554643960 8.66154529958774
33.1734554643960 8.66154529958774 4.48764831144779
-29.7819022896153 17.5407467858162 1.00000000000000
29.7819022896153 -17.5407467858162 1.00000000000000
-5.48764831144779 -32.5554214756461 10.2795792883376
-32.5554214756461 -10.2795792883376 5.48764831144779
4.48764831144779 33.1734554643960 -8.66154529958774
33.1734554643960 -8.66154529958774 4.48764831144779
-21.1203569900275 -22.8938761760583 15.0146746898299
-4.48764831144779 33.1734554643960 8.66154529958774
33.1734554643960 8.66154529958774 -4.48764831144779
29.7819022896153 17.5407467858162 -1.00000000000000
4.48764831144779 -33.1734554643960 8.66154529958774
-33.1734554643960 8.66154529958774 4.48764831144779
-29.7819022896153 -17.5407467858162 1.00000000000000
-4.48764831144779 33.1734554643960 -8.66154529958774
33.1734554643960 -8.66154529958774 -4.48764831144779
21.1203569900275 22.8938761760583 -15.0146746898299
4.48764831144779 -33.1734554643960 -8.66154529958774
-33.1734554643960 -8.66154529958774 4.48764831144779
32.5554214756461 10.2795792883376 -5.48764831144779
-4.48764831144779 -33.1734554643960 8.66154529958774
-33.1734554643960 8.66154529958774 -4.48764831144779
-29.7819022896153 17.5407467858162 -1.00000000000000
29.7819022896153 -17.5407467858162 -1.00000000000000
5.48764831144779 32.5554214756461 -10.2795792883376
23.8938761760583 15.6327086785797 -19.5023230012776
-4.48764831144779 -33.1734554643960 -8.66154529958774
-33.1734554643960 -8.66154529958774 -4.48764831144779
-21.1203569900275 22.8938761760583 -15.0146746898299
21.1203569900275 -22.8938761760583 -15.0146746898299
19.5023230012776 23.8938761760583 -15.6327086785797
-32.5554214756461 10.2795792883376 -5.48764831144779
32.5554214756461 -10.2795792883376 -5.48764831144779
1.00000000000000 29.7819022896153 -17.5407467858162
-29.7819022896153 -17.5407467858162 -1.00000000000000
-5.48764831144779 32.5554214756461 -10.2795792883376
5.48764831144779 -32.5554214756461 -10.2795792883376
-23.8938761760583 15.6327086785797 -19.5023230012776
23.8938761760583 -15.6327086785797 -19.5023230012776
15.0146746898299 21.1203569900275 -22.8938761760583
-21.1203569900275 -22.8938761760583 -15.0146746898299
-19.5023230012776 23.8938761760583 -15.6327086785797
19.5023230012776 -23.8938761760583 -15.6327086785797
-32.5554214756461 -10.2795792883376 -5.48764831144779
-1.00000000000000 29.7819022896153 -17.5407467858162
1.00000000000000 -29.7819022896153 -17.5407467858162
22.8938761760583 15.0146746898299 -21.1203569900275
-5.48764831144779 -32.5554214756461 -10.2795792883376
-23.8938761760583 -15.6327086785797 -19.5023230012776
-15.0146746898299 21.1203569900275 -22.8938761760583
15.0146746898299 -21.1203569900275 -22.8938761760583
17.5407467858162 1.00000000000000 -29.7819022896153
-19.5023230012776 -23.8938761760583 -15.6327086785797
15.6327086785797 19.5023230012776 -23.8938761760583
-1.00000000000000 -29.7819022896153 -17.5407467858162
-22.8938761760583 15.0146746898299 -21.1203569900275
22.8938761760583 -15.0146746898299 -21.1203569900275
10.2795792883376 5.48764831144779 -32.5554214756461
-15.0146746898299 -21.1203569900275 -22.8938761760583
-17.5407467858162 1.00000000000000 -29.7819022896153
17.5407467858162 -1.00000000000000 -29.7819022896153
-15.6327086785797 19.5023230012776 -23.8938761760583
15.6327086785797 -19.5023230012776 -23.8938761760583
-22.8938761760583 -15.0146746898299 -21.1203569900275
-10.2795792883376 5.48764831144779 -32.5554214756461
10.2795792883376 -5.48764831144779 -32.5554214756461
-17.5407467858162 -1.00000000000000 -29.7819022896153
-15.6327086785797 -19.5023230012776 -23.8938761760583
8.66154529958774 4.48764831144779 -33.1734554643960
-10.2795792883376 -5.48764831144779 -32.5554214756461
-8.66154529958774 4.48764831144779 -33.1734554643960
8.66154529958774 -4.48764831144779 -33.1734554643960
-8.66154529958774 -4.48764831144779 -33.1734554643960

5 75 78 51 86 58
5 21 19 42 53 60
5 28 31 59 36 114
5 90 87 92 33 40
5 14 25 81 5 111
5 94 105 106 32 71
5 20 18 67 28 85
5 9 3 14 63 74
5 4 0 22 51 86
5 97 83 50 93 1
5 35 50 83 16 115
5 42 39 90 15 64
5 80 77 56 69 11
5 44 41 43 59 36
5 99 101 76 68 57
5 119 115 72 90 15
5 41 44 65 49 108
5 70 85 118 13 88
5 31 28 30 65 49
5 79 76 101 22 51
5 55 52 100 7 76
5 102 111 112 42 53
5 111 102 48 109 14
5 57 72 115 6 99
5 48 33 1 106 32
5 52 55 10 104 54
5 71 86 107 31 94
5 107 109 64 80 45
5 108 106 105 55 41
5 51 54 29 84 79
5 74 59 31 94 9
5 17 8 7 76 68
5 11 13 15 64 80
5 8 17 70 10 104
5 106 108 61 101 22
5 30 27 79 23 73
5 53 56 77 38 102
5 78 75 80 45 27
5 98 100 52 92 33
5 13 11 58 19 95
5 65 68 88 50 93
5 88 91 63 74 70
5 96 82 26 110 2
5 22 36 93 1 106
5 118 117 84 79 23
5 112 103 49 108 3
5 10 12 35 61 101
5 32 29 54 47 48
5 93 104 116 30 65
5 49 34 2 107 31
5 36 22 0 98 44
5 67 64 109 14 63
5 81 95 119 20 77
5 104 93 36 114 8
5 116 110 60 100 7
5 39 42 19 95 66
5 24 38 94 9 117
5 38 24 6 99 37
5 7 16 69 11 116
5 76 79 27 105 55
5 100 98 97 46 29
5 47 62 89 26 110
5 5 6 24 52 92
5 25 14 3 87 56
5 117 118 85 78 24
5 113 114 73 91 34
5 2 1 33 40 96
5 23 37 71 25 118
5 72 57 9 117 12
5 86 71 37 103 4
5 69 84 117 12 89
5 58 73 114 8 75
5 19 21 47 48 109
5 103 112 111 43 59
5 29 32 53 60 100
5 87 90 39 97 46
5 26 15 13 88 50
5 15 26 82 17 119
5 34 49 103 4 113
5 92 89 62 81 5
5 83 97 98 44 82
5 46 61 108 3 87
5 105 94 38 102 0
5 16 7 8 75 62
5 82 96 113 21 83
5 89 92 87 56 69
5 91 88 68 57 18
5 45 60 110 2 107
5 3 9 57 18 112
5 54 51 78 24 52
5 37 23 20 77 38
5 56 53 32 71 25
5 73 58 11 116 30
5 115 119 95 66 35
5 63 66 40 96 67
5 59 74 99 37 103
5 84 69 16 115 6
5 64 67 18 112 42
5 101 99 74 70 10
5 12 10 55 41 72
5 33 48 102 0 98
5 27 30 28 85 78
5 43 40 66 35 61
5 109 107 86 58 19
5 66 63 91 34 39
5 77 80 75 62 81
5 50 35 12 89 26
5 114 113 96 67 28
5 18 20 23 73 91
5 0 4 45 27 105
5 40 43 41 72 90
5 60 45 4 113 21
5 62 47 21 83 16
5 1 2 34 39 97
5 6 5 46 29 84
5 68 65 44 82 17
5 61 46 5 111 43
5 110 116 104 54 47
5 95 81 25 118 13
5 85 70 17 119 20
