OFF
120 120 0

4.91565906049855 2.34432371883024 19.8986259326913
-4.91565906049855 2.34432371883024 19.8986259326913
4.91565906049855 -2.34432371883024 19.8986259326913
6.53369304924845 3.34432371883024 19.2805919439414
-4.91565906049855 -2.34432371883024 19.8986259326913
9.57173742574293 11.2980271558233 14.3649328834428
10.3268885069483 1.00000000000000 17.8317202050717
-6.53369304924845 3.34432371883024 19.2805919439414
6.53369304924845 -3.34432371883024 19.2805919439414
13.3649328834428 8.95370343699303 12.9160611445732
-9.57173742574293 11.2980271558233 14.3649328834428
9.57173742574293 -11.2980271558233 14.3649328834428
-10.3268885069483 1.00000000000000 17.8317202050717
10.3268885069483 -1.00000000000000 17.8317202050717
-6.53369304924845 -3.34432371883024 19.2805919439414
8.95370343699303 12.9160611445732 13.3649328834428
-13.3649328834428 8.95370343699303 12.9160611445732
13.3649328834428 -8.95370343699303 12.9160611445732
-9.57173742574293 -11.2980271558233 14.3649328834428
1.00000000000000 17.8317202050717 10.3268885069483
-10.3268885069483 -1.00000000000000 17.8317202050717
11.2980271558233 14.3649328834428 9.57173742574293
14.3649328834428 9.57173742574293 11.2980271558233
-8.95370343699303 12.9160611445732 13.3649328834428
8.95370343699303 -12.9160611445732 13.3649328834428
-13.3649328834428 -8.95370343699303 12.9160611445732
3.34432371883024 19.2805919439414 6.53369304924845
19.2805919439414 6.53369304924845 3.34432371883024
-1.00000000000000 17.8317202050717 10.3268885069483
1.00000000000000 -17.8317202050717 10.3268885069483
12.9160611445732 13.3649328834428 8.95370343699303
-11.2980271558233 14.3649328834428 9.57173742574293
11.2980271558233 -14.3649328834428 9.57173742574293
-14.3649328834428 9.57173742574293 11.2980271558233
14.3649328834428 -9.57173742574293 11.2980271558233
-8.95370343699303 -12.9160611445732 13.3649328834428
17.8317202050717 10.3268885069483 1.00000000000000
-3.34432371883024 19.2805919439414 6.53369304924845
3.34432371883024 -19.2805919439414 6.53369304924845
-19.2805919439414 6.53369304924845 3.34432371883024
19.2805919439414 -6.53369304924845 3.34432371883024
-1.00000000000000 -17.8317202050717 10.3268885069483
-12.9160611445732 13.3649328834428 8.95370343699303
12.9160611445732 -13.3649328834428 8.95370343699303
-11.2980271558233 -14.3649328834428 9.57173742574293
-14.3649328834428 -9.57173742574293 11.2980271558233
2.34432371883024 19.8986259326913 4.91565906049855
19.8986259326913 4.91565906049855 2.34432371883024
-17.8317202050717 10.3268885069483 1.00000000000000
17.8317202050717 -10.3268885069483 1.00000000000000
-3.34432371883024 -19.2805919439414 6.53369304924845
-19.2805919439414 -6.53369304924845 3.34432371883024
2.34432371883024 19.8986259326913 -4.91565906049855
19.8986259326913 -4.91565906049855 2.34432371883024
-12.9160611445732 -13.3649328834428 8.95370343699303
-2.34432371883024 19.8986259326913 4.91565906049855
19.8986259326913 4.91565906049855 -2.34432371883024
17.8317202050717 10.3268885069483 -1.00000000000000
2.34432371883024 -19.8986259326913 4.91565906049855
-19.8986259326913 4.91565906049855 2.34432371883024
-17.8317202050717 -10.3268885069483 1.00000000000000
-2.34432371883024 19.8986259326913 -4.91565906049855
19.8986259326913 -4.91565906049855 -2.34432371883024
12.9160611445732 13.3649328834428 -8.95370343699303
2.34432371883024 -19.8986259326913 -4.91565906049855
-19.8986259326913 -4.91565906049855 2.34432371883024
19.2805919439414 6.53369304924845 -3.34432371883024
-2.34432371883024 -19.8986259326913 4.91565906049855
-19.8986259326913 4.91565906049855 -2.34432371883024
-17.8317202050717 10.3268885069483 -1.00000000000000
17.8317202050717 -10.3268885069483 -1.00000000000000
3.34432371883024 19.2805919439414 -6.53369304924845
14.3649328834428 9.57173742574293 -11.2980271558233
-2.34432371883024 -19.8986259326913 -4.91565906049855
-19.8986259326913 -4.91565906049855 -2.34432371883024
-12.9160611445732 13.3649328834428 -8.95370343699303
12.9160611445732 -13.3649328834428 -8.95370343699303
11.2980271558233 14.3649328834428 -9.57173742574293
-19.2805919439414 6.53369304924845 -3.34432371883024
19.2805919439414 -6.53369304924845 -3.34432371883024
1.00000000000000 17.8317202050717 -10.3268885069483
-17.8317202050717 -10.3268885069483 -1.00000000000000
-3.34432371883024 19.2805919439414 -6.53369304924845
3.34432371883024 -19.2805919439414 -6.53369304924845
-14.3649328834428 9.57173742574293 -11.2980271558233
14.3649328834428 -9.57173742574293 -11.2980271558233
8.95370343699303 12.9160611445732 -13.3649328834428
-12.9160611445732 -13.3649328834428 -8.95370343699303
-11.2980271558233 14.3649328834428 -9.57173742574293
11.2980271558233 -14.3649328834428 -9.57173742574293
-19.2805919439414 -6.53369304924845 -3.34432371883024
-1.00000000000000 17.8317202050717 -10.3268885069483
1.00000000000000 -17.8317202050717 -10.3268885069483
13.3649328834428 8.95370343699303 -12.9160611445732
-3.34432371883024 -19.2805919439414 -6.53369304924845
-14.3649328834428 -9.57173742574293 -11.2980271558233
-8.95370343699303 12.9160611445732 -13.3649328834428
8.95370343699303 -12.9160611445732 -13.3649328834428
10.3268885069483 1.00000000000000 -17.8317202050717
-11.2980271558233 -14.3649328834428 -9.57173742574293
9.57173742574293 11.2980271558233 -14.3649328834428
-1.00000000000000 -17.8317202050717 -10.3268885069483
-13.3649328834428 8.95370343699303 -12.9160611445732
13.3649328834428 -8.95370343699303 -12.9160611445732
6.53369304924845 3.34432371883024 -19.2805919439414
-8.95370343699303 -12.9160611445732 -13.3649328834428
-10.3268885069483 1.00000000000000 -17.8317202050717
10.3268885069483 -1.00000000000000 -17.8317202050717
-9.57173742574293 11.2980271558233 -14.3649328834428
9.57173742574293 -11.2980271558233 -14.3649328834428
-13.3649328834428 -8.95370343699303 -12.9160611445732
-6.53369304924845 3.34432371883024 -19.2805919439414
6.53369304924845 -3.34432371883024 -19.2805919439414
-10.3268885069483 -1.00000000000000 -17.8317202050717
-9.57173742574293 -11.2980271558233 -14.3649328834428
4.91565906049855 2.34432371883024 -19.8986259326913
-6.53369304924845 -3.34432371883024 -19.2805919439414
-4.91565906049855 2.34432371883024 -19.8986259326913
4.91565906049855 -2.34432371883024 -19.8986259326913
-4.91565906049855 -2.34432371883024 -19.8986259326913

5 75 109 13 111 3
5 21 29 116 6 117
5 28 104 58 52 29
5 90 2 63 45 86
5 14 61 103 10 76
5 94 56 23 89 16
5 20 27 117 0 106
5 9 88 101 26 83
5 4 75 109 16 89
5 97 22 48 79 78
5 35 84 57 51 27
5 42 11 107 7 104
5 80 7 73 55 101
5 44 28 104 20 118
5 99 91 3 113 2
5 119 42 11 102 32
5 41 112 46 64 19
5 70 26 65 47 60
5 31 41 112 12 115
5 79 4 75 34 96
5 55 17 99 15 95
5 102 21 29 82 50
5 111 67 9 114 30
5 57 38 59 53 48
5 48 94 56 74 57
5 52 110 32 96 34
5 71 74 24 88 17
5 107 78 0 117 6
5 108 12 40 69 62
5 51 118 30 95 15
5 74 24 72 54 100
5 17 99 91 38 71
5 11 107 78 49 59
5 8 52 110 5 87
5 106 79 4 118 20
5 30 18 113 3 111
5 53 105 33 76 10
5 78 0 76 33 97
5 98 90 2 119 13
5 13 39 115 1 98
5 65 97 22 87 5
5 88 101 8 106 0
5 96 45 49 78 79
5 22 48 94 19 64
5 118 30 18 93 44
5 112 46 25 100 54
5 10 106 79 48 53
5 32 19 111 13 119
5 93 31 41 71 38
5 49 71 74 56 81
5 36 83 68 62 69
5 67 9 88 24 84
5 81 37 53 59 49
5 104 58 16 109 42
5 116 55 17 108 43
5 39 115 43 84 24
5 24 72 69 40 39
5 38 59 86 44 93
5 7 73 93 18 63
5 76 108 12 112 14
5 100 6 51 57 74
5 47 96 45 63 18
5 5 98 90 36 65
5 25 89 80 50 82
5 117 54 5 110 21
5 113 66 1 115 12
5 2 63 114 9 99
5 23 95 70 39 40
5 72 69 50 80 58
5 86 34 60 66 90
5 69 50 47 65 36
5 58 16 77 35 72
5 19 111 67 61 41
5 103 44 28 83 26
5 29 116 55 73 28
5 87 100 6 116 8
5 26 65 97 31 103
5 15 85 81 27 51
5 34 60 82 29 52
5 92 14 61 67 91
5 83 68 15 99 9
5 46 25 89 23 85
5 105 33 36 90 66
5 16 77 92 37 94
5 82 62 35 77 25
5 89 80 7 107 4
5 91 3 64 46 92
5 45 49 71 41 61
5 3 64 102 11 75
5 54 5 98 14 112
5 37 53 105 21 110
5 56 23 95 30 114
5 73 93 31 97 33
5 115 43 10 103 31
5 63 114 20 104 7
5 59 86 34 75 11
5 84 57 38 91 67
5 64 102 21 105 22
5 101 8 52 58 80
5 12 40 119 2 113
5 33 36 83 28 73
5 27 117 54 72 35
5 43 10 106 8 116
5 109 13 39 70 68
5 66 1 87 22 105
5 77 92 14 98 1
5 50 47 96 32 102
5 114 20 27 81 56
5 18 113 66 60 47
5 0 76 108 17 88
5 40 119 42 85 23
5 60 82 62 68 70
5 62 35 84 43 108
5 1 87 100 25 77
5 6 51 118 4 107
5 68 15 85 42 109
5 61 103 44 86 45
5 110 32 19 94 37
5 95 70 26 101 55
5 85 81 37 92 46
