OFF
120 120 0

0.0474198830698382 0.618033988749895 4.36021484311917
-0.0474198830698382 0.618033988749895 4.36021484311917
0.0474198830698382 -0.618033988749895 4.36021484311917
1.66545387181973 1.61803398874989 3.74218085436928
-0.0474198830698382 -0.618033988749895 4.36021484311917
1.69476097129944 1.69476097129944 3.69476097129944
2.66545387181973 1.00000000000000 3.36021484311917
-1.66545387181973 1.61803398874989 3.74218085436928
1.66545387181973 -1.61803398874989 3.74218085436928
2.69476097129944 1.07672698254954 3.31279496004933
-1.69476097129944 1.69476097129944 3.69476097129944
1.69476097129944 -1.69476097129944 3.69476097129944
-2.66545387181973 1.00000000000000 3.36021484311917
2.66545387181973 -1.00000000000000 3.36021484311917
-1.66545387181973 -1.61803398874989 3.74218085436928
1.07672698254954 3.31279496004933 2.69476097129944
-2.69476097129944 1.07672698254954 3.31279496004933
2.69476097129944 -1.07672698254954 3.31279496004933
-1.69476097129944 -1.69476097129944 3.69476097129944
1.00000000000000 3.36021484311917 2.66545387181973
-2.66545387181973 -1.00000000000000 3.36021484311917
1.69476097129944 3.69476097129944 1.69476097129944
3.69476097129944 1.69476097129944 1.69476097129944
-1.07672698254954 3.31279496004933 2.69476097129944
1.07672698254954 -3.31279496004933 2.69476097129944
-2.69476097129944 -1.07672698254954 3.31279496004933
1.61803398874989 3.74218085436928 1.66545387181973
3.74218085436928 1.66545387181973 1.61803398874989
-1.00000000000000 3.36021484311917 2.66545387181973
1.00000000000000 -3.36021484311917 2.66545387181973
3.31279496004933 2.69476097129944 1.07672698254954
-1.69476097129944 3.69476097129944 1.69476097129944
1.69476097129944 -3.69476097129944 1.69476097129944
-3.69476097129944 1.69476097129944 1.69476097129944
3.69476097129944 -1.69476097129944 1.69476097129944
-1.07672698254954 -3.31279496004933 2.69476097129944
3.36021484311917 2.66545387181973 1.00000000000000
-1.61803398874989 3.74218085436928 1.66545387181973
1.61803398874989 -3.74218085436928 1.66545387181973
-3.74218085436928 1.66545387181973 1.61803398874989
3.74218085436928 -1.66545387181973 1.61803398874989
-1.00000000000000 -3.36021484311917 2.66545387181973
-3.31279496004933 2.69476097129944 1.07672698254954
3.31279496004933 -2.69476097129944 1.07672698254954
-1.69476097129944 -3.69476097129944 1.69476097129944
-3.69476097129944 -1.69476097129944 1.69476097129944
0.618033988749895 4.36021484311917 0.0474198830698382
4.36021484311917 0.0474198830698382 0.618033988749895
-3.36021484311917 2.66545387181973 1.00000000000000
3.36021484311917 -2.66545387181973 1.00000000000000
-1.61803398874989 -3.74218085436928 1.66545387181973
-3.74218085436928 -1.66545387181973 1.61803398874989
0.618033988749895 4.36021484311917 -0.0474198830698382
4.36021484311917 -0.0474198830698382 0.618033988749895
-3.31279496004933 -2.69476097129944 1.07672698254954
-0.618033988749895 4.36021484311917 0.0474198830698382
4.36021484311917 0.0474198830698382 -0.618033988749895
3.36021484311917 2.66545387181973 -1.00000000000000
0.618033988749895 -4.36021484311917 0.0474198830698382
-4.36021484311917 0.0474198830698382 0.618033988749895
-3.36021484311917 -2.66545387181973 1.00000000000000
-0.618033988749895 4.36021484311917 -0.0474198830698382
4.36021484311917 -0.0474198830698382 -0.618033988749895
3.31279496004933 2.69476097129944 -1.07672698254954
0.618033988749895 -4.36021484311917 -0.0474198830698382
-4.36021484311917 -0.0474198830698382 0.618033988749895
3.74218085436928 1.66545387181973 -1.61803398874989
-0.618033988749895 -4.36021484311917 0.0474198830698382
-4.36021484311917 0.0474198830698382 -0.618033988749895
-3.36021484311917 2.66545387181973 -1.00000000000000
3.36021484311917 -2.66545387181973 -1.00000000000000
1.61803398874989 3.74218085436928 -1.66545387181973
3.69476097129944 1.69476097129944 -1.69476097129944
-0.618033988749895 -4.36021484311917 -0.0474198830698382
-4.36021484311917 -0.0474198830698382 -0.618033988749895
-3.31279496004933 2.69476097129944 -1.07672698254954
3.31279496004933 -2.69476097129944 -1.07672698254954
1.69476097129944 3.69476097129944 -1.69476097129944
-3.74218085436928 1.66545387181973 -1.61803398874989
3.74218085436928 -1.66545387181973 -1.61803398874989
1.00000000000000 3.36021484311917 -2.66545387181973
-3.36021484311917 -2.66545387181973 -1.00000000000000
-1.61803398874989 3.74218085436928 -1.66545387181973
1.61803398874989 -3.74218085436928 -1.66545387181973
-3.69476097129944 1.69476097129944 -1.69476097129944
3.69476097129944 -1.69476097129944 -1.69476097129944
1.07672698254954 3.31279496004933 -2.69476097129944
-3.31279496004933 -2.69476097129944 -1.07672698254954
-1.69476097129944 3.69476097129944 -1.69476097129944
1.69476097129944 -3.69476097129944 -1.69476097129944
-3.74218085436928 -1.66545387181973 -1.61803398874989
-1.00000000000000 3.36021484311917 -2.66545387181973
1.00000000000000 -3.36021484311917 -2.66545387181973
2.69476097129944 1.07672698254954 -3.31279496004933
-1.61803398874989 -3.74218085436928 -1.66545387181973
-3.69476097129944 -1.69476097129944 -1.69476097129944
-1.07672698254954 3.31279496004933 -2.69476097129944
1.07672698254954 -3.31279496004933 -2.69476097129944
2.66545387181973 1.00000000000000 -3.36021484311917
-1.69476097129944 -3.69476097129944 -1.69476097129944
1.69476097129944 1.69476097129944 -3.69476097129944
-1.00000000000000 -3.36021484311917 -2.66545387181973
-2.69476097129944 1.07672698254954 -3.31279496004933
2.69476097129944 -1.07672698254954 -3.31279496004933
1.66545387181973 1.61803398874989 -3.74218085436928
-1.07672698254954 -3.31279496004933 -2.69476097129944
-2.66545387181973 1.00000000000000 -3.36021484311917
2.66545387181973 -1.00000000000000 -3.36021484311917
-1.69476097129944 1.69476097129944 -3.69476097129944
1.69476097129944 -1.69476097129944 -3.69476097129944
-2.69476097129944 -1.07672698254954 -3.31279496004933
-1.66545387181973 1.61803398874989 -3.74218085436928
1.66545387181973 -1.61803398874989 -3.74218085436928
-2.66545387181973 -1.00000000000000 -3.36021484311917
-1.69476097129944 -1.69476097129944 -3.69476097129944
0.0474198830698382 0.618033988749895 -4.36021484311917
-1.66545387181973 -1.61803398874989 -3.74218085436928
-0.0474198830698382 0.618033988749895 -4.36021484311917
0.0474198830698382 -0.618033988749895 -4.36021484311917
-0.0474198830698382 -0.618033988749895 -4.36021484311917

5 75 78 73 19 17
5 21 19 45 100 114
5 28 31 113 8 64
5 90 87 43 96 57
5 14 25 102 43 107
5 94 105 86 25 28
5 20 18 70 78 115
5 9 3 59 70 105
5 4 0 71 58 112
5 97 83 2 106 42
5 35 50 119 6 63
5 42 39 67 80 103
5 80 77 13 116 67
5 44 41 22 114 100
5 99 101 72 18 5
5 119 115 26 64 8
5 41 44 106 3 52
5 70 85 91 50 59
5 31 28 34 108 109
5 79 76 54 86 69
5 55 52 79 68 94
5 102 111 56 60 24
5 111 102 25 63 6
5 57 72 101 37 65
5 48 33 29 71 62
5 52 55 51 47 38
5 71 86 105 9 29
5 107 109 60 27 1
5 108 106 44 72 34
5 51 54 76 23 36
5 74 59 3 117 66
5 17 8 65 57 96
5 11 13 77 45 84
5 8 17 93 54 113
5 106 108 36 51 2
5 30 27 58 91 110
5 53 56 111 0 39
5 78 75 30 105 70
5 98 100 48 40 4
5 13 11 81 66 117
5 65 68 104 1 27
5 88 91 85 10 11
5 96 82 1 107 43
5 22 36 108 32 99
5 118 117 37 73 14
5 112 103 9 87 20
5 10 12 99 22 85
5 32 29 33 109 108
5 93 104 68 49 35
5 49 34 28 94 68
5 36 22 41 82 74
5 67 64 66 74 82
5 81 95 80 38 47
5 104 93 17 75 12
5 116 110 16 76 13
5 39 42 63 35 49
5 24 38 118 12 75
5 38 24 23 103 80
5 7 16 110 30 98
5 76 79 52 41 16
5 100 98 32 84 45
5 47 62 116 2 51
5 5 6 89 33 95
5 25 14 53 69 86
5 117 118 38 52 3
5 113 114 49 39 0
5 2 1 82 67 116
5 23 37 117 13 76
5 72 57 10 89 44
5 86 71 0 113 54
5 69 84 92 26 53
5 58 73 78 62 71
5 19 21 107 14 73
5 103 112 74 36 23
5 29 32 98 7 61
5 87 90 61 29 9
5 26 15 35 93 92
5 15 26 115 20 87
5 34 49 114 21 88
5 92 89 6 111 55
5 83 97 96 17 19
5 46 61 90 56 83
5 105 94 4 98 30
5 16 7 47 81 97
5 82 96 97 16 41
5 89 92 84 11 10
5 91 88 20 112 58
5 45 60 109 31 77
5 3 9 103 42 106
5 54 51 55 92 93
5 37 23 24 102 101
5 56 53 14 118 90
5 73 58 27 65 37
5 115 119 50 61 7
5 63 66 64 28 25
5 59 74 112 4 40
5 84 69 5 99 32
5 64 67 39 53 26
5 101 99 12 104 46
5 12 10 57 90 118
5 33 48 100 44 89
5 27 30 75 24 60
5 43 40 46 101 102
5 109 107 21 95 33
5 66 63 42 97 81
5 77 80 95 5 18
5 50 35 15 110 91
5 114 113 31 85 22
5 18 20 88 34 72
5 0 4 94 55 111
5 40 43 87 15 48
5 60 45 19 83 56
5 62 47 7 115 78
5 1 2 83 46 104
5 6 5 69 79 119
5 68 65 8 119 79
5 61 46 40 59 50
5 110 116 62 48 15
5 95 81 11 88 21
5 85 70 18 77 31
