OFF
120 120 0

6.55352072890884 11.7085666611298 39.3382668090120
-6.55352072890884 11.7085666611298 39.3382668090120
6.55352072890884 -11.7085666611298 39.3382668090120
8.17155471765873 12.7085666611298 38.7202328202621
-6.55352072890884 -11.7085666611298 39.3382668090120
12.2218532741014 23.3123859464813 32.1667120913533
27.1164135349106 1.00000000000000 31.4839406641400
-8.17155471765873 12.7085666611298 38.7202328202621
8.17155471765873 -12.7085666611298 38.7202328202621
31.1667120913533 11.6038192853515 24.9304199352312
-12.2218532741014 23.3123859464813 32.1667120913533
12.2218532741014 -23.3123859464813 32.1667120913533
-27.1164135349106 1.00000000000000 31.4839406641400
27.1164135349106 -1.00000000000000 31.4839406641400
-8.17155471765873 -12.7085666611298 38.7202328202621
11.6038192853515 24.9304199352312 31.1667120913533
-31.1667120913533 11.6038192853515 24.9304199352312
31.1667120913533 -11.6038192853515 24.9304199352312
-12.2218532741014 -23.3123859464813 32.1667120913533
1.00000000000000 31.4839406641400 27.1164135349106
-27.1164135349106 -1.00000000000000 31.4839406641400
23.3123859464813 32.1667120913533 12.2218532741014
32.1667120913533 12.2218532741014 23.3123859464813
-11.6038192853515 24.9304199352312 31.1667120913533
11.6038192853515 -24.9304199352312 31.1667120913533
-31.1667120913533 -11.6038192853515 24.9304199352312
12.7085666611298 38.7202328202621 8.17155471765873
38.7202328202621 8.17155471765873 12.7085666611298
-1.00000000000000 31.4839406641400 27.1164135349106
1.00000000000000 -31.4839406641400 27.1164135349106
24.9304199352312 31.1667120913533 11.6038192853515
-23.3123859464813 32.1667120913533 12.2218532741014
23.3123859464813 -32.1667120913533 12.2218532741014
-32.1667120913533 12.2218532741014 23.3123859464813
32.1667120913533 -12.2218532741014 23.3123859464813
-11.6038192853515 -24.9304199352312 31.1667120913533
31.4839406641400 27.1164135349106 1.00000000000000
-12.7085666611298 38.7202328202621 8.17155471765873
12.7085666611298 -38.7202328202621 8.17155471765873
-38.7202328202621 8.17155471765873 12.7085666611298
38.7202328202621 -8.17155471765873 12.7085666611298
-1.00000000000000 -31.4839406641400 27.1164135349106
-24.9304199352312 31.1667120913533 11.6038192853515
24.9304199352312 -31.1667120913533 11.6038192853515
-23.3123859464813 -32.1667120913533 12.2218532741014
-32.1667120913533 -12.2218532741014 23.3123859464813
11.7085666611298 39.3382668090120 6.55352072890884
39.3382668090120 6.55352072890884 11.7085666611298
-31.4839406641400 27.1164135349106 1.00000000000000
31.4839406641400 -27.1164135349106 1.00000000000000
-12.7085666611298 -38.7202328202621 8.17155471765873
-38.7202328202621 -8.17155471765873 12.7085666611298
11.7085666611298 39.3382668090120 -6.55352072890884
39.3382668090120 -6.55352072890884 11.7085666611298
-24.9304199352312 -31.1667120913533 11.6038192853515
-11.7085666611298 39.3382668090120 6.55352072890884
39.3382668090120 6.55352072890884 -11.7085666611298
31.4839406641400 27.1164135349106 -1.00000000000000
11.7085666611298 -39.3382668090120 6.55352072890884
-39.3382668090120 6.55352072890884 11.7085666611298
-31.4839406641400 -27.1164135349106 1.00000000000000
-11.7085666611298 39.3382668090120 -6.55352072890884
39.3382668090120 -6.55352072890884 -11.7085666611298
24.9304199352312 31.1667120913533 -11.6038192853515
11.7085666611298 -39.3382668090120 -6.55352072890884
-39.3382668090120 -6.55352072890884 11.7085666611298
38.7202328202621 8.17155471765873 -12.7085666611298
-11.7085666611298 -39.3382668090120 6.55352072890884
-39.3382668090120 6.55352072890884 -11.7085666611298
-31.4839406641400 27.1164135349106 -1.00000000000000
31.4839406641400 -27.1164135349106 -1.00000000000000
12.7085666611298 38.7202328202621 -8.17155471765873
32.1667120913533 12.2218532741014 -23.3123859464813
-11.7085666611298 -39.3382668090120 -6.55352072890884
-39.3382668090120 -6.55352072890884 -11.7085666611298
-24.9304199352312 31.1667120913533 -11.6038192853515
24.9304199352312 -31.1667120913533 -11.6038192853515
23.3123859464813 32.1667120913533 -12.2218532741014
-38.7202328202621 8.17155471765873 -12.7085666611298
38.7202328202621 -8.17155471765873 -12.7085666611298
1.00000000000000 31.4839406641400 -27.1164135349106
-31.4839406641400 -27.1164135349106 -1.00000000000000
-12.7085666611298 38.7202328202621 -8.17155471765873
12.7085666611298 -38.7202328202621 -8.17155471765873
-32.1667120913533 12.2218532741014 -23.3123859464813
32.1667120913533 -12.2218532741014 -23.3123859464813
11.6038192853515 24.9304199352312 -31.1667120913533
-24.9304199352312 -31.1667120913533 -11.6038192853515
-23.3123859464813 32.1667120913533 -12.2218532741014
23.3123859464813 -32.1667120913533 -12.2218532741014
-38.7202328202621 -8.17155471765873 -12.7085666611298
-1.00000000000000 31.4839406641400 -27.1164135349106
1.00000000000000 -31.4839406641400 -27.1164135349106
31.1667120913533 11.6038192853515 -24.9304199352312
-12.7085666611298 -38.7202328202621 -8.17155471765873
-32.1667120913533 -12.2218532741014 -23.3123859464813
-11.6038192853515 24.9304199352312 -31.1667120913533
11.6038192853515 -24.9304199352312 -31.1667120913533
27.1164135349106 1.00000000000000 -31.4839406641400
-23.3123859464813 -32.1667120913533 -12.2218532741014
12.2218532741014 23.3123859464813 -32.1667120913533
-1.00000000000000 -31.4839406641400 -27.1164135349106
-31.1667120913533 11.6038192853515 -24.9304199352312
31.1667120913533 -11.6038192853515 -24.9304199352312
8.17155471765873 12.7085666611298 -38.7202328202621
-11.6038192853515 -24.9304199352312 -31.1667120913533
-27.1164135349106 1.00000000000000 -31.4839406641400
27.1164135349106 -1.00000000000000 -31.4839406641400
-12.2218532741014 23.3123859464813 -32.1667120913533
12.2218532741014 -23.3123859464813 -32.1667120913533
-31.1667120913533 -11.6038192853515 -24.9304199352312
-8.17155471765873 12.7085666611298 -38.7202328202621
8.17155471765873 -12.7085666611298 -38.7202328202621
-27.1164135349106 -1.00000000000000 -31.4839406641400
-12.2218532741014 -23.3123859464813 -32.1667120913533
6.55352072890884 11.7085666611298 -39.3382668090120
-8.17155471765873 -12.7085666611298 -38.7202328202621
-6.55352072890884 11.7085666611298 -39.3382668090120
6.55352072890884 -11.7085666611298 -39.3382668090120
-6.55352072890884 -11.7085666611298 -39.3382668090120

5 75 90 73 57 49
5 21 10 45 85 94
5 28 69 113 53 97
5 90 73 43 37 22
5 14 65 102 27 100
5 94 119 86 8 21
5 20 29 70 61 93
5 9 7 59 98 113
5 4 15 71 87 117
5 97 38 2 80 28
5 35 94 119 28 80
5 42 51 67 36 70
5 80 36 13 74 35
5 44 11 22 84 71
5 99 109 72 33 26
5 119 86 26 54 1
5 41 81 106 47 86
5 70 98 91 4 42
5 31 5 34 95 83
5 79 64 54 26 33
5 55 63 79 25 58
5 102 104 56 12 13
5 111 68 25 79 11
5 57 107 101 1 54
5 48 20 29 115 76
5 52 42 51 103 73
5 71 115 105 7 44
5 107 101 60 46 16
5 108 95 44 21 8
5 51 67 76 82 72
5 74 16 3 97 53
5 17 14 65 107 106
5 11 22 77 99 111
5 8 53 93 39 108
5 106 80 36 67 17
5 30 40 58 48 81
5 53 93 111 35 74
5 78 61 30 50 34
5 98 91 48 58 25
5 13 41 81 52 102
5 65 102 104 24 62
5 88 100 85 45 38
5 96 37 1 101 29
5 22 77 108 18 90
5 118 96 37 43 0
5 112 62 9 78 10
5 10 45 99 77 112
5 32 18 33 72 82
5 93 111 68 6 20
5 49 6 28 119 75
5 36 13 41 117 87
5 67 76 66 16 46
5 81 106 80 2 30
5 104 56 17 90 18
5 116 74 16 66 5
5 39 55 63 94 85
5 24 83 118 19 91
5 38 2 23 116 88
5 7 59 110 40 109
5 76 66 52 81 48
5 100 85 32 31 14
5 47 103 116 23 68
5 5 34 89 88 116
5 25 8 53 113 98
5 117 97 38 42 4
5 113 92 49 55 9
5 2 23 82 76 115
5 23 82 117 41 92
5 72 21 10 114 51
5 86 26 0 92 41
5 69 113 92 0 43
5 58 87 78 9 55
5 19 57 107 65 105
5 103 116 74 13 12
5 29 70 98 59 96
5 87 78 61 70 36
5 26 0 35 111 99
5 15 71 115 29 101
5 34 89 114 10 78
5 92 49 6 68 23
5 83 118 96 14 31
5 46 75 90 17 67
5 105 50 4 91 19
5 16 3 47 106 107
5 82 117 97 3 32
5 89 114 84 22 37
5 91 48 20 62 24
5 45 99 109 5 66
5 3 47 103 51 114
5 54 39 55 49 57
5 37 1 24 104 89
5 56 17 14 96 59
5 73 43 27 102 52
5 115 105 50 30 2
5 63 79 64 69 60
5 59 110 112 15 56
5 84 31 5 109 40
5 64 54 39 93 61
5 101 60 12 56 15
5 12 19 57 73 103
5 33 88 100 11 79
5 27 46 75 83 95
5 43 27 46 60 69
5 109 72 21 44 7
5 66 52 42 38 45
5 77 108 95 34 50
5 50 4 15 112 77
5 114 84 31 32 3
5 18 33 88 89 104
5 0 35 94 63 118
5 40 58 87 71 84
5 60 12 19 118 63
5 62 9 7 105 65
5 1 24 83 75 119
5 6 28 69 64 110
5 68 25 8 86 47
5 61 30 40 110 64
5 110 112 62 20 6
5 95 44 11 100 27
5 85 32 18 108 39
