OFF
120 120 0

6.07511168094542 3.38896106555404 24.6243710342829
-6.07511168094542 3.38896106555404 24.6243710342829
6.07511168094542 -3.38896106555404 24.6243710342829
7.69314566969531 4.38896106555404 24.0063370455330
-6.07511168094542 -3.38896106555404 24.6243710342829
11.4477711739711 14.2186982507752 17.9312253645876
13.1765998603118 1.00000000000000 21.9118439204705
-7.69314566969531 4.38896106555404 24.0063370455330
7.69314566969531 -4.38896106555404 24.0063370455330
16.9312253645876 10.8297371852212 15.8367322395251
-11.4477711739711 14.2186982507752 17.9312253645876
11.4477711739711 -14.2186982507752 17.9312253645876
-13.1765998603118 1.00000000000000 21.9118439204705
13.1765998603118 -1.00000000000000 21.9118439204705
-7.69314566969531 -4.38896106555404 24.0063370455330
10.8297371852212 15.8367322395251 16.9312253645876
-16.9312253645876 10.8297371852212 15.8367322395251
16.9312253645876 -10.8297371852212 15.8367322395251
-11.4477711739711 -14.2186982507752 17.9312253645876
1.00000000000000 21.9118439204705 13.1765998603118
-13.1765998603118 -1.00000000000000 21.9118439204705
14.2186982507752 17.9312253645876 11.4477711739711
17.9312253645876 11.4477711739711 14.2186982507752
-10.8297371852212 15.8367322395251 16.9312253645876
10.8297371852212 -15.8367322395251 16.9312253645876
-16.9312253645876 -10.8297371852212 15.8367322395251
4.38896106555404 24.0063370455330 7.69314566969531
24.0063370455330 7.69314566969531 4.38896106555404
-1.00000000000000 21.9118439204705 13.1765998603118
1.00000000000000 -21.9118439204705 13.1765998603118
15.8367322395251 16.9312253645876 10.8297371852212
-14.2186982507752 17.9312253645876 11.4477711739711
14.2186982507752 -17.9312253645876 11.4477711739711
-17.9312253645876 11.4477711739711 14.2186982507752
17.9312253645876 -11.4477711739711 14.2186982507752
-10.8297371852212 -15.8367322395251 16.9312253645876
21.9118439204705 13.1765998603118 1.00000000000000
-4.38896106555404 24.0063370455330 7.69314566969531
4.38896106555404 -24.0063370455330 7.69314566969531
-24.0063370455330 7.69314566969531 4.38896106555404
24.0063370455330 -7.69314566969531 4.38896106555404
-1.00000000000000 -21.9118439204705 13.1765998603118
-15.8367322395251 16.9312253645876 10.8297371852212
15.8367322395251 -16.9312253645876 10.8297371852212
-14.2186982507752 -17.9312253645876 11.4477711739711
-17.9312253645876 -11.4477711739711 14.2186982507752
3.38896106555404 24.6243710342829 6.07511168094542
24.6243710342829 6.07511168094542 3.38896106555404
-21.9118439204705 13.1765998603118 1.00000000000000
21.9118439204705 -13.1765998603118 1.00000000000000
-4.38896106555404 -24.0063370455330 7.69314566969531
-24.0063370455330 -7.69314566969531 4.38896106555404
3.38896106555404 24.6243710342829 -6.07511168094542
24.6243710342829 -6.07511168094542 3.38896106555404
-15.8367322395251 -16.9312253645876 10.8297371852212
-3.38896106555404 24.6243710342829 6.07511168094542
24.6243710342829 6.07511168094542 -3.38896106555404
21.9118439204705 13.1765998603118 -1.00000000000000
3.38896106555404 -24.6243710342829 6.07511168094542
-24.6243710342829 6.07511168094542 3.38896106555404
-21.9118439204705 -13.1765998603118 1.00000000000000
-3.38896106555404 24.6243710342829 -6.07511168094542
24.6243710342829 -6.07511168094542 -3.38896106555404
15.8367322395251 16.9312253645876 -10.8297371852212
3.38896106555404 -24.6243710342829 -6.07511168094542
-24.6243710342829 -6.07511168094542 3.38896106555404
24.0063370455330 7.69314566969531 -4.38896106555404
-3.38896106555404 -24.6243710342829 6.07511168094542
-24.6243710342829 6.07511168094542 -3.38896106555404
-21.9118439204705 13.1765998603118 -1.00000000000000
21.9118439204705 -13.1765998603118 -1.00000000000000
4.38896106555404 24.0063370455330 -7.69314566969531
17.9312253645876 11.4477711739711 -14.2186982507752
-3.38896106555404 -24.6243710342829 -6.07511168094542
-24.6243710342829 -6.07511168094542 -3.38896106555404
-15.8367322395251 16.9312253645876 -10.8297371852212
15.8367322395251 -16.9312253645876 -10.8297371852212
14.2186982507752 17.9312253645876 -11.4477711739711
-24.0063370455330 7.69314566969531 -4.38896106555404
24.0063370455330 -7.69314566969531 -4.38896106555404
1.00000000000000 21.9118439204705 -13.1765998603118
-21.9118439204705 -13.1765998603118 -1.00000000000000
-4.38896106555404 24.0063370455330 -7.69314566969531
4.38896106555404 -24.0063370455330 -7.69314566969531
-17.9312253645876 11.4477711739711 -14.2186982507752
17.9312253645876 -11.4477711739711 -14.2186982507752
10.8297371852212 15.8367322395251 -16.9312253645876
-15.8367322395251 -16.9312253645876 -10.8297371852212
-14.2186982507752 17.9312253645876 -11.4477711739711
14.2186982507752 -17.9312253645876 -11.4477711739711
-24.0063370455330 -7.69314566969531 -4.38896106555404
-1.00000000000000 21.9118439204705 -13.1765998603118
1.00000000000000 -21.9118439204705 -13.1765998603118
16.9312253645876 10.8297371852212 -15.8367322395251
-4.38896106555404 -24.0063370455330 -7.69314566969531
-17.9312253645876 -11.4477711739711 -14.2186982507752
-10.8297371852212 15.8367322395251 -16.9312253645876
10.8297371852212 -15.8367322395251 -16.9312253645876
13.1765998603118 1.00000000000000 -21.9118439204705
-14.2186982507752 -17.9312253645876 -11.4477711739711
11.4477711739711 14.2186982507752 -17.9312253645876
-1.00000000000000 -21.9118439204705 -13.1765998603118
-16.9312253645876 10.8297371852212 -15.8367322395251
16.9312253645876 -10.8297371852212 -15.8367322395251
7.69314566969531 4.38896106555404 -24.0063370455330
-10.8297371852212 -15.8367322395251 -16.9312253645876
-13.1765998603118 1.00000000000000 -21.9118439204705
13.1765998603118 -1.00000000000000 -21.9118439204705
-11.4477711739711 14.2186982507752 -17.9312253645876
11.4477711739711 -14.2186982507752 -17.9312253645876
-16.9312253645876 -10.8297371852212 -15.8367322395251
-7.69314566969531 4.38896106555404 -24.0063370455330
7.69314566969531 -4.38896106555404 -24.0063370455330
-13.1765998603118 -1.00000000000000 -21.9118439204705
-11.4477711739711 -14.2186982507752 -17.9312253645876
6.07511168094542 3.38896106555404 -24.6243710342829
-7.69314566969531 -4.38896106555404 -24.0063370455330
-6.07511168094542 3.38896106555404 -24.6243710342829
6.07511168094542 -3.38896106555404 -24.6243710342829
-6.07511168094542 -3.38896106555404 -24.6243710342829

5 75 3 72 33 47
5 21 117 70 61 97
5 28 29 56 12 70
5 90 86 23 116 26
5 14 76 30 50 66
5 94 16 17 90 3
5 20 106 46 60 80
5 9 83 100 11 118
5 4 89 90 17 114
5 97 78 77 99 61
5 35 27 31 32 46
5 42 104 22 84 56
5 80 101 59 98 60
5 44 118 69 64 96
5 99 2 48 58 23
5 119 32 51 103 18
5 41 19 62 20 57
5 70 60 0 92 12
5 31 115 81 52 105
5 79 96 15 112 37
5 55 95 14 96 44
5 102 50 10 114 4
5 111 30 76 82 40
5 57 48 2 80 20
5 48 57 119 28 107
5 52 34 112 15 89
5 71 17 16 66 14
5 107 6 61 70 28
5 108 62 19 118 9
5 51 15 96 14 71
5 74 100 83 75 85
5 17 71 109 5 115
5 11 59 101 1 110
5 8 87 42 38 78
5 106 20 64 69 29
5 30 111 33 72 68
5 53 10 50 30 45
5 78 97 35 111 38
5 98 13 73 57 41
5 13 98 55 49 91
5 65 5 38 42 34
5 88 0 60 46 35
5 96 79 99 77 64
5 22 64 20 62 54
5 118 44 40 110 11
5 112 54 75 83 39
5 10 53 80 2 93
5 32 119 57 73 86
5 93 38 5 109 2
5 49 81 115 29 106
5 36 69 118 19 113
5 67 84 7 105 31
5 81 49 1 101 6
5 104 42 87 71 51
5 116 43 63 94 27
5 39 24 105 7 83
5 24 39 21 44 55
5 38 93 110 40 111
5 7 63 43 37 79
5 76 14 95 34 65
5 100 74 28 119 16
5 47 18 37 43 33
5 5 65 91 4 102
5 25 82 114 10 117
5 117 21 39 93 10
5 113 12 52 81 19
5 2 99 79 25 109
5 23 40 44 21 58
5 72 58 113 53 87
5 86 90 89 88 73
5 69 36 4 91 13
5 58 72 3 97 21
5 19 41 68 6 81
5 103 26 11 100 0
5 29 28 74 13 69
5 87 8 85 45 53
5 26 103 102 27 116
5 15 51 32 31 67
5 34 52 12 56 42
5 92 91 65 107 48
5 83 9 25 79 7
5 46 85 8 86 32
5 105 66 88 89 52
5 16 94 108 18 119
5 82 25 9 78 8
5 89 4 36 67 15
5 91 92 47 106 49
5 45 61 6 68 30
5 3 75 54 26 90
5 54 112 34 95 62
5 37 110 93 39 112
5 56 114 82 76 84
5 73 33 111 35 88
5 115 31 27 102 5
5 63 7 84 22 59
5 59 11 26 54 22
5 84 67 107 65 76
5 64 22 104 24 77
5 101 80 53 113 36
5 12 113 58 48 92
5 33 73 13 74 43
5 27 35 97 3 94
5 43 116 45 85 74
5 109 68 41 117 25
5 66 105 24 104 50
5 77 1 49 55 24
5 50 102 103 51 104
5 114 56 29 115 17
5 18 47 92 0 103
5 0 88 66 16 100
5 40 23 86 8 82
5 60 70 117 41 98
5 62 108 94 63 95
5 1 77 78 9 108
5 6 107 67 36 101
5 68 109 71 87 72
5 61 45 116 23 99
5 110 37 18 108 1
5 95 55 98 59 63
5 85 46 106 47 75
