OFF
120 120 0

8.68160388607783 4.49171158841194 33.2325440458270
-8.68160388607783 4.49171158841194 33.2325440458270
8.68160388607783 -4.49171158841194 33.2325440458270
10.2996378748277 5.49171158841194 32.6145100570771
-8.68160388607783 -4.49171158841194 33.2325440458270
15.6651641532870 19.5388417529490 23.9329061709993
17.5673798925400 1.00000000000000 29.8384796277768
-10.2996378748277 5.49171158841194 32.6145100570771
10.2996378748277 -5.49171158841194 32.6145100570771
22.9329061709993 15.0471301645371 21.1568757416989
-15.6651641532870 19.5388417529490 23.9329061709993
15.6651641532870 -19.5388417529490 23.9329061709993
-17.5673798925400 1.00000000000000 29.8384796277768
17.5673798925400 -1.00000000000000 29.8384796277768
-10.2996378748277 -5.49171158841194 32.6145100570771
15.0471301645371 21.1568757416989 22.9329061709993
-22.9329061709993 15.0471301645371 21.1568757416989
22.9329061709993 -15.0471301645371 21.1568757416989
-15.6651641532870 -19.5388417529490 23.9329061709993
1.00000000000000 29.8384796277768 17.5673798925400
-17.5673798925400 -1.00000000000000 29.8384796277768
19.5388417529490 23.9329061709993 15.6651641532870
23.9329061709993 15.6651641532870 19.5388417529490
-15.0471301645371 21.1568757416989 22.9329061709993
15.0471301645371 -21.1568757416989 22.9329061709993
-22.9329061709993 -15.0471301645371 21.1568757416989
5.49171158841194 32.6145100570771 10.2996378748277
32.6145100570771 10.2996378748277 5.49171158841194
-1.00000000000000 29.8384796277768 17.5673798925400
1.00000000000000 -29.8384796277768 17.5673798925400
21.1568757416989 22.9329061709993 15.0471301645371
-19.5388417529490 23.9329061709993 15.6651641532870
19.5388417529490 -23.9329061709993 15.6651641532870
-23.9329061709993 15.6651641532870 19.5388417529490
23.9329061709993 -15.6651641532870 19.5388417529490
-15.0471301645371 -21.1568757416989 22.9329061709993
29.8384796277768 17.5673798925400 1.00000000000000
-5.49171158841194 32.6145100570771 10.2996378748277
5.49171158841194 -32.6145100570771 10.2996378748277
-32.6145100570771 10.2996378748277 5.49171158841194
32.6145100570771 -10.2996378748277 5.49171158841194
-1.00000000000000 -29.8384796277768 17.5673798925400
-21.1568757416989 22.9329061709993 15.0471301645371
21.1568757416989 -22.9329061709993 15.0471301645371
-19.5388417529490 -23.9329061709993 15.6651641532870
-23.9329061709993 -15.6651641532870 19.5388417529490
4.49171158841194 33.2325440458270 8.68160388607783
33.2325440458270 8.68160388607783 4.49171158841194
-29.8384796277768 17.5673798925400 1.00000000000000
29.8384796277768 -17.5673798925400 1.00000000000000
-5.49171158841194 -32.6145100570771 10.2996378748277
-32.6145100570771 -10.2996378748277 5.49171158841194
4.49171158841194 33.2325440458270 -8.68160388607783
33.2325440458270 -8.68160388607783 4.49171158841194
-21.1568757416989 -22.9329061709993 15.0471301645371
-4.49171158841194 33.2325440458270 8.68160388607783
33.2325440458270 8.68160388607783 -4.49171158841194
29.8384796277768 17.5673798925400 -1.00000000000000
4.49171158841194 -33.2325440458270 8.68160388607783
-33.2325440458270 8.68160388607783 4.49171158841194
-29.8384796277768 -17.5673798925400 1.00000000000000
-4.49171158841194 33.2325440458270 -8.68160388607783
33.2325440458270 -8.68160388607783 -4.49171158841194
21.1568757416989 22.9329061709993 -15.0471301645371
4.49171158841194 -33.2325440458270 -8.68160388607783
-33.2325440458270 -8.68160388607783 4.49171158841194
32.6145100570771 10.2996378748277 -5.49171158841194
-4.49171158841194 -33.2325440458270 8.68160388607783
-33.2325440458270 8.68160388607783 -4.49171158841194
-29.8384796277768 17.5673798925400 -1.00000000000000
29.8384796277768 -17.5673798925400 -1.00000000000000
5.49171158841194 32.6145100570771 -10.2996378748277
23.9329061709993 15.6651641532870 -19.5388417529490
-4.49171158841194 -33.2325440458270 -8.68160388607783
-33.2325440458270 -8.68160388607783 -4.49171158841194
-21.1568757416989 22.9329061709993 -15.0471301645371
21.1568757416989 -22.9329061709993 -15.0471301645371
19.5388417529490 23.9329061709993 -15.6651641532870
-32.6145100570771 10.2996378748277 -5.49171158841194
32.6145100570771 -10.2996378748277 -5.49171158841194
1.00000000000000 29.8384796277768 -17.5673798925400
-29.8384796277768 -17.5673798925400 -1.00000000000000
-5.49171158841194 32.6145100570771 -10.2996378748277
5.49171158841194 -32.6145100570771 -10.2996378748277
-23.9329061709993 15.6651641532870 -19.5388417529490
23.9329061709993 -15.6651641532870 -19.5388417529490
15.0471301645371 21.1568757416989 -22.9329061709993
-21.1568757416989 -22.9329061709993 -15.0471301645371
-19.5388417529490 23.9329061709993 -15.6651641532870
19.5388417529490 -23.9329061709993 -15.6651641532870
-32.6145100570771 -10.2996378748277 -5.49171158841194
-1.00000000000000 29.8384796277768 -17.5673798925400
1.00000000000000 -29.8384796277768 -17.5673798925400
22.9329061709993 15.0471301645371 -21.1568757416989
-5.49171158841194 -32.6145100570771 -10.2996378748277
-23.9329061709993 -15.6651641532870 -19.5388417529490
-15.0471301645371 21.1568757416989 -22.9329061709993
15.0471301645371 -21.1568757416989 -22.9329061709993
17.5673798925400 1.00000000000000 -29.8384796277768
-19.5388417529490 -23.9329061709993 -15.6651641532870
15.6651641532870 19.5388417529490 -23.9329061709993
-1.00000000000000 -29.8384796277768 -17.5673798925400
-22.9329061709993 15.0471301645371 -21.1568757416989
22.9329061709993 -15.0471301645371 -21.1568757416989
10.2996378748277 5.49171158841194 -32.6145100570771
-15.0471301645371 -21.1568757416989 -22.9329061709993
-17.5673798925400 1.00000000000000 -29.8384796277768
17.5673798925400 -1.00000000000000 -29.8384796277768
-15.6651641532870 19.5388417529490 -23.9329061709993
15.6651641532870 -19.5388417529490 -23.9329061709993
-22.9329061709993 -15.0471301645371 -21.1568757416989
-10.2996378748277 5.49171158841194 -32.6145100570771
10.2996378748277 -5.49171158841194 -32.6145100570771
-17.5673798925400 -1.00000000000000 -29.8384796277768
-15.6651641532870 -19.5388417529490 -23.9329061709993
8.68160388607783 4.49171158841194 -33.2325440458270
-10.2996378748277 -5.49171158841194 -32.6145100570771
-8.68160388607783 4.49171158841194 -33.2325440458270
8.68160388607783 -4.49171158841194 -33.2325440458270
-8.68160388607783 -4.49171158841194 -33.2325440458270

5 75 91 18 57 68
5 21 27 78 85 28
5 28 21 60 53 42
5 90 59 103 37 99
5 14 0 105 27 45
5 94 58 75 8 114
5 20 10 101 61 35
5 9 36 44 98 0
5 4 25 56 87 3
5 97 107 45 80 64
5 35 20 85 28 67
5 42 28 114 36 59
5 80 88 70 74 63
5 44 51 79 84 29
5 99 90 40 33 92
5 119 110 47 54 104
5 41 32 48 47 54
5 70 34 113 4 103
5 31 39 66 95 19
5 79 47 110 26 89
5 55 23 118 25 71
5 102 69 89 12 117
5 111 118 23 79 84
5 57 22 106 1 93
5 48 84 6 115 16
5 52 86 4 103 37
5 71 55 76 7 100
5 107 100 29 46 97
5 108 82 83 21 113
5 51 68 17 82 44
5 74 87 46 97 39
5 17 49 31 107 2
5 11 38 37 99 6
5 8 1 97 39 34
5 106 114 28 67 96
5 30 19 109 48 47
5 53 43 61 35 66
5 78 65 93 50 88
5 98 109 19 58 86
5 13 5 92 52 24
5 65 54 52 24 78
5 88 78 27 45 80
5 96 106 22 101 61
5 22 3 112 18 57
5 118 103 59 43 111
5 112 117 24 78 85
5 10 37 38 77 20
5 32 40 90 72 41
5 93 57 99 6 115
5 49 85 20 119 17
5 36 72 12 117 9
5 67 35 115 16 83
5 81 45 107 2 110
5 104 119 15 90 72
5 116 115 35 66 95
5 39 74 9 94 31
5 24 13 95 19 58
5 38 73 30 116 11
5 7 2 96 40 33
5 76 92 5 81 62
5 100 71 94 31 107
5 47 30 73 23 79
5 5 26 50 88 13
5 25 60 21 113 4
5 117 102 53 42 112
5 113 108 41 55 105
5 2 17 68 76 7
5 23 12 72 41 55
5 72 104 8 114 36
5 86 98 33 92 52
5 69 33 98 0 102
5 58 24 117 9 94
5 19 31 49 65 30
5 103 70 88 13 118
5 29 44 36 59 43
5 87 101 10 70 74
5 26 61 43 111 5
5 15 6 84 29 46
5 34 8 104 10 70
5 92 99 57 68 76
5 83 67 63 14 109
5 46 15 119 17 82
5 105 113 34 91 73
5 16 48 32 106 1
5 82 46 87 3 108
5 89 79 51 22 101
5 91 77 81 62 75
5 45 14 111 5 81
5 3 4 86 51 22
5 54 41 108 49 65
5 37 52 54 104 10
5 56 63 67 96 40
5 73 105 0 102 38
5 115 93 65 30 116
5 63 80 11 69 56
5 59 42 64 15 90
5 84 111 14 109 48
5 64 97 1 93 50
5 101 89 69 56 87
5 12 18 91 73 23
5 33 7 116 11 69
5 27 62 16 83 21
5 43 29 100 60 53
5 109 83 82 44 98
5 66 53 102 38 77
5 77 66 39 34 91
5 50 64 42 112 18
5 114 94 71 32 106
5 18 50 26 89 12
5 0 9 74 63 14
5 40 56 25 71 32
5 60 95 13 118 25
5 62 76 55 105 27
5 1 16 62 75 8
5 6 11 80 64 15
5 68 75 58 86 51
5 61 96 2 110 26
5 110 81 77 20 119
5 95 116 7 100 60
5 85 112 3 108 49
