OFF
120 120 0

8.88897281538744 7.04857697405026 37.9125380495912
-8.88897281538744 7.04857697405026 37.9125380495912
8.88897281538744 -7.04857697405026 37.9125380495912
10.5070068041373 8.04857697405026 37.2945040608413
-8.88897281538744 -7.04857697405026 37.9125380495912
16.0006941291206 22.4312371144210 28.4055312454538
21.9118439204705 1.00000000000000 32.9382439185583
-10.5070068041373 8.04857697405026 37.2945040608413
10.5070068041373 -8.04857697405026 37.2945040608413
27.4055312454538 15.3826601403707 24.0492711031709
-16.0006941291206 22.4312371144210 28.4055312454538
16.0006941291206 -22.4312371144210 28.4055312454538
-21.9118439204705 1.00000000000000 32.9382439185583
21.9118439204705 -1.00000000000000 32.9382439185583
-10.5070068041373 -8.04857697405026 37.2945040608413
15.3826601403707 24.0492711031709 27.4055312454538
-27.4055312454538 15.3826601403707 24.0492711031709
27.4055312454538 -15.3826601403707 24.0492711031709
-16.0006941291206 -22.4312371144210 28.4055312454538
1.00000000000000 32.9382439185583 21.9118439204705
-21.9118439204705 -1.00000000000000 32.9382439185583
22.4312371144210 28.4055312454538 16.0006941291206
28.4055312454538 16.0006941291206 22.4312371144210
-15.3826601403707 24.0492711031709 27.4055312454538
15.3826601403707 -24.0492711031709 27.4055312454538
-27.4055312454538 -15.3826601403707 24.0492711031709
8.04857697405026 37.2945040608413 10.5070068041373
37.2945040608413 10.5070068041373 8.04857697405026
-1.00000000000000 32.9382439185583 21.9118439204705
1.00000000000000 -32.9382439185583 21.9118439204705
24.0492711031709 27.4055312454538 15.3826601403707
-22.4312371144210 28.4055312454538 16.0006941291206
22.4312371144210 -28.4055312454538 16.0006941291206
-28.4055312454538 16.0006941291206 22.4312371144210
28.4055312454538 -16.0006941291206 22.4312371144210
-15.3826601403707 -24.0492711031709 27.4055312454538
32.9382439185583 21.9118439204705 1.00000000000000
-8.04857697405026 37.2945040608413 10.5070068041373
8.04857697405026 -37.2945040608413 10.5070068041373
-37.2945040608413 10.5070068041373 8.04857697405026
37.2945040608413 -10.5070068041373 8.04857697405026
-1.00000000000000 -32.9382439185583 21.9118439204705
-24.0492711031709 27.4055312454538 15.3826601403707
24.0492711031709 -27.4055312454538 15.3826601403707
-22.4312371144210 -28.4055312454538 16.0006941291206
-28.4055312454538 -16.0006941291206 22.4312371144210
7.04857697405026 37.9125380495912 8.88897281538744
37.9125380495912 8.88897281538744 7.04857697405026
-32.9382439185583 21.9118439204705 1.00000000000000
32.9382439185583 -21.9118439204705 1.00000000000000
-8.04857697405026 -37.2945040608413 10.5070068041373
-37.2945040608413 -10.5070068041373 8.04857697405026
7.04857697405026 37.9125380495912 -8.88897281538744
37.9125380495912 -8.88897281538744 7.04857697405026
-24.0492711031709 -27.4055312454538 15.3826601403707
-7.04857697405026 37.9125380495912 8.88897281538744
37.9125380495912 8.88897281538744 -7.04857697405026
32.9382439185583 21.9118439204705 -1.00000000000000
7.04857697405026 -37.9125380495912 8.88897281538744
-37.9125380495912 8.88897281538744 7.04857697405026
-32.9382439185583 -21.9118439204705 1.00000000000000
-7.04857697405026 37.9125380495912 -8.88897281538744
37.9125380495912 -8.88897281538744 -7.04857697405026
24.0492711031709 27.4055312454538 -15.3826601403707
7.04857697405026 -37.9125380495912 -8.88897281538744
-37.9125380495912 -8.88897281538744 7.04857697405026
37.2945040608413 10.5070068041373 -8.04857697405026
-7.04857697405026 -37.9125380495912 8.88897281538744
-37.9125380495912 8.88897281538744 -7.04857697405026
-32.9382439185583 21.9118439204705 -1.00000000000000
32.9382439185583 -21.9118439204705 -1.00000000000000
8.04857697405026 37.2945040608413 -10.5070068041373
28.4055312454538 16.0006941291206 -22.4312371144210
-7.04857697405026 -37.9125380495912 -8.88897281538744
-37.9125380495912 -8.88897281538744 -7.04857697405026
-24.0492711031709 27.4055312454538 -15.3826601403707
24.0492711031709 -27.4055312454538 -15.3826601403707
22.4312371144210 28.4055312454538 -16.0006941291206
-37.2945040608413 10.5070068041373 -8.04857697405026
37.2945040608413 -10.5070068041373 -8.04857697405026
1.00000000000000 32.9382439185583 -21.9118439204705
-32.9382439185583 -21.9118439204705 -1.00000000000000
-8.04857697405026 37.2945040608413 -10.5070068041373
8.04857697405026 -37.2945040608413 -10.5070068041373
-28.4055312454538 16.0006941291206 -22.4312371144210
28.4055312454538 -16.0006941291206 -22.4312371144210
15.3826601403707 24.0492711031709 -27.4055312454538
-24.0492711031709 -27.4055312454538 -15.3826601403707
-22.4312371144210 28.4055312454538 -16.0006941291206
22.4312371144210 -28.4055312454538 -16.0006941291206
-37.2945040608413 -10.5070068041373 -8.04857697405026
-1.00000000000000 32.9382439185583 -21.9118439204705
1.00000000000000 -32.9382439185583 -21.9118439204705
27.4055312454538 15.3826601403707 -24.0492711031709
-8.04857697405026 -37.2945040608413 -10.5070068041373
-28.4055312454538 -16.0006941291206 -22.4312371144210
-15.3826601403707 24.0492711031709 -27.4055312454538
15.3826601403707 -24.0492711031709 -27.4055312454538
21.9118439204705 1.00000000000000 -32.9382439185583
-22.4312371144210 -28.4055312454538 -16.0006941291206
16.0006941291206 22.4312371144210 -28.4055312454538
-1.00000000000000 -32.9382439185583 -21.9118439204705
-27.4055312454538 15.3826601403707 -24.0492711031709
27.4055312454538 -15.3826601403707 -24.0492711031709
10.5070068041373 8.04857697405026 -37.2945040608413
-15.3826601403707 -24.0492711031709 -27.4055312454538
-21.9118439204705 1.00000000000000 -32.9382439185583
21.9118439204705 -1.00000000000000 -32.9382439185583
-16.0006941291206 22.4312371144210 -28.4055312454538
16.0006941291206 -22.4312371144210 -28.4055312454538
-27.4055312454538 -15.3826601403707 -24.0492711031709
-10.5070068041373 8.04857697405026 -37.2945040608413
10.5070068041373 -8.04857697405026 -37.2945040608413
-21.9118439204705 -1.00000000000000 -32.9382439185583
-16.0006941291206 -22.4312371144210 -28.4055312454538
8.88897281538744 7.04857697405026 -37.9125380495912
-10.5070068041373 -8.04857697405026 -37.2945040608413
-8.88897281538744 7.04857697405026 -37.9125380495912
8.88897281538744 -7.04857697405026 -37.9125380495912
-8.88897281538744 -7.04857697405026 -37.9125380495912

5 75 78 73 103 86
5 21 19 45 38 53
5 28 31 113 98 36
5 90 87 43 0 33
5 14 25 102 52 5
5 94 105 86 47 32
5 20 18 70 36 28
5 9 3 59 96 63
5 4 0 71 84 51
5 97 83 2 30 93
5 35 50 119 75 16
5 42 39 67 17 15
5 80 77 13 12 69
5 44 41 22 37 59
5 99 101 72 82 68
5 119 115 26 33 90
5 41 44 106 107 49
5 70 85 91 19 13
5 31 28 34 50 65
5 79 76 54 1 22
5 55 52 79 11 7
5 102 111 56 15 42
5 111 102 25 58 109
5 57 72 101 29 6
5 48 33 29 101 106
5 52 55 51 114 104
5 71 86 105 65 31
5 107 109 60 69 80
5 108 106 44 7 55
5 51 54 76 115 84
5 74 59 3 32 94
5 17 8 65 105 76
5 11 13 77 112 64
5 8 17 93 61 10
5 106 108 36 70 101
5 30 27 58 25 23
5 53 56 111 99 38
5 78 75 30 2 45
5 98 100 48 81 92
5 13 11 81 48 19
5 65 68 104 89 50
5 88 91 85 94 74
5 96 82 1 54 110
5 22 36 108 39 1
5 118 117 37 22 79
5 112 103 9 55 108
5 10 12 99 111 61
5 32 29 33 26 47
5 93 104 68 23 30
5 49 34 28 80 107
5 36 22 41 92 98
5 67 64 66 5 14
5 81 95 80 28 20
5 104 93 17 67 114
5 116 110 16 46 100
5 39 42 63 118 95
5 24 38 118 63 9
5 38 24 23 68 99
5 7 16 110 64 11
5 76 79 52 102 105
5 100 98 32 3 46
5 47 62 116 88 26
5 5 6 89 104 52
5 25 14 53 97 87
5 117 118 38 45 78
5 113 114 49 57 91
5 2 1 82 72 40
5 23 37 117 87 25
5 72 57 10 78 117
5 86 71 0 43 103
5 69 84 92 41 12
5 58 73 78 10 8
5 19 21 107 106 48
5 103 112 74 35 43
5 29 32 98 113 60
5 87 90 61 93 97
5 26 15 35 74 88
5 15 26 115 76 17
5 34 49 114 51 4
5 92 89 6 20 81
5 83 97 96 59 44
5 46 61 90 18 3
5 105 94 4 42 102
5 16 7 47 86 75
5 82 96 97 53 21
5 89 92 84 71 56
5 91 88 20 6 57
5 45 60 109 40 2
5 3 9 103 73 18
5 54 51 55 9 24
5 37 23 24 62 77
5 56 53 14 31 71
5 73 58 27 100 116
5 115 119 50 34 66
5 63 66 64 110 96
5 59 74 112 77 37
5 84 69 5 66 115
5 64 67 39 108 112
5 101 99 12 13 70
5 12 10 57 49 41
5 33 48 100 27 0
5 27 30 75 119 85
5 43 40 46 16 35
5 109 107 21 8 58
5 66 63 42 4 34
5 77 80 95 83 62
5 50 35 15 56 89
5 114 113 31 14 67
5 18 20 88 116 73
5 0 4 94 85 27
5 40 43 87 117 72
5 60 45 19 91 113
5 62 47 7 44 83
5 1 2 83 95 39
5 6 5 69 60 29
5 68 65 8 21 82
5 61 46 40 109 111
5 110 116 62 24 54
5 95 81 11 79 118
5 85 70 18 90 119
