OFF
120 120 0

6.02926886016762 2.36039834695140 22.8401035330864
-6.02926886016762 2.36039834695140 22.8401035330864
6.02926886016762 -2.36039834695140 22.8401035330864
7.64730284891752 3.36039834695140 22.2220695443365
-6.02926886016762 -2.36039834695140 22.8401035330864
11.3735959318124 13.1159602900140 16.1928006841689
11.4665076012739 1.00000000000000 20.7632631389315
-7.64730284891752 3.36039834695140 22.2220695443365
7.64730284891752 -3.36039834695140 22.2220695443365
15.1928006841689 10.7555619430626 14.7339942787638
-11.3735959318124 13.1159602900140 16.1928006841689
11.3735959318124 -13.1159602900140 16.1928006841689
-11.4665076012739 1.00000000000000 20.7632631389315
11.4665076012739 -1.00000000000000 20.7632631389315
-7.64730284891752 -3.36039834695140 22.2220695443365
10.7555619430626 14.7339942787638 15.1928006841689
-15.1928006841689 10.7555619430626 14.7339942787638
15.1928006841689 -10.7555619430626 14.7339942787638
-11.3735959318124 -13.1159602900140 16.1928006841689
1.00000000000000 20.7632631389315 11.4665076012739
-11.4665076012739 -1.00000000000000 20.7632631389315
13.1159602900140 16.1928006841689 11.3735959318124
16.1928006841689 11.3735959318124 13.1159602900140
-10.7555619430626 14.7339942787638 15.1928006841689
10.7555619430626 -14.7339942787638 15.1928006841689
-15.1928006841689 -10.7555619430626 14.7339942787638
3.36039834695140 22.2220695443365 7.64730284891752
22.2220695443365 7.64730284891752 3.36039834695140
-1.00000000000000 20.7632631389315 11.4665076012739
1.00000000000000 -20.7632631389315 11.4665076012739
14.7339942787638 15.1928006841689 10.7555619430626
-13.1159602900140 16.1928006841689 11.3735959318124
13.1159602900140 -16.1928006841689 11.3735959318124
-16.1928006841689 11.3735959318124 13.1159602900140
16.1928006841689 -11.3735959318124 13.1159602900140
-10.7555619430626 -14.7339942787638 15.1928006841689
20.7632631389315 11.4665076012739 1.00000000000000
-3.36039834695140 22.2220695443365 7.64730284891752
3.36039834695140 -22.2220695443365 7.64730284891752
-22.2220695443365 7.64730284891752 3.36039834695140
22.2220695443365 -7.64730284891752 3.36039834695140
-1.00000000000000 -20.7632631389315 11.4665076012739
-14.7339942787638 15.1928006841689 10.7555619430626
14.7339942787638 -15.1928006841689 10.7555619430626
-13.1159602900140 -16.1928006841689 11.3735959318124
-16.1928006841689 -11.3735959318124 13.1159602900140
2.36039834695140 22.8401035330864 6.02926886016762
22.8401035330864 6.02926886016762 2.36039834695140
-20.7632631389315 11.4665076012739 1.00000000000000
20.7632631389315 -11.4665076012739 1.00000000000000
-3.36039834695140 -22.2220695443365 7.64730284891752
-22.2220695443365 -7.64730284891752 3.36039834695140
2.36039834695140 22.8401035330864 -6.02926886016762
22.8401035330864 -6.02926886016762 2.36039834695140
-14.7339942787638 -15.1928006841689 10.7555619430626
-2.36039834695140 22.8401035330864 6.02926886016762
22.8401035330864 6.02926886016762 -2.36039834695140
20.7632631389315 11.4665076012739 -1.00000000000000
2.36039834695140 -22.8401035330864 6.02926886016762
-22.8401035330864 6.02926886016762 2.36039834695140
-20.7632631389315 -11.4665076012739 1.00000000000000
-2.36039834695140 22.8401035330864 -6.02926886016762
22.8401035330864 -6.02926886016762 -2.36039834695140
14.7339942787638 15.1928006841689 -10.7555619430626
2.36039834695140 -22.8401035330864 -6.02926886016762
-22.8401035330864 -6.02926886016762 2.36039834695140
22.2220695443365 7.64730284891752 -3.36039834695140
-2.36039834695140 -22.8401035330864 6.02926886016762
-22.8401035330864 6.02926886016762 -2.36039834695140
-20.7632631389315 11.4665076012739 -1.00000000000000
20.7632631389315 -11.4665076012739 -1.00000000000000
3.36039834695140 22.2220695443365 -7.64730284891752
16.1928006841689 11.3735959318124 -13.1159602900140
-2.36039834695140 -22.8401035330864 -6.02926886016762
-22.8401035330864 -6.02926886016762 -2.36039834695140
-14.7339942787638 15.1928006841689 -10.7555619430626
14.7339942787638 -15.1928006841689 -10.7555619430626
13.1159602900140 16.1928006841689 -11.3735959318124
-22.2220695443365 7.64730284891752 -3.36039834695140
22.2220695443365 -7.64730284891752 -3.36039834695140
1.00000000000000 20.7632631389315 -11.4665076012739
-20.7632631389315 -11.4665076012739 -1.00000000000000
-3.36039834695140 22.2220695443365 -7.64730284891752
3.36039834695140 -22.2220695443365 -7.64730284891752
-16.1928006841689 11.3735959318124 -13.1159602900140
16.1928006841689 -11.3735959318124 -13.1159602900140
10.7555619430626 14.7339942787638 -15.1928006841689
-14.7339942787638 -15.1928006841689 -10.7555619430626
-13.1159602900140 16.1928006841689 -11.3735959318124
13.1159602900140 -16.1928006841689 -11.3735959318124
-22.2220695443365 -7.64730284891752 -3.36039834695140
-1.00000000000000 20.7632631389315 -11.4665076012739
1.00000000000000 -20.7632631389315 -11.4665076012739
15.1928006841689 10.7555619430626 -14.7339942787638
-3.36039834695140 -22.2220695443365 -7.64730284891752
-16.1928006841689 -11.3735959318124 -13.1159602900140
-10.7555619430626 14.7339942787638 -15.1928006841689
10.7555619430626 -14.7339942787638 -15.1928006841689
11.4665076012739 1.00000000000000 -20.7632631389315
-13.1159602900140 -16.1928006841689 -11.3735959318124
11.3735959318124 13.1159602900140 -16.1928006841689
-1.00000000000000 -20.7632631389315 -11.4665076012739
-15.1928006841689 10.7555619430626 -14.7339942787638
15.1928006841689 -10.7555619430626 -14.7339942787638
7.64730284891752 3.36039834695140 -22.2220695443365
-10.7555619430626 -14.7339942787638 -15.1928006841689
-11.4665076012739 1.00000000000000 -20.7632631389315
11.4665076012739 -1.00000000000000 -20.7632631389315
-11.3735959318124 13.1159602900140 -16.1928006841689
11.3735959318124 -13.1159602900140 -16.1928006841689
-15.1928006841689 -10.7555619430626 -14.7339942787638
-7.64730284891752 3.36039834695140 -22.2220695443365
7.64730284891752 -3.36039834695140 -22.2220695443365
-11.4665076012739 -1.00000000000000 -20.7632631389315
-11.3735959318124 -13.1159602900140 -16.1928006841689
6.02926886016762 2.36039834695140 -22.8401035330864
-7.64730284891752 -3.36039834695140 -22.2220695443365
-6.02926886016762 2.36039834695140 -22.8401035330864
6.02926886016762 -2.36039834695140 -22.8401035330864
-6.02926886016762 -2.36039834695140 -22.8401035330864

5 75 4 79 96 17
5 21 102 64 22 114
5 28 44 103 26 64
5 90 98 5 65 57
5 14 92 77 1 107
5 94 48 22 64 28
5 20 114 63 7 115
5 9 67 111 30 105
5 4 79 106 20 112
5 97 65 26 103 42
5 35 62 82 25 63
5 42 119 40 23 103
5 80 89 25 82 67
5 44 103 61 45 100
5 99 17 55 95 5
5 119 40 12 113 8
5 41 31 93 38 52
5 70 95 23 40 59
5 31 93 73 33 109
5 79 106 10 53 69
5 55 116 29 28 94
5 102 64 3 75 24
5 111 19 32 119 6
5 57 84 35 27 65
5 48 22 97 78 62
5 52 8 101 80 38
5 71 49 45 61 29
5 107 11 42 104 1
5 108 76 0 88 34
5 51 6 100 74 36
5 74 71 49 81 66
5 17 55 116 43 96
5 11 42 119 32 84
5 8 101 88 0 113
5 106 10 43 116 2
5 30 118 51 15 110
5 53 37 81 49 39
5 78 107 11 59 70
5 98 5 54 112 4
5 13 109 75 3 117
5 65 26 70 60 27
5 88 9 67 84 11
5 96 47 50 102 43
5 22 97 65 5 99
5 118 51 6 107 14
5 112 41 31 115 20
5 10 43 115 31 85
5 32 110 52 34 108
5 93 73 7 63 35
5 49 45 96 79 68
5 36 33 105 66 74
5 67 111 19 41 82
5 81 85 15 51 47
5 104 28 44 118 12
5 116 29 21 117 13
5 39 13 109 68 49
5 24 74 71 17 75
5 38 57 84 67 80
5 7 80 89 4 98
5 76 0 78 97 16
5 100 87 1 77 45
5 47 50 69 36 51
5 5 54 117 21 95
5 25 46 112 54 86
5 117 27 20 106 3
5 113 18 30 111 0
5 2 90 98 13 116
5 23 56 94 16 76
5 72 24 74 100 44
5 86 59 38 93 54
5 69 72 24 39 53
5 58 104 28 29 71
5 19 32 110 37 73
5 103 61 14 76 23
5 29 21 102 50 61
5 87 1 66 105 9
5 26 70 95 55 92
5 15 68 83 9 87
5 34 86 59 11 88
5 92 77 16 94 55
5 83 36 33 73 19
5 46 112 41 19 83
5 105 53 37 110 30
5 16 58 104 42 97
5 82 60 34 52 41
5 89 25 46 85 10
5 91 99 17 71 58
5 45 96 47 18 77
5 3 91 99 2 106
5 54 117 27 35 93
5 37 81 85 46 101
5 56 94 48 57 90
5 73 7 80 101 37
5 115 39 13 98 7
5 63 2 90 86 25
5 59 38 57 48 40
5 84 35 62 108 32
5 64 3 91 92 26
5 101 88 9 83 46
5 12 108 76 14 118
5 33 105 53 10 89
5 27 20 114 56 60
5 43 115 39 24 102
5 109 75 4 89 33
5 66 113 18 47 81
5 77 16 58 72 18
5 50 69 72 58 91
5 114 63 2 99 22
5 18 30 118 44 72
5 0 78 107 6 111
5 40 12 108 62 48
5 60 34 86 90 56
5 62 82 60 70 78
5 1 66 113 12 104
5 6 100 87 8 119
5 68 83 36 69 79
5 61 14 92 91 50
5 110 52 8 87 15
5 95 23 56 114 21
5 85 15 68 109 31
