OFF
120 120 0

6.22350927459976 2.29490789343316 23.2426657603274
-6.22350927459976 2.29490789343316 23.2426657603274
6.22350927459976 -2.29490789343316 23.2426657603274
7.84154326334965 3.29490789343316 22.6246317715775
-6.22350927459976 -2.29490789343316 23.2426657603274
11.6878835243525 13.3647574290358 16.4011224969778
11.5547822359749 1.00000000000000 21.2063006923854
-7.84154326334965 3.29490789343316 22.6246317715775
7.84154326334965 -3.29490789343316 22.6246317715775
15.4011224969778 11.0698495356026 14.9827914177857
-11.6878835243525 13.3647574290358 16.4011224969778
11.6878835243525 -13.3647574290358 16.4011224969778
-11.5547822359749 1.00000000000000 21.2063006923854
11.5547822359749 -1.00000000000000 21.2063006923854
-7.84154326334965 -3.29490789343316 22.6246317715775
11.0698495356026 14.9827914177857 15.4011224969778
-15.4011224969778 11.0698495356026 14.9827914177857
15.4011224969778 -11.0698495356026 14.9827914177857
-11.6878835243525 -13.3647574290358 16.4011224969778
1.00000000000000 21.2063006923854 11.5547822359749
-11.5547822359749 -1.00000000000000 21.2063006923854
13.3647574290358 16.4011224969778 11.6878835243525
16.4011224969778 11.6878835243525 13.3647574290358
-11.0698495356026 14.9827914177857 15.4011224969778
11.0698495356026 -14.9827914177857 15.4011224969778
-15.4011224969778 -11.0698495356026 14.9827914177857
3.29490789343316 22.6246317715775 7.84154326334965
22.6246317715775 7.84154326334965 3.29490789343316
-1.00000000000000 21.2063006923854 11.5547822359749
1.00000000000000 -21.2063006923854 11.5547822359749
14.9827914177857 15.4011224969778 11.0698495356026
-13.3647574290358 16.4011224969778 11.6878835243525
13.3647574290358 -16.4011224969778 11.6878835243525
-16.4011224969778 11.6878835243525 13.3647574290358
16.4011224969778 -11.6878835243525 13.3647574290358
-11.0698495356026 -14.9827914177857 15.4011224969778
21.2063006923854 11.5547822359749 1.00000000000000
-3.29490789343316 22.6246317715775 7.84154326334965
3.29490789343316 -22.6246317715775 7.84154326334965
-22.6246317715775 7.84154326334965 3.29490789343316
22.6246317715775 -7.84154326334965 3.29490789343316
-1.00000000000000 -21.2063006923854 11.5547822359749
-14.9827914177857 15.4011224969778 11.0698495356026
14.9827914177857 -15.4011224969778 11.0698495356026
-13.3647574290358 -16.4011224969778 11.6878835243525
-16.4011224969778 -11.6878835243525 13.3647574290358
2.29490789343316 23.2426657603274 6.22350927459976
23.2426657603274 6.22350927459976 2.29490789343316
-21.2063006923854 11.5547822359749 1.00000000000000
21.2063006923854 -11.5547822359749 1.00000000000000
-3.29490789343316 -22.6246317715775 7.84154326334965
-22.6246317715775 -7.84154326334965 3.29490789343316
2.29490789343316 23.2426657603274 -6.22350927459976
23.2426657603274 -6.22350927459976 2.29490789343316
-14.9827914177857 -15.4011224969778 11.0698495356026
-2.29490789343316 23.2426657603274 6.22350927459976
23.2426657603274 6.22350927459976 -2.29490789343316
21.2063006923854 11.5547822359749 -1.00000000000000
2.29490789343316 -23.2426657603274 6.22350927459976
-23.2426657603274 6.22350927459976 2.29490789343316
-21.2063006923854 -11.5547822359749 1.00000000000000
-2.29490789343316 23.2426657603274 -6.22350927459976
23.2426657603274 -6.22350927459976 -2.29490789343316
14.9827914177857 15.4011224969778 -11.0698495356026
2.29490789343316 -23.2426657603274 -6.22350927459976
-23.2426657603274 -6.22350927459976 2.29490789343316
22.6246317715775 7.84154326334965 -3.29490789343316
-2.29490789343316 -23.2426657603274 6.22350927459976
-23.2426657603274 6.22350927459976 -2.29490789343316
-21.2063006923854 11.5547822359749 -1.00000000000000
21.2063006923854 -11.5547822359749 -1.00000000000000
3.29490789343316 22.6246317715775 -7.84154326334965
16.4011224969778 11.6878835243525 -13.3647574290358
-2.29490789343316 -23.2426657603274 -6.22350927459976
-23.2426657603274 -6.22350927459976 -2.29490789343316
-14.9827914177857 15.4011224969778 -11.0698495356026
14.9827914177857 -15.4011224969778 -11.0698495356026
13.3647574290358 16.4011224969778 -11.6878835243525
-22.6246317715775 7.84154326334965 -3.29490789343316
22.6246317715775 -7.84154326334965 -3.29490789343316
1.00000000000000 21.2063006923854 -11.5547822359749
-21.2063006923854 -11.5547822359749 -1.00000000000000
-3.29490789343316 22.6246317715775 -7.84154326334965
3.29490789343316 -22.6246317715775 -7.84154326334965
-16.4011224969778 11.6878835243525 -13.3647574290358
16.4011224969778 -11.6878835243525 -13.3647574290358
11.0698495356026 14.9827914177857 -15.4011224969778
-14.9827914177857 -15.4011224969778 -11.0698495356026
-13.3647574290358 16.4011224969778 -11.6878835243525
13.3647574290358 -16.4011224969778 -11.6878835243525
-22.6246317715775 -7.84154326334965 -3.29490789343316
-1.00000000000000 21.2063006923854 -11.5547822359749
1.00000000000000 -21.2063006923854 -11.5547822359749
15.4011224969778 11.0698495356026 -14.9827914177857
-3.29490789343316 -22.6246317715775 -7.84154326334965
-16.4011224969778 -11.6878835243525 -13.3647574290358
-11.0698495356026 14.9827914177857 -15.4011224969778
11.0698495356026 -14.9827914177857 -15.4011224969778
11.5547822359749 1.00000000000000 -21.2063006923854
-13.3647574290358 -16.4011224969778 -11.6878835243525
11.6878835243525 13.3647574290358 -16.4011224969778
-1.00000000000000 -21.2063006923854 -11.5547822359749
-15.4011224969778 11.0698495356026 -14.9827914177857
15.4011224969778 -11.0698495356026 -14.9827914177857
7.84154326334965 3.29490789343316 -22.6246317715775
-11.0698495356026 -14.9827914177857 -15.4011224969778
-11.5547822359749 1.00000000000000 -21.2063006923854
11.5547822359749 -1.00000000000000 -21.2063006923854
-11.6878835243525 13.3647574290358 -16.4011224969778
11.6878835243525 -13.3647574290358 -16.4011224969778
-15.4011224969778 -11.0698495356026 -14.9827914177857
-7.84154326334965 3.29490789343316 -22.6246317715775
7.84154326334965 -3.29490789343316 -22.6246317715775
-11.5547822359749 -1.00000000000000 -21.2063006923854
-11.6878835243525 -13.3647574290358 -16.4011224969778
6.22350927459976 2.29490789343316 -23.2426657603274
-7.84154326334965 -3.29490789343316 -22.6246317715775
-6.22350927459976 2.29490789343316 -23.2426657603274
6.22350927459976 -2.29490789343316 -23.2426657603274
-6.22350927459976 -2.29490789343316 -23.2426657603274

5 75 12 79 96 17
5 21 88 64 22 114
5 28 25 103 26 64
5 90 118 5 65 57
5 14 73 77 1 107
5 94 68 22 64 28
5 20 87 63 7 115
5 9 29 111 30 105
5 4 40 106 20 112
5 97 81 26 103 42
5 35 49 82 25 63
5 42 106 40 23 103
5 80 103 25 82 67
5 44 89 61 45 100
5 99 32 55 95 5
5 119 79 12 113 8
5 41 16 93 38 52
5 70 105 23 40 59
5 31 77 73 33 109
5 79 119 10 53 69
5 55 111 29 28 94
5 102 101 3 75 24
5 111 55 32 119 6
5 57 96 35 27 65
5 48 15 97 78 62
5 52 3 101 80 38
5 71 62 45 61 29
5 107 43 42 104 1
5 108 109 0 88 34
5 51 2 100 74 36
5 74 82 49 81 66
5 17 19 116 43 96
5 11 10 119 32 84
5 8 64 88 0 113
5 106 42 43 116 2
5 30 98 51 15 110
5 53 26 81 49 39
5 78 115 11 59 70
5 98 30 54 112 4
5 13 76 75 3 117
5 65 37 70 60 27
5 88 21 67 84 11
5 96 57 50 102 43
5 22 85 65 5 99
5 118 90 6 107 14
5 112 58 31 115 20
5 10 11 115 31 85
5 32 99 52 34 108
5 93 92 7 63 35
5 49 35 96 79 68
5 36 23 105 66 74
5 67 116 19 41 82
5 81 97 15 51 47
5 104 46 44 118 12
5 116 67 21 117 13
5 39 0 109 68 49
5 24 60 71 17 75
5 38 47 84 67 80
5 7 61 89 4 98
5 76 13 78 97 16
5 100 114 1 77 45
5 47 38 69 36 51
5 5 18 117 21 95
5 25 28 112 54 86
5 117 66 20 106 3
5 113 54 30 111 0
5 2 51 98 13 116
5 23 36 94 16 76
5 72 34 74 100 44
5 86 69 38 93 54
5 69 86 24 39 53
5 58 112 28 29 71
5 19 17 110 37 73
5 103 80 14 76 23
5 29 9 102 50 61
5 87 20 66 105 9
5 26 53 95 55 92
5 15 48 83 9 87
5 34 72 59 11 88
5 92 93 16 94 55
5 83 56 33 73 19
5 46 104 41 19 83
5 105 70 37 110 30
5 16 41 104 42 97
5 82 74 34 52 41
5 89 44 46 85 10
5 91 110 17 71 58
5 45 84 47 18 77
5 3 52 99 2 106
5 54 113 27 35 93
5 37 65 85 46 101
5 56 83 48 57 90
5 73 14 80 101 37
5 115 78 13 98 7
5 63 6 90 86 25
5 59 50 57 48 40
5 84 45 62 108 32
5 64 8 91 92 26
5 101 102 9 83 46
5 12 75 76 14 118
5 33 95 53 10 89
5 27 1 114 56 60
5 43 107 39 24 102
5 109 108 4 89 33
5 66 117 18 47 81
5 77 31 58 72 18
5 50 59 72 58 91
5 114 100 2 99 22
5 18 5 118 44 72
5 0 39 107 6 111
5 40 4 108 62 48
5 60 24 86 90 56
5 62 71 60 70 78
5 1 27 113 12 104
5 6 63 87 8 119
5 68 94 36 69 79
5 61 7 92 91 50
5 110 91 8 87 15
5 95 33 56 114 21
5 85 22 68 109 31
