OFF
120 120 0

0.0511801064077438 2.63878671374419 7.63970582752284
-0.0511801064077438 2.63878671374419 7.63970582752284
0.0511801064077438 -2.63878671374419 7.63970582752284
1.66921409515764 3.63878671374419 7.02167183877295
-0.0511801064077438 -2.63878671374419 7.63970582752284
1.70084514046546 3.72159786545976 6.97049173236520
5.93886068705738 1.00000000000000 5.39081196061740
-1.66921409515764 3.63878671374419 7.02167183877295
1.66921409515764 -3.63878671374419 7.02167183877295
5.97049173236520 1.08281115171557 5.33963185420965
-1.70084514046546 3.72159786545976 6.97049173236520
1.70084514046546 -3.72159786545976 6.97049173236520
-5.93886068705738 1.00000000000000 5.39081196061740
5.93886068705738 -1.00000000000000 5.39081196061740
-1.66921409515764 -3.63878671374419 7.02167183877295
1.08281115171557 5.33963185420965 5.97049173236520
-5.97049173236520 1.08281115171557 5.33963185420965
5.97049173236520 -1.08281115171557 5.33963185420965
-1.70084514046546 -3.72159786545976 6.97049173236520
1.00000000000000 5.39081196061740 5.93886068705738
-5.93886068705738 -1.00000000000000 5.39081196061740
3.72159786545976 6.97049173236520 1.70084514046546
6.97049173236520 1.70084514046546 3.72159786545976
-1.08281115171557 5.33963185420965 5.97049173236520
1.08281115171557 -5.33963185420965 5.97049173236520
-5.97049173236520 -1.08281115171557 5.33963185420965
3.63878671374419 7.02167183877295 1.66921409515764
7.02167183877295 1.66921409515764 3.63878671374419
-1.00000000000000 5.39081196061740 5.93886068705738
1.00000000000000 -5.39081196061740 5.93886068705738
5.33963185420965 5.97049173236520 1.08281115171557
-3.72159786545976 6.97049173236520 1.70084514046546
3.72159786545976 -6.97049173236520 1.70084514046546
-6.97049173236520 1.70084514046546 3.72159786545976
6.97049173236520 -1.70084514046546 3.72159786545976
-1.08281115171557 -5.33963185420965 5.97049173236520
5.39081196061740 5.93886068705738 1.00000000000000
-3.63878671374419 7.02167183877295 1.66921409515764
3.63878671374419 -7.02167183877295 1.66921409515764
-7.02167183877295 1.66921409515764 3.63878671374419
7.02167183877295 -1.66921409515764 3.63878671374419
-1.00000000000000 -5.39081196061740 5.93886068705738
-5.33963185420965 5.97049173236520 1.08281115171557
5.33963185420965 -5.97049173236520 1.08281115171557
-3.72159786545976 -6.97049173236520 1.70084514046546
-6.97049173236520 -1.70084514046546 3.72159786545976
2.63878671374419 7.63970582752284 0.0511801064077438
7.63970582752284 0.0511801064077438 2.63878671374419
-5.39081196061740 5.93886068705738 1.00000000000000
5.39081196061740 -5.93886068705738 1.00000000000000
-3.63878671374419 -7.02167183877295 1.66921409515764
-7.02167183877295 -1.66921409515764 3.63878671374419
2.63878671374419 7.63970582752284 -0.0511801064077438
7.63970582752284 -0.0511801064077438 2.63878671374419
-5.33963185420965 -5.97049173236520 1.08281115171557
-2.63878671374419 7.63970582752284 0.0511801064077438
7.63970582752284 0.0511801064077438 -2.63878671374419
5.39081196061740 5.93886068705738 -1.00000000000000
2.63878671374419 -7.63970582752284 0.0511801064077438
-7.63970582752284 0.0511801064077438 2.63878671374419
-5.39081196061740 -5.93886068705738 1.00000000000000
-2.63878671374419 7.63970582752284 -0.0511801064077438
7.63970582752284 -0.0511801064077438 -2.63878671374419
5.33963185420965 5.97049173236520 -1.08281115171557
2.63878671374419 -7.63970582752284 -0.0511801064077438
-7.63970582752284 -0.0511801064077438 2.63878671374419
7.02167183877295 1.66921409515764 -3.63878671374419
-2.63878671374419 -7.63970582752284 0.0511801064077438
-7.63970582752284 0.0511801064077438 -2.63878671374419
-5.39081196061740 5.93886068705738 -1.00000000000000
5.39081196061740 -5.93886068705738 -1.00000000000000
3.63878671374419 7.02167183877295 -1.66921409515764
6.97049173236520 1.70084514046546 -3.72159786545976
-2.63878671374419 -7.63970582752284 -0.0511801064077438
-7.63970582752284 -0.0511801064077438 -2.63878671374419
-5.33963185420965 5.97049173236520 -1.08281115171557
5.33963185420965 -5.97049173236520 -1.08281115171557
3.72159786545976 6.97049173236520 -1.70084514046546
-7.02167183877295 1.66921409515764 -3.63878671374419
7.02167183877295 -1.66921409515764 -3.63878671374419
1.00000000000000 5.39081196061740 -5.93886068705738
-5.39081196061740 -5.93886068705738 -1.00000000000000
-3.63878671374419 7.02167183877295 -1.66921409515764
3.63878671374419 -7.02167183877295 -1.66921409515764
-6.97049173236520 1.70084514046546 -3.72159786545976
6.97049173236520 -1.70084514046546 -3.72159786545976
1.08281115171557 5.33963185420965 -5.97049173236520
-5.33963185420965 -5.97049173236520 -1.08281115171557
-3.72159786545976 6.97049173236520 -1.70084514046546
3.72159786545976 -6.97049173236520 -1.70084514046546
-7.02167183877295 -1.66921409515764 -3.63878671374419
-1.00000000000000 5.39081196061740 -5.93886068705738
1.00000000000000 -5.39081196061740 -5.93886068705738
5.97049173236520 1.08281115171557 -5.33963185420965
-3.63878671374419 -7.02167183877295 -1.66921409515764
-6.97049173236520 -1.70084514046546 -3.72159786545976
-1.08281115171557 5.33963185420965 -5.97049173236520
1.08281115171557 -5.33963185420965 -5.97049173236520
5.93886068705738 1.00000000000000 -5.39081196061740
-3.72159786545976 -6.97049173236520 -1.70084514046546
1.70084514046546 3.72159786545976 -6.97049173236520
-1.00000000000000 -5.39081196061740 -5.93886068705738
-5.97049173236520 1.08281115171557 -5.33963185420965
5.97049173236520 -1.08281115171557 -5.33963185420965
1.66921409515764 3.63878671374419 -7.02167183877295
-1.08281115171557 -5.33963185420965 -5.97049173236520
-5.93886068705738 1.00000000000000 -5.39081196061740
5.93886068705738 -1.00000000000000 -5.39081196061740
-1.70084514046546 3.72159786545976 -6.97049173236520
1.70084514046546 -3.72159786545976 -6.97049173236520
-5.97049173236520 -1.08281115171557 -5.33963185420965
-1.66921409515764 3.63878671374419 -7.02167183877295
1.66921409515764 -3.63878671374419 -7.02167183877295
-5.93886068705738 -1.00000000000000 -5.39081196061740
-1.70084514046546 -3.72159786545976 -6.97049173236520
0.0511801064077438 2.63878671374419 -7.63970582752284
-1.66921409515764 -3.63878671374419 -7.02167183877295
-0.0511801064077438 2.63878671374419 -7.63970582752284
0.0511801064077438 -2.63878671374419 -7.63970582752284
-0.0511801064077438 -2.63878671374419 -7.63970582752284

5 75 89 104 33 64
5 21 50 34 61 54
5 28 118 63 12 116
5 90 13 12 116 34
5 14 91 19 50 108
5 94 57 49 90 77
5 20 56 15 60 79
5 9 84 71 11 68
5 4 96 59 17 80
5 97 5 66 99 0
5 35 108 39 32 117
5 42 32 3 84 58
5 80 4 42 98 8
5 44 26 33 64 30
5 99 71 84 58 63
5 119 23 68 103 19
5 41 115 76 20 111
5 70 55 9 92 82
5 31 38 45 52 43
5 79 20 6 112 45
5 55 43 0 96 70
5 102 22 37 114 47
5 111 41 92 82 18
5 57 67 17 80 94
5 48 64 110 28 38
5 52 87 117 15 60
5 71 81 48 66 99
5 107 59 96 70 51
5 108 14 31 118 35
5 51 107 106 14 85
5 74 17 67 75 6
5 17 95 83 5 74
5 11 104 89 1 86
5 8 80 28 38 100
5 106 53 97 69 27
5 30 44 7 72 67
5 53 110 64 30 106
5 78 6 20 111 22
5 98 65 105 57 39
5 13 68 23 49 90
5 65 103 73 42 98
5 88 83 95 46 76
5 96 18 90 77 4
5 22 78 10 62 102
5 118 15 56 110 28
5 112 19 91 83 5
5 10 116 88 2 105
5 32 37 22 73 42
5 93 33 26 109 59
5 49 61 93 29 37
5 36 73 103 19 50
5 67 30 2 105 57
5 81 46 16 101 71
5 104 29 101 71 11
5 116 28 80 94 10
5 39 98 113 7 72
5 24 100 27 44 115
5 38 48 81 40 31
5 7 101 29 37 114
5 76 88 116 34 61
5 100 8 21 119 24
5 47 102 52 43 113
5 5 112 77 4 97
5 25 85 94 10 62
5 117 35 74 93 29
5 113 47 86 81 40
5 2 86 47 25 91
5 23 114 51 21 119
5 72 39 108 53 16
5 86 11 79 88 2
5 69 58 25 91 83
5 58 42 4 97 69
5 19 119 75 6 112
5 103 45 38 100 65
5 29 117 87 13 104
5 87 77 112 45 52
5 26 60 69 27 44
5 15 109 40 31 118
5 34 90 18 56 110
5 92 1 54 107 3
5 83 69 60 79 88
5 46 54 1 86 81
5 105 10 78 89 1
5 16 72 82 18 56
5 82 70 36 78 89
5 89 82 72 67 75
5 91 2 30 106 14
5 45 79 11 68 103
5 3 92 41 26 109
5 54 21 8 95 46
5 37 49 57 39 32
5 56 16 46 76 20
5 73 63 118 35 36
5 115 24 62 102 41
5 63 99 111 22 73
5 59 93 61 54 107
5 84 27 100 65 9
5 64 75 119 24 48
5 101 0 43 113 7
5 12 62 24 48 66
5 33 66 5 74 93
5 27 106 107 3 84
5 43 31 14 85 55
5 109 3 32 117 15
5 66 12 13 104 33
5 77 94 85 55 87
5 50 36 70 51 21
5 114 7 44 115 23
5 18 111 99 0 96
5 0 97 53 16 101
5 40 113 98 8 95
5 60 52 102 41 26
5 62 25 58 63 12
5 1 105 65 9 92
5 6 74 35 36 78
5 68 9 55 87 13
5 61 76 115 23 49
5 110 34 50 108 53
5 95 40 109 59 17
5 85 51 114 47 25
