OFF
120 120 0

0.0512759428676516 2.63479049151064 7.63349070723175
-0.0512759428676516 2.63479049151064 7.63349070723175
0.0512759428676516 -2.63479049151064 7.63349070723175
1.66930993161755 3.63479049151064 7.01545671848186
-0.0512759428676516 -2.63479049151064 7.63349070723175
1.70100020711495 3.71775670987570 6.96418077561421
5.93249050011680 1.00000000000000 5.38706664149324
-1.66930993161755 3.63479049151064 7.01545671848186
1.66930993161755 -3.63479049151064 7.01545671848186
5.96418077561421 1.08296621836506 5.33579069862559
-1.70100020711495 3.71775670987570 6.96418077561421
1.70100020711495 -3.71775670987570 6.96418077561421
-5.93249050011680 1.00000000000000 5.38706664149324
5.93249050011680 -1.00000000000000 5.38706664149324
-1.66930993161755 -3.63479049151064 7.01545671848186
1.08296621836506 5.33579069862559 5.96418077561421
-5.96418077561421 1.08296621836506 5.33579069862559
5.96418077561421 -1.08296621836506 5.33579069862559
-1.70100020711495 -3.71775670987570 6.96418077561421
1.00000000000000 5.38706664149324 5.93249050011680
-5.93249050011680 -1.00000000000000 5.38706664149324
3.71775670987570 6.96418077561421 1.70100020711495
6.96418077561421 1.70100020711495 3.71775670987570
-1.08296621836506 5.33579069862559 5.96418077561421
1.08296621836506 -5.33579069862559 5.96418077561421
-5.96418077561421 -1.08296621836506 5.33579069862559
3.63479049151064 7.01545671848186 1.66930993161755
7.01545671848186 1.66930993161755 3.63479049151064
-1.00000000000000 5.38706664149324 5.93249050011680
1.00000000000000 -5.38706664149324 5.93249050011680
5.33579069862559 5.96418077561421 1.08296621836506
-3.71775670987570 6.96418077561421 1.70100020711495
3.71775670987570 -6.96418077561421 1.70100020711495
-6.96418077561421 1.70100020711495 3.71775670987570
6.96418077561421 -1.70100020711495 3.71775670987570
-1.08296621836506 -5.33579069862559 5.96418077561421
5.38706664149324 5.93249050011680 1.00000000000000
-3.63479049151064 7.01545671848186 1.66930993161755
3.63479049151064 -7.01545671848186 1.66930993161755
-7.01545671848186 1.66930993161755 3.63479049151064
7.01545671848186 -1.66930993161755 3.63479049151064
-1.00000000000000 -5.38706664149324 5.93249050011680
-5.33579069862559 5.96418077561421 1.08296621836506
5.33579069862559 -5.96418077561421 1.08296621836506
-3.71775670987570 -6.96418077561421 1.70100020711495
-6.96418077561421 -1.70100020711495 3.71775670987570
2.63479049151064 7.63349070723175 0.0512759428676516
7.63349070723175 0.0512759428676516 2.63479049151064
-5.38706664149324 5.93249050011680 1.00000000000000
5.38706664149324 -5.93249050011680 1.00000000000000
-3.63479049151064 -7.01545671848186 1.66930993161755
-7.01545671848186 -1.66930993161755 3.63479049151064
2.63479049151064 7.63349070723175 -0.0512759428676516
7.63349070723175 -0.0512759428676516 2.63479049151064
-5.33579069862559 -5.96418077561421 1.08296621836506
-2.63479049151064 7.63349070723175 0.0512759428676516
7.63349070723175 0.0512759428676516 -2.63479049151064
5.38706664149324 5.93249050011680 -1.00000000000000
2.63479049151064 -7.63349070723175 0.0512759428676516
-7.63349070723175 0.0512759428676516 2.63479049151064
-5.38706664149324 -5.93249050011680 1.00000000000000
-2.63479049151064 7.63349070723175 -0.0512759428676516
7.63349070723175 -0.0512759428676516 -2.63479049151064
5.33579069862559 5.96418077561421 -1.08296621836506
2.63479049151064 -7.63349070723175 -0.0512759428676516
-7.63349070723175 -0.0512759428676516 2.63479049151064
7.01545671848186 1.66930993161755 -3.63479049151064
-2.63479049151064 -7.63349070723175 0.0512759428676516
-7.63349070723175 0.0512759428676516 -2.63479049151064
-5.38706664149324 5.93249050011680 -1.00000000000000
5.38706664149324 -5.93249050011680 -1.00000000000000
3.63479049151064 7.01545671848186 -1.66930993161755
6.96418077561421 1.70100020711495 -3.71775670987570
-2.63479049151064 -7.63349070723175 -0.0512759428676516
-7.63349070723175 -0.0512759428676516 -2.63479049151064
-5.33579069862559 5.96418077561421 -1.08296621836506
5.33579069862559 -5.96418077561421 -1.08296621836506
3.71775670987570 6.96418077561421 -1.70100020711495
-7.01545671848186 1.66930993161755 -3.63479049151064
7.01545671848186 -1.66930993161755 -3.63479049151064
1.00000000000000 5.38706664149324 -5.93249050011680
-5.38706664149324 -5.93249050011680 -1.00000000000000
-3.63479049151064 7.01545671848186 -1.66930993161755
3.63479049151064 -7.01545671848186 -1.66930993161755
-6.96418077561421 1.70100020711495 -3.71775670987570
6.96418077561421 -1.70100020711495 -3.71775670987570
1.08296621836506 5.33579069862559 -5.96418077561421
-5.33579069862559 -5.96418077561421 -1.08296621836506
-3.71775670987570 6.96418077561421 -1.70100020711495
3.71775670987570 -6.96418077561421 -1.70100020711495
-7.01545671848186 -1.66930993161755 -3.63479049151064
-1.00000000000000 5.38706664149324 -5.93249050011680
1.00000000000000 -5.38706664149324 -5.93249050011680
5.96418077561421 1.08296621836506 -5.33579069862559
-3.63479049151064 -7.01545671848186 -1.66930993161755
-6.96418077561421 -1.70100020711495 -3.71775670987570
-1.08296621836506 5.33579069862559 -5.96418077561421
1.08296621836506 -5.33579069862559 -5.96418077561421
5.93249050011680 1.00000000000000 -5.38706664149324
-3.71775670987570 -6.96418077561421 -1.70100020711495
1.70100020711495 3.71775670987570 -6.96418077561421
-1.00000000000000 -5.38706664149324 -5.93249050011680
-5.96418077561421 1.08296621836506 -5.33579069862559
5.96418077561421 -1.08296621836506 -5.33579069862559
1.66930993161755 3.63479049151064 -7.01545671848186
-1.08296621836506 -5.33579069862559 -5.96418077561421
-5.93249050011680 1.00000000000000 -5.38706664149324
5.93249050011680 -1.00000000000000 -5.38706664149324
-1.70100020711495 3.71775670987570 -6.96418077561421
1.70100020711495 -3.71775670987570 -6.96418077561421
-5.96418077561421 -1.08296621836506 -5.33579069862559
-1.66930993161755 3.63479049151064 -7.01545671848186
1.66930993161755 -3.63479049151064 -7.01545671848186
-5.93249050011680 -1.00000000000000 -5.38706664149324
-1.70100020711495 -3.71775670987570 -6.96418077561421
0.0512759428676516 2.63479049151064 -7.63349070723175
-1.66930993161755 -3.63479049151064 -7.01545671848186
-0.0512759428676516 2.63479049151064 -7.63349070723175
0.0512759428676516 -2.63479049151064 -7.63349070723175
-0.0512759428676516 -2.63479049151064 -7.63349070723175

5 75 83 91 25 58
5 21 44 27 69 60
5 28 119 21 51 114
5 90 17 59 109 40
5 14 96 0 99 111
5 94 63 58 84 71
5 20 62 10 94 85
5 9 78 36 35 74
5 4 91 25 47 86
5 97 3 107 54 1
5 35 111 20 76 115
5 42 38 28 110 64
5 80 2 88 79 11
5 44 21 51 70 36
5 99 77 90 49 57
5 119 28 110 56 15
5 41 117 32 39 108
5 70 61 34 116 88
5 31 32 39 57 49
5 79 25 47 114 51
5 55 49 23 115 76
5 102 27 69 97 53
5 111 35 118 31 14
5 57 73 22 111 99
5 48 58 84 3 32
5 52 81 86 1 54
5 71 87 55 85 94
5 107 65 100 38 45
5 108 18 82 92 41
5 51 103 68 11 79
5 74 13 87 55 9
5 17 90 49 23 68
5 11 100 38 28 80
5 8 86 1 89 104
5 106 47 114 37 22
5 30 50 19 103 73
5 53 113 43 52 102
5 78 9 65 100 27
5 98 59 109 26 33
5 13 74 5 83 95
5 65 107 54 61 93
5 88 89 78 36 70
5 96 14 106 30 2
5 22 84 3 107 106
5 118 19 103 68 23
5 112 15 117 32 3
5 10 114 37 29 101
5 32 31 40 81 48
5 93 39 57 105 65
5 49 55 85 14 31
5 36 67 72 7 44
5 67 36 35 118 63
5 81 52 45 112 77
5 104 24 119 21 8
5 116 23 115 44 7
5 39 93 74 5 66
5 24 104 13 87 117
5 38 42 73 22 37
5 7 105 2 88 116
5 76 82 92 9 55
5 100 11 71 101 29
5 47 106 30 64 110
5 5 109 26 41 92
5 25 79 60 15 56
5 117 41 102 62 24
5 113 53 108 50 34
5 2 80 17 59 96
5 23 116 12 63 118
5 72 33 104 13 12
5 86 8 98 42 4
5 69 64 33 104 89
5 58 48 24 119 75
5 19 118 31 40 109
5 103 51 70 96 59
5 29 115 44 27 100
5 87 71 101 16 46
5 26 54 61 34 50
5 15 112 6 75 119
5 34 95 8 98 113
5 92 0 99 66 5
5 83 75 67 72 82
5 46 60 15 117 87
5 105 7 113 43 0
5 16 66 48 24 62
5 82 76 46 95 83
5 89 88 79 60 69
5 91 4 77 90 18
5 45 85 14 106 107
5 3 97 4 77 112
5 54 26 41 102 52
5 37 43 52 45 38
5 56 12 63 58 25
5 73 57 105 2 30
5 115 29 93 74 35
5 63 94 80 17 67
5 59 98 42 73 103
5 84 22 111 20 6
5 64 69 97 4 42
5 101 1 89 78 10
5 12 56 18 82 72
5 33 72 7 113 98
5 27 102 62 10 78
5 43 37 29 93 61
5 109 5 83 91 19
5 66 16 53 108 39
5 77 99 66 48 81
5 50 30 64 33 26
5 114 10 94 80 28
5 18 108 50 19 91
5 0 92 9 65 105
5 40 110 56 18 90
5 60 46 95 8 21
5 62 20 76 46 16
5 1 101 16 53 97
5 6 68 11 71 84
5 68 6 75 67 17
5 61 70 96 0 43
5 110 40 81 86 47
5 95 34 116 12 13
5 85 45 112 6 20
