OFF
120 120 0

0.114659120669633 1.22810714457621 5.52336855428395
-0.114659120669633 1.22810714457621 5.52336855428395
0.114659120669633 -1.22810714457621 5.52336855428395
1.73269310941953 2.22810714457621 4.90533456553406
-0.114659120669633 -1.22810714457621 5.52336855428395
1.80355634311354 2.41362949893985 4.79067544486442
3.71981221117042 1.00000000000000 4.14632260835938
-1.73269310941953 2.22810714457621 4.90533456553406
1.73269310941953 -2.22810714457621 4.90533456553406
3.79067544486443 1.18552235436364 4.03166348768975
-1.80355634311354 2.41362949893985 4.79067544486442
1.80355634311354 -2.41362949893985 4.79067544486442
-3.71981221117042 1.00000000000000 4.14632260835938
3.71981221117042 -1.00000000000000 4.14632260835938
-1.73269310941953 -2.22810714457621 4.90533456553406
1.18552235436364 4.03166348768975 3.79067544486443
-3.79067544486443 1.18552235436364 4.03166348768975
3.79067544486443 -1.18552235436364 4.03166348768975
-1.80355634311354 -2.41362949893985 4.79067544486442
1.00000000000000 4.14632260835938 3.71981221117042
-3.71981221117042 -1.00000000000000 4.14632260835938
2.41362949893985 4.79067544486442 1.80355634311354
4.79067544486442 1.80355634311354 2.41362949893985
-1.18552235436364 4.03166348768975 3.79067544486443
1.18552235436364 -4.03166348768975 3.79067544486443
-3.79067544486443 -1.18552235436364 4.03166348768975
2.22810714457621 4.90533456553406 1.73269310941953
4.90533456553406 1.73269310941953 2.22810714457621
-1.00000000000000 4.14632260835938 3.71981221117042
1.00000000000000 -4.14632260835938 3.71981221117042
4.03166348768975 3.79067544486443 1.18552235436364
-2.41362949893985 4.79067544486442 1.80355634311354
2.41362949893985 -4.79067544486442 1.80355634311354
-4.79067544486442 1.80355634311354 2.41362949893985
4.79067544486442 -1.80355634311354 2.41362949893985
-1.18552235436364 -4.03166348768975 3.79067544486443
4.14632260835938 3.71981221117042 1.00000000000000
-2.22810714457621 4.90533456553406 1.73269310941953
2.22810714457621 -4.90533456553406 1.73269310941953
-4.90533456553406 1.73269310941953 2.22810714457621
4.90533456553406 -1.73269310941953 2.22810714457621
-1.00000000000000 -4.14632260835938 3.71981221117042
-4.03166348768975 3.79067544486443 1.18552235436364
4.03166348768975 -3.79067544486443 1.18552235436364
-2.41362949893985 -4.79067544486442 1.80355634311354
-4.79067544486442 -1.80355634311354 2.41362949893985
1.22810714457621 5.52336855428395 0.114659120669633
5.52336855428395 0.114659120669633 1.22810714457621
-4.14632260835938 3.71981221117042 1.00000000000000
4.14632260835938 -3.71981221117042 1.00000000000000
-2.22810714457621 -4.90533456553406 1.73269310941953
-4.90533456553406 -1.73269310941953 2.22810714457621
1.22810714457621 5.52336855428395 -0.114659120669633
5.52336855428395 -0.114659120669633 1.22810714457621
-4.03166348768975 -3.79067544486443 1.18552235436364
-1.22810714457621 5.52336855428395 0.114659120669633
5.52336855428395 0.114659120669633 -1.22810714457621
4.14632260835938 3.71981221117042 -1.00000000000000
1.22810714457621 -5.52336855428395 0.114659120669633
-5.52336855428395 0.114659120669633 1.22810714457621
-4.14632260835938 -3.71981221117042 1.00000000000000
-1.22810714457621 5.52336855428395 -0.114659120669633
5.52336855428395 -0.114659120669633 -1.22810714457621
4.03166348768975 3.79067544486443 -1.18552235436364
1.22810714457621 -5.52336855428395 -0.114659120669633
-5.52336855428395 -0.114659120669633 1.22810714457621
4.90533456553406 1.73269310941953 -2.22810714457621
-1.22810714457621 -5.52336855428395 0.114659120669633
-5.52336855428395 0.114659120669633 -1.22810714457621
-4.14632260835938 3.71981221117042 -1.00000000000000
4.14632260835938 -3.71981221117042 -1.00000000000000
2.22810714457621 4.90533456553406 -1.73269310941953
4.79067544486442 1.80355634311354 -2.41362949893985
-1.22810714457621 -5.52336855428395 -0.114659120669633
-5.52336855428395 -0.114659120669633 -1.22810714457621
-4.03166348768975 3.79067544486443 -1.18552235436364
4.03166348768975 -3.79067544486443 -1.18552235436364
2.41362949893985 4.79067544486442 -1.80355634311354
-4.90533456553406 1.73269310941953 -2.22810714457621
4.90533456553406 -1.73269310941953 -2.22810714457621
1.00000000000000 4.14632260835938 -3.71981221117042
-4.14632260835938 -3.71981221117042 -1.00000000000000
-2.22810714457621 4.90533456553406 -1.73269310941953
2.22810714457621 -4.90533456553406 -1.73269310941953
-4.79067544486442 1.80355634311354 -2.41362949893985
4.79067544486442 -1.80355634311354 -2.41362949893985
1.18552235436364 4.03166348768975 -3.79067544486443
-4.03166348768975 -3.79067544486443 -1.18552235436364
-2.41362949893985 4.79067544486442 -1.80355634311354
2.41362949893985 -4.79067544486442 -1.80355634311354
-4.90533456553406 -1.73269310941953 -2.22810714457621
-1.00000000000000 4.14632260835938 -3.71981221117042
1.00000000000000 -4.14632260835938 -3.71981221117042
3.79067544486443 1.18552235436364 -4.03166348768975
-2.22810714457621 -4.90533456553406 -1.73269310941953
-4.79067544486442 -1.80355634311354 -2.41362949893985
-1.18552235436364 4.03166348768975 -3.79067544486443
1.18552235436364 -4.03166348768975 -3.79067544486443
3.71981221117042 1.00000000000000 -4.14632260835938
-2.41362949893985 -4.79067544486442 -1.80355634311354
1.80355634311354 2.41362949893985 -4.79067544486442
-1.00000000000000 -4.14632260835938 -3.71981221117042
-3.79067544486443 1.18552235436364 -4.03166348768975
3.79067544486443 -1.18552235436364 -4.03166348768975
1.73269310941953 2.22810714457621 -4.90533456553406
-1.18552235436364 -4.03166348768975 -3.79067544486443
-3.71981221117042 1.00000000000000 -4.14632260835938
3.71981221117042 -1.00000000000000 -4.14632260835938
-1.80355634311354 2.41362949893985 -4.79067544486442
1.80355634311354 -2.41362949893985 -4.79067544486442
-3.79067544486443 -1.18552235436364 -4.03166348768975
-1.73269310941953 2.22810714457621 -4.90533456553406
1.73269310941953 -2.22810714457621 -4.90533456553406
-3.71981221117042 -1.00000000000000 -4.14632260835938
-1.80355634311354 -2.41362949893985 -4.79067544486442
0.114659120669633 1.22810714457621 -5.52336855428395
-1.73269310941953 -2.22810714457621 -4.90533456553406
-0.114659120669633 1.22810714457621 -5.52336855428395
0.114659120669633 -1.22810714457621 -5.52336855428395
-0.114659120669633 -1.22810714457621 -5.52336855428395

5 75 83 95 46 76
5 21 44 7 72 67
5 28 119 75 6 112
5 90 17 67 75 6
5 14 96 59 17 80
5 94 63 118 35 36
5 20 62 24 48 66
5 9 78 10 62 102
5 4 91 19 50 108
5 97 3 32 117 15
5 35 111 99 0 96
5 42 38 45 52 43
5 80 2 30 106 14
5 44 21 8 95 46
5 99 77 112 45 52
5 119 28 80 94 10
5 41 117 87 13 104
5 70 61 93 29 37
5 31 32 3 84 58
5 79 25 58 63 12
5 55 49 57 39 32
5 102 27 100 65 9
5 111 35 74 93 29
5 57 73 103 19 50
5 48 58 25 91 83
5 52 81 48 66 99
5 71 87 117 15 60
5 107 65 105 57 39
5 108 18 90 77 4
5 51 103 73 42 98
5 74 13 12 116 34
5 17 90 18 56 110
5 11 100 27 44 115
5 8 86 47 25 91
5 106 47 86 81 40
5 30 50 34 61 54
5 53 113 98 8 95
5 78 9 55 87 13
5 98 59 96 70 51
5 13 74 35 36 78
5 65 107 106 14 85
5 88 89 104 33 64
5 96 14 31 118 35
5 22 84 71 11 68
5 118 19 91 83 5
5 112 15 56 110 28
5 10 114 51 21 119
5 32 31 14 85 55
5 93 39 108 53 16
5 49 55 9 92 82
5 36 67 17 80 94
5 67 36 70 51 21
5 81 52 102 41 26
5 104 24 62 102 41
5 116 23 68 103 19
5 39 93 61 54 107
5 24 104 89 1 86
5 38 42 4 97 69
5 7 105 65 9 92
5 76 82 72 67 75
5 100 11 79 88 2
5 47 106 107 3 84
5 5 109 40 31 118
5 25 79 11 68 103
5 117 41 92 82 18
5 113 53 97 69 27
5 2 80 28 38 100
5 23 116 88 2 105
5 72 33 26 109 59
5 86 8 21 119 24
5 69 64 110 28 38
5 58 48 81 40 31
5 19 118 63 12 116
5 103 51 114 47 25
5 29 115 76 20 111
5 87 71 84 58 63
5 26 54 1 86 81
5 15 112 77 4 97
5 34 95 83 5 74
5 92 0 43 113 7
5 83 75 119 24 48
5 46 60 69 27 44
5 105 7 44 115 23
5 16 66 5 74 93
5 82 76 115 23 49
5 89 88 116 34 61
5 91 4 42 98 8
5 45 85 94 10 62
5 3 97 53 16 101
5 54 26 33 64 30
5 37 43 0 96 70
5 56 12 13 104 33
5 73 57 49 90 77
5 115 29 101 71 11
5 63 94 85 55 87
5 59 98 113 7 72
5 84 22 37 114 47
5 64 69 60 79 88
5 101 1 54 107 3
5 12 56 15 60 79
5 33 72 82 18 56
5 27 102 52 43 113
5 43 37 22 73 42
5 109 5 66 99 0
5 66 16 46 76 20
5 77 99 111 22 73
5 50 30 2 105 57
5 114 10 78 89 1
5 18 108 39 32 117
5 0 92 41 26 109
5 40 110 64 30 106
5 60 46 16 101 71
5 62 20 6 112 45
5 1 101 29 37 114
5 6 68 23 49 90
5 68 6 20 111 22
5 61 70 36 78 89
5 110 40 109 59 17
5 95 34 50 108 53
5 85 45 38 100 65
