OFF
120 120 0

0.118466325696347 0.0767577526514791 3.67041349738529
-0.118466325696347 0.0767577526514791 3.67041349738529
0.118466325696347 -0.0767577526514791 3.67041349738529
1.73650031444624 1.07675775265148 3.05237950863540
-0.118466325696347 -0.0767577526514791 3.67041349738529
1.80971653024890 1.26844029415048 2.93391318293905
1.86069696713639 1.00000000000000 3.00494060859673
-1.73650031444624 1.07675775265148 3.05237950863540
1.73650031444624 -1.07675775265148 3.05237950863540
1.93391318293905 1.19168254149900 2.88647428290038
-1.80971653024890 1.26844029415048 2.93391318293905
1.80971653024890 -1.26844029415048 2.93391318293905
-1.86069696713639 1.00000000000000 3.00494060859673
1.86069696713639 -1.00000000000000 3.00494060859673
-1.73650031444624 -1.07675775265148 3.05237950863540
1.19168254149900 2.88647428290038 1.93391318293905
-1.93391318293905 1.19168254149900 2.88647428290038
1.93391318293905 -1.19168254149900 2.88647428290038
-1.80971653024890 -1.26844029415048 2.93391318293905
1.00000000000000 3.00494060859673 1.86069696713639
-1.86069696713639 -1.00000000000000 3.00494060859673
1.26844029415048 2.93391318293905 1.80971653024890
2.93391318293905 1.80971653024890 1.26844029415048
-1.19168254149900 2.88647428290038 1.93391318293905
1.19168254149900 -2.88647428290038 1.93391318293905
-1.93391318293905 -1.19168254149900 2.88647428290038
1.07675775265148 3.05237950863540 1.73650031444624
3.05237950863540 1.73650031444624 1.07675775265148
-1.00000000000000 3.00494060859673 1.86069696713639
1.00000000000000 -3.00494060859673 1.86069696713639
2.88647428290038 1.93391318293905 1.19168254149900
-1.26844029415048 2.93391318293905 1.80971653024890
1.26844029415048 -2.93391318293905 1.80971653024890
-2.93391318293905 1.80971653024890 1.26844029415048
2.93391318293905 -1.80971653024890 1.26844029415048
-1.19168254149900 -2.88647428290038 1.93391318293905
3.00494060859673 1.86069696713639 1.00000000000000
-1.07675775265148 3.05237950863540 1.73650031444624
1.07675775265148 -3.05237950863540 1.73650031444624
-3.05237950863540 1.73650031444624 1.07675775265148
3.05237950863540 -1.73650031444624 1.07675775265148
-1.00000000000000 -3.00494060859673 1.86069696713639
-2.88647428290038 1.93391318293905 1.19168254149900
2.88647428290038 -1.93391318293905 1.19168254149900
-1.26844029415048 -2.93391318293905 1.80971653024890
-2.93391318293905 -1.80971653024890 1.26844029415048
0.0767577526514791 3.67041349738529 0.118466325696347
3.67041349738529 0.118466325696347 0.0767577526514791
-3.00494060859673 1.86069696713639 1.00000000000000
3.00494060859673 -1.86069696713639 1.00000000000000
-1.07675775265148 -3.05237950863540 1.73650031444624
-3.05237950863540 -1.73650031444624 1.07675775265148
0.0767577526514791 3.67041349738529 -0.118466325696347
3.67041349738529 -0.118466325696347 0.0767577526514791
-2.88647428290038 -1.93391318293905 1.19168254149900
-0.0767577526514791 3.67041349738529 0.118466325696347
3.67041349738529 0.118466325696347 -0.0767577526514791
3.00494060859673 1.86069696713639 -1.00000000000000
0.0767577526514791 -3.67041349738529 0.118466325696347
-3.67041349738529 0.118466325696347 0.0767577526514791
-3.00494060859673 -1.86069696713639 1.00000000000000
-0.0767577526514791 3.67041349738529 -0.118466325696347
3.67041349738529 -0.118466325696347 -0.0767577526514791
2.88647428290038 1.93391318293905 -1.19168254149900
0.0767577526514791 -3.67041349738529 -0.118466325696347
-3.67041349738529 -0.118466325696347 0.0767577526514791
3.05237950863540 1.73650031444624 -1.07675775265148
-0.0767577526514791 -3.67041349738529 0.118466325696347
-3.67041349738529 0.118466325696347 -0.0767577526514791
-3.00494060859673 1.86069696713639 -1.00000000000000
3.00494060859673 -1.86069696713639 -1.00000000000000
1.07675775265148 3.05237950863540 -1.73650031444624
2.93391318293905 1.80971653024890 -1.26844029415048
-0.0767577526514791 -3.67041349738529 -0.118466325696347
-3.67041349738529 -0.118466325696347 -0.0767577526514791
-2.88647428290038 1.93391318293905 -1.19168254149900
2.88647428290038 -1.93391318293905 -1.19168254149900
1.26844029415048 2.93391318293905 -1.80971653024890
-3.05237950863540 1.73650031444624 -1.07675775265148
3.05237950863540 -1.73650031444624 -1.07675775265148
1.00000000000000 3.00494060859673 -1.86069696713639
-3.00494060859673 -1.86069696713639 -1.00000000000000
-1.07675775265148 3.05237950863540 -1.73650031444624
1.07675775265148 -3.05237950863540 -1.73650031444624
-2.93391318293905 1.80971653024890 -1.26844029415048
2.93391318293905 -1.80971653024890 -1.26844029415048
1.19168254149900 2.88647428290038 -1.93391318293905
-2.88647428290038 -1.93391318293905 -1.19168254149900
-1.26844029415048 2.93391318293905 -1.80971653024890
1.26844029415048 -2.93391318293905 -1.80971653024890
-3.05237950863540 -1.73650031444624 -1.07675775265148
-1.00000000000000 3.00494060859673 -1.86069696713639
1.00000000000000 -3.00494060859673 -1.86069696713639
1.93391318293905 1.19168254149900 -2.88647428290038
-1.07675775265148 -3.05237950863540 -1.73650031444624
-2.93391318293905 -1.80971653024890 -1.26844029415048
-1.19168254149900 2.88647428290038 -1.93391318293905
1.19168254149900 -2.88647428290038 -1.93391318293905
1.86069696713639 1.00000000000000 -3.00494060859673
-1.26844029415048 -2.93391318293905 -1.80971653024890
1.80971653024890 1.26844029415048 -2.93391318293905
-1.00000000000000 -3.00494060859673 -1.86069696713639
-1.93391318293905 1.19168254149900 -2.88647428290038
1.93391318293905 -1.19168254149900 -2.88647428290038
1.73650031444624 1.07675775265148 -3.05237950863540
-1.19168254149900 -2.88647428290038 -1.93391318293905
-1.86069696713639 1.00000000000000 -3.00494060859673
1.86069696713639 -1.00000000000000 -3.00494060859673
-1.80971653024890 1.26844029415048 -2.93391318293905
1.80971653024890 -1.26844029415048 -2.93391318293905
-1.93391318293905 -1.19168254149900 -2.88647428290038
-1.73650031444624 1.07675775265148 -3.05237950863540
1.73650031444624 -1.07675775265148 -3.05237950863540
-1.86069696713639 -1.00000000000000 -3.00494060859673
-1.80971653024890 -1.26844029415048 -2.93391318293905
0.118466325696347 0.0767577526514791 -3.67041349738529
-1.73650031444624 -1.07675775265148 -3.05237950863540
-0.118466325696347 0.0767577526514791 -3.67041349738529
0.118466325696347 -0.0767577526514791 -3.67041349738529
-0.118466325696347 -0.0767577526514791 -3.67041349738529

5 75 4 79 33 34
5 21 102 64 61 105
5 28 44 103 12 83
5 90 98 5 116 36
5 14 92 77 50 98
5 94 48 22 90 19
5 20 114 63 60 104
5 9 67 111 11 114
5 4 79 106 17 118
5 97 65 26 99 31
5 35 62 82 32 77
5 42 119 40 84 85
5 80 89 25 98 50
5 44 103 61 64 86
5 99 17 55 58 15
5 119 40 12 103 2
5 41 31 93 20 71
5 70 95 23 92 39
5 31 93 73 52 97
5 79 106 10 112 48
5 55 116 29 96 73
5 102 64 3 114 11
5 111 19 32 82 13
5 57 84 35 80 51
5 48 22 97 28 79
5 52 8 101 15 58
5 71 49 45 66 41
5 107 11 42 70 7
5 108 76 0 118 17
5 51 6 100 14 57
5 74 71 49 75 56
5 17 55 116 5 108
5 11 42 119 1 102
5 8 101 88 38 106
5 106 10 43 69 8
5 30 118 51 72 95
5 53 37 81 30 59
5 78 107 11 111 49
5 98 5 54 57 14
5 13 109 75 49 111
5 65 26 70 42 47
5 88 9 67 46 24
5 96 47 50 77 32
5 22 97 65 62 87
5 118 51 6 110 4
5 112 41 31 83 12
5 10 43 115 2 103
5 32 110 52 73 96
5 93 73 7 109 18
5 49 45 96 29 78
5 36 33 105 19 90
5 67 111 19 105 61
5 81 85 15 101 27
5 104 28 44 71 20
5 116 29 21 94 6
5 39 13 109 7 70
5 24 74 71 44 88
5 38 57 84 40 91
5 7 80 89 37 107
5 76 0 78 34 33
5 100 87 1 119 25
5 47 50 69 43 65
5 5 54 117 4 110
5 25 46 112 10 100
5 117 27 20 93 0
5 113 18 30 81 3
5 2 90 98 25 119
5 23 56 94 21 89
5 72 24 74 53 54
5 86 59 38 88 44
5 69 72 24 91 40
5 58 104 28 97 52
5 19 32 110 6 94
5 103 61 14 100 10
5 29 21 102 13 82
5 87 1 66 45 22
5 26 70 95 27 101
5 15 68 83 31 99
5 34 86 59 56 75
5 92 77 16 107 37
5 83 36 33 79 28
5 46 112 41 86 64
5 105 53 37 89 21
5 16 58 104 18 109
5 82 60 34 78 29
5 89 25 46 67 23
5 91 99 17 106 38
5 45 96 47 68 63
5 3 91 99 26 113
5 54 117 27 95 72
5 37 81 85 39 92
5 56 94 48 76 74
5 73 7 80 35 55
5 115 39 13 102 1
5 63 2 90 22 45
5 59 38 57 54 53
5 84 35 62 65 43
5 64 3 91 24 46
5 101 88 9 113 26
5 12 108 76 48 112
5 33 105 53 74 76
5 27 20 114 3 81
5 43 115 39 85 84
5 109 75 4 117 16
5 66 113 18 104 60
5 77 16 58 55 35
5 50 69 72 51 80
5 114 63 2 115 9
5 18 30 118 0 93
5 0 78 107 16 117
5 40 12 108 8 69
5 60 34 86 41 66
5 62 82 60 63 68
5 1 66 113 9 115
5 6 100 87 36 116
5 68 83 36 87 62
5 61 14 92 23 67
5 110 52 8 108 5
5 95 23 56 59 30
5 85 15 68 47 42
