OFF
120 120 0

0.162742417654520 1.61803398874989 6.28016714708055
-0.162742417654520 1.61803398874989 6.28016714708055
0.162742417654520 -1.61803398874989 6.28016714708055
1.78077640640442 2.61803398874989 5.66213315833066
-0.162742417654520 -1.61803398874989 6.28016714708055
1.88135675192624 2.88135675192624 5.49939074067613
4.39881039515431 1.00000000000000 4.66213315833066
-1.78077640640442 2.61803398874989 5.66213315833066
1.78077640640442 -2.61803398874989 5.66213315833066
4.49939074067613 1.26332276317634 4.49939074067613
-1.88135675192624 2.88135675192624 5.49939074067613
1.88135675192624 -2.88135675192624 5.49939074067613
-4.39881039515431 1.00000000000000 4.66213315833066
4.39881039515431 -1.00000000000000 4.66213315833066
-1.78077640640442 -2.61803398874989 5.66213315833066
1.26332276317634 4.49939074067613 4.49939074067613
-4.49939074067613 1.26332276317634 4.49939074067613
4.49939074067613 -1.26332276317634 4.49939074067613
-1.88135675192624 -2.88135675192624 5.49939074067613
1.00000000000000 4.66213315833066 4.39881039515431
-4.39881039515431 -1.00000000000000 4.66213315833066
2.88135675192624 5.49939074067613 1.88135675192624
5.49939074067613 1.88135675192624 2.88135675192624
-1.26332276317634 4.49939074067613 4.49939074067613
1.26332276317634 -4.49939074067613 4.49939074067613
-4.49939074067613 -1.26332276317634 4.49939074067613
2.61803398874989 5.66213315833066 1.78077640640442
5.66213315833066 1.78077640640442 2.61803398874989
-1.00000000000000 4.66213315833066 4.39881039515431
1.00000000000000 -4.66213315833066 4.39881039515431
4.49939074067613 4.49939074067613 1.26332276317634
-2.88135675192624 5.49939074067613 1.88135675192624
2.88135675192624 -5.49939074067613 1.88135675192624
-5.49939074067613 1.88135675192624 2.88135675192624
5.49939074067613 -1.88135675192624 2.88135675192624
-1.26332276317634 -4.49939074067613 4.49939074067613
4.66213315833066 4.39881039515431 1.00000000000000
-2.61803398874989 5.66213315833066 1.78077640640442
2.61803398874989 -5.66213315833066 1.78077640640442
-5.66213315833066 1.78077640640442 2.61803398874989
5.66213315833066 -1.78077640640442 2.61803398874989
-1.00000000000000 -4.66213315833066 4.39881039515431
-4.49939074067613 4.49939074067613 1.26332276317634
4.49939074067613 -4.49939074067613 1.26332276317634
-2.88135675192624 -5.49939074067613 1.88135675192624
-5.49939074067613 -1.88135675192624 2.88135675192624
1.61803398874989 6.28016714708055 0.162742417654520
6.28016714708055 0.162742417654520 1.61803398874989
-4.66213315833066 4.39881039515431 1.00000000000000
4.66213315833066 -4.39881039515431 1.00000000000000
-2.61803398874989 -5.66213315833066 1.78077640640442
-5.66213315833066 -1.78077640640442 2.61803398874989
1.61803398874989 6.28016714708055 -0.162742417654520
6.28016714708055 -0.162742417654520 1.61803398874989
-4.49939074067613 -4.49939074067613 1.26332276317634
-1.61803398874989 6.28016714708055 0.162742417654520
6.28016714708055 0.162742417654520 -1.61803398874989
4.66213315833066 4.39881039515431 -1.00000000000000
1.61803398874989 -6.28016714708055 0.162742417654520
-6.28016714708055 0.162742417654520 1.61803398874989
-4.66213315833066 -4.39881039515431 1.00000000000000
-1.61803398874989 6.28016714708055 -0.162742417654520
6.28016714708055 -0.162742417654520 -1.61803398874989
4.49939074067613 4.49939074067613 -1.26332276317634
1.61803398874989 -6.28016714708055 -0.162742417654520
-6.28016714708055 -0.162742417654520 1.61803398874989
5.66213315833066 1.78077640640442 -2.61803398874989
-1.61803398874989 -6.28016714708055 0.162742417654520
-6.28016714708055 0.162742417654520 -1.61803398874989
-4.66213315833066 4.39881039515431 -1.00000000000000
4.66213315833066 -4.39881039515431 -1.00000000000000
2.61803398874989 5.66213315833066 -1.78077640640442
5.49939074067613 1.88135675192624 -2.88135675192624
-1.61803398874989 -6.28016714708055 -0.162742417654520
-6.28016714708055 -0.162742417654520 -1.61803398874989
-4.49939074067613 4.49939074067613 -1.26332276317634
4.49939074067613 -4.49939074067613 -1.26332276317634
2.88135675192624 5.49939074067613 -1.88135675192624
-5.66213315833066 1.78077640640442 -2.61803398874989
5.66213315833066 -1.78077640640442 -2.61803398874989
1.00000000000000 4.66213315833066 -4.39881039515431
-4.66213315833066 -4.39881039515431 -1.00000000000000
-2.61803398874989 5.66213315833066 -1.78077640640442
2.61803398874989 -5.66213315833066 -1.78077640640442
-5.49939074067613 1.88135675192624 -2.88135675192624
5.49939074067613 -1.88135675192624 -2.88135675192624
1.26332276317634 4.49939074067613 -4.49939074067613
-4.49939074067613 -4.49939074067613 -1.26332276317634
-2.88135675192624 5.49939074067613 -1.88135675192624
2.88135675192624 -5.49939074067613 -1.88135675192624
-5.66213315833066 -1.78077640640442 -2.61803398874989
-1.00000000000000 4.66213315833066 -4.39881039515431
1.00000000000000 -4.66213315833066 -4.39881039515431
4.49939074067613 1.26332276317634 -4.49939074067613
-2.61803398874989 -5.66213315833066 -1.78077640640442
-5.49939074067613 -1.88135675192624 -2.88135675192624
-1.26332276317634 4.49939074067613 -4.49939074067613
1.26332276317634 -4.49939074067613 -4.49939074067613
4.39881039515431 1.00000000000000 -4.66213315833066
-2.88135675192624 -5.49939074067613 -1.88135675192624
1.88135675192624 2.88135675192624 -5.49939074067613
-1.00000000000000 -4.66213315833066 -4.39881039515431
-4.49939074067613 1.26332276317634 -4.49939074067613
4.49939074067613 -1.26332276317634 -4.49939074067613
1.78077640640442 2.61803398874989 -5.66213315833066
-1.26332276317634 -4.49939074067613 -4.49939074067613
-4.39881039515431 1.00000000000000 -4.66213315833066
4.39881039515431 -1.00000000000000 -4.66213315833066
-1.88135675192624 2.88135675192624 -5.49939074067613
1.88135675192624 -2.88135675192624 -5.49939074067613
-4.49939074067613 -1.26332276317634 -4.49939074067613
-1.78077640640442 2.61803398874989 -5.66213315833066
1.78077640640442 -2.61803398874989 -5.66213315833066
-4.39881039515431 -1.00000000000000 -4.66213315833066
-1.88135675192624 -2.88135675192624 -5.49939074067613
0.162742417654520 1.61803398874989 -6.28016714708055
-1.78077640640442 -2.61803398874989 -5.66213315833066
-0.162742417654520 1.61803398874989 -6.28016714708055
0.162742417654520 -1.61803398874989 -6.28016714708055
-0.162742417654520 -1.61803398874989 -6.28016714708055

5 75 11 92 7 32
5 21 110 35 96 87
5 28 73 117 18 101
5 90 66 11 115 47
5 14 112 88 64 115
5 94 37 72 59 46
5 20 118 53 95 107
5 9 99 69 38 95
5 4 107 82 49 104
5 97 33 6 90 10
5 35 72 106 40 100
5 42 109 29 111 89
5 80 58 0 109 29
5 44 93 15 97 63
5 99 9 86 24 30
5 119 13 37 70 3
5 41 61 119 10 91
5 70 68 52 99 69
5 31 103 24 86 76
5 79 78 18 117 59
5 55 101 40 106 83
5 102 32 36 94 34
5 111 3 44 46 2
5 57 74 64 88 81
5 48 53 67 21 49
5 52 29 90 6 50
5 71 38 95 53 67
5 107 4 74 34 20
5 108 43 25 103 24
5 51 27 109 0 56
5 74 57 8 91 27
5 17 88 81 26 84
5 11 75 93 16 96
5 8 116 77 73 117
5 106 0 56 33 6
5 30 114 41 104 99
5 53 48 116 19 78
5 78 79 5 118 53
5 98 1 68 22 12
5 13 119 65 85 113
5 65 36 112 28 66
5 88 17 97 15 43
5 96 34 20 66 11
5 22 105 75 76 110
5 118 20 26 81 7
5 112 14 21 67 1
5 10 76 110 17 97
5 32 102 23 105 75
5 93 44 48 83 45
5 49 59 46 44 48
5 36 65 58 31 60
5 67 91 27 113 71
5 81 56 61 89 57
5 104 7 32 55 4
5 116 8 31 58 0
5 39 40 100 2 62
5 24 84 98 51 108
5 38 71 33 56 61
5 7 104 99 52 118
5 76 10 91 8 31
5 100 54 17 110 35
5 47 60 111 29 90
5 5 87 103 25 105
5 25 77 70 37 72
5 117 6 50 57 8
5 113 2 62 45 13
5 2 113 71 60 111
5 23 85 113 27 109
5 72 35 42 43 25
5 86 45 13 78 18
5 69 62 73 77 70
5 58 80 39 107 82
5 19 64 115 11 92
5 103 31 60 71 33
5 29 52 118 5 80
5 87 5 80 14 21
5 26 83 45 62 73
5 15 95 107 39 114
5 34 96 87 63 102
5 92 46 2 100 19
5 83 26 84 47 55
5 46 92 51 98 94
5 105 22 12 79 5
5 16 89 57 50 85
5 82 50 85 65 58
5 89 16 96 35 42
5 91 67 1 114 41
5 45 86 76 75 93
5 3 111 89 61 119
5 54 100 19 116 77
5 37 94 34 74 64
5 56 81 7 92 51
5 73 28 66 20 26
5 115 12 38 69 14
5 63 18 101 3 44
5 59 49 104 41 79
5 84 24 30 54 17
5 64 19 78 13 37
5 101 55 4 108 28
5 12 115 47 84 98
5 33 97 63 87 103
5 27 51 108 4 74
5 43 108 28 112 88
5 109 42 9 102 23
5 66 90 10 119 65
5 77 25 105 23 54
5 50 82 22 68 52
5 114 30 16 93 15
5 18 63 102 9 86
5 0 106 83 48 116
5 40 39 114 1 68
5 60 47 55 32 36
5 62 69 14 80 39
5 1 98 94 36 112
5 6 117 59 72 106
5 68 70 3 101 40
5 61 41 79 12 38
5 110 21 49 82 22
5 95 15 43 42 9
5 85 23 54 30 16
