OFF
120 120 0

0.297647035114267 1.41942289885085 6.31199252683014
-0.297647035114267 1.41942289885085 6.31199252683014
0.297647035114267 -1.41942289885085 6.31199252683014
1.91568102386416 2.41942289885085 5.69395853808025
-0.297647035114267 -1.41942289885085 6.31199252683014
2.09963700821541 2.90102591831636 5.39631150296598
4.21235551861473 1.00000000000000 4.81670694218052
-1.91568102386416 2.41942289885085 5.69395853808025
1.91568102386416 -2.41942289885085 5.69395853808025
4.39631150296598 1.48160301946552 4.51905990706626
-2.09963700821541 2.90102591831636 5.39631150296598
2.09963700821541 -2.90102591831636 5.39631150296598
-4.21235551861473 1.00000000000000 4.81670694218052
4.21235551861473 -1.00000000000000 4.81670694218052
-1.91568102386416 -2.41942289885085 5.69395853808025
1.48160301946552 4.51905990706626 4.39631150296598
-4.39631150296598 1.48160301946552 4.51905990706626
4.39631150296598 -1.48160301946552 4.51905990706626
-2.09963700821541 -2.90102591831636 5.39631150296598
1.00000000000000 4.81670694218052 4.21235551861473
-4.21235551861473 -1.00000000000000 4.81670694218052
2.90102591831636 5.39631150296598 2.09963700821541
5.39631150296598 2.09963700821541 2.90102591831636
-1.48160301946552 4.51905990706626 4.39631150296598
1.48160301946552 -4.51905990706626 4.39631150296598
-4.39631150296598 -1.48160301946552 4.51905990706626
2.41942289885085 5.69395853808025 1.91568102386416
5.69395853808025 1.91568102386416 2.41942289885085
-1.00000000000000 4.81670694218052 4.21235551861473
1.00000000000000 -4.81670694218052 4.21235551861473
4.51905990706626 4.39631150296598 1.48160301946552
-2.90102591831636 5.39631150296598 2.09963700821541
2.90102591831636 -5.39631150296598 2.09963700821541
-5.39631150296598 2.09963700821541 2.90102591831636
5.39631150296598 -2.09963700821541 2.90102591831636
-1.48160301946552 -4.51905990706626 4.39631150296598
4.81670694218052 4.21235551861473 1.00000000000000
-2.41942289885085 5.69395853808025 1.91568102386416
2.41942289885085 -5.69395853808025 1.91568102386416
-5.69395853808025 1.91568102386416 2.41942289885085
5.69395853808025 -1.91568102386416 2.41942289885085
-1.00000000000000 -4.81670694218052 4.21235551861473
-4.51905990706626 4.39631150296598 1.48160301946552
4.51905990706626 -4.39631150296598 1.48160301946552
-2.90102591831636 -5.39631150296598 2.09963700821541
-5.39631150296598 -2.09963700821541 2.90102591831636
1.41942289885085 6.31199252683014 0.297647035114267
6.31199252683014 0.297647035114267 1.41942289885085
-4.81670694218052 4.21235551861473 1.00000000000000
4.81670694218052 -4.21235551861473 1.00000000000000
-2.41942289885085 -5.69395853808025 1.91568102386416
-5.69395853808025 -1.91568102386416 2.41942289885085
1.41942289885085 6.31199252683014 -0.297647035114267
6.31199252683014 -0.297647035114267 1.41942289885085
-4.51905990706626 -4.39631150296598 1.48160301946552
-1.41942289885085 6.31199252683014 0.297647035114267
6.31199252683014 0.297647035114267 -1.41942289885085
4.81670694218052 4.21235551861473 -1.00000000000000
1.41942289885085 -6.31199252683014 0.297647035114267
-6.31199252683014 0.297647035114267 1.41942289885085
-4.81670694218052 -4.21235551861473 1.00000000000000
-1.41942289885085 6.31199252683014 -0.297647035114267
6.31199252683014 -0.297647035114267 -1.41942289885085
4.51905990706626 4.39631150296598 -1.48160301946552
1.41942289885085 -6.31199252683014 -0.297647035114267
-6.31199252683014 -0.297647035114267 1.41942289885085
5.69395853808025 1.91568102386416 -2.41942289885085
-1.41942289885085 -6.31199252683014 0.297647035114267
-6.31199252683014 0.297647035114267 -1.41942289885085
-4.81670694218052 4.21235551861473 -1.00000000000000
4.81670694218052 -4.21235551861473 -1.00000000000000
2.41942289885085 5.69395853808025 -1.91568102386416
5.39631150296598 2.09963700821541 -2.90102591831636
-1.41942289885085 -6.31199252683014 -0.297647035114267
-6.31199252683014 -0.297647035114267 -1.41942289885085
-4.51905990706626 4.39631150296598 -1.48160301946552
4.51905990706626 -4.39631150296598 -1.48160301946552
2.90102591831636 5.39631150296598 -2.09963700821541
-5.69395853808025 1.91568102386416 -2.41942289885085
5.69395853808025 -1.91568102386416 -2.41942289885085
1.00000000000000 4.81670694218052 -4.21235551861473
-4.81670694218052 -4.21235551861473 -1.00000000000000
-2.41942289885085 5.69395853808025 -1.91568102386416
2.41942289885085 -5.69395853808025 -1.91568102386416
-5.39631150296598 2.09963700821541 -2.90102591831636
5.39631150296598 -2.09963700821541 -2.90102591831636
1.48160301946552 4.51905990706626 -4.39631150296598
-4.51905990706626 -4.39631150296598 -1.48160301946552
-2.90102591831636 5.39631150296598 -2.09963700821541
2.90102591831636 -5.39631150296598 -2.09963700821541
-5.69395853808025 -1.91568102386416 -2.41942289885085
-1.00000000000000 4.81670694218052 -4.21235551861473
1.00000000000000 -4.81670694218052 -4.21235551861473
4.39631150296598 1.48160301946552 -4.51905990706626
-2.41942289885085 -5.69395853808025 -1.91568102386416
-5.39631150296598 -2.09963700821541 -2.90102591831636
-1.48160301946552 4.51905990706626 -4.39631150296598
1.48160301946552 -4.51905990706626 -4.39631150296598
4.21235551861473 1.00000000000000 -4.81670694218052
-2.90102591831636 -5.39631150296598 -2.09963700821541
2.09963700821541 2.90102591831636 -5.39631150296598
-1.00000000000000 -4.81670694218052 -4.21235551861473
-4.39631150296598 1.48160301946552 -4.51905990706626
4.39631150296598 -1.48160301946552 -4.51905990706626
1.91568102386416 2.41942289885085 -5.69395853808025
-1.48160301946552 -4.51905990706626 -4.39631150296598
-4.21235551861473 1.00000000000000 -4.81670694218052
4.21235551861473 -1.00000000000000 -4.81670694218052
-2.09963700821541 2.90102591831636 -5.39631150296598
2.09963700821541 -2.90102591831636 -5.39631150296598
-4.39631150296598 -1.48160301946552 -4.51905990706626
-1.91568102386416 2.41942289885085 -5.69395853808025
1.91568102386416 -2.41942289885085 -5.69395853808025
-4.21235551861473 -1.00000000000000 -4.81670694218052
-2.09963700821541 -2.90102591831636 -5.39631150296598
0.297647035114267 1.41942289885085 -6.31199252683014
-1.91568102386416 -2.41942289885085 -5.69395853808025
-0.297647035114267 1.41942289885085 -6.31199252683014
0.297647035114267 -1.41942289885085 -6.31199252683014
-0.297647035114267 -1.41942289885085 -6.31199252683014

5 75 76 33 18 32
5 21 67 61 78 87
5 28 112 12 60 101
5 90 6 116 103 47
5 14 80 50 105 115
5 94 36 90 75 46
5 20 66 60 101 107
5 9 102 11 44 95
5 4 108 17 56 104
5 97 15 99 45 10
5 35 96 32 85 100
5 42 43 84 114 89
5 80 14 98 70 29
5 44 46 64 79 63
5 99 52 58 40 30
5 119 10 103 47 3
5 41 104 20 48 91
5 70 37 92 113 69
5 31 58 52 66 76
5 79 12 112 110 59
5 55 32 96 118 83
5 102 9 114 89 34
5 111 29 82 23 2
5 57 50 80 106 81
5 48 83 28 6 49
5 52 99 15 4 50
5 71 60 66 76 67
5 107 39 70 29 20
5 108 4 118 83 24
5 51 98 14 17 56
5 74 34 75 46 27
5 17 110 5 31 84
5 11 115 1 37 96
5 8 91 38 97 117
5 106 40 69 28 6
5 30 54 72 109 99
5 53 95 30 61 78
5 78 13 111 93 53
5 98 51 57 19 12
5 13 78 49 92 113
5 65 85 42 52 66
5 88 64 46 27 43
5 96 35 77 22 11
5 22 68 62 112 110
5 118 5 110 59 7
5 112 28 83 24 1
5 10 119 2 38 97
5 32 55 73 90 75
5 93 16 109 99 45
5 49 82 29 20 48
5 36 94 19 12 60
5 67 21 105 115 71
5 81 26 101 107 57
5 104 41 71 15 4
5 116 19 94 35 0
5 39 107 7 9 62
5 24 86 44 95 108
5 38 69 40 30 61
5 7 92 37 96 118
5 76 75 34 5 31
5 100 2 119 94 35
5 47 84 43 73 90
5 5 118 4 50 105
5 25 103 10 21 72
5 117 18 93 53 8
5 113 27 81 41 13
5 2 100 25 68 111
5 23 105 21 72 109
5 72 59 53 8 25
5 86 24 88 33 18
5 69 38 91 98 70
5 58 31 97 117 82
5 19 116 6 49 92
5 103 25 100 88 33
5 29 111 13 36 80
5 87 63 45 10 21
5 26 81 27 43 73
5 15 97 31 84 114
5 34 74 56 104 102
5 92 7 107 57 19
5 83 48 79 63 55
5 46 44 86 119 94
5 105 23 89 34 5
5 16 93 18 32 85
5 82 49 78 87 58
5 89 61 67 51 42
5 91 8 106 81 41
5 45 62 68 111 93
5 3 101 26 86 119
5 54 30 95 108 77
5 37 70 39 54 64
5 56 33 76 67 51
5 73 77 35 0 26
5 115 11 102 65 14
5 63 87 22 11 44
5 59 72 54 64 79
5 84 47 65 14 17
5 64 88 24 1 37
5 101 3 113 69 28
5 12 79 48 91 98
5 33 56 74 116 103
5 27 113 3 16 74
5 43 42 85 100 88
5 109 0 117 82 23
5 66 20 104 102 65
5 77 73 55 39 54
5 50 57 51 42 52
5 114 1 115 71 15
5 18 117 0 26 86
5 0 109 16 74 116
5 40 106 8 25 68
5 60 71 41 13 36
5 62 45 63 55 39
5 1 114 9 62 112
5 6 90 36 80 106
5 68 22 87 58 40
5 61 89 23 2 38
5 110 17 108 77 22
5 95 53 59 7 9
5 85 65 47 3 16
