OFF
24 24 0

0.288633403447941 0.799310277346258 2.21352383971935
-0.799310277346258 0.288633403447941 2.21352383971935
-0.288633403447941 2.21352383971935 0.799310277346258
2.21352383971935 0.288633403447941 0.799310277346258
-0.288633403447941 -0.799310277346258 2.21352383971935
0.799310277346258 2.21352383971935 0.288633403447941
2.21352383971935 -0.799310277346258 0.288633403447941
-2.21352383971935 -0.288633403447941 0.799310277346258
0.799310277346258 -0.288633403447941 2.21352383971935
-2.21352383971935 0.799310277346258 0.288633403447941
0.288633403447941 2.21352383971935 -0.799310277346258
2.21352383971935 -0.288633403447941 -0.799310277346258
-2.21352383971935 0.288633403447941 -0.799310277346258
0.288633403447941 -2.21352383971935 0.799310277346258
2.21352383971935 0.799310277346258 -0.288633403447941
0.799310277346258 -2.21352383971935 -0.288633403447941
-0.799310277346258 2.21352383971935 -0.288633403447941
-0.799310277346258 -2.21352383971935 0.288633403447941
-2.21352383971935 -0.799310277346258 -0.288633403447941
-0.288633403447941 -2.21352383971935 -0.799310277346258
-0.288633403447941 0.799310277346258 -2.21352383971935
0.799310277346258 0.288633403447941 -2.21352383971935
-0.799310277346258 -0.288633403447941 -2.21352383971935
0.288633403447941 -0.799310277346258 -2.21352383971935

5 3 10 6 20 23
5 17 8 19 3 11
5 5 1 10 7 12
5 22 15 20 6 14
5 2 12 5 22 21
5 11 13 14 4 0
5 14 23 3 19 13
5 18 20 7 10 2
5 7 19 9 23 20
5 13 11 17 21 22
5 20 18 21 17 15
5 6 0 11 2 10
5 12 2 18 0 4
5 16 21 2 11 3
5 21 16 23 9 18
5 9 4 12 13 19
5 10 3 16 8 1
5 23 14 22 5 16
5 4 9 8 16 5
5 15 22 13 12 7
5 0 6 1 15 17
5 8 17 0 18 9
5 1 5 4 14 6
5 19 7 15 1 8
