OFF
24 24 0

0.343244916908781 2.91337162107416 4.32758518344725
-2.91337162107416 0.343244916908781 4.32758518344725
-0.343244916908781 4.32758518344725 2.91337162107416
4.32758518344725 0.343244916908781 2.91337162107416
-0.343244916908781 -2.91337162107416 4.32758518344725
2.91337162107416 4.32758518344725 0.343244916908781
4.32758518344725 -2.91337162107416 0.343244916908781
-4.32758518344725 -0.343244916908781 2.91337162107416
2.91337162107416 -0.343244916908781 4.32758518344725
-4.32758518344725 2.91337162107416 0.343244916908781
0.343244916908781 4.32758518344725 -2.91337162107416
4.32758518344725 -0.343244916908781 -2.91337162107416
-4.32758518344725 0.343244916908781 -2.91337162107416
0.343244916908781 -4.32758518344725 2.91337162107416
4.32758518344725 2.91337162107416 -0.343244916908781
2.91337162107416 -4.32758518344725 -0.343244916908781
-2.91337162107416 4.32758518344725 -0.343244916908781
-2.91337162107416 -4.32758518344725 0.343244916908781
-4.32758518344725 -2.91337162107416 -0.343244916908781
-0.343244916908781 -4.32758518344725 -2.91337162107416
-0.343244916908781 2.91337162107416 -4.32758518344725
2.91337162107416 0.343244916908781 -4.32758518344725
-2.91337162107416 -0.343244916908781 -4.32758518344725
0.343244916908781 -2.91337162107416 -4.32758518344725

5 3 10 1 8 9
5 17 8 9 18 2
5 5 1 6 14 13
5 22 15 7 12 4
5 2 12 4 0 17
5 11 13 22 21 18
5 14 23 16 5 12
5 18 20 15 17 11
5 7 19 8 1 6
5 13 11 0 4 5
5 20 18 2 10 1
5 6 0 17 15 7
5 12 2 21 22 14
5 16 21 18 9 19
5 21 16 3 11 0
5 9 4 5 16 3
5 10 3 23 20 15
5 23 14 13 19 8
5 4 9 19 13 22
5 15 22 14 6 10
5 0 6 10 2 21
5 8 17 11 3 23
5 1 5 12 7 20
5 19 7 20 23 16
