OFF
24 24 0

0.414213562373095 1.00000000000000 2.41421356237309
-1.00000000000000 0.414213562373095 2.41421356237309
-0.414213562373095 2.41421356237309 1.00000000000000
2.41421356237309 0.414213562373095 1.00000000000000
-0.414213562373095 -1.00000000000000 2.41421356237309
1.00000000000000 2.41421356237309 0.414213562373095
2.41421356237309 -1.00000000000000 0.414213562373095
-2.41421356237309 -0.414213562373095 1.00000000000000
1.00000000000000 -0.414213562373095 2.41421356237309
-2.41421356237309 1.00000000000000 0.414213562373095
0.414213562373095 2.41421356237309 -1.00000000000000
2.41421356237309 -0.414213562373095 -1.00000000000000
-2.41421356237309 0.414213562373095 -1.00000000000000
0.414213562373095 -2.41421356237309 1.00000000000000
2.41421356237309 1.00000000000000 -0.414213562373095
1.00000000000000 -2.41421356237309 -0.414213562373095
-1.00000000000000 2.41421356237309 -0.414213562373095
-1.00000000000000 -2.41421356237309 0.414213562373095
-2.41421356237309 -1.00000000000000 -0.414213562373095
-0.414213562373095 -2.41421356237309 -1.00000000000000
-0.414213562373095 1.00000000000000 -2.41421356237309
1.00000000000000 0.414213562373095 -2.41421356237309
-1.00000000000000 -0.414213562373095 -2.41421356237309
0.414213562373095 -1.00000000000000 -2.41421356237309

5 3 9 15 6 18
5 17 2 23 19 10
5 5 13 20 10 19
5 22 4 10 20 0
5 2 17 14 5 15
5 11 18 5 14 9
5 14 12 8 3 7
5 18 11 1 7 3
5 7 6 16 9 14
5 13 5 18 17 16
5 20 1 11 21 8
5 6 7 21 11 12
5 12 14 17 18 6
5 16 19 0 2 13
5 21 0 19 23 4
5 9 3 22 12 11
5 10 15 9 16 17
5 23 8 12 22 1
5 4 22 3 8 21
5 15 10 4 13 2
5 0 21 7 1 22
5 8 23 2 0 20
5 1 20 13 4 23
5 19 16 6 15 5
