OFF
24 24 0

0.419946446802535 2.15018025736284 3.56439381973594
-2.15018025736284 0.419946446802535 3.56439381973594
-0.419946446802535 3.56439381973594 2.15018025736284
3.56439381973594 0.419946446802535 2.15018025736284
-0.419946446802535 -2.15018025736284 3.56439381973594
2.15018025736284 3.56439381973594 0.419946446802535
3.56439381973594 -2.15018025736284 0.419946446802535
-3.56439381973594 -0.419946446802535 2.15018025736284
2.15018025736284 -0.419946446802535 3.56439381973594
-3.56439381973594 2.15018025736284 0.419946446802535
0.419946446802535 3.56439381973594 -2.15018025736284
3.56439381973594 -0.419946446802535 -2.15018025736284
-3.56439381973594 0.419946446802535 -2.15018025736284
0.419946446802535 -3.56439381973594 2.15018025736284
3.56439381973594 2.15018025736284 -0.419946446802535
2.15018025736284 -3.56439381973594 -0.419946446802535
-2.15018025736284 3.56439381973594 -0.419946446802535
-2.15018025736284 -3.56439381973594 0.419946446802535
-3.56439381973594 -2.15018025736284 -0.419946446802535
-0.419946446802535 -3.56439381973594 -2.15018025736284
-0.419946446802535 2.15018025736284 -3.56439381973594
2.15018025736284 0.419946446802535 -3.56439381973594
-2.15018025736284 -0.419946446802535 -3.56439381973594
0.419946446802535 -2.15018025736284 -3.56439381973594

5 3 15 6 0 7
5 17 23 19 7 16
5 5 20 10 3 15
5 22 10 20 18 1
5 2 14 5 1 13
5 11 5 14 23 12
5 14 8 3 10 9
5 18 1 7 19 6
5 7 16 9 4 3
5 13 18 17 8 2
5 20 11 21 16 0
5 6 21 11 13 18
5 12 17 18 20 11
5 16 0 2 12 17
5 21 19 23 14 8
5 9 22 12 2 14
5 10 9 16 21 19
5 23 12 22 15 4
5 4 3 8 17 23
5 15 4 13 11 5
5 0 7 1 5 20
5 8 2 0 6 21
5 1 13 4 9 22
5 19 6 15 22 10
