OFF
24 24 0

0.916125949427349 1.68501832488972 3.09923188726282
-1.68501832488972 0.916125949427349 3.09923188726282
-0.916125949427349 3.09923188726282 1.68501832488972
3.09923188726282 0.916125949427349 1.68501832488972
-0.916125949427349 -1.68501832488972 3.09923188726282
1.68501832488972 3.09923188726282 0.916125949427349
3.09923188726282 -1.68501832488972 0.916125949427349
-3.09923188726282 -0.916125949427349 1.68501832488972
1.68501832488972 -0.916125949427349 3.09923188726282
-3.09923188726282 1.68501832488972 0.916125949427349
0.916125949427349 3.09923188726282 -1.68501832488972
3.09923188726282 -0.916125949427349 -1.68501832488972
-3.09923188726282 0.916125949427349 -1.68501832488972
0.916125949427349 -3.09923188726282 1.68501832488972
3.09923188726282 1.68501832488972 -0.916125949427349
1.68501832488972 -3.09923188726282 -0.916125949427349
-1.68501832488972 3.09923188726282 -0.916125949427349
-1.68501832488972 -3.09923188726282 0.916125949427349
-3.09923188726282 -1.68501832488972 -0.916125949427349
-0.916125949427349 -3.09923188726282 -1.68501832488972
-0.916125949427349 1.68501832488972 -3.09923188726282
1.68501832488972 0.916125949427349 -3.09923188726282
-1.68501832488972 -0.916125949427349 -3.09923188726282
0.916125949427349 -1.68501832488972 -3.09923188726282

5 3 11 15 8 13
5 17 15 23 18 22
5 5 16 20 14 21
5 22 21 10 12 16
5 2 10 14 0 3
5 11 3 5 21 10
5 14 6 8 5 0
5 18 9 1 17 4
5 7 12 16 1 2
5 13 19 18 4 7
5 20 23 11 10 14
5 6 14 21 15 23
5 12 7 17 22 19
5 16 5 0 9 1
5 21 22 19 11 15
5 9 18 22 16 20
5 10 2 9 20 12
5 23 20 12 19 18
5 4 0 3 13 6
5 15 17 4 6 8
5 0 4 7 2 9
5 8 1 2 3 5
5 1 8 13 7 17
5 19 13 6 23 11
