OFF
24 24 0

2.21352383971935 4.71568108288665 6.12989464525974
-4.71568108288665 2.21352383971935 6.12989464525974
-2.21352383971935 6.12989464525974 4.71568108288665
6.12989464525974 2.21352383971935 4.71568108288665
-2.21352383971935 -4.71568108288665 6.12989464525974
4.71568108288665 6.12989464525974 2.21352383971935
6.12989464525974 -4.71568108288665 2.21352383971935
-6.12989464525974 -2.21352383971935 4.71568108288665
4.71568108288665 -2.21352383971935 6.12989464525974
-6.12989464525974 4.71568108288665 2.21352383971935
2.21352383971935 6.12989464525974 -4.71568108288665
6.12989464525974 -2.21352383971935 -4.71568108288665
-6.12989464525974 2.21352383971935 -4.71568108288665
2.21352383971935 -6.12989464525974 4.71568108288665
6.12989464525974 4.71568108288665 -2.21352383971935
4.71568108288665 -6.12989464525974 -2.21352383971935
-4.71568108288665 6.12989464525974 -2.21352383971935
-4.71568108288665 -6.12989464525974 2.21352383971935
-6.12989464525974 -4.71568108288665 -2.21352383971935
-2.21352383971935 -6.12989464525974 -4.71568108288665
-2.21352383971935 4.71568108288665 -6.12989464525974
4.71568108288665 2.21352383971935 -6.12989464525974
-4.71568108288665 -2.21352383971935 -6.12989464525974
2.21352383971935 -4.71568108288665 -6.12989464525974

5 3 19 16 6 12
5 17 21 0 19 5
5 5 22 4 10 17
5 22 5 13 20 8
5 2 11 18 5 19
5 11 2 17 14 7
5 14 4 22 3 18
5 18 0 21 7 14
5 7 10 15 9 11
5 13 12 14 17 10
5 20 6 7 21 4
5 6 20 1 11 9
5 12 13 5 18 3
5 16 8 23 2 15
5 21 17 2 23 1
5 9 23 8 12 6
5 10 7 6 16 13
5 23 9 3 22 0
5 4 14 12 8 20
5 15 1 20 13 16
5 0 18 11 1 23
5 8 16 19 0 22
5 1 15 10 4 21
5 19 3 9 15 2
