OFF
24 24 0

2.21352383971935 4.71568108288665 6.12989464525974
-4.71568108288665 2.21352383971935 6.12989464525974
-2.21352383971935 6.12989464525974 4.71568108288665
6.12989464525974 2.21352383971935 4.71568108288665
-2.21352383971935 -4.71568108288665 6.12989464525974
4.71568108288665 6.12989464525974 2.21352383971935
6.12989464525974 -4.71568108288665 2.21352383971935
-6.12989464525974 -2.21352383971935 4.71568108288665
4.71568108288665 -2.21352383971935 6.12989464525974
-6.12989464525974 4.71568108288665 2.21352383971935
2.21352383971935 6.12989464525974 -4.71568108288665
6.12989464525974 -2.21352383971935 -4.71568108288665
-6.12989464525974 2.21352383971935 -4.71568108288665
2.21352383971935 -6.12989464525974 4.71568108288665
6.12989464525974 4.71568108288665 -2.21352383971935
4.71568108288665 -6.12989464525974 -2.21352383971935
-4.71568108288665 6.12989464525974 -2.21352383971935
-4.71568108288665 -6.12989464525974 2.21352383971935
-6.12989464525974 -4.71568108288665 -2.21352383971935
-2.21352383971935 -6.12989464525974 -4.71568108288665
-2.21352383971935 4.71568108288665 -6.12989464525974
4.71568108288665 2.21352383971935 -6.12989464525974
-4.71568108288665 -2.21352383971935 -6.12989464525974
2.21352383971935 -4.71568108288665 -6.12989464525974

5 3 6 15 5 10
5 17 19 23 4 8
5 5 10 20 0 1
5 22 20 10 19 15
5 2 5 14 9 12
5 11 14 5 15 13
5 14 3 8 21 23
5 18 7 1 22 20
5 7 9 16 17 19
5 13 17 18 6 11
5 20 21 11 12 18
5 6 11 21 8 0
5 12 18 17 16 2
5 16 2 0 20 21
5 21 23 19 10 16
5 9 12 22 1 4
5 10 16 9 14 3
5 23 22 12 11 14
5 4 8 3 7 9
5 15 13 4 23 22
5 0 1 7 3 6
5 8 0 2 13 17
5 1 4 13 2 5
5 19 15 6 18 7
