OFF
60 60 0

0.755292633351929 0.295502824126545 5.69158337627588
-0.755292633351929 -0.295502824126545 5.69158337627588
-2.37332662210182 1.29550282412654 5.07354938752599
2.37332662210182 -1.29550282412654 5.07354938752599
-3.31825675417406 2.22208915221583 4.13562596509227
3.31825675417406 -2.22208915221583 4.13562596509227
-2.22208915221583 4.13562596509227 3.31825675417406
2.22208915221583 -4.13562596509227 3.31825675417406
-2.85146023531016 -1.00000000000000 4.89091859844420
2.85146023531016 1.00000000000000 4.89091859844420
-1.29550282412654 5.07354938752599 2.37332662210182
1.29550282412654 -5.07354938752599 2.37332662210182
-2.84012314096573 -2.51759197634238 4.31825675417406
2.84012314096573 2.51759197634238 4.31825675417406
1.00000000000000 4.89091859844420 2.85146023531016
-1.00000000000000 -4.89091859844420 2.85146023531016
-4.31825675417406 -2.84012314096573 2.51759197634238
4.31825675417406 2.84012314096573 2.51759197634238
-4.13562596509227 3.31825675417406 2.22208915221583
4.13562596509227 -3.31825675417406 2.22208915221583
2.51759197634238 4.31825675417406 2.84012314096573
-2.51759197634238 -4.31825675417406 2.84012314096573
-4.89091859844420 -2.85146023531016 1.00000000000000
4.89091859844420 2.85146023531016 1.00000000000000
-5.07354938752599 2.37332662210182 1.29550282412654
5.07354938752599 -2.37332662210182 1.29550282412654
-5.69158337627588 -0.755292633351929 0.295502824126545
5.69158337627588 0.755292633351929 0.295502824126545
-4.89091859844420 2.85146023531016 -1.00000000000000
4.89091859844420 -2.85146023531016 -1.00000000000000
0.295502824126545 5.69158337627588 0.755292633351929
-0.295502824126545 -5.69158337627588 0.755292633351929
-5.69158337627588 0.755292633351929 -0.295502824126545
5.69158337627588 -0.755292633351929 -0.295502824126545
-4.31825675417406 2.84012314096573 -2.51759197634238
4.31825675417406 -2.84012314096573 -2.51759197634238
-0.295502824126545 5.69158337627588 -0.755292633351929
0.295502824126545 -5.69158337627588 -0.755292633351929
-2.51759197634238 4.31825675417406 -2.84012314096573
2.51759197634238 -4.31825675417406 -2.84012314096573
1.29550282412654 5.07354938752599 -2.37332662210182
-1.29550282412654 -5.07354938752599 -2.37332662210182
-5.07354938752599 -2.37332662210182 -1.29550282412654
5.07354938752599 2.37332662210182 -1.29550282412654
-1.00000000000000 4.89091859844420 -2.85146023531016
1.00000000000000 -4.89091859844420 -2.85146023531016
2.22208915221583 4.13562596509227 -3.31825675417406
-2.22208915221583 -4.13562596509227 -3.31825675417406
-4.13562596509227 -3.31825675417406 -2.22208915221583
4.13562596509227 3.31825675417406 -2.22208915221583
-3.31825675417406 -2.22208915221583 -4.13562596509227
3.31825675417406 2.22208915221583 -4.13562596509227
-2.84012314096573 2.51759197634238 -4.31825675417406
2.84012314096573 -2.51759197634238 -4.31825675417406
-2.37332662210182 -1.29550282412654 -5.07354938752599
2.37332662210182 1.29550282412654 -5.07354938752599
-2.85146023531016 1.00000000000000 -4.89091859844420
2.85146023531016 -1.00000000000000 -4.89091859844420
-0.755292633351929 0.295502824126545 -5.69158337627588
0.755292633351929 -0.295502824126545 -5.69158337627588

5 34 13 30 42 9
5 22 14 18 31 20
5 38 35 59 10 29
5 41 46 57 22 40
5 54 4 28 45 2
5 9 28 4 27 34
5 51 32 38 35 26
5 1 40 10 7 46
5 17 52 36 25 56
5 28 45 48 36 39
5 36 25 43 18 19
5 27 54 55 5 50
5 33 2 3 51 4
5 8 29 5 26 35
5 21 17 0 41 23
5 7 59 35 12 58
5 15 56 47 1 52
5 10 7 9 28 11
5 46 0 17 52 1
5 49 37 53 20 31
5 39 34 58 11 28
5 45 9 7 59 13
5 37 24 42 19 18
5 0 41 11 6 47
5 16 53 37 24 57
5 47 1 16 53 0
5 58 11 41 46 7
5 40 47 56 23 41
5 25 48 45 9 42
5 43 18 14 57 24
5 5 26 21 17 32
5 23 15 19 30 21
5 13 39 33 2 45
5 48 36 52 21 30
5 19 30 13 39 36
5 29 44 49 37 38
5 12 38 32 3 44
5 53 20 27 54 14
5 55 5 29 44 3
5 3 51 23 15 55
5 26 55 54 4 51
5 59 10 40 47 6
5 52 21 26 55 15
5 6 58 34 13 59
5 2 50 22 14 54
5 4 27 20 16 33
5 11 6 8 29 10
5 57 22 50 33 16
5 30 42 24 49 48
5 35 12 31 43 8
5 56 23 51 32 17
5 18 31 12 38 37
5 44 8 6 58 12
5 14 57 46 0 53
5 31 43 25 48 49
5 32 3 2 50 5
5 20 16 1 40 22
5 42 19 15 56 25
5 50 33 39 34 27
5 24 49 44 8 43
