OFF
60 60 0

0.110169743279294 1.27703280443828 5.59077859226656
-0.110169743279294 -1.27703280443828 5.59077859226656
-1.72820373202919 2.27703280443828 4.97274460351667
1.72820373202919 -2.27703280443828 4.97274460351667
-3.86257486023737 1.17825838915775 4.07332518234592
3.86257486023737 -1.17825838915775 4.07332518234592
-1.17825838915775 4.07332518234592 3.86257486023737
1.17825838915775 -4.07332518234592 3.86257486023737
-3.79448621435892 -1.00000000000000 4.18349492562521
3.79448621435892 1.00000000000000 4.18349492562521
-2.27703280443828 4.97274460351667 1.72820373202919
2.27703280443828 -4.97274460351667 1.72820373202919
-1.79629237790764 -2.45529119359602 4.86257486023737
1.79629237790764 2.45529119359602 4.86257486023737
1.00000000000000 4.18349492562521 3.79448621435892
-1.00000000000000 -4.18349492562521 3.79448621435892
-4.86257486023737 -1.79629237790764 2.45529119359602
4.86257486023737 1.79629237790764 2.45529119359602
-4.07332518234592 3.86257486023737 1.17825838915775
4.07332518234592 -3.86257486023737 1.17825838915775
2.45529119359602 4.86257486023737 1.79629237790764
-2.45529119359602 -4.86257486023737 1.79629237790764
-4.18349492562521 -3.79448621435892 1.00000000000000
4.18349492562521 3.79448621435892 1.00000000000000
-4.97274460351667 1.72820373202919 2.27703280443828
4.97274460351667 -1.72820373202919 2.27703280443828
-5.59077859226656 -0.110169743279294 1.27703280443828
5.59077859226656 0.110169743279294 1.27703280443828
-4.18349492562521 3.79448621435892 -1.00000000000000
4.18349492562521 -3.79448621435892 -1.00000000000000
1.27703280443828 5.59077859226656 0.110169743279294
-1.27703280443828 -5.59077859226656 0.110169743279294
-5.59077859226656 0.110169743279294 -1.27703280443828
5.59077859226656 -0.110169743279294 -1.27703280443828
-4.86257486023737 1.79629237790764 -2.45529119359602
4.86257486023737 -1.79629237790764 -2.45529119359602
-1.27703280443828 5.59077859226656 -0.110169743279294
1.27703280443828 -5.59077859226656 -0.110169743279294
-2.45529119359602 4.86257486023737 -1.79629237790764
2.45529119359602 -4.86257486023737 -1.79629237790764
2.27703280443828 4.97274460351667 -1.72820373202919
-2.27703280443828 -4.97274460351667 -1.72820373202919
-4.97274460351667 -1.72820373202919 -2.27703280443828
4.97274460351667 1.72820373202919 -2.27703280443828
-1.00000000000000 4.18349492562521 -3.79448621435892
1.00000000000000 -4.18349492562521 -3.79448621435892
1.17825838915775 4.07332518234592 -3.86257486023737
-1.17825838915775 -4.07332518234592 -3.86257486023737
-4.07332518234592 -3.86257486023737 -1.17825838915775
4.07332518234592 3.86257486023737 -1.17825838915775
-3.86257486023737 -1.17825838915775 -4.07332518234592
3.86257486023737 1.17825838915775 -4.07332518234592
-1.79629237790764 2.45529119359602 -4.86257486023737
1.79629237790764 -2.45529119359602 -4.86257486023737
-1.72820373202919 -2.27703280443828 -4.97274460351667
1.72820373202919 2.27703280443828 -4.97274460351667
-3.79448621435892 1.00000000000000 -4.18349492562521
3.79448621435892 -1.00000000000000 -4.18349492562521
-0.110169743279294 1.27703280443828 -5.59077859226656
0.110169743279294 -1.27703280443828 -5.59077859226656

5 34 28 37 14 5
5 22 16 35 6 23
5 38 44 1 57 19
5 41 47 2 55 30
5 54 50 25 24 0
5 9 13 53 18 56
5 51 55 7 34 16
5 1 0 45 30 55
5 17 23 31 44 50
5 28 34 17 47 29
5 36 30 22 27 11
5 27 33 8 59 42
5 33 27 56 0 24
5 8 12 52 19 57
5 21 15 58 9 49
5 7 11 18 53 52
5 15 21 20 50 44
5 10 6 54 3 37
5 46 40 48 13 12
5 49 43 4 39 21
5 39 45 0 56 18
5 45 39 38 5 14
5 37 31 23 26 10
5 0 1 44 31 54
5 16 22 30 45 51
5 47 41 49 12 13
5 58 59 14 37 3
5 40 46 3 54 31
5 25 19 10 41 32
5 43 49 41 10 26
5 5 3 46 16 34
5 23 17 34 7 22
5 13 9 32 29 47
5 48 42 5 38 20
5 19 25 50 20 38
5 29 35 16 46 28
5 12 8 33 28 46
5 53 57 26 23 6
5 55 51 24 25 1
5 3 5 42 43 58
5 26 32 9 58 43
5 59 58 15 36 2
5 52 56 27 22 7
5 6 10 19 52 53
5 2 4 43 42 59
5 4 2 47 17 35
5 11 7 55 2 36
5 57 53 13 48 8
5 30 36 29 32 41
5 35 29 36 15 4
5 56 52 12 49 9
5 18 24 51 21 39
5 44 38 39 4 15
5 14 20 21 51 45
5 31 37 28 33 40
5 32 26 57 1 25
5 20 14 59 8 48
5 42 48 40 11 27
5 50 54 6 35 17
5 24 18 11 40 33
