OFF
60 60 0

0.863706527819189 0.780830003276430 6.76069050837254
-0.863706527819189 -0.780830003276430 6.76069050837254
-2.48174051656908 1.78083000327643 6.14265651962264
2.48174051656908 -1.78083000327643 6.14265651962264
-4.27894999180345 2.39750651831660 4.79637051034293
4.27894999180345 -2.39750651831660 4.79637051034293
-2.39750651831660 4.79637051034293 4.27894999180345
2.39750651831660 -4.79637051034293 4.27894999180345
-3.74515000130604 -1.00000000000000 5.66007703816212
3.74515000130604 1.00000000000000 5.66007703816212
-1.78083000327643 6.14265651962264 2.48174051656908
1.78083000327643 -6.14265651962264 2.48174051656908
-3.01554050706650 -3.17833652159303 5.27894999180345
3.01554050706650 3.17833652159303 5.27894999180345
1.00000000000000 5.66007703816212 3.74515000130604
-1.00000000000000 -5.66007703816212 3.74515000130604
-5.27894999180345 -3.01554050706650 3.17833652159303
5.27894999180345 3.01554050706650 3.17833652159303
-4.79637051034293 4.27894999180345 2.39750651831660
4.79637051034293 -4.27894999180345 2.39750651831660
3.17833652159303 5.27894999180345 3.01554050706650
-3.17833652159303 -5.27894999180345 3.01554050706650
-5.66007703816212 -3.74515000130604 1.00000000000000
5.66007703816212 3.74515000130604 1.00000000000000
-6.14265651962264 2.48174051656908 1.78083000327643
6.14265651962264 -2.48174051656908 1.78083000327643
-6.76069050837254 -0.863706527819189 0.780830003276430
6.76069050837254 0.863706527819189 0.780830003276430
-5.66007703816212 3.74515000130604 -1.00000000000000
5.66007703816212 -3.74515000130604 -1.00000000000000
0.780830003276430 6.76069050837254 0.863706527819189
-0.780830003276430 -6.76069050837254 0.863706527819189
-6.76069050837254 0.863706527819189 -0.780830003276430
6.76069050837254 -0.863706527819189 -0.780830003276430
-5.27894999180345 3.01554050706650 -3.17833652159303
5.27894999180345 -3.01554050706650 -3.17833652159303
-0.780830003276430 6.76069050837254 -0.863706527819189
0.780830003276430 -6.76069050837254 -0.863706527819189
-3.17833652159303 5.27894999180345 -3.01554050706650
3.17833652159303 -5.27894999180345 -3.01554050706650
1.78083000327643 6.14265651962264 -2.48174051656908
-1.78083000327643 -6.14265651962264 -2.48174051656908
-6.14265651962264 -2.48174051656908 -1.78083000327643
6.14265651962264 2.48174051656908 -1.78083000327643
-1.00000000000000 5.66007703816212 -3.74515000130604
1.00000000000000 -5.66007703816212 -3.74515000130604
2.39750651831660 4.79637051034293 -4.27894999180345
-2.39750651831660 -4.79637051034293 -4.27894999180345
-4.79637051034293 -4.27894999180345 -2.39750651831660
4.79637051034293 4.27894999180345 -2.39750651831660
-4.27894999180345 -2.39750651831660 -4.79637051034293
4.27894999180345 2.39750651831660 -4.79637051034293
-3.01554050706650 3.17833652159303 -5.27894999180345
3.01554050706650 -3.17833652159303 -5.27894999180345
-2.48174051656908 -1.78083000327643 -6.14265651962264
2.48174051656908 1.78083000327643 -6.14265651962264
-3.74515000130604 1.00000000000000 -5.66007703816212
3.74515000130604 -1.00000000000000 -5.66007703816212
-0.863706527819189 0.780830003276430 -6.76069050837254
0.863706527819189 -0.780830003276430 -6.76069050837254

5 34 58 13 28 27
5 22 50 14 16 40
5 38 32 35 44 37
5 41 11 46 47 23
5 54 55 4 50 14
5 9 7 28 13 42
5 51 23 32 55 4
5 1 16 40 0 52
5 17 0 52 23 32
5 28 4 45 34 11
5 36 52 25 30 39
5 27 20 54 33 34
5 33 39 2 27 16
5 8 6 29 12 43
5 21 26 17 15 30
5 7 9 59 11 46
5 15 19 56 21 55
5 10 40 7 6 29
5 46 57 0 40 7
5 49 44 37 43 48
5 39 33 34 45 36
5 45 48 9 39 2
5 37 53 24 31 38
5 0 17 41 1 53
5 16 1 53 22 33
5 47 56 1 41 6
5 58 34 11 59 12
5 40 10 47 46 22
5 25 43 48 19 56
5 43 25 18 49 8
5 5 29 26 3 50
5 23 51 15 17 41
5 13 30 39 9 59
5 48 45 36 42 49
5 19 15 30 25 18
5 29 5 44 35 10
5 12 31 38 8 58
5 53 37 20 57 0
5 55 54 5 51 15
5 3 2 51 5 44
5 26 21 55 32 35
5 59 35 10 58 13
5 52 36 21 56 1
5 6 8 58 10 47
5 2 3 50 4 45
5 4 28 27 2 51
5 11 41 6 7 28
5 57 46 22 53 24
5 30 13 42 36 21
5 35 59 12 29 26
5 56 47 23 52 25
5 18 14 31 24 19
5 44 49 8 38 3
5 14 18 57 20 54
5 31 12 43 37 20
5 32 38 3 26 17
5 20 27 16 14 31
5 42 24 19 48 9
5 50 22 33 54 5
5 24 42 49 18 57
