OFF
60 60 0

0.742784217549001 7.50347472592154 17.3215794456169
-0.742784217549001 -7.50347472592154 17.3215794456169
-2.36081820629890 8.50347472592154 16.7035454568670
2.36081820629890 -8.50347472592154 16.7035454568670
-14.9607612393180 2.20185011030128 11.3233588249727
14.9607612393180 -2.20185011030128 11.3233588249727
-2.20185011030128 11.3233588249727 14.9607612393180
2.20185011030128 -11.3233588249727 14.9607612393180
-14.5016953465657 -1.00000000000000 12.0661430425217
14.5016953465657 1.00000000000000 12.0661430425217
-8.50347472592154 16.7035454568670 2.36081820629890
8.50347472592154 -16.7035454568670 2.36081820629890
-2.81988409905117 -9.70532483622282 15.9607612393180
2.81988409905117 9.70532483622282 15.9607612393180
1.00000000000000 12.0661430425217 14.5016953465657
-1.00000000000000 -12.0661430425217 14.5016953465657
-15.9607612393180 -2.81988409905117 9.70532483622282
15.9607612393180 2.81988409905117 9.70532483622282
-11.3233588249727 14.9607612393180 2.20185011030128
11.3233588249727 -14.9607612393180 2.20185011030128
9.70532483622282 15.9607612393180 2.81988409905117
-9.70532483622282 -15.9607612393180 2.81988409905117
-12.0661430425217 -14.5016953465657 1.00000000000000
12.0661430425217 14.5016953465657 1.00000000000000
-16.7035454568670 2.36081820629890 8.50347472592154
16.7035454568670 -2.36081820629890 8.50347472592154
-17.3215794456169 -0.742784217549001 7.50347472592154
17.3215794456169 0.742784217549001 7.50347472592154
-12.0661430425217 14.5016953465657 -1.00000000000000
12.0661430425217 -14.5016953465657 -1.00000000000000
7.50347472592154 17.3215794456169 0.742784217549001
-7.50347472592154 -17.3215794456169 0.742784217549001
-17.3215794456169 0.742784217549001 -7.50347472592154
17.3215794456169 -0.742784217549001 -7.50347472592154
-15.9607612393180 2.81988409905117 -9.70532483622282
15.9607612393180 -2.81988409905117 -9.70532483622282
-7.50347472592154 17.3215794456169 -0.742784217549001
7.50347472592154 -17.3215794456169 -0.742784217549001
-9.70532483622282 15.9607612393180 -2.81988409905117
9.70532483622282 -15.9607612393180 -2.81988409905117
8.50347472592154 16.7035454568670 -2.36081820629890
-8.50347472592154 -16.7035454568670 -2.36081820629890
-16.7035454568670 -2.36081820629890 -8.50347472592154
16.7035454568670 2.36081820629890 -8.50347472592154
-1.00000000000000 12.0661430425217 -14.5016953465657
1.00000000000000 -12.0661430425217 -14.5016953465657
2.20185011030128 11.3233588249727 -14.9607612393180
-2.20185011030128 -11.3233588249727 -14.9607612393180
-11.3233588249727 -14.9607612393180 -2.20185011030128
11.3233588249727 14.9607612393180 -2.20185011030128
-14.9607612393180 -2.20185011030128 -11.3233588249727
14.9607612393180 2.20185011030128 -11.3233588249727
-2.81988409905117 9.70532483622282 -15.9607612393180
2.81988409905117 -9.70532483622282 -15.9607612393180
-2.36081820629890 -8.50347472592154 -16.7035454568670
2.36081820629890 8.50347472592154 -16.7035454568670
-14.5016953465657 1.00000000000000 -12.0661430425217
14.5016953465657 -1.00000000000000 -12.0661430425217
-0.742784217549001 7.50347472592154 -17.3215794456169
0.742784217549001 -7.50347472592154 -17.3215794456169

5 34 17 37 36 19
5 22 30 35 24 43
5 38 39 1 58 7
5 41 49 2 53 14
5 54 6 25 34 9
5 9 32 53 2 54
5 51 24 7 44 12
5 1 44 45 6 59
5 17 34 31 30 48
5 28 37 17 42 25
5 36 29 22 49 31
5 27 56 8 51 26
5 33 8 56 5 32
5 8 33 52 3 55
5 21 20 58 1 46
5 7 55 18 29 38
5 15 58 20 41 40
5 10 19 54 13 45
5 46 3 48 23 21
5 49 41 4 57 16
5 39 38 0 59 6
5 45 0 38 11 10
5 37 28 23 48 30
5 0 45 44 7 58
5 16 35 30 31 49
5 47 2 49 22 20
5 58 15 14 47 0
5 40 48 3 52 15
5 25 50 10 39 28
5 43 4 41 20 22
5 5 42 46 15 52
5 23 31 34 25 42
5 13 53 32 27 50
5 48 40 5 56 17
5 19 10 50 9 34
5 29 36 16 43 24
5 12 52 33 26 51
5 53 13 26 33 4
5 55 7 24 35 8
5 3 46 42 17 56
5 26 57 9 50 27
5 59 14 15 46 1
5 52 12 27 32 5
5 6 54 19 28 39
5 2 47 43 16 57
5 4 43 47 14 53
5 11 18 55 12 44
5 57 26 13 54 2
5 30 22 29 18 37
5 35 16 36 37 18
5 56 27 12 55 3
5 18 11 51 8 35
5 44 1 39 10 11
5 14 59 21 40 41
5 31 23 28 19 36
5 32 9 57 4 33
5 20 21 59 0 47
5 42 5 40 21 23
5 50 25 6 45 13
5 24 51 11 38 29
