OFF
60 60 0

0.464312613208127 0.402447785965735 5.10282837667365
-0.464312613208127 -0.402447785965735 5.10282837667365
-2.08234660195802 1.40244778596574 4.48479438792376
2.08234660195802 -1.40244778596574 4.48479438792376
-3.02048177471563 1.75127358957603 3.77175536429166
3.02048177471563 -1.75127358957603 3.77175536429166
-1.75127358957603 3.77175536429166 3.02048177471563
1.75127358957603 -3.77175536429166 3.02048177471563
-2.73352079834772 -1.00000000000000 4.23606797749979
2.73352079834772 1.00000000000000 4.23606797749979
-1.40244778596574 4.48479438792376 2.08234660195802
1.40244778596574 -4.48479438792376 2.08234660195802
-2.36930757832593 -2.15372137554177 4.02048177471563
2.36930757832593 2.15372137554177 4.02048177471563
1.00000000000000 4.23606797749979 2.73352079834772
-1.00000000000000 -4.23606797749979 2.73352079834772
-4.02048177471563 -2.36930757832593 2.15372137554177
4.02048177471563 2.36930757832593 2.15372137554177
-3.77175536429166 3.02048177471563 1.75127358957603
3.77175536429166 -3.02048177471563 1.75127358957603
2.15372137554177 4.02048177471563 2.36930757832593
-2.15372137554177 -4.02048177471563 2.36930757832593
-4.23606797749979 -2.73352079834772 1.00000000000000
4.23606797749979 2.73352079834772 1.00000000000000
-4.48479438792376 2.08234660195802 1.40244778596574
4.48479438792376 -2.08234660195802 1.40244778596574
-5.10282837667365 -0.464312613208127 0.402447785965735
5.10282837667365 0.464312613208127 0.402447785965735
-4.23606797749979 2.73352079834772 -1.00000000000000
4.23606797749979 -2.73352079834772 -1.00000000000000
0.402447785965735 5.10282837667365 0.464312613208127
-0.402447785965735 -5.10282837667365 0.464312613208127
-5.10282837667365 0.464312613208127 -0.402447785965735
5.10282837667365 -0.464312613208127 -0.402447785965735
-4.02048177471563 2.36930757832593 -2.15372137554177
4.02048177471563 -2.36930757832593 -2.15372137554177
-0.402447785965735 5.10282837667365 -0.464312613208127
0.402447785965735 -5.10282837667365 -0.464312613208127
-2.15372137554177 4.02048177471563 -2.36930757832593
2.15372137554177 -4.02048177471563 -2.36930757832593
1.40244778596574 4.48479438792376 -2.08234660195802
-1.40244778596574 -4.48479438792376 -2.08234660195802
-4.48479438792376 -2.08234660195802 -1.40244778596574
4.48479438792376 2.08234660195802 -1.40244778596574
-1.00000000000000 4.23606797749979 -2.73352079834772
1.00000000000000 -4.23606797749979 -2.73352079834772
1.75127358957603 3.77175536429166 -3.02048177471563
-1.75127358957603 -3.77175536429166 -3.02048177471563
-3.77175536429166 -3.02048177471563 -1.75127358957603
3.77175536429166 3.02048177471563 -1.75127358957603
-3.02048177471563 -1.75127358957603 -3.77175536429166
3.02048177471563 1.75127358957603 -3.77175536429166
-2.36930757832593 2.15372137554177 -4.02048177471563
2.36930757832593 -2.15372137554177 -4.02048177471563
-2.08234660195802 -1.40244778596574 -4.48479438792376
2.08234660195802 1.40244778596574 -4.48479438792376
-2.73352079834772 1.00000000000000 -4.23606797749979
2.73352079834772 -1.00000000000000 -4.23606797749979
-0.464312613208127 0.402447785965735 -5.10282837667365
0.464312613208127 -0.402447785965735 -5.10282837667365

5 34 37 50 6 7
5 22 35 41 2 27
5 38 1 18 51 5
5 41 2 21 58 10
5 54 25 53 26 3
5 9 53 25 10 58
5 51 7 33 56 21
5 1 45 15 20 57
5 17 31 5 46 47
5 28 17 10 54 33
5 36 22 28 17 15
5 27 8 9 53 22
5 33 56 57 13 28
5 8 52 24 11 59
5 21 58 48 5 51
5 7 18 1 45 34
5 15 20 3 42 36
5 10 54 38 1 41
5 46 48 58 14 16
5 49 4 30 29 12
5 39 0 19 50 4
5 45 38 54 25 30
5 37 23 29 16 14
5 0 44 14 21 56
5 16 30 4 47 46
5 47 49 59 15 17
5 58 14 44 39 9
5 40 3 20 59 11
5 25 10 17 31 24
5 43 41 35 36 42
5 5 46 27 8 38
5 23 34 40 3 26
5 13 32 6 19 48
5 48 5 31 28 13
5 19 50 37 23 52
5 29 16 11 55 32
5 12 33 7 18 49
5 53 26 47 49 18
5 55 24 52 27 2
5 3 42 12 33 54
5 26 9 8 52 23
5 59 15 45 38 8
5 52 27 46 48 19
5 6 19 0 44 35
5 2 43 13 32 55
5 4 47 26 9 39
5 11 55 39 0 40
5 57 13 43 41 1
5 30 29 23 34 45
5 35 36 51 7 6
5 56 12 42 40 0
5 18 51 36 22 53
5 44 39 55 24 31
5 14 21 2 43 37
5 31 28 22 35 44
5 32 57 56 12 29
5 20 59 49 4 50
5 42 40 34 37 43
5 50 6 32 57 20
5 24 11 16 30 25
