OFF
60 60 0

0.867772251077803 19.0211450688754 36.2847844516983
-0.867772251077803 -19.0211450688754 36.2847844516983
-2.48580623982770 20.0211450688754 35.6667504629484
2.48580623982770 -20.0211450688754 35.6667504629484
-33.7989782118706 2.40408499673789 23.0432640543631
33.7989782118706 -2.40408499673789 23.0432640543631
-2.40408499673789 23.0432640543631 33.7989782118706
2.40408499673789 -23.0432640543631 33.7989782118706
-33.2626654662105 -1.00000000000000 23.9110363054409
33.2626654662105 1.00000000000000 23.9110363054409
-20.0211450688754 35.6667504629484 2.48580623982770
20.0211450688754 -35.6667504629484 2.48580623982770
-3.02211898548779 -21.4252300656133 34.7989782118706
3.02211898548779 21.4252300656133 34.7989782118706
1.00000000000000 23.9110363054409 33.2626654662105
-1.00000000000000 -23.9110363054409 33.2626654662105
-34.7989782118706 -3.02211898548779 21.4252300656133
34.7989782118706 3.02211898548779 21.4252300656133
-23.0432640543631 33.7989782118706 2.40408499673789
23.0432640543631 -33.7989782118706 2.40408499673789
21.4252300656133 34.7989782118706 3.02211898548779
-21.4252300656133 -34.7989782118706 3.02211898548779
-23.9110363054409 -33.2626654662105 1.00000000000000
23.9110363054409 33.2626654662105 1.00000000000000
-35.6667504629484 2.48580623982770 20.0211450688754
35.6667504629484 -2.48580623982770 20.0211450688754
-36.2847844516983 -0.867772251077803 19.0211450688754
36.2847844516983 0.867772251077803 19.0211450688754
-23.9110363054409 33.2626654662105 -1.00000000000000
23.9110363054409 -33.2626654662105 -1.00000000000000
19.0211450688754 36.2847844516983 0.867772251077803
-19.0211450688754 -36.2847844516983 0.867772251077803
-36.2847844516983 0.867772251077803 -19.0211450688754
36.2847844516983 -0.867772251077803 -19.0211450688754
-34.7989782118706 3.02211898548779 -21.4252300656133
34.7989782118706 -3.02211898548779 -21.4252300656133
-19.0211450688754 36.2847844516983 -0.867772251077803
19.0211450688754 -36.2847844516983 -0.867772251077803
-21.4252300656133 34.7989782118706 -3.02211898548779
21.4252300656133 -34.7989782118706 -3.02211898548779
20.0211450688754 35.6667504629484 -2.48580623982770
-20.0211450688754 -35.6667504629484 -2.48580623982770
-35.6667504629484 -2.48580623982770 -20.0211450688754
35.6667504629484 2.48580623982770 -20.0211450688754
-1.00000000000000 23.9110363054409 -33.2626654662105
1.00000000000000 -23.9110363054409 -33.2626654662105
2.40408499673789 23.0432640543631 -33.7989782118706
-2.40408499673789 -23.0432640543631 -33.7989782118706
-23.0432640543631 -33.7989782118706 -2.40408499673789
23.0432640543631 33.7989782118706 -2.40408499673789
-33.7989782118706 -2.40408499673789 -23.0432640543631
33.7989782118706 2.40408499673789 -23.0432640543631
-3.02211898548779 21.4252300656133 -34.7989782118706
3.02211898548779 -21.4252300656133 -34.7989782118706
-2.48580623982770 -20.0211450688754 -35.6667504629484
2.48580623982770 20.0211450688754 -35.6667504629484
-33.2626654662105 1.00000000000000 -23.9110363054409
33.2626654662105 -1.00000000000000 -23.9110363054409
-0.867772251077803 19.0211450688754 -36.2847844516983
0.867772251077803 -19.0211450688754 -36.2847844516983

5 34 27 12 52 5
5 22 40 5 42 23
5 38 37 17 34 19
5 41 23 28 37 30
5 54 14 15 58 0
5 9 42 46 3 56
5 51 4 41 49 16
5 1 52 33 8 55
5 17 32 53 13 50
5 28 11 51 24 29
5 36 39 1 44 11
5 27 34 31 23 42
5 33 16 36 29 24
5 8 43 47 2 57
5 21 30 35 16 49
5 7 46 42 5 52
5 15 55 18 11 44
5 10 29 22 30 37
5 46 7 24 51 12
5 49 48 3 46 21
5 39 36 16 35 18
5 45 2 49 41 14
5 37 38 0 45 10
5 0 53 32 9 54
5 16 33 52 12 51
5 47 6 25 50 13
5 58 12 27 56 3
5 40 22 29 36 31
5 25 56 8 33 32
5 43 8 56 27 26
5 5 50 10 19 34
5 23 41 4 43 22
5 13 59 21 20 47
5 48 49 2 47 20
5 19 18 55 7 38
5 29 10 50 25 28
5 12 58 20 21 46
5 53 0 38 39 6
5 55 15 14 59 1
5 3 44 45 0 58
5 26 35 30 22 43
5 59 13 26 57 2
5 52 1 39 38 7
5 6 47 43 4 53
5 2 45 44 1 59
5 4 51 11 18 35
5 11 28 23 31 36
5 57 24 7 55 8
5 30 21 59 14 41
5 35 26 13 53 4
5 56 25 6 54 9
5 18 19 54 6 39
5 44 3 48 40 15
5 14 54 19 10 45
5 31 20 58 15 40
5 32 17 37 28 25
5 20 31 34 17 48
5 42 9 57 26 27
5 50 5 40 48 17
5 24 57 9 32 33
