OFF
60 60 0

0.767782240404417 1.06400508920890 6.96774437737996
-0.767782240404417 -1.06400508920890 6.96774437737996
-2.38581622915431 2.06400508920890 6.34971038863006
2.38581622915431 -2.06400508920890 6.34971038863006
-4.58192814822565 2.24229776093289 4.92433683889168
4.58192814822565 -2.24229776093289 4.92433683889168
-2.24229776093289 4.92433683889168 4.58192814822565
2.24229776093289 -4.92433683889168 4.58192814822565
-4.10741262769717 -1.00000000000000 5.69211907929610
4.10741262769717 1.00000000000000 5.69211907929610
-2.06400508920890 6.34971038863006 2.38581622915431
2.06400508920890 -6.34971038863006 2.38581622915431
-2.86033174968278 -3.30630285014179 5.58192814822565
2.86033174968278 3.30630285014179 5.58192814822565
1.00000000000000 5.69211907929610 4.10741262769717
-1.00000000000000 -5.69211907929610 4.10741262769717
-5.58192814822565 -2.86033174968278 3.30630285014179
5.58192814822565 2.86033174968278 3.30630285014179
-4.92433683889168 4.58192814822565 2.24229776093289
4.92433683889168 -4.58192814822565 2.24229776093289
3.30630285014179 5.58192814822565 2.86033174968278
-3.30630285014179 -5.58192814822565 2.86033174968278
-5.69211907929610 -4.10741262769717 1.00000000000000
5.69211907929610 4.10741262769717 1.00000000000000
-6.34971038863006 2.38581622915431 2.06400508920890
6.34971038863006 -2.38581622915431 2.06400508920890
-6.96774437737996 -0.767782240404417 1.06400508920890
6.96774437737996 0.767782240404417 1.06400508920890
-5.69211907929610 4.10741262769717 -1.00000000000000
5.69211907929610 -4.10741262769717 -1.00000000000000
1.06400508920890 6.96774437737996 0.767782240404417
-1.06400508920890 -6.96774437737996 0.767782240404417
-6.96774437737996 0.767782240404417 -1.06400508920890
6.96774437737996 -0.767782240404417 -1.06400508920890
-5.58192814822565 2.86033174968278 -3.30630285014179
5.58192814822565 -2.86033174968278 -3.30630285014179
-1.06400508920890 6.96774437737996 -0.767782240404417
1.06400508920890 -6.96774437737996 -0.767782240404417
-3.30630285014179 5.58192814822565 -2.86033174968278
3.30630285014179 -5.58192814822565 -2.86033174968278
2.06400508920890 6.34971038863006 -2.38581622915431
-2.06400508920890 -6.34971038863006 -2.38581622915431
-6.34971038863006 -2.38581622915431 -2.06400508920890
6.34971038863006 2.38581622915431 -2.06400508920890
-1.00000000000000 5.69211907929610 -4.10741262769717
1.00000000000000 -5.69211907929610 -4.10741262769717
2.24229776093289 4.92433683889168 -4.58192814822565
-2.24229776093289 -4.92433683889168 -4.58192814822565
-4.92433683889168 -4.58192814822565 -2.24229776093289
4.92433683889168 4.58192814822565 -2.24229776093289
-4.58192814822565 -2.24229776093289 -4.92433683889168
4.58192814822565 2.24229776093289 -4.92433683889168
-2.86033174968278 3.30630285014179 -5.58192814822565
2.86033174968278 -3.30630285014179 -5.58192814822565
-2.38581622915431 -2.06400508920890 -6.34971038863006
2.38581622915431 2.06400508920890 -6.34971038863006
-4.10741262769717 1.00000000000000 -5.69211907929610
4.10741262769717 -1.00000000000000 -5.69211907929610
-0.767782240404417 1.06400508920890 -6.96774437737996
0.767782240404417 -1.06400508920890 -6.96774437737996

5 34 28 8 50 21
5 22 16 3 41 19
5 38 44 23 18 13
5 41 47 34 21 24
5 54 50 21 53 11
5 9 13 40 25 51
5 51 55 47 33 37
5 1 0 27 15 29
5 17 23 57 5 39
5 28 34 55 10 49
5 36 30 0 28 8
5 27 33 37 9 15
5 33 27 30 57 44
5 8 12 41 24 50
5 21 15 29 48 53
5 7 11 48 1 26
5 15 21 24 3 6
5 10 6 16 38 42
5 46 40 18 58 32
5 49 43 5 30 0
5 39 45 22 19 12
5 45 39 43 54 46
5 37 31 1 29 9
5 0 1 26 14 28
5 16 22 56 4 38
5 47 41 19 59 33
5 58 59 33 44 23
5 40 46 35 20 25
5 25 19 12 17 2
5 43 49 52 35 54
5 5 3 6 27 30
5 23 17 2 40 18
5 13 9 15 6 16
5 48 42 4 31 1
5 19 25 51 37 59
5 29 35 54 11 48
5 12 8 14 7 17
5 53 57 44 47 34
5 55 51 20 52 10
5 3 5 39 12 41
5 26 32 36 8 14
5 59 58 32 45 22
5 52 56 45 46 35
5 6 10 49 0 27
5 2 4 38 13 40
5 4 2 7 26 31
5 11 7 17 39 43
5 57 53 11 43 5
5 30 36 58 23 57
5 35 29 9 51 20
5 56 52 10 42 4
5 18 24 50 36 58
5 44 38 42 55 47
5 14 20 25 2 7
5 31 37 59 22 56
5 32 26 31 56 45
5 20 14 28 49 52
5 42 48 53 34 55
5 50 54 46 32 36
5 24 18 13 16 3
