OFF
60 60 0

0.535687386791873 1.15372137554177 6.50527616263939
-0.535687386791873 -1.15372137554177 6.50527616263939
-2.15372137554177 2.15372137554177 5.88724217388949
2.15372137554177 -2.15372137554177 5.88724217388949
-4.35155478709762 1.86676039917386 4.63851576346552
4.35155478709762 -1.86676039917386 4.63851576346552
-1.86676039917386 4.63851576346552 4.35155478709762
1.86676039917386 -4.63851576346552 4.35155478709762
-4.02048177471563 -1.00000000000000 5.17420315025740
4.02048177471563 1.00000000000000 5.17420315025740
-2.15372137554177 5.88724217388949 2.15372137554177
2.15372137554177 -5.88724217388949 2.15372137554177
-2.48479438792376 -3.02048177471563 5.35155478709762
2.48479438792376 3.02048177471563 5.35155478709762
1.00000000000000 5.17420315025740 4.02048177471563
-1.00000000000000 -5.17420315025740 4.02048177471563
-5.35155478709762 -2.48479438792376 3.02048177471563
5.35155478709762 2.48479438792376 3.02048177471563
-4.63851576346552 4.35155478709762 1.86676039917386
4.63851576346552 -4.35155478709762 1.86676039917386
3.02048177471563 5.35155478709762 2.48479438792376
-3.02048177471563 -5.35155478709762 2.48479438792376
-5.17420315025740 -4.02048177471563 1.00000000000000
5.17420315025740 4.02048177471563 1.00000000000000
-5.88724217388949 2.15372137554177 2.15372137554177
5.88724217388949 -2.15372137554177 2.15372137554177
-6.50527616263939 -0.535687386791873 1.15372137554177
6.50527616263939 0.535687386791873 1.15372137554177
-5.17420315025740 4.02048177471563 -1.00000000000000
5.17420315025740 -4.02048177471563 -1.00000000000000
1.15372137554177 6.50527616263939 0.535687386791873
-1.15372137554177 -6.50527616263939 0.535687386791873
-6.50527616263939 0.535687386791873 -1.15372137554177
6.50527616263939 -0.535687386791873 -1.15372137554177
-5.35155478709762 2.48479438792376 -3.02048177471563
5.35155478709762 -2.48479438792376 -3.02048177471563
-1.15372137554177 6.50527616263939 -0.535687386791873
1.15372137554177 -6.50527616263939 -0.535687386791873
-3.02048177471563 5.35155478709762 -2.48479438792376
3.02048177471563 -5.35155478709762 -2.48479438792376
2.15372137554177 5.88724217388949 -2.15372137554177
-2.15372137554177 -5.88724217388949 -2.15372137554177
-5.88724217388949 -2.15372137554177 -2.15372137554177
5.88724217388949 2.15372137554177 -2.15372137554177
-1.00000000000000 5.17420315025740 -4.02048177471563
1.00000000000000 -5.17420315025740 -4.02048177471563
1.86676039917386 4.63851576346552 -4.35155478709762
-1.86676039917386 -4.63851576346552 -4.35155478709762
-4.63851576346552 -4.35155478709762 -1.86676039917386
4.63851576346552 4.35155478709762 -1.86676039917386
-4.35155478709762 -1.86676039917386 -4.63851576346552
4.35155478709762 1.86676039917386 -4.63851576346552
-2.48479438792376 3.02048177471563 -5.35155478709762
2.48479438792376 -3.02048177471563 -5.35155478709762
-2.15372137554177 -2.15372137554177 -5.88724217388949
2.15372137554177 2.15372137554177 -5.88724217388949
-4.02048177471563 1.00000000000000 -5.17420315025740
4.02048177471563 -1.00000000000000 -5.17420315025740
-0.535687386791873 1.15372137554177 -6.50527616263939
0.535687386791873 -1.15372137554177 -6.50527616263939

5 34 28 53 14 35
5 22 16 59 6 55
5 38 44 16 57 21
5 41 47 3 55 9
5 54 50 43 24 23
5 9 13 37 18 41
5 51 55 9 34 0
5 1 0 48 30 50
5 17 23 12 44 16
5 28 34 0 47 3
5 36 30 50 27 47
5 27 33 6 59 18
5 33 27 47 0 48
5 8 12 36 19 40
5 21 15 34 9 38
5 7 11 14 53 30
5 15 21 27 50 43
5 10 6 55 3 57
5 46 40 45 13 37
5 49 43 28 39 32
5 39 45 17 56 20
5 45 39 32 5 24
5 37 31 51 26 46
5 0 1 49 31 51
5 16 22 13 45 17
5 47 41 44 12 36
5 58 59 18 37 4
5 40 46 2 54 8
5 25 19 40 41 44
5 43 49 11 10 15
5 5 3 57 16 59
5 23 17 58 7 54
5 13 9 38 29 52
5 48 42 29 38 33
5 19 25 22 20 26
5 29 35 1 46 2
5 12 8 39 28 53
5 53 57 21 23 12
5 55 51 42 25 22
5 3 5 24 43 28
5 26 32 7 58 19
5 59 58 19 36 5
5 52 56 20 22 13
5 6 10 15 52 31
5 2 4 25 42 29
5 4 2 56 17 58
5 11 7 54 2 56
5 57 53 30 48 10
5 30 36 5 32 7
5 35 29 52 15 34
5 56 52 31 49 11
5 18 24 23 21 27
5 44 38 33 4 25
5 14 20 26 51 42
5 31 37 4 33 6
5 32 26 46 1 49
5 20 14 35 8 39
5 42 48 10 11 14
5 50 54 8 35 1
5 24 18 41 40 45
