OFF
60 60 0

1.00000000000000 1.61803398874989 8.47213595499958
-1.00000000000000 -1.61803398874989 8.47213595499958
-2.61803398874989 2.61803398874989 7.85410196624968
2.61803398874989 -2.61803398874989 7.85410196624968
-5.85410196624968 2.61803398874989 5.85410196624968
5.85410196624968 -2.61803398874989 5.85410196624968
-2.61803398874989 5.85410196624968 5.85410196624968
2.61803398874989 -5.85410196624968 5.85410196624968
-5.23606797749979 -1.00000000000000 6.85410196624968
5.23606797749979 1.00000000000000 6.85410196624968
-2.61803398874989 7.85410196624968 2.61803398874989
2.61803398874989 -7.85410196624968 2.61803398874989
-3.23606797749979 -4.23606797749979 6.85410196624968
3.23606797749979 4.23606797749979 6.85410196624968
1.00000000000000 6.85410196624968 5.23606797749979
-1.00000000000000 -6.85410196624968 5.23606797749979
-6.85410196624968 -3.23606797749979 4.23606797749979
6.85410196624968 3.23606797749979 4.23606797749979
-5.85410196624968 5.85410196624968 2.61803398874989
5.85410196624968 -5.85410196624968 2.61803398874989
4.23606797749979 6.85410196624968 3.23606797749979
-4.23606797749979 -6.85410196624968 3.23606797749979
-6.85410196624968 -5.23606797749979 1.00000000000000
6.85410196624968 5.23606797749979 1.00000000000000
-7.85410196624968 2.61803398874989 2.61803398874989
7.85410196624968 -2.61803398874989 2.61803398874989
-8.47213595499958 -1.00000000000000 1.61803398874989
8.47213595499958 1.00000000000000 1.61803398874989
-6.85410196624968 5.23606797749979 -1.00000000000000
6.85410196624968 -5.23606797749979 -1.00000000000000
1.61803398874989 8.47213595499958 1.00000000000000
-1.61803398874989 -8.47213595499958 1.00000000000000
-8.47213595499958 1.00000000000000 -1.61803398874989
8.47213595499958 -1.00000000000000 -1.61803398874989
-6.85410196624968 3.23606797749979 -4.23606797749979
6.85410196624968 -3.23606797749979 -4.23606797749979
-1.61803398874989 8.47213595499958 -1.00000000000000
1.61803398874989 -8.47213595499958 -1.00000000000000
-4.23606797749979 6.85410196624968 -3.23606797749979
4.23606797749979 -6.85410196624968 -3.23606797749979
2.61803398874989 7.85410196624968 -2.61803398874989
-2.61803398874989 -7.85410196624968 -2.61803398874989
-7.85410196624968 -2.61803398874989 -2.61803398874989
7.85410196624968 2.61803398874989 -2.61803398874989
-1.00000000000000 6.85410196624968 -5.23606797749979
1.00000000000000 -6.85410196624968 -5.23606797749979
2.61803398874989 5.85410196624968 -5.85410196624968
-2.61803398874989 -5.85410196624968 -5.85410196624968
-5.85410196624968 -5.85410196624968 -2.61803398874989
5.85410196624968 5.85410196624968 -2.61803398874989
-5.85410196624968 -2.61803398874989 -5.85410196624968
5.85410196624968 2.61803398874989 -5.85410196624968
-3.23606797749979 4.23606797749979 -6.85410196624968
3.23606797749979 -4.23606797749979 -6.85410196624968
-2.61803398874989 -2.61803398874989 -7.85410196624968
2.61803398874989 2.61803398874989 -7.85410196624968
-5.23606797749979 1.00000000000000 -6.85410196624968
5.23606797749979 -1.00000000000000 -6.85410196624968
-1.00000000000000 1.61803398874989 -8.47213595499958
1.00000000000000 -1.61803398874989 -8.47213595499958

6 34 16 46 27 32 5
6 22 7 34 40 21 23
6 38 20 50 37 36 19
6 41 32 29 23 48 30
6 54 31 44 14 47 0
6 9 49 12 42 17 56
6 51 45 30 4 57 16
6 1 25 24 52 3 55
6 17 35 6 32 27 50
6 28 46 16 11 38 29
6 36 2 55 39 10 11
6 27 11 40 34 25 42
6 33 40 11 16 43 24
6 8 48 13 43 16 57
6 21 39 4 30 31 49
6 7 22 27 46 15 52
6 15 4 39 55 12 44
6 10 26 23 29 18 37
6 46 28 33 7 44 12
6 49 9 58 48 23 21
6 39 21 51 36 37 18
6 45 51 21 2 53 14
6 37 3 54 38 11 10
6 0 24 25 53 2 54
6 16 34 7 33 26 51
6 47 29 32 6 45 13
6 58 43 42 12 55 3
6 40 33 28 22 49 31
6 25 1 57 56 5 32
6 43 58 9 8 51 26
6 5 14 37 50 9 34
6 23 6 35 41 20 22
6 13 12 49 59 0 47
6 48 8 59 49 22 20
6 19 57 1 18 29 38
6 29 47 17 10 39 28
6 12 13 48 58 1 46
6 53 52 19 0 59 6
6 55 30 45 15 46 1
6 3 37 14 44 7 58
6 26 10 41 35 24 43
6 59 42 43 13 54 2
6 52 53 18 1 58 7
6 6 23 26 47 14 53
6 2 36 15 45 6 59
6 4 15 36 51 8 35
6 11 27 22 28 19 36
6 57 19 52 24 35 8
6 30 55 2 21 40 41
6 35 17 47 26 33 4
6 56 18 53 25 34 9
6 18 56 0 19 28 39
6 44 50 20 3 52 15
6 14 5 38 54 13 45
6 31 54 3 20 41 40
6 32 41 10 17 42 25
6 20 38 5 31 30 48
6 42 59 8 9 50 27
6 50 44 31 5 56 17
6 24 0 56 57 4 33
