OFF
60 60 0

1.00000000000000 1.28824561127074 7.93852715114362
-1.00000000000000 -1.28824561127074 7.93852715114362
-2.61803398874989 2.28824561127074 7.32049316239373
2.61803398874989 -2.28824561127074 7.32049316239373
-5.32049316239373 2.61803398874989 5.52431358877053
5.32049316239373 -2.61803398874989 5.52431358877053
-2.61803398874989 5.52431358877053 5.32049316239373
2.61803398874989 -5.52431358877053 5.32049316239373
-4.70245917364383 -1.00000000000000 6.52431358877053
4.70245917364383 1.00000000000000 6.52431358877053
-2.28824561127074 7.32049316239373 2.61803398874989
2.28824561127074 -7.32049316239373 2.61803398874989
-3.23606797749979 -3.90627960002063 6.32049316239373
3.23606797749979 3.90627960002063 6.32049316239373
1.00000000000000 6.52431358877053 4.70245917364383
-1.00000000000000 -6.52431358877053 4.70245917364383
-6.32049316239373 -3.23606797749979 3.90627960002063
6.32049316239373 3.23606797749979 3.90627960002063
-5.52431358877053 5.32049316239373 2.61803398874989
5.52431358877053 -5.32049316239373 2.61803398874989
3.90627960002063 6.32049316239373 3.23606797749979
-3.90627960002063 -6.32049316239373 3.23606797749979
-6.52431358877053 -4.70245917364383 1.00000000000000
6.52431358877053 4.70245917364383 1.00000000000000
-7.32049316239373 2.61803398874989 2.28824561127074
7.32049316239373 -2.61803398874989 2.28824561127074
-7.93852715114362 -1.00000000000000 1.28824561127074
7.93852715114362 1.00000000000000 1.28824561127074
-6.52431358877053 4.70245917364383 -1.00000000000000
6.52431358877053 -4.70245917364383 -1.00000000000000
1.28824561127074 7.93852715114362 1.00000000000000
-1.28824561127074 -7.93852715114362 1.00000000000000
-7.93852715114362 1.00000000000000 -1.28824561127074
7.93852715114362 -1.00000000000000 -1.28824561127074
-6.32049316239373 3.23606797749979 -3.90627960002063
6.32049316239373 -3.23606797749979 -3.90627960002063
-1.28824561127074 7.93852715114362 -1.00000000000000
1.28824561127074 -7.93852715114362 -1.00000000000000
-3.90627960002063 6.32049316239373 -3.23606797749979
3.90627960002063 -6.32049316239373 -3.23606797749979
2.28824561127074 7.32049316239373 -2.61803398874989
-2.28824561127074 -7.32049316239373 -2.61803398874989
-7.32049316239373 -2.61803398874989 -2.28824561127074
7.32049316239373 2.61803398874989 -2.28824561127074
-1.00000000000000 6.52431358877053 -4.70245917364383
1.00000000000000 -6.52431358877053 -4.70245917364383
2.61803398874989 5.52431358877053 -5.32049316239373
-2.61803398874989 -5.52431358877053 -5.32049316239373
-5.52431358877053 -5.32049316239373 -2.61803398874989
5.52431358877053 5.32049316239373 -2.61803398874989
-5.32049316239373 -2.61803398874989 -5.52431358877053
5.32049316239373 2.61803398874989 -5.52431358877053
-3.23606797749979 3.90627960002063 -6.32049316239373
3.23606797749979 -3.90627960002063 -6.32049316239373
-2.61803398874989 -2.28824561127074 -7.32049316239373
2.61803398874989 2.28824561127074 -7.32049316239373
-4.70245917364383 1.00000000000000 -6.52431358877053
4.70245917364383 -1.00000000000000 -6.52431358877053
-1.00000000000000 1.28824561127074 -7.93852715114362
1.00000000000000 -1.28824561127074 -7.93852715114362

5 34 28 39 18 19
5 22 16 57 8 43
5 38 44 12 46 7
5 41 47 0 54 14
5 54 50 27 42 9
5 9 13 45 14 54
5 51 55 3 58 12
5 1 0 47 13 59
5 17 23 21 49 48
5 28 34 9 56 25
5 36 30 48 20 31
5 27 33 4 35 26
5 33 27 50 17 32
5 8 12 44 15 55
5 21 15 52 7 46
5 7 11 10 37 38
5 15 21 23 22 40
5 10 6 59 2 45
5 46 40 41 30 21
5 49 43 24 33 16
5 39 45 13 47 6
5 45 39 28 29 10
5 37 31 49 21 30
5 0 1 46 12 58
5 16 22 20 48 49
5 47 41 40 31 20
5 58 59 6 53 0
5 40 46 1 55 15
5 25 19 36 11 28
5 43 49 31 40 22
5 5 3 55 1 52
5 23 17 56 9 42
5 13 9 34 5 50
5 48 42 25 32 17
5 19 25 42 27 34
5 29 35 8 57 24
5 12 8 35 4 51
5 53 57 16 51 4
5 55 51 26 43 8
5 3 5 32 25 56
5 26 32 5 34 27
5 59 58 7 52 1
5 52 56 17 50 5
5 6 10 11 36 39
5 2 4 33 24 57
5 4 2 54 0 53
5 11 7 58 3 44
5 57 53 14 45 2
5 30 36 19 38 37
5 35 29 38 19 18
5 56 52 15 44 3
5 18 24 43 26 35
5 44 38 29 28 11
5 14 20 22 23 41
5 31 37 18 39 36
5 32 26 51 16 33
5 20 14 53 6 47
5 42 48 30 41 23
5 50 54 2 59 13
5 24 18 37 10 29
