OFF
60 60 0

0.517453409920642 0.869749137796929 5.99806225890791
-0.517453409920642 -0.869749137796929 5.99806225890791
-2.13548739867054 1.86974913779693 5.38002827015801
2.13548739867054 -1.86974913779693 5.38002827015801
-3.86257486023737 1.83725720484613 4.32504033139295
3.86257486023737 -1.83725720484613 4.32504033139295
-1.83725720484613 4.32504033139295 3.86257486023737
1.83725720484613 -4.32504033139295 3.86257486023737
-3.54277106531188 -1.00000000000000 4.84249374131360
3.54277106531188 1.00000000000000 4.84249374131360
-1.86974913779693 5.38002827015801 2.13548739867054
1.86974913779693 -5.38002827015801 2.13548739867054
-2.45529119359602 -2.70700634264306 4.86257486023737
2.45529119359602 2.70700634264306 4.86257486023737
1.00000000000000 4.84249374131360 3.54277106531188
-1.00000000000000 -4.84249374131360 3.54277106531188
-4.86257486023737 -2.45529119359602 2.70700634264306
4.86257486023737 2.45529119359602 2.70700634264306
-4.32504033139295 3.86257486023737 1.83725720484613
4.32504033139295 -3.86257486023737 1.83725720484613
2.70700634264306 4.86257486023737 2.45529119359602
-2.70700634264306 -4.86257486023737 2.45529119359602
-4.84249374131360 -3.54277106531188 1.00000000000000
4.84249374131360 3.54277106531188 1.00000000000000
-5.38002827015801 2.13548739867054 1.86974913779693
5.38002827015801 -2.13548739867054 1.86974913779693
-5.99806225890791 -0.517453409920642 0.869749137796929
5.99806225890791 0.517453409920642 0.869749137796929
-4.84249374131360 3.54277106531188 -1.00000000000000
4.84249374131360 -3.54277106531188 -1.00000000000000
0.869749137796929 5.99806225890791 0.517453409920642
-0.869749137796929 -5.99806225890791 0.517453409920642
-5.99806225890791 0.517453409920642 -0.869749137796929
5.99806225890791 -0.517453409920642 -0.869749137796929
-4.86257486023737 2.45529119359602 -2.70700634264306
4.86257486023737 -2.45529119359602 -2.70700634264306
-0.869749137796929 5.99806225890791 -0.517453409920642
0.869749137796929 -5.99806225890791 -0.517453409920642
-2.70700634264306 4.86257486023737 -2.45529119359602
2.70700634264306 -4.86257486023737 -2.45529119359602
1.86974913779693 5.38002827015801 -2.13548739867054
-1.86974913779693 -5.38002827015801 -2.13548739867054
-5.38002827015801 -2.13548739867054 -1.86974913779693
5.38002827015801 2.13548739867054 -1.86974913779693
-1.00000000000000 4.84249374131360 -3.54277106531188
1.00000000000000 -4.84249374131360 -3.54277106531188
1.83725720484613 4.32504033139295 -3.86257486023737
-1.83725720484613 -4.32504033139295 -3.86257486023737
-4.32504033139295 -3.86257486023737 -1.83725720484613
4.32504033139295 3.86257486023737 -1.83725720484613
-3.86257486023737 -1.83725720484613 -4.32504033139295
3.86257486023737 1.83725720484613 -4.32504033139295
-2.45529119359602 2.70700634264306 -4.86257486023737
2.45529119359602 -2.70700634264306 -4.86257486023737
-2.13548739867054 -1.86974913779693 -5.38002827015801
2.13548739867054 1.86974913779693 -5.38002827015801
-3.54277106531188 1.00000000000000 -4.84249374131360
3.54277106531188 -1.00000000000000 -4.84249374131360
-0.517453409920642 0.869749137796929 -5.99806225890791
0.517453409920642 -0.869749137796929 -5.99806225890791

5 34 16 49 32 5
5 22 7 38 21 23
5 38 20 47 36 19
5 41 32 33 48 30
5 54 31 36 47 0
5 9 49 16 17 56
5 51 45 10 57 16
5 1 25 28 3 55
5 17 35 18 27 50
5 28 46 21 38 29
5 36 2 57 10 11
5 27 11 44 25 42
5 33 40 15 43 24
5 8 48 17 16 57
5 21 39 6 31 49
5 7 22 43 15 52
5 15 4 53 12 44
5 10 26 27 18 37
5 46 28 25 44 12
5 49 9 54 23 21
5 39 21 46 37 18
5 45 51 12 53 14
5 37 3 56 11 10
5 0 24 29 2 54
5 16 34 19 26 51
5 47 29 24 45 13
5 58 43 22 55 3
5 40 33 32 49 31
5 25 1 59 5 32
5 43 58 0 51 26
5 5 14 41 9 34
5 23 6 39 20 22
5 13 12 51 0 47
5 48 8 55 22 20
5 19 57 2 29 38
5 29 47 20 39 28
5 12 13 50 1 46
5 53 52 5 59 6
5 55 30 37 46 1
5 3 37 30 7 58
5 26 10 45 24 43
5 59 42 23 54 2
5 52 53 4 58 7
5 6 23 42 14 53
5 2 36 31 6 59
5 4 15 40 8 35
5 11 27 26 19 36
5 57 19 34 35 8
5 30 55 8 40 41
5 35 17 48 33 4
5 56 18 35 34 9
5 18 56 3 28 39
5 44 50 13 52 15
5 14 5 52 13 45
5 31 54 9 41 40
5 32 41 14 42 25
5 20 38 7 30 48
5 42 59 1 50 27
5 50 44 11 56 17
5 24 0 58 4 33
