OFF
60 60 0

1.48127239828048 2.78292036767949 11.6169492056849
-1.48127239828048 -2.78292036767949 11.6169492056849
-3.09930638703037 3.78292036767949 10.9989152169350
3.09930638703037 -3.78292036767949 10.9989152169350
-8.51764281865455 3.39674908701489 7.79770344344427
8.51764281865455 -3.39674908701489 7.79770344344427
-3.39674908701489 7.79770344344427 8.51764281865455
3.39674908701489 -7.79770344344427 8.51764281865455
-7.60216612992014 -1.00000000000000 9.27897584172475
7.60216612992014 1.00000000000000 9.27897584172475
-3.78292036767949 10.9989152169350 3.09930638703037
3.78292036767949 -10.9989152169350 3.09930638703037
-4.01478307576478 -6.17966945469437 9.51764281865455
4.01478307576478 6.17966945469437 9.51764281865455
1.00000000000000 9.27897584172475 7.60216612992014
-1.00000000000000 -9.27897584172475 7.60216612992014
-9.51764281865455 -4.01478307576478 6.17966945469437
9.51764281865455 4.01478307576478 6.17966945469437
-7.79770344344427 8.51764281865455 3.39674908701489
7.79770344344427 -8.51764281865455 3.39674908701489
6.17966945469437 9.51764281865455 4.01478307576478
-6.17966945469437 -9.51764281865455 4.01478307576478
-9.27897584172475 -7.60216612992014 1.00000000000000
9.27897584172475 7.60216612992014 1.00000000000000
-10.9989152169350 3.09930638703037 3.78292036767949
10.9989152169350 -3.09930638703037 3.78292036767949
-11.6169492056849 -1.48127239828048 2.78292036767949
11.6169492056849 1.48127239828048 2.78292036767949
-9.27897584172475 7.60216612992014 -1.00000000000000
9.27897584172475 -7.60216612992014 -1.00000000000000
2.78292036767949 11.6169492056849 1.48127239828048
-2.78292036767949 -11.6169492056849 1.48127239828048
-11.6169492056849 1.48127239828048 -2.78292036767949
11.6169492056849 -1.48127239828048 -2.78292036767949
-9.51764281865455 4.01478307576478 -6.17966945469437
9.51764281865455 -4.01478307576478 -6.17966945469437
-2.78292036767949 11.6169492056849 -1.48127239828048
2.78292036767949 -11.6169492056849 -1.48127239828048
-6.17966945469437 9.51764281865455 -4.01478307576478
6.17966945469437 -9.51764281865455 -4.01478307576478
3.78292036767949 10.9989152169350 -3.09930638703037
-3.78292036767949 -10.9989152169350 -3.09930638703037
-10.9989152169350 -3.09930638703037 -3.78292036767949
10.9989152169350 3.09930638703037 -3.78292036767949
-1.00000000000000 9.27897584172475 -7.60216612992014
1.00000000000000 -9.27897584172475 -7.60216612992014
3.39674908701489 7.79770344344427 -8.51764281865455
-3.39674908701489 -7.79770344344427 -8.51764281865455
-7.79770344344427 -8.51764281865455 -3.39674908701489
7.79770344344427 8.51764281865455 -3.39674908701489
-8.51764281865455 -3.39674908701489 -7.79770344344427
8.51764281865455 3.39674908701489 -7.79770344344427
-4.01478307576478 6.17966945469437 -9.51764281865455
4.01478307576478 -6.17966945469437 -9.51764281865455
-3.09930638703037 -3.78292036767949 -10.9989152169350
3.09930638703037 3.78292036767949 -10.9989152169350
-7.60216612992014 1.00000000000000 -9.27897584172475
7.60216612992014 -1.00000000000000 -9.27897584172475
-1.48127239828048 2.78292036767949 -11.6169492056849
1.48127239828048 -2.78292036767949 -11.6169492056849

5 34 28 56 27 35
5 22 16 48 40 55
5 38 44 28 37 21
5 41 47 31 23 9
5 54 50 59 14 23
5 9 13 5 42 41
5 51 55 43 4 0
5 1 0 12 52 50
5 17 23 9 32 16
5 28 34 18 11 3
5 36 30 38 39 47
5 27 33 17 34 18
5 33 27 35 16 48
5 8 12 4 43 40
5 21 15 22 30 38
5 7 11 3 46 30
5 15 21 7 55 43
5 10 6 36 29 57
5 46 40 55 7 37
5 49 43 40 48 32
5 39 45 29 36 20
5 45 39 47 2 24
5 37 31 39 38 46
5 0 1 13 53 51
5 16 22 8 33 17
5 47 41 54 6 36
5 58 59 52 12 4
5 40 46 30 22 8
5 25 19 27 56 44
5 43 49 33 8 15
5 5 3 25 50 59
5 23 17 49 41 54
5 13 9 14 59 52
5 48 42 41 49 33
5 19 25 11 18 26
5 29 35 19 10 2
5 12 8 15 58 53
5 53 57 45 0 12
5 55 51 58 15 22
5 3 5 1 44 28
5 26 32 16 35 19
5 59 58 53 13 5
5 52 56 44 1 13
5 6 10 2 47 31
5 2 4 0 45 29
5 4 2 24 51 58
5 11 7 37 28 56
5 57 53 51 24 10
5 30 36 20 21 7
5 35 29 57 26 34
5 56 52 50 25 11
5 18 24 10 19 27
5 44 38 46 3 25
5 14 20 6 54 42
5 31 37 21 20 6
5 32 26 34 17 49
5 20 14 23 31 39
5 42 48 32 9 14
5 50 54 42 5 1
5 24 18 26 57 45
