OFF
60 60 0

6.32049316239373 11.8448067511643 38.9486338158659
-6.32049316239373 -11.8448067511643 38.9486338158659
-7.93852715114362 12.8448067511643 38.3305998271160
7.93852715114362 -12.8448067511643 38.3305998271160
-31.0101066647222 11.2267727624144 24.6896135023285
31.0101066647222 -11.2267727624144 24.6896135023285
-11.2267727624144 24.6896135023285 31.0101066647222
11.2267727624144 -24.6896135023285 31.0101066647222
-27.1038270647016 -1.00000000000000 31.0101066647222
27.1038270647016 1.00000000000000 31.0101066647222
-12.8448067511643 38.3305998271160 7.93852715114362
12.8448067511643 -38.3305998271160 7.93852715114362
-11.8448067511643 -23.0715795135786 32.0101066647222
11.8448067511643 23.0715795135786 32.0101066647222
1.00000000000000 31.0101066647222 27.1038270647016
-1.00000000000000 -31.0101066647222 27.1038270647016
-32.0101066647222 -11.8448067511643 23.0715795135786
32.0101066647222 11.8448067511643 23.0715795135786
-24.6896135023285 31.0101066647222 11.2267727624144
24.6896135023285 -31.0101066647222 11.2267727624144
23.0715795135786 32.0101066647222 11.8448067511643
-23.0715795135786 -32.0101066647222 11.8448067511643
-31.0101066647222 -27.1038270647016 1.00000000000000
31.0101066647222 27.1038270647016 1.00000000000000
-38.3305998271160 7.93852715114362 12.8448067511643
38.3305998271160 -7.93852715114362 12.8448067511643
-38.9486338158659 -6.32049316239373 11.8448067511643
38.9486338158659 6.32049316239373 11.8448067511643
-31.0101066647222 27.1038270647016 -1.00000000000000
31.0101066647222 -27.1038270647016 -1.00000000000000
11.8448067511643 38.9486338158659 6.32049316239373
-11.8448067511643 -38.9486338158659 6.32049316239373
-38.9486338158659 6.32049316239373 -11.8448067511643
38.9486338158659 -6.32049316239373 -11.8448067511643
-32.0101066647222 11.8448067511643 -23.0715795135786
32.0101066647222 -11.8448067511643 -23.0715795135786
-11.8448067511643 38.9486338158659 -6.32049316239373
11.8448067511643 -38.9486338158659 -6.32049316239373
-23.0715795135786 32.0101066647222 -11.8448067511643
23.0715795135786 -32.0101066647222 -11.8448067511643
12.8448067511643 38.3305998271160 -7.93852715114362
-12.8448067511643 -38.3305998271160 -7.93852715114362
-38.3305998271160 -7.93852715114362 -12.8448067511643
38.3305998271160 7.93852715114362 -12.8448067511643
-1.00000000000000 31.0101066647222 -27.1038270647016
1.00000000000000 -31.0101066647222 -27.1038270647016
11.2267727624144 24.6896135023285 -31.0101066647222
-11.2267727624144 -24.6896135023285 -31.0101066647222
-24.6896135023285 -31.0101066647222 -11.2267727624144
24.6896135023285 31.0101066647222 -11.2267727624144
-31.0101066647222 -11.2267727624144 -24.6896135023285
31.0101066647222 11.2267727624144 -24.6896135023285
-11.8448067511643 23.0715795135786 -32.0101066647222
11.8448067511643 -23.0715795135786 -32.0101066647222
-7.93852715114362 -12.8448067511643 -38.3305998271160
7.93852715114362 12.8448067511643 -38.3305998271160
-27.1038270647016 1.00000000000000 -31.0101066647222
27.1038270647016 -1.00000000000000 -31.0101066647222
-6.32049316239373 11.8448067511643 -38.9486338158659
6.32049316239373 -11.8448067511643 -38.9486338158659

5 34 28 13 53 25
5 22 16 14 59 49
5 38 44 35 16 11
5 41 47 46 3 20
5 54 50 4 43 13
5 9 13 28 37 50
5 51 55 32 9 8
5 1 0 40 48 58
5 17 23 52 12 42
5 28 34 45 0 19
5 36 30 25 50 37
5 27 33 54 6 32
5 33 27 2 47 26
5 8 12 29 36 51
5 21 15 17 34 40
5 7 11 59 14 44
5 15 21 56 27 46
5 10 6 7 55 39
5 46 40 0 45 15
5 49 43 37 28 22
5 39 45 34 17 10
5 45 39 9 32 6
5 37 31 24 51 36
5 0 1 41 49 59
5 16 22 53 13 43
5 47 41 1 44 14
5 58 59 11 18 1
5 40 46 47 2 21
5 25 19 48 40 34
5 43 49 18 11 16
5 5 3 26 57 56
5 23 17 15 58 48
5 13 9 39 38 54
5 48 42 36 29 23
5 19 25 30 22 28
5 29 35 44 1 18
5 12 8 38 39 55
5 53 57 20 21 2
5 55 51 5 42 12
5 3 5 51 24 52
5 26 32 55 7 33
5 59 58 10 19 0
5 52 56 21 20 3
5 6 10 58 15 45
5 2 4 50 25 53
5 4 2 27 56 57
5 11 7 6 54 38
5 57 53 22 30 4
5 30 36 42 5 31
5 35 29 12 52 24
5 56 52 23 31 5
5 18 24 31 23 29
5 44 38 8 33 7
5 14 20 57 26 47
5 31 37 43 4 30
5 32 26 3 46 27
5 20 14 16 35 41
5 42 48 19 10 17
5 50 54 33 8 9
5 24 18 49 41 35
