OFF
60 60 0

3.00251541088553 0.951088066132656 12.6356481922405
-3.00251541088553 -0.951088066132656 12.6356481922405
-4.62054939963542 1.95108806613266 12.0176142034906
4.62054939963542 -1.95108806613266 12.0176142034906
-8.01509879260508 5.85817198655814 8.42729404144069
8.01509879260508 -5.85817198655814 8.42729404144069
-5.85817198655814 8.42729404144069 8.01509879260508
5.85817198655814 -8.42729404144069 8.01509879260508
-6.15944221693247 -1.00000000000000 11.4298094523262
6.15944221693247 1.00000000000000 11.4298094523262
-1.95108806613266 12.0176142034906 4.62054939963542
1.95108806613266 -12.0176142034906 4.62054939963542
-6.47620597530803 -6.80926005269079 9.01509879260508
6.47620597530803 6.80926005269079 9.01509879260508
1.00000000000000 11.4298094523262 6.15944221693247
-1.00000000000000 -11.4298094523262 6.15944221693247
-9.01509879260508 -6.47620597530803 6.80926005269079
9.01509879260508 6.47620597530803 6.80926005269079
-8.42729404144069 8.01509879260508 5.85817198655814
8.42729404144069 -8.01509879260508 5.85817198655814
6.80926005269079 9.01509879260508 6.47620597530803
-6.80926005269079 -9.01509879260508 6.47620597530803
-11.4298094523262 -6.15944221693247 1.00000000000000
11.4298094523262 6.15944221693247 1.00000000000000
-12.0176142034906 4.62054939963542 1.95108806613266
12.0176142034906 -4.62054939963542 1.95108806613266
-12.6356481922405 -3.00251541088553 0.951088066132656
12.6356481922405 3.00251541088553 0.951088066132656
-11.4298094523262 6.15944221693247 -1.00000000000000
11.4298094523262 -6.15944221693247 -1.00000000000000
0.951088066132656 12.6356481922405 3.00251541088553
-0.951088066132656 -12.6356481922405 3.00251541088553
-12.6356481922405 3.00251541088553 -0.951088066132656
12.6356481922405 -3.00251541088553 -0.951088066132656
-9.01509879260508 6.47620597530803 -6.80926005269079
9.01509879260508 -6.47620597530803 -6.80926005269079
-0.951088066132656 12.6356481922405 -3.00251541088553
0.951088066132656 -12.6356481922405 -3.00251541088553
-6.80926005269079 9.01509879260508 -6.47620597530803
6.80926005269079 -9.01509879260508 -6.47620597530803
1.95108806613266 12.0176142034906 -4.62054939963542
-1.95108806613266 -12.0176142034906 -4.62054939963542
-12.0176142034906 -4.62054939963542 -1.95108806613266
12.0176142034906 4.62054939963542 -1.95108806613266
-1.00000000000000 11.4298094523262 -6.15944221693247
1.00000000000000 -11.4298094523262 -6.15944221693247
5.85817198655814 8.42729404144069 -8.01509879260508
-5.85817198655814 -8.42729404144069 -8.01509879260508
-8.42729404144069 -8.01509879260508 -5.85817198655814
8.42729404144069 8.01509879260508 -5.85817198655814
-8.01509879260508 -5.85817198655814 -8.42729404144069
8.01509879260508 5.85817198655814 -8.42729404144069
-6.47620597530803 6.80926005269079 -9.01509879260508
6.47620597530803 -6.80926005269079 -9.01509879260508
-4.62054939963542 -1.95108806613266 -12.0176142034906
4.62054939963542 1.95108806613266 -12.0176142034906
-6.15944221693247 1.00000000000000 -11.4298094523262
6.15944221693247 -1.00000000000000 -11.4298094523262
-3.00251541088553 0.951088066132656 -12.6356481922405
3.00251541088553 -0.951088066132656 -12.6356481922405

5 34 40 37 38 29
5 22 28 35 26 51
5 38 54 1 52 15
5 41 35 2 45 13
5 54 38 25 56 17
5 9 8 53 0 47
5 51 36 7 46 1
5 1 18 45 2 54
5 17 10 31 20 22
5 28 22 17 32 5
5 36 51 22 40 41
5 27 46 8 43 24
5 33 7 56 25 42
5 8 9 52 1 46
5 21 2 58 12 44
5 7 33 18 19 36
5 15 45 20 31 49
5 10 17 54 14 53
5 46 27 48 49 31
5 49 59 4 51 26
5 39 55 0 53 14
5 45 15 38 37 18
5 37 50 23 41 40
5 0 19 44 3 55
5 16 11 30 21 23
5 47 26 49 48 30
5 58 48 14 54 2
5 40 34 3 44 12
5 25 53 10 29 38
5 43 13 41 23 21
5 5 31 46 7 58
5 23 29 34 27 50
5 13 43 32 17 56
5 48 58 5 50 27
5 19 0 50 5 32
5 29 23 16 33 4
5 12 42 33 16 57
5 53 25 26 35 8
5 55 39 24 57 16
5 3 20 42 9 34
5 26 47 9 42 25
5 59 49 15 55 3
5 52 24 27 34 9
5 6 32 19 18 37
5 2 21 43 8 35
5 4 30 47 6 59
5 11 16 55 15 52
5 57 56 13 59 6
5 30 4 29 10 11
5 35 41 36 39 28
5 56 57 12 58 7
5 18 1 51 4 33
5 44 14 39 36 19
5 14 44 21 30 48
5 31 5 28 11 10
5 32 6 57 24 43
5 20 3 59 13 45
5 42 12 40 22 20
5 50 37 6 47 0
5 24 52 11 28 39
