OFF
60 60 0

2.24229776093289 0.721596398542861 10.2740472275217
-2.24229776093289 -0.721596398542861 10.2740472275217
-3.86033174968278 1.72159639854286 9.65601323877185
3.86033174968278 -1.72159639854286 9.65601323877185
-6.41371547783896 4.62811399008720 6.96774437737996
6.41371547783896 -4.62811399008720 6.96774437737996
-4.62811399008720 6.96774437737996 6.41371547783896
4.62811399008720 -6.96774437737996 6.41371547783896
-5.02789924868465 -1.00000000000000 9.21004213831285
5.02789924868465 1.00000000000000 9.21004213831285
-1.72159639854286 9.65601323877185 3.86033174968278
1.72159639854286 -9.65601323877185 3.86033174968278
-5.24614797883710 -5.34971038863006 7.41371547783896
5.24614797883710 5.34971038863006 7.41371547783896
1.00000000000000 9.21004213831285 5.02789924868465
-1.00000000000000 -9.21004213831285 5.02789924868465
-7.41371547783896 -5.24614797883710 5.34971038863006
7.41371547783896 5.24614797883710 5.34971038863006
-6.96774437737996 6.41371547783896 4.62811399008720
6.96774437737996 -6.41371547783896 4.62811399008720
5.34971038863006 7.41371547783896 5.24614797883710
-5.34971038863006 -7.41371547783896 5.24614797883710
-9.21004213831285 -5.02789924868465 1.00000000000000
9.21004213831285 5.02789924868465 1.00000000000000
-9.65601323877185 3.86033174968278 1.72159639854286
9.65601323877185 -3.86033174968278 1.72159639854286
-10.2740472275217 -2.24229776093289 0.721596398542861
10.2740472275217 2.24229776093289 0.721596398542861
-9.21004213831285 5.02789924868465 -1.00000000000000
9.21004213831285 -5.02789924868465 -1.00000000000000
0.721596398542861 10.2740472275217 2.24229776093289
-0.721596398542861 -10.2740472275217 2.24229776093289
-10.2740472275217 2.24229776093289 -0.721596398542861
10.2740472275217 -2.24229776093289 -0.721596398542861
-7.41371547783896 5.24614797883710 -5.34971038863006
7.41371547783896 -5.24614797883710 -5.34971038863006
-0.721596398542861 10.2740472275217 -2.24229776093289
0.721596398542861 -10.2740472275217 -2.24229776093289
-5.34971038863006 7.41371547783896 -5.24614797883710
5.34971038863006 -7.41371547783896 -5.24614797883710
1.72159639854286 9.65601323877185 -3.86033174968278
-1.72159639854286 -9.65601323877185 -3.86033174968278
-9.65601323877185 -3.86033174968278 -1.72159639854286
9.65601323877185 3.86033174968278 -1.72159639854286
-1.00000000000000 9.21004213831285 -5.02789924868465
1.00000000000000 -9.21004213831285 -5.02789924868465
4.62811399008720 6.96774437737996 -6.41371547783896
-4.62811399008720 -6.96774437737996 -6.41371547783896
-6.96774437737996 -6.41371547783896 -4.62811399008720
6.96774437737996 6.41371547783896 -4.62811399008720
-6.41371547783896 -4.62811399008720 -6.96774437737996
6.41371547783896 4.62811399008720 -6.96774437737996
-5.24614797883710 5.34971038863006 -7.41371547783896
5.24614797883710 -5.34971038863006 -7.41371547783896
-3.86033174968278 -1.72159639854286 -9.65601323877185
3.86033174968278 1.72159639854286 -9.65601323877185
-5.02789924868465 1.00000000000000 -9.21004213831285
5.02789924868465 -1.00000000000000 -9.21004213831285
-2.24229776093289 0.721596398542861 -10.2740472275217
2.24229776093289 -0.721596398542861 -10.2740472275217

5 34 38 14 30 2
5 22 26 6 18 0
5 38 52 57 59 43
5 41 45 55 57 52
5 54 56 24 28 16
5 9 0 18 4 36
5 51 46 34 38 50
5 1 2 30 10 23
5 17 20 44 36 55
5 28 32 47 48 59
5 36 40 27 43 9
5 27 43 59 55 45
5 33 25 0 3 14
5 8 1 19 5 37
5 21 12 9 0 25
5 7 19 53 35 47
5 15 31 50 47 32
5 10 14 3 9 12
5 46 49 13 17 6
5 49 51 39 53 19
5 39 53 56 58 42
5 45 37 5 7 27
5 37 41 26 42 8
5 0 3 31 11 22
5 16 21 45 37 54
5 47 48 12 16 7
5 58 54 37 41 29
5 40 44 54 56 53
5 25 29 41 45 21
5 43 23 10 14 38
5 5 7 16 21 4
5 23 27 7 19 1
5 13 17 29 33 11
5 48 50 38 52 18
5 19 5 20 13 49
5 29 33 46 49 58
5 12 16 28 32 10
5 53 35 23 27 40
5 55 57 25 29 17
5 3 9 43 23 35
5 26 42 58 54 44
5 59 55 36 40 28
5 52 34 22 26 41
5 6 18 52 34 46
5 2 8 42 22 34
5 4 6 17 20 5
5 11 15 2 8 13
5 57 59 48 50 31
5 30 10 32 24 56
5 35 39 15 31 3
5 56 58 49 51 30
5 18 4 21 12 48
5 44 36 4 6 26
5 14 30 51 46 33
5 31 11 33 25 57
5 32 24 1 2 15
5 20 13 8 1 24
5 42 22 11 15 39
5 50 47 35 39 51
5 24 28 40 44 20
