OFF
60 60 0

5.09612934933794 2.26016786340074 20.2349362483950
-5.09612934933794 -2.26016786340074 20.2349362483950
-6.71416333808784 3.26016786340074 19.6169022596451
6.71416333808784 -3.26016786340074 19.6169022596451
-13.5207729103072 9.24571049829468 13.1239123504453
13.5207729103072 -9.24571049829468 13.1239123504453
-9.24571049829468 13.1239123504453 13.5207729103072
9.24571049829468 -13.1239123504453 13.5207729103072
-10.3711917613505 -1.00000000000000 18.2200416997833
10.3711917613505 1.00000000000000 18.2200416997833
-3.26016786340074 19.6169022596451 6.71416333808784
3.26016786340074 -19.6169022596451 6.71416333808784
-9.86374448704457 -11.5058783616954 14.5207729103072
9.86374448704457 11.5058783616954 14.5207729103072
1.00000000000000 18.2200416997833 10.3711917613505
-1.00000000000000 -18.2200416997833 10.3711917613505
-14.5207729103072 -9.86374448704457 11.5058783616954
14.5207729103072 9.86374448704457 11.5058783616954
-13.1239123504453 13.5207729103072 9.24571049829468
13.1239123504453 -13.5207729103072 9.24571049829468
11.5058783616954 14.5207729103072 9.86374448704457
-11.5058783616954 -14.5207729103072 9.86374448704457
-18.2200416997833 -10.3711917613505 1.00000000000000
18.2200416997833 10.3711917613505 1.00000000000000
-19.6169022596451 6.71416333808784 3.26016786340074
19.6169022596451 -6.71416333808784 3.26016786340074
-20.2349362483950 -5.09612934933794 2.26016786340074
20.2349362483950 5.09612934933794 2.26016786340074
-18.2200416997833 10.3711917613505 -1.00000000000000
18.2200416997833 -10.3711917613505 -1.00000000000000
2.26016786340074 20.2349362483950 5.09612934933794
-2.26016786340074 -20.2349362483950 5.09612934933794
-20.2349362483950 5.09612934933794 -2.26016786340074
20.2349362483950 -5.09612934933794 -2.26016786340074
-14.5207729103072 9.86374448704457 -11.5058783616954
14.5207729103072 -9.86374448704457 -11.5058783616954
-2.26016786340074 20.2349362483950 -5.09612934933794
2.26016786340074 -20.2349362483950 -5.09612934933794
-11.5058783616954 14.5207729103072 -9.86374448704457
11.5058783616954 -14.5207729103072 -9.86374448704457
3.26016786340074 19.6169022596451 -6.71416333808784
-3.26016786340074 -19.6169022596451 -6.71416333808784
-19.6169022596451 -6.71416333808784 -3.26016786340074
19.6169022596451 6.71416333808784 -3.26016786340074
-1.00000000000000 18.2200416997833 -10.3711917613505
1.00000000000000 -18.2200416997833 -10.3711917613505
9.24571049829468 13.1239123504453 -13.5207729103072
-9.24571049829468 -13.1239123504453 -13.5207729103072
-13.1239123504453 -13.5207729103072 -9.24571049829468
13.1239123504453 13.5207729103072 -9.24571049829468
-13.5207729103072 -9.24571049829468 -13.1239123504453
13.5207729103072 9.24571049829468 -13.1239123504453
-9.86374448704457 11.5058783616954 -14.5207729103072
9.86374448704457 -11.5058783616954 -14.5207729103072
-6.71416333808784 -3.26016786340074 -19.6169022596451
6.71416333808784 3.26016786340074 -19.6169022596451
-10.3711917613505 1.00000000000000 -18.2200416997833
10.3711917613505 -1.00000000000000 -18.2200416997833
-5.09612934933794 2.26016786340074 -20.2349362483950
5.09612934933794 -2.26016786340074 -20.2349362483950

5 34 16 33 52 19
5 22 7 46 42 43
5 38 20 31 34 7
5 41 32 17 37 14
5 54 31 20 58 9
5 9 49 48 3 54
5 51 45 2 49 12
5 1 25 56 8 59
5 17 35 26 13 48
5 28 46 7 24 25
5 36 2 45 44 31
5 27 11 28 23 26
5 33 40 22 29 32
5 8 48 49 2 55
5 21 39 36 16 46
5 7 22 40 5 38
5 15 4 51 11 40
5 10 26 35 30 45
5 46 28 11 51 21
5 49 9 42 46 16
5 39 21 30 35 6
5 45 51 4 41 10
5 37 3 44 45 30
5 0 24 57 9 58
5 16 34 27 12 49
5 47 29 10 50 20
5 58 43 8 56 0
5 40 33 16 36 15
5 25 1 52 33 28
5 43 58 12 27 22
5 5 14 54 19 52
5 23 6 47 43 42
5 13 12 58 20 50
5 48 8 43 47 17
5 19 57 24 7 34
5 29 47 6 25 24
5 12 13 59 21 51
5 53 52 1 39 4
5 55 30 21 59 8
5 3 37 38 0 56
5 26 10 29 22 27
5 59 42 9 57 1
5 52 53 0 38 5
5 6 23 41 4 39
5 2 36 39 1 57
5 4 15 55 18 53
5 11 27 34 31 44
5 57 19 18 55 2
5 30 55 15 14 37
5 35 17 32 53 18
5 56 18 19 54 3
5 18 56 25 6 35
5 44 50 5 40 11
5 14 5 50 10 41
5 31 54 14 15 36
5 32 41 23 28 33
5 20 38 37 17 47
5 42 59 13 26 23
5 50 44 3 48 13
5 24 0 53 32 29
