OFF
60 60 0

1.25599806014775 0.255998060147747 6.93852715114362
-1.25599806014775 -0.255998060147747 6.93852715114362
-2.87403204889764 1.25599806014775 6.32049316239373
2.87403204889764 -1.25599806014775 6.32049316239373
-4.06449510224598 3.03224755112299 4.90627960002063
4.06449510224598 -3.03224755112299 4.90627960002063
-3.03224755112299 4.90627960002063 4.06449510224598
3.03224755112299 -4.90627960002063 4.06449510224598
-3.28824561127074 -1.00000000000000 6.16227766016838
3.28824561127074 1.00000000000000 6.16227766016838
-1.25599806014775 6.32049316239373 2.87403204889764
1.25599806014775 -6.32049316239373 2.87403204889764
-3.65028153987288 -3.28824561127074 5.06449510224598
3.65028153987288 3.28824561127074 5.06449510224598
1.00000000000000 6.16227766016838 3.28824561127074
-1.00000000000000 -6.16227766016838 3.28824561127074
-5.06449510224598 -3.65028153987288 3.28824561127074
5.06449510224598 3.65028153987288 3.28824561127074
-4.90627960002063 4.06449510224598 3.03224755112299
4.90627960002063 -4.06449510224598 3.03224755112299
3.28824561127074 5.06449510224598 3.65028153987288
-3.28824561127074 -5.06449510224598 3.65028153987288
-6.16227766016838 -3.28824561127074 1.00000000000000
6.16227766016838 3.28824561127074 1.00000000000000
-6.32049316239373 2.87403204889764 1.25599806014775
6.32049316239373 -2.87403204889764 1.25599806014775
-6.93852715114362 -1.25599806014775 0.255998060147747
6.93852715114362 1.25599806014775 0.255998060147747
-6.16227766016838 3.28824561127074 -1.00000000000000
6.16227766016838 -3.28824561127074 -1.00000000000000
0.255998060147747 6.93852715114362 1.25599806014775
-0.255998060147747 -6.93852715114362 1.25599806014775
-6.93852715114362 1.25599806014775 -0.255998060147747
6.93852715114362 -1.25599806014775 -0.255998060147747
-5.06449510224598 3.65028153987288 -3.28824561127074
5.06449510224598 -3.65028153987288 -3.28824561127074
-0.255998060147747 6.93852715114362 -1.25599806014775
0.255998060147747 -6.93852715114362 -1.25599806014775
-3.28824561127074 5.06449510224598 -3.65028153987288
3.28824561127074 -5.06449510224598 -3.65028153987288
1.25599806014775 6.32049316239373 -2.87403204889764
-1.25599806014775 -6.32049316239373 -2.87403204889764
-6.32049316239373 -2.87403204889764 -1.25599806014775
6.32049316239373 2.87403204889764 -1.25599806014775
-1.00000000000000 6.16227766016838 -3.28824561127074
1.00000000000000 -6.16227766016838 -3.28824561127074
3.03224755112299 4.90627960002063 -4.06449510224598
-3.03224755112299 -4.90627960002063 -4.06449510224598
-4.90627960002063 -4.06449510224598 -3.03224755112299
4.90627960002063 4.06449510224598 -3.03224755112299
-4.06449510224598 -3.03224755112299 -4.90627960002063
4.06449510224598 3.03224755112299 -4.90627960002063
-3.65028153987288 3.28824561127074 -5.06449510224598
3.65028153987288 -3.28824561127074 -5.06449510224598
-2.87403204889764 -1.25599806014775 -6.32049316239373
2.87403204889764 1.25599806014775 -6.32049316239373
-3.28824561127074 1.00000000000000 -6.16227766016838
3.28824561127074 -1.00000000000000 -6.16227766016838
-1.25599806014775 0.255998060147747 -6.93852715114362
1.25599806014775 -0.255998060147747 -6.93852715114362

5 34 40 21 38 5
5 22 28 19 26 23
5 38 54 13 52 19
5 41 35 24 45 30
5 54 38 11 56 0
5 9 8 51 0 56
5 51 36 37 46 16
5 1 18 29 2 55
5 17 10 39 20 50
5 28 22 49 32 29
5 36 51 8 40 11
5 27 46 15 43 42
5 33 7 44 25 24
5 8 9 50 1 57
5 21 2 53 12 49
5 7 33 26 19 52
5 15 45 6 31 44
5 10 17 42 14 37
5 46 27 32 49 12
5 49 59 0 51 21
5 39 55 12 53 18
5 45 15 46 37 14
5 37 50 9 41 10
5 0 19 28 3 54
5 16 11 38 21 51
5 47 26 33 48 13
5 58 48 23 54 3
5 40 34 25 44 31
5 25 53 2 29 32
5 43 13 54 23 26
5 5 31 30 7 34
5 23 29 18 27 22
5 13 43 16 17 47
5 48 58 1 50 20
5 19 0 59 5 38
5 29 23 48 33 28
5 12 42 17 16 46
5 53 25 34 35 6
5 55 39 10 57 1
5 3 20 41 9 58
5 26 47 14 42 43
5 59 49 22 55 2
5 52 24 35 34 7
5 6 32 27 18 53
5 2 21 40 8 59
5 4 30 31 6 35
5 11 16 43 15 36
5 57 56 5 59 8
5 30 4 57 10 41
5 35 41 20 39 4
5 56 57 4 58 9
5 18 1 58 4 39
5 44 14 47 36 15
5 14 44 7 30 45
5 31 5 56 11 40
5 32 6 45 24 25
5 20 3 52 13 48
5 42 12 55 22 27
5 50 37 36 47 17
5 24 52 3 28 33
