OFF
60 60 0

0.158882074372743 0.0908561879551647 3.79903504861042
-0.158882074372743 -0.0908561879551647 3.79903504861042
-1.77691606312264 1.09085618795516 3.18100105986053
1.77691606312264 -1.09085618795516 3.18100105986053
-2.02211898548779 1.25707659653819 2.96596677324325
2.02211898548779 -1.25707659653819 2.96596677324325
-1.25707659653819 2.96596677324325 2.02211898548779
1.25707659653819 -2.96596677324325 2.02211898548779
-1.92392446332234 -1.00000000000000 3.12484884761599
1.92392446332234 1.00000000000000 3.12484884761599
-1.09085618795516 3.18100105986053 1.77691606312264
1.09085618795516 -3.18100105986053 1.77691606312264
-1.87511058528808 -1.34793278449335 3.02211898548779
1.87511058528808 1.34793278449335 3.02211898548779
1.00000000000000 3.12484884761599 1.92392446332234
-1.00000000000000 -3.12484884761599 1.92392446332234
-3.02211898548779 -1.87511058528808 1.34793278449335
3.02211898548779 1.87511058528808 1.34793278449335
-2.96596677324325 2.02211898548779 1.25707659653819
2.96596677324325 -2.02211898548779 1.25707659653819
1.34793278449335 3.02211898548779 1.87511058528808
-1.34793278449335 -3.02211898548779 1.87511058528808
-3.12484884761599 -1.92392446332234 1.00000000000000
3.12484884761599 1.92392446332234 1.00000000000000
-3.18100105986053 1.77691606312264 1.09085618795516
3.18100105986053 -1.77691606312264 1.09085618795516
-3.79903504861042 -0.158882074372743 0.0908561879551647
3.79903504861042 0.158882074372743 0.0908561879551647
-3.12484884761599 1.92392446332234 -1.00000000000000
3.12484884761599 -1.92392446332234 -1.00000000000000
0.0908561879551647 3.79903504861042 0.158882074372743
-0.0908561879551647 -3.79903504861042 0.158882074372743
-3.79903504861042 0.158882074372743 -0.0908561879551647
3.79903504861042 -0.158882074372743 -0.0908561879551647
-3.02211898548779 1.87511058528808 -1.34793278449335
3.02211898548779 -1.87511058528808 -1.34793278449335
-0.0908561879551647 3.79903504861042 -0.158882074372743
0.0908561879551647 -3.79903504861042 -0.158882074372743
-1.34793278449335 3.02211898548779 -1.87511058528808
1.34793278449335 -3.02211898548779 -1.87511058528808
1.09085618795516 3.18100105986053 -1.77691606312264
-1.09085618795516 -3.18100105986053 -1.77691606312264
-3.18100105986053 -1.77691606312264 -1.09085618795516
3.18100105986053 1.77691606312264 -1.09085618795516
-1.00000000000000 3.12484884761599 -1.92392446332234
1.00000000000000 -3.12484884761599 -1.92392446332234
1.25707659653819 2.96596677324325 -2.02211898548779
-1.25707659653819 -2.96596677324325 -2.02211898548779
-2.96596677324325 -2.02211898548779 -1.25707659653819
2.96596677324325 2.02211898548779 -1.25707659653819
-2.02211898548779 -1.25707659653819 -2.96596677324325
2.02211898548779 1.25707659653819 -2.96596677324325
-1.87511058528808 1.34793278449335 -3.02211898548779
1.87511058528808 -1.34793278449335 -3.02211898548779
-1.77691606312264 -1.09085618795516 -3.18100105986053
1.77691606312264 1.09085618795516 -3.18100105986053
-1.92392446332234 1.00000000000000 -3.12484884761599
1.92392446332234 -1.00000000000000 -3.12484884761599
-0.158882074372743 0.0908561879551647 -3.79903504861042
0.158882074372743 -0.0908561879551647 -3.79903504861042

5 34 16 33 32 25
5 22 7 46 21 49
5 38 20 31 36 11
5 41 32 17 48 20
5 54 31 20 47 13
5 9 49 48 17 50
5 51 45 2 57 8
5 1 25 56 3 58
5 17 35 26 27 42
5 28 46 7 38 19
5 36 2 45 10 37
5 27 11 28 25 32
5 33 40 22 43 26
5 8 48 49 16 51
5 21 39 36 31 40
5 7 22 40 15 44
5 15 4 51 12 46
5 10 26 35 18 39
5 46 28 11 44 15
5 49 9 42 23 22
5 39 21 30 37 10
5 45 51 4 53 6
5 37 3 44 11 36
5 0 24 57 2 59
5 16 34 27 26 43
5 47 29 10 45 14
5 58 43 8 55 1
5 40 33 16 49 21
5 25 1 52 5 34
5 43 58 12 51 16
5 5 14 54 9 56
5 23 6 47 20 48
5 13 12 58 0 54
5 48 8 43 22 23
5 19 57 24 29 28
5 29 47 6 39 18
5 12 13 59 1 55
5 53 52 1 59 2
5 55 30 21 46 12
5 3 37 38 7 52
5 26 10 29 24 33
5 59 42 9 54 0
5 52 53 0 58 3
5 6 23 41 14 45
5 2 36 39 6 53
5 4 15 55 8 57
5 11 27 34 19 38
5 57 19 18 35 4
5 30 55 15 40 31
5 35 17 32 33 24
5 56 18 19 34 5
5 18 56 25 28 29
5 44 50 5 52 7
5 14 5 50 13 47
5 31 54 14 41 30
5 32 41 23 42 27
5 20 38 37 30 41
5 42 59 13 50 17
5 50 44 3 56 9
5 24 0 53 4 35
