OFF
60 60 0

3.00251541088553 0.951088066132656 12.6356481922405
-3.00251541088553 -0.951088066132656 12.6356481922405
-4.62054939963542 1.95108806613266 12.0176142034906
4.62054939963542 -1.95108806613266 12.0176142034906
-8.01509879260508 5.85817198655814 8.42729404144069
8.01509879260508 -5.85817198655814 8.42729404144069
-5.85817198655814 8.42729404144069 8.01509879260508
5.85817198655814 -8.42729404144069 8.01509879260508
-6.15944221693247 -1.00000000000000 11.4298094523262
6.15944221693247 1.00000000000000 11.4298094523262
-1.95108806613266 12.0176142034906 4.62054939963542
1.95108806613266 -12.0176142034906 4.62054939963542
-6.47620597530803 -6.80926005269079 9.01509879260508
6.47620597530803 6.80926005269079 9.01509879260508
1.00000000000000 11.4298094523262 6.15944221693247
-1.00000000000000 -11.4298094523262 6.15944221693247
-9.01509879260508 -6.47620597530803 6.80926005269079
9.01509879260508 6.47620597530803 6.80926005269079
-8.42729404144069 8.01509879260508 5.85817198655814
8.42729404144069 -8.01509879260508 5.85817198655814
6.80926005269079 9.01509879260508 6.47620597530803
-6.80926005269079 -9.01509879260508 6.47620597530803
-11.4298094523262 -6.15944221693247 1.00000000000000
11.4298094523262 6.15944221693247 1.00000000000000
-12.0176142034906 4.62054939963542 1.95108806613266
12.0176142034906 -4.62054939963542 1.95108806613266
-12.6356481922405 -3.00251541088553 0.951088066132656
12.6356481922405 3.00251541088553 0.951088066132656
-11.4298094523262 6.15944221693247 -1.00000000000000
11.4298094523262 -6.15944221693247 -1.00000000000000
0.951088066132656 12.6356481922405 3.00251541088553
-0.951088066132656 -12.6356481922405 3.00251541088553
-12.6356481922405 3.00251541088553 -0.951088066132656
12.6356481922405 -3.00251541088553 -0.951088066132656
-9.01509879260508 6.47620597530803 -6.80926005269079
9.01509879260508 -6.47620597530803 -6.80926005269079
-0.951088066132656 12.6356481922405 -3.00251541088553
0.951088066132656 -12.6356481922405 -3.00251541088553
-6.80926005269079 9.01509879260508 -6.47620597530803
6.80926005269079 -9.01509879260508 -6.47620597530803
1.95108806613266 12.0176142034906 -4.62054939963542
-1.95108806613266 -12.0176142034906 -4.62054939963542
-12.0176142034906 -4.62054939963542 -1.95108806613266
12.0176142034906 4.62054939963542 -1.95108806613266
-1.00000000000000 11.4298094523262 -6.15944221693247
1.00000000000000 -11.4298094523262 -6.15944221693247
5.85817198655814 8.42729404144069 -8.01509879260508
-5.85817198655814 -8.42729404144069 -8.01509879260508
-8.42729404144069 -8.01509879260508 -5.85817198655814
8.42729404144069 8.01509879260508 -5.85817198655814
-8.01509879260508 -5.85817198655814 -8.42729404144069
8.01509879260508 5.85817198655814 -8.42729404144069
-6.47620597530803 6.80926005269079 -9.01509879260508
6.47620597530803 -6.80926005269079 -9.01509879260508
-4.62054939963542 -1.95108806613266 -12.0176142034906
4.62054939963542 1.95108806613266 -12.0176142034906
-6.15944221693247 1.00000000000000 -11.4298094523262
6.15944221693247 -1.00000000000000 -11.4298094523262
-3.00251541088553 0.951088066132656 -12.6356481922405
3.00251541088553 -0.951088066132656 -12.6356481922405

5 34 38 29 33 40
5 22 26 51 46 28
5 38 52 15 31 54
5 41 45 13 17 35
5 54 56 17 20 38
5 9 0 47 48 8
5 51 46 1 2 36
5 1 2 54 56 18
5 17 20 22 26 10
5 28 32 5 7 22
5 36 40 41 45 51
5 27 43 24 28 46
5 33 25 42 22 7
5 8 1 46 49 9
5 21 12 44 36 2
5 7 19 36 40 33
5 15 31 49 51 45
5 10 14 53 35 17
5 46 49 31 11 27
5 49 51 26 42 59
5 39 53 14 30 55
5 45 37 18 4 15
5 37 41 40 44 50
5 0 3 55 57 19
5 16 21 23 27 11
5 47 48 30 10 26
5 58 54 2 8 48
5 40 44 12 16 34
5 25 29 38 52 53
5 43 23 21 12 13
5 5 7 58 54 31
5 23 27 50 47 29
5 13 17 56 58 43
5 48 50 27 43 58
5 19 5 32 24 0
5 29 33 4 6 23
5 12 16 57 59 42
5 53 35 8 1 25
5 55 57 16 21 39
5 3 9 34 38 20
5 26 42 25 29 47
5 59 55 3 9 49
5 52 34 9 0 24
5 6 18 37 41 32
5 2 8 35 39 21
5 4 6 59 55 30
5 11 15 52 34 16
5 57 59 6 18 56
5 30 10 11 15 4
5 35 39 28 32 41
5 56 58 7 19 57
5 18 4 33 25 1
5 44 36 19 5 14
5 14 30 48 50 44
5 31 11 10 14 5
5 32 24 43 23 6
5 20 13 45 37 3
5 42 22 20 13 12
5 50 47 0 3 37
5 24 28 39 53 52
