OFF
60 60 0

1.25599806014775 2.03224755112299 9.81255920004126
-1.25599806014775 -2.03224755112299 9.81255920004126
-2.87403204889764 3.03224755112299 9.19452521129137
2.87403204889764 -3.03224755112299 9.19452521129137
-6.93852715114362 3.03224755112299 6.68252909099587
6.93852715114362 -3.03224755112299 6.68252909099587
-3.03224755112299 6.68252909099587 6.93852715114362
3.03224755112299 -6.68252909099587 6.93852715114362
-6.16227766016838 -1.00000000000000 7.93852715114362
6.16227766016838 1.00000000000000 7.93852715114362
-3.03224755112299 9.19452521129137 2.87403204889764
3.03224755112299 -9.19452521129137 2.87403204889764
-3.65028153987288 -5.06449510224598 7.93852715114362
3.65028153987288 5.06449510224598 7.93852715114362
1.00000000000000 7.93852715114362 6.16227766016838
-1.00000000000000 -7.93852715114362 6.16227766016838
-7.93852715114362 -3.65028153987288 5.06449510224598
7.93852715114362 3.65028153987288 5.06449510224598
-6.68252909099587 6.93852715114362 3.03224755112299
6.68252909099587 -6.93852715114362 3.03224755112299
5.06449510224598 7.93852715114362 3.65028153987288
-5.06449510224598 -7.93852715114362 3.65028153987288
-7.93852715114362 -6.16227766016838 1.00000000000000
7.93852715114362 6.16227766016838 1.00000000000000
-9.19452521129137 2.87403204889764 3.03224755112299
9.19452521129137 -2.87403204889764 3.03224755112299
-9.81255920004126 -1.25599806014775 2.03224755112299
9.81255920004126 1.25599806014775 2.03224755112299
-7.93852715114362 6.16227766016838 -1.00000000000000
7.93852715114362 -6.16227766016838 -1.00000000000000
2.03224755112299 9.81255920004126 1.25599806014775
-2.03224755112299 -9.81255920004126 1.25599806014775
-9.81255920004126 1.25599806014775 -2.03224755112299
9.81255920004126 -1.25599806014775 -2.03224755112299
-7.93852715114362 3.65028153987288 -5.06449510224598
7.93852715114362 -3.65028153987288 -5.06449510224598
-2.03224755112299 9.81255920004126 -1.25599806014775
2.03224755112299 -9.81255920004126 -1.25599806014775
-5.06449510224598 7.93852715114362 -3.65028153987288
5.06449510224598 -7.93852715114362 -3.65028153987288
3.03224755112299 9.19452521129137 -2.87403204889764
-3.03224755112299 -9.19452521129137 -2.87403204889764
-9.19452521129137 -2.87403204889764 -3.03224755112299
9.19452521129137 2.87403204889764 -3.03224755112299
-1.00000000000000 7.93852715114362 -6.16227766016838
1.00000000000000 -7.93852715114362 -6.16227766016838
3.03224755112299 6.68252909099587 -6.93852715114362
-3.03224755112299 -6.68252909099587 -6.93852715114362
-6.68252909099587 -6.93852715114362 -3.03224755112299
6.68252909099587 6.93852715114362 -3.03224755112299
-6.93852715114362 -3.03224755112299 -6.68252909099587
6.93852715114362 3.03224755112299 -6.68252909099587
-3.65028153987288 5.06449510224598 -7.93852715114362
3.65028153987288 -5.06449510224598 -7.93852715114362
-2.87403204889764 -3.03224755112299 -9.19452521129137
2.87403204889764 3.03224755112299 -9.19452521129137
-6.16227766016838 1.00000000000000 -7.93852715114362
6.16227766016838 -1.00000000000000 -7.93852715114362
-1.25599806014775 2.03224755112299 -9.81255920004126
1.25599806014775 -2.03224755112299 -9.81255920004126

5 34 31 20 38 5
5 22 29 10 26 23
5 38 0 53 52 19
5 41 4 51 45 30
5 54 19 18 56 0
5 9 57 24 0 56
5 51 11 28 46 16
5 1 39 36 2 55
5 17 37 38 20 50
5 28 23 41 32 29
5 36 16 33 40 11
5 27 12 58 43 42
5 33 52 1 25 24
5 8 56 25 1 57
5 21 59 13 12 49
5 7 24 57 19 52
5 15 14 54 31 44
5 10 50 5 14 37
5 46 42 9 49 12
5 49 2 45 51 21
5 39 1 52 53 18
5 45 44 3 37 14
5 37 17 32 41 10
5 0 38 37 3 54
5 16 36 39 21 51
5 47 43 8 48 13
5 58 20 31 54 3
5 40 5 50 44 31
5 25 6 47 29 32
5 43 47 6 23 26
5 5 40 22 7 34
5 23 28 11 27 22
5 13 26 35 17 47
5 48 3 44 50 20
5 19 54 14 5 38
5 29 22 40 33 28
5 12 27 34 16 46
5 53 32 17 35 6
5 55 18 19 57 1
5 3 48 49 9 58
5 26 13 59 42 43
5 59 21 30 55 2
5 52 33 16 34 7
5 6 25 56 18 53
5 2 49 48 8 59
5 4 41 23 6 35
5 11 51 4 15 36
5 57 9 42 59 8
5 30 35 26 10 41
5 35 30 21 39 4
5 56 8 43 58 9
5 18 55 15 4 39
5 44 45 2 36 15
5 14 15 55 30 45
5 31 34 27 11 40
5 32 53 0 24 25
5 20 58 12 13 48
5 42 46 7 22 27
5 50 10 29 47 17
5 24 7 46 28 33
