OFF
60 60 0

3.17833652159303 3.56266831660018 17.3215794456169
-3.17833652159303 -3.56266831660018 17.3215794456169
-4.79637051034293 4.56266831660018 16.7035454568670
4.79637051034293 -4.56266831660018 16.7035454568670
-12.5252089352740 6.14265651962264 11.3233588249727
12.5252089352740 -6.14265651962264 11.3233588249727
-6.14265651962264 11.3233588249727 12.5252089352740
6.14265651962264 -11.3233588249727 12.5252089352740
-10.5608889372444 -1.00000000000000 14.5016953465657
10.5608889372444 1.00000000000000 14.5016953465657
-4.56266831660018 16.7035454568670 4.79637051034293
4.56266831660018 -16.7035454568670 4.79637051034293
-6.76069050837254 -9.70532483622282 13.5252089352740
6.76069050837254 9.70532483622282 13.5252089352740
1.00000000000000 14.5016953465657 10.5608889372444
-1.00000000000000 -14.5016953465657 10.5608889372444
-13.5252089352740 -6.76069050837254 9.70532483622282
13.5252089352740 6.76069050837254 9.70532483622282
-11.3233588249727 12.5252089352740 6.14265651962264
11.3233588249727 -12.5252089352740 6.14265651962264
9.70532483622282 13.5252089352740 6.76069050837254
-9.70532483622282 -13.5252089352740 6.76069050837254
-14.5016953465657 -10.5608889372444 1.00000000000000
14.5016953465657 10.5608889372444 1.00000000000000
-16.7035454568670 4.79637051034293 4.56266831660018
16.7035454568670 -4.79637051034293 4.56266831660018
-17.3215794456169 -3.17833652159303 3.56266831660018
17.3215794456169 3.17833652159303 3.56266831660018
-14.5016953465657 10.5608889372444 -1.00000000000000
14.5016953465657 -10.5608889372444 -1.00000000000000
3.56266831660018 17.3215794456169 3.17833652159303
-3.56266831660018 -17.3215794456169 3.17833652159303
-17.3215794456169 3.17833652159303 -3.56266831660018
17.3215794456169 -3.17833652159303 -3.56266831660018
-13.5252089352740 6.76069050837254 -9.70532483622282
13.5252089352740 -6.76069050837254 -9.70532483622282
-3.56266831660018 17.3215794456169 -3.17833652159303
3.56266831660018 -17.3215794456169 -3.17833652159303
-9.70532483622282 13.5252089352740 -6.76069050837254
9.70532483622282 -13.5252089352740 -6.76069050837254
4.56266831660018 16.7035454568670 -4.79637051034293
-4.56266831660018 -16.7035454568670 -4.79637051034293
-16.7035454568670 -4.79637051034293 -4.56266831660018
16.7035454568670 4.79637051034293 -4.56266831660018
-1.00000000000000 14.5016953465657 -10.5608889372444
1.00000000000000 -14.5016953465657 -10.5608889372444
6.14265651962264 11.3233588249727 -12.5252089352740
-6.14265651962264 -11.3233588249727 -12.5252089352740
-11.3233588249727 -12.5252089352740 -6.14265651962264
11.3233588249727 12.5252089352740 -6.14265651962264
-12.5252089352740 -6.14265651962264 -11.3233588249727
12.5252089352740 6.14265651962264 -11.3233588249727
-6.76069050837254 9.70532483622282 -13.5252089352740
6.76069050837254 -9.70532483622282 -13.5252089352740
-4.79637051034293 -4.56266831660018 -16.7035454568670
4.79637051034293 4.56266831660018 -16.7035454568670
-10.5608889372444 1.00000000000000 -14.5016953465657
10.5608889372444 -1.00000000000000 -14.5016953465657
-3.17833652159303 3.56266831660018 -17.3215794456169
3.17833652159303 -3.56266831660018 -17.3215794456169

5 34 28 37 11 56
5 22 16 35 33 48
5 38 44 1 3 28
5 41 47 2 6 31
5 54 50 25 5 59
5 9 13 53 59 5
5 51 55 7 15 43
5 1 0 45 53 12
5 17 23 31 41 9
5 28 34 17 27 18
5 36 30 22 21 38
5 27 33 8 16 17
5 33 27 56 34 35
5 8 12 52 58 4
5 21 15 58 55 22
5 7 11 18 28 3
5 15 21 20 30 7
5 10 6 54 47 36
5 46 40 48 22 55
5 49 43 4 8 40
5 39 45 0 2 29
5 45 39 38 36 47
5 37 31 23 20 39
5 0 1 44 52 13
5 16 22 30 40 8
5 47 41 49 23 54
5 58 59 14 13 52
5 40 46 3 7 30
5 25 19 10 18 27
5 43 49 41 48 33
5 5 3 46 44 25
5 23 17 34 32 49
5 13 9 32 42 14
5 48 42 5 9 41
5 19 25 50 56 11
5 29 35 16 26 19
5 12 8 33 43 15
5 53 57 26 24 45
5 55 51 24 4 58
5 3 5 42 50 1
5 26 32 9 17 16
5 59 58 15 12 53
5 52 56 27 25 44
5 6 10 19 29 2
5 2 4 43 51 0
5 4 2 47 45 24
5 11 7 55 46 37
5 57 53 13 0 51
5 30 36 29 39 20
5 35 29 36 10 57
5 56 52 12 1 50
5 18 24 51 57 10
5 44 38 39 37 46
5 14 20 21 31 6
5 31 37 28 38 21
5 32 26 57 35 34
5 20 14 59 54 23
5 42 48 40 49 32
5 50 54 6 14 42
5 24 18 11 19 26
