OFF
60 60 0

1.32471795724475 0.754877666246693 7.92564233640921
-1.32471795724475 -0.754877666246693 7.92564233640921
-2.94275194599464 1.75487766624669 7.30760834765932
2.94275194599464 -1.75487766624669 7.30760834765932
-4.98289039041457 3.14343868032933 5.51635033532592
4.98289039041457 -3.14343868032933 5.51635033532592
-3.14343868032933 5.51635033532592 4.98289039041457
3.14343868032933 -5.51635033532592 4.98289039041457
-4.16416966732999 -1.00000000000000 6.84106829257066
4.16416966732999 1.00000000000000 6.84106829257066
-1.75487766624669 7.30760834765932 2.94275194599464
1.75487766624669 -7.30760834765932 2.94275194599464
-3.76147266907922 -3.89831634657602 5.98289039041457
3.76147266907922 3.89831634657602 5.98289039041457
1.00000000000000 6.84106829257066 4.16416966732999
-1.00000000000000 -6.84106829257066 4.16416966732999
-5.98289039041457 -3.76147266907922 3.89831634657602
5.98289039041457 3.76147266907922 3.89831634657602
-5.51635033532592 4.98289039041457 3.14343868032933
5.51635033532592 -4.98289039041457 3.14343868032933
3.89831634657602 5.98289039041457 3.76147266907922
-3.89831634657602 -5.98289039041457 3.76147266907922
-6.84106829257066 -4.16416966732999 1.00000000000000
6.84106829257066 4.16416966732999 1.00000000000000
-7.30760834765932 2.94275194599464 1.75487766624669
7.30760834765932 -2.94275194599464 1.75487766624669
-7.92564233640921 -1.32471795724475 0.754877666246693
7.92564233640921 1.32471795724475 0.754877666246693
-6.84106829257066 4.16416966732999 -1.00000000000000
6.84106829257066 -4.16416966732999 -1.00000000000000
0.754877666246693 7.92564233640921 1.32471795724475
-0.754877666246693 -7.92564233640921 1.32471795724475
-7.92564233640921 1.32471795724475 -0.754877666246693
7.92564233640921 -1.32471795724475 -0.754877666246693
-5.98289039041457 3.76147266907922 -3.89831634657602
5.98289039041457 -3.76147266907922 -3.89831634657602
-0.754877666246693 7.92564233640921 -1.32471795724475
0.754877666246693 -7.92564233640921 -1.32471795724475
-3.89831634657602 5.98289039041457 -3.76147266907922
3.89831634657602 -5.98289039041457 -3.76147266907922
1.75487766624669 7.30760834765932 -2.94275194599464
-1.75487766624669 -7.30760834765932 -2.94275194599464
-7.30760834765932 -2.94275194599464 -1.75487766624669
7.30760834765932 2.94275194599464 -1.75487766624669
-1.00000000000000 6.84106829257066 -4.16416966732999
1.00000000000000 -6.84106829257066 -4.16416966732999
3.14343868032933 5.51635033532592 -4.98289039041457
-3.14343868032933 -5.51635033532592 -4.98289039041457
-5.51635033532592 -4.98289039041457 -3.14343868032933
5.51635033532592 4.98289039041457 -3.14343868032933
-4.98289039041457 -3.14343868032933 -5.51635033532592
4.98289039041457 3.14343868032933 -5.51635033532592
-3.76147266907922 3.89831634657602 -5.98289039041457
3.76147266907922 -3.89831634657602 -5.98289039041457
-2.94275194599464 -1.75487766624669 -7.30760834765932
2.94275194599464 1.75487766624669 -7.30760834765932
-4.16416966732999 1.00000000000000 -6.84106829257066
4.16416966732999 -1.00000000000000 -6.84106829257066
-1.32471795724475 0.754877666246693 -7.92564233640921
1.32471795724475 -0.754877666246693 -7.92564233640921

6 34 28 56 21 54 41
6 22 16 48 19 47 39
6 38 44 28 13 24 2
6 41 47 31 24 15 8
6 54 50 59 11 57 29
6 9 13 5 51 19 35
6 51 55 43 37 27 19
6 1 0 12 29 21 37
6 17 23 9 39 3 11
6 28 34 18 49 6 20
6 36 30 38 8 34 26
6 27 33 17 15 13 1
6 33 27 35 44 53 58
6 8 12 4 50 18 34
6 21 15 22 53 42 54
6 7 11 3 26 0 4
6 15 21 7 6 5 13
6 10 6 36 42 44 56
6 46 40 55 32 59 50
6 49 43 40 0 36 6
6 39 45 29 12 25 3
6 45 39 47 46 50 52
6 37 31 39 9 35 27
6 0 1 13 28 20 36
6 16 22 8 38 2 10
6 47 41 54 33 58 51
6 58 59 52 23 38 30
6 40 46 30 25 14 9
6 25 19 27 2 23 14
6 43 49 33 54 29 45
6 5 3 25 30 33 49
6 23 17 49 18 46 38
6 13 9 14 16 10 24
6 48 42 41 1 37 7
6 19 25 11 59 31 47
6 29 35 19 48 7 21
6 12 8 15 17 11 25
6 53 57 45 34 41 42
6 55 51 58 10 56 28
6 3 5 1 41 8 22
6 26 32 16 14 12 0
6 59 58 53 22 39 31
6 52 56 44 35 40 43
6 6 10 2 27 1 5
6 2 4 0 40 9 23
6 4 2 24 31 32 48
6 11 7 37 43 45 57
6 57 53 51 5 49 17
6 30 36 20 57 17 33
6 35 29 57 20 55 40
6 56 52 50 4 48 16
6 18 24 10 58 30 46
6 44 38 46 47 51 53
6 14 20 6 7 4 12
6 31 37 21 56 16 32
6 32 26 34 45 52 59
6 20 14 23 52 43 55
6 42 48 32 55 28 44
6 50 54 42 36 26 18
6 24 18 26 3 22 15
