OFF
60 60 0

3.00251541088553 0.951088066132656 12.6356481922405
-3.00251541088553 -0.951088066132656 12.6356481922405
-4.62054939963542 1.95108806613266 12.0176142034906
4.62054939963542 -1.95108806613266 12.0176142034906
-8.01509879260508 5.85817198655814 8.42729404144069
8.01509879260508 -5.85817198655814 8.42729404144069
-5.85817198655814 8.42729404144069 8.01509879260508
5.85817198655814 -8.42729404144069 8.01509879260508
-6.15944221693247 -1.00000000000000 11.4298094523262
6.15944221693247 1.00000000000000 11.4298094523262
-1.95108806613266 12.0176142034906 4.62054939963542
1.95108806613266 -12.0176142034906 4.62054939963542
-6.47620597530803 -6.80926005269079 9.01509879260508
6.47620597530803 6.80926005269079 9.01509879260508
1.00000000000000 11.4298094523262 6.15944221693247
-1.00000000000000 -11.4298094523262 6.15944221693247
-9.01509879260508 -6.47620597530803 6.80926005269079
9.01509879260508 6.47620597530803 6.80926005269079
-8.42729404144069 8.01509879260508 5.85817198655814
8.42729404144069 -8.01509879260508 5.85817198655814
6.80926005269079 9.01509879260508 6.47620597530803
-6.80926005269079 -9.01509879260508 6.47620597530803
-11.4298094523262 -6.15944221693247 1.00000000000000
11.4298094523262 6.15944221693247 1.00000000000000
-12.0176142034906 4.62054939963542 1.95108806613266
12.0176142034906 -4.62054939963542 1.95108806613266
-12.6356481922405 -3.00251541088553 0.951088066132656
12.6356481922405 3.00251541088553 0.951088066132656
-11.4298094523262 6.15944221693247 -1.00000000000000
11.4298094523262 -6.15944221693247 -1.00000000000000
0.951088066132656 12.6356481922405 3.00251541088553
-0.951088066132656 -12.6356481922405 3.00251541088553
-12.6356481922405 3.00251541088553 -0.951088066132656
12.6356481922405 -3.00251541088553 -0.951088066132656
-9.01509879260508 6.47620597530803 -6.80926005269079
9.01509879260508 -6.47620597530803 -6.80926005269079
-0.951088066132656 12.6356481922405 -3.00251541088553
0.951088066132656 -12.6356481922405 -3.00251541088553
-6.80926005269079 9.01509879260508 -6.47620597530803
6.80926005269079 -9.01509879260508 -6.47620597530803
1.95108806613266 12.0176142034906 -4.62054939963542
-1.95108806613266 -12.0176142034906 -4.62054939963542
-12.0176142034906 -4.62054939963542 -1.95108806613266
12.0176142034906 4.62054939963542 -1.95108806613266
-1.00000000000000 11.4298094523262 -6.15944221693247
1.00000000000000 -11.4298094523262 -6.15944221693247
5.85817198655814 8.42729404144069 -8.01509879260508
-5.85817198655814 -8.42729404144069 -8.01509879260508
-8.42729404144069 -8.01509879260508 -5.85817198655814
8.42729404144069 8.01509879260508 -5.85817198655814
-8.01509879260508 -5.85817198655814 -8.42729404144069
8.01509879260508 5.85817198655814 -8.42729404144069
-6.47620597530803 6.80926005269079 -9.01509879260508
6.47620597530803 -6.80926005269079 -9.01509879260508
-4.62054939963542 -1.95108806613266 -12.0176142034906
4.62054939963542 1.95108806613266 -12.0176142034906
-6.15944221693247 1.00000000000000 -11.4298094523262
6.15944221693247 -1.00000000000000 -11.4298094523262
-3.00251541088553 0.951088066132656 -12.6356481922405
3.00251541088553 -0.951088066132656 -12.6356481922405

6 34 38 37 40 33 29
6 22 26 35 28 46 51
6 38 52 1 54 31 15
6 41 45 2 35 17 13
6 54 56 25 38 20 17
6 9 0 53 8 48 47
6 51 46 7 36 2 1
6 1 2 45 18 56 54
6 17 20 31 10 26 22
6 28 32 17 22 7 5
6 36 40 22 51 45 41
6 27 43 8 46 28 24
6 33 25 56 7 22 42
6 8 1 52 9 49 46
6 21 12 58 2 36 44
6 7 19 18 33 40 36
6 15 31 20 45 51 49
6 10 14 54 17 35 53
6 46 49 48 27 11 31
6 49 51 4 59 42 26
6 39 53 0 55 30 14
6 45 37 38 15 4 18
6 37 41 23 50 44 40
6 0 3 44 19 57 55
6 16 21 30 11 27 23
6 47 48 49 26 10 30
6 58 54 14 48 8 2
6 40 44 3 34 16 12
6 25 29 10 53 52 38
6 43 23 41 13 12 21
6 5 7 46 31 54 58
6 23 27 34 29 47 50
6 13 17 32 43 58 56
6 48 50 5 58 43 27
6 19 5 50 0 24 32
6 29 33 16 23 6 4
6 12 16 33 42 59 57
6 53 35 26 25 1 8
6 55 57 24 39 21 16
6 3 9 42 20 38 34
6 26 42 9 47 29 25
6 59 55 15 49 9 3
6 52 34 27 24 0 9
6 6 18 19 32 41 37
6 2 8 43 21 39 35
6 4 6 47 30 55 59
6 11 15 55 16 34 52
6 57 59 13 56 18 6
6 30 10 29 4 15 11
6 35 39 36 41 32 28
6 56 58 12 57 19 7
6 18 4 51 1 25 33
6 44 36 39 14 5 19
6 14 30 21 44 50 48
6 31 11 28 5 14 10
6 32 24 57 6 23 43
6 20 13 59 3 37 45
6 42 22 40 12 13 20
6 50 47 6 37 3 0
6 24 28 11 52 53 39
