OFF
60 60 0

3.82179035395245 3.11923267686873 18.2886695120167
-3.82179035395245 -3.11923267686873 18.2886695120167
-5.43982434270234 4.11923267686873 17.6706355232668
5.43982434270234 -4.11923267686873 17.6706355232668
-12.8488451693144 7.18378669057155 11.9210533561902
12.8488451693144 -7.18378669057155 11.9210533561902
-7.18378669057155 11.9210533561902 12.8488451693144
7.18378669057155 -11.9210533561902 12.8488451693144
-10.4868488326953 -1.00000000000000 15.7428437101426
10.4868488326953 1.00000000000000 15.7428437101426
-4.11923267686873 17.6706355232668 5.43982434270234
4.11923267686873 -17.6706355232668 5.43982434270234
-7.80182067932145 -10.3030193674403 13.8488451693144
7.80182067932145 10.3030193674403 13.8488451693144
1.00000000000000 15.7428437101426 10.4868488326953
-1.00000000000000 -15.7428437101426 10.4868488326953
-13.8488451693144 -7.80182067932145 10.3030193674403
13.8488451693144 7.80182067932145 10.3030193674403
-11.9210533561902 12.8488451693144 7.18378669057155
11.9210533561902 -12.8488451693144 7.18378669057155
10.3030193674403 13.8488451693144 7.80182067932145
-10.3030193674403 -13.8488451693144 7.80182067932145
-15.7428437101426 -10.4868488326953 1.00000000000000
15.7428437101426 10.4868488326953 1.00000000000000
-17.6706355232668 5.43982434270234 4.11923267686873
17.6706355232668 -5.43982434270234 4.11923267686873
-18.2886695120167 -3.82179035395245 3.11923267686873
18.2886695120167 3.82179035395245 3.11923267686873
-15.7428437101426 10.4868488326953 -1.00000000000000
15.7428437101426 -10.4868488326953 -1.00000000000000
3.11923267686873 18.2886695120167 3.82179035395245
-3.11923267686873 -18.2886695120167 3.82179035395245
-18.2886695120167 3.82179035395245 -3.11923267686873
18.2886695120167 -3.82179035395245 -3.11923267686873
-13.8488451693144 7.80182067932145 -10.3030193674403
13.8488451693144 -7.80182067932145 -10.3030193674403
-3.11923267686873 18.2886695120167 -3.82179035395245
3.11923267686873 -18.2886695120167 -3.82179035395245
-10.3030193674403 13.8488451693144 -7.80182067932145
10.3030193674403 -13.8488451693144 -7.80182067932145
4.11923267686873 17.6706355232668 -5.43982434270234
-4.11923267686873 -17.6706355232668 -5.43982434270234
-17.6706355232668 -5.43982434270234 -4.11923267686873
17.6706355232668 5.43982434270234 -4.11923267686873
-1.00000000000000 15.7428437101426 -10.4868488326953
1.00000000000000 -15.7428437101426 -10.4868488326953
7.18378669057155 11.9210533561902 -12.8488451693144
-7.18378669057155 -11.9210533561902 -12.8488451693144
-11.9210533561902 -12.8488451693144 -7.18378669057155
11.9210533561902 12.8488451693144 -7.18378669057155
-12.8488451693144 -7.18378669057155 -11.9210533561902
12.8488451693144 7.18378669057155 -11.9210533561902
-7.80182067932145 10.3030193674403 -13.8488451693144
7.80182067932145 -10.3030193674403 -13.8488451693144
-5.43982434270234 -4.11923267686873 -17.6706355232668
5.43982434270234 4.11923267686873 -17.6706355232668
-10.4868488326953 1.00000000000000 -15.7428437101426
10.4868488326953 -1.00000000000000 -15.7428437101426
-3.82179035395245 3.11923267686873 -18.2886695120167
3.82179035395245 -3.11923267686873 -18.2886695120167

5 34 42 10 38 16
5 22 31 4 26 7
5 38 10 55 52 20
5 41 22 59 45 32
5 54 45 32 56 31
5 9 27 6 0 49
5 51 35 52 46 45
5 1 7 14 2 25
5 17 25 40 20 35
5 28 36 50 32 46
5 36 18 23 40 2
5 27 5 57 43 11
5 33 51 9 25 40
5 8 26 7 1 48
5 21 41 3 12 39
5 7 12 39 19 22
5 15 1 48 31 4
5 10 28 0 14 26
5 46 52 20 49 28
5 49 20 35 51 9
5 39 11 54 53 21
5 45 59 19 37 51
5 37 19 22 41 3
5 0 6 15 3 24
5 16 24 41 21 34
5 47 53 21 48 29
5 58 46 45 54 43
5 40 23 58 44 33
5 25 9 37 29 1
5 43 57 30 23 58
5 5 17 12 7 14
5 23 30 5 27 6
5 13 2 25 17 12
5 48 21 34 50 8
5 19 39 17 5 57
5 29 37 51 33 47
5 12 3 24 16 13
5 53 54 43 35 52
5 55 44 33 57 30
5 3 15 27 9 37
5 26 4 56 42 10
5 59 47 44 55 42
5 52 55 42 34 53
5 6 13 38 18 23
5 2 14 26 8 36
5 4 16 13 6 15
5 11 29 1 15 27
5 57 33 47 59 19
5 30 49 28 10 55
5 35 43 11 39 17
5 56 32 46 58 18
5 18 38 16 4 56
5 44 58 18 36 50
5 14 0 49 30 5
5 31 48 29 11 54
5 32 50 8 24 41
5 20 40 2 13 38
5 42 56 31 22 59
5 50 34 53 47 44
5 24 8 36 28 0
