OFF
60 60 0

0.189962648493105 0.173906376425686 4.01478307576478
-0.189962648493105 -0.173906376425686 4.01478307576478
-1.80799663724300 1.17390637642569 3.39674908701489
1.80799663724300 -1.17390637642569 3.39674908701489
-2.20678643852178 1.30736602185479 3.09930638703037
2.20678643852178 -1.30736602185479 3.09930638703037
-1.30736602185479 3.09930638703037 2.20678643852178
1.30736602185479 -3.09930638703037 2.20678643852178
-2.08938306516009 -1.00000000000000 3.28926903552348
2.08938306516009 1.00000000000000 3.28926903552348
-1.17390637642569 3.39674908701489 1.80799663724300
1.17390637642569 -3.39674908701489 1.80799663724300
-1.92540001060469 -1.48127239828048 3.20678643852178
1.92540001060469 1.48127239828048 3.20678643852178
1.00000000000000 3.28926903552348 2.08938306516009
-1.00000000000000 -3.28926903552348 2.08938306516009
-3.20678643852178 -1.92540001060469 1.48127239828048
3.20678643852178 1.92540001060469 1.48127239828048
-3.09930638703037 2.20678643852178 1.30736602185479
3.09930638703037 -2.20678643852178 1.30736602185479
1.48127239828048 3.20678643852178 1.92540001060469
-1.48127239828048 -3.20678643852178 1.92540001060469
-3.28926903552348 -2.08938306516009 1.00000000000000
3.28926903552348 2.08938306516009 1.00000000000000
-3.39674908701489 1.80799663724300 1.17390637642569
3.39674908701489 -1.80799663724300 1.17390637642569
-4.01478307576478 -0.189962648493105 0.173906376425686
4.01478307576478 0.189962648493105 0.173906376425686
-3.28926903552348 2.08938306516009 -1.00000000000000
3.28926903552348 -2.08938306516009 -1.00000000000000
0.173906376425686 4.01478307576478 0.189962648493105
-0.173906376425686 -4.01478307576478 0.189962648493105
-4.01478307576478 0.189962648493105 -0.173906376425686
4.01478307576478 -0.189962648493105 -0.173906376425686
-3.20678643852178 1.92540001060469 -1.48127239828048
3.20678643852178 -1.92540001060469 -1.48127239828048
-0.173906376425686 4.01478307576478 -0.189962648493105
0.173906376425686 -4.01478307576478 -0.189962648493105
-1.48127239828048 3.20678643852178 -1.92540001060469
1.48127239828048 -3.20678643852178 -1.92540001060469
1.17390637642569 3.39674908701489 -1.80799663724300
-1.17390637642569 -3.39674908701489 -1.80799663724300
-3.39674908701489 -1.80799663724300 -1.17390637642569
3.39674908701489 1.80799663724300 -1.17390637642569
-1.00000000000000 3.28926903552348 -2.08938306516009
1.00000000000000 -3.28926903552348 -2.08938306516009
1.30736602185479 3.09930638703037 -2.20678643852178
-1.30736602185479 -3.09930638703037 -2.20678643852178
-3.09930638703037 -2.20678643852178 -1.30736602185479
3.09930638703037 2.20678643852178 -1.30736602185479
-2.20678643852178 -1.30736602185479 -3.09930638703037
2.20678643852178 1.30736602185479 -3.09930638703037
-1.92540001060469 1.48127239828048 -3.20678643852178
1.92540001060469 -1.48127239828048 -3.20678643852178
-1.80799663724300 -1.17390637642569 -3.39674908701489
1.80799663724300 1.17390637642569 -3.39674908701489
-2.08938306516009 1.00000000000000 -3.28926903552348
2.08938306516009 -1.00000000000000 -3.28926903552348
-0.189962648493105 0.173906376425686 -4.01478307576478
0.189962648493105 -0.173906376425686 -4.01478307576478

5 34 58 13 28 33
5 22 50 14 16 46
5 38 32 35 44 31
5 41 11 46 47 17
5 54 55 4 50 20
5 9 7 28 13 48
5 51 23 32 55 2
5 1 16 40 0 56
5 17 0 52 23 26
5 28 4 45 34 7
5 36 52 25 30 45
5 27 20 54 33 28
5 33 39 2 27 22
5 8 6 29 12 49
5 21 26 17 15 36
5 7 9 59 11 40
5 15 19 56 21 51
5 10 40 7 6 35
5 46 57 0 40 11
5 49 44 37 43 42
5 39 33 34 45 30
5 45 48 9 39 4
5 37 53 24 31 44
5 0 17 41 1 57
5 16 1 53 22 27
5 47 56 1 41 10
5 58 34 11 59 8
5 40 10 47 46 16
5 25 43 48 19 52
5 43 25 18 49 12
5 5 29 26 3 54
5 23 51 15 17 47
5 13 30 39 9 58
5 48 45 36 42 43
5 19 15 30 25 24
5 29 5 44 35 6
5 12 31 38 8 59
5 53 37 20 57 1
5 55 54 5 51 21
5 3 2 51 5 38
5 26 21 55 32 29
5 59 35 10 58 9
5 52 36 21 56 0
5 6 8 58 10 41
5 2 3 50 4 39
5 4 28 27 2 55
5 11 41 6 7 34
5 57 46 22 53 18
5 30 13 42 36 15
5 35 59 12 29 32
5 56 47 23 52 19
5 18 14 31 24 25
5 44 49 8 38 5
5 14 18 57 20 50
5 31 12 43 37 14
5 32 38 3 26 23
5 20 27 16 14 37
5 42 24 19 48 13
5 50 22 33 54 3
5 24 42 49 18 53
