OFF
60 60 0

0.352614097532262 1.40010649156259 6.42464356096925
-0.352614097532262 -1.40010649156259 6.42464356096925
-1.97064808628216 2.40010649156259 5.80660957221936
1.97064808628216 -2.40010649156259 5.80660957221936
-4.45399547468710 1.57054159471957 4.58868207503205
4.45399547468710 -1.57054159471957 4.58868207503205
-1.57054159471957 4.58868207503205 4.45399547468710
1.57054159471957 -4.58868207503205 4.45399547468710
-4.23606797749979 -1.00000000000000 4.94129617256431
4.23606797749979 1.00000000000000 4.94129617256431
-2.40010649156259 5.80660957221936 1.97064808628216
2.40010649156259 -5.80660957221936 1.97064808628216
-2.18857558346947 -2.97064808628216 5.45399547468710
2.18857558346947 2.97064808628216 5.45399547468710
1.00000000000000 4.94129617256431 4.23606797749979
-1.00000000000000 -4.94129617256431 4.23606797749979
-5.45399547468710 -2.18857558346947 2.97064808628216
5.45399547468710 2.18857558346947 2.97064808628216
-4.58868207503205 4.45399547468710 1.57054159471957
4.58868207503205 -4.45399547468710 1.57054159471957
2.97064808628216 5.45399547468710 2.18857558346947
-2.97064808628216 -5.45399547468710 2.18857558346947
-4.94129617256431 -4.23606797749979 1.00000000000000
4.94129617256431 4.23606797749979 1.00000000000000
-5.80660957221936 1.97064808628216 2.40010649156259
5.80660957221936 -1.97064808628216 2.40010649156259
-6.42464356096925 -0.352614097532262 1.40010649156259
6.42464356096925 0.352614097532262 1.40010649156259
-4.94129617256431 4.23606797749979 -1.00000000000000
4.94129617256431 -4.23606797749979 -1.00000000000000
1.40010649156259 6.42464356096925 0.352614097532262
-1.40010649156259 -6.42464356096925 0.352614097532262
-6.42464356096925 0.352614097532262 -1.40010649156259
6.42464356096925 -0.352614097532262 -1.40010649156259
-5.45399547468710 2.18857558346947 -2.97064808628216
5.45399547468710 -2.18857558346947 -2.97064808628216
-1.40010649156259 6.42464356096925 -0.352614097532262
1.40010649156259 -6.42464356096925 -0.352614097532262
-2.97064808628216 5.45399547468710 -2.18857558346947
2.97064808628216 -5.45399547468710 -2.18857558346947
2.40010649156259 5.80660957221936 -1.97064808628216
-2.40010649156259 -5.80660957221936 -1.97064808628216
-5.80660957221936 -1.97064808628216 -2.40010649156259
5.80660957221936 1.97064808628216 -2.40010649156259
-1.00000000000000 4.94129617256431 -4.23606797749979
1.00000000000000 -4.94129617256431 -4.23606797749979
1.57054159471957 4.58868207503205 -4.45399547468710
-1.57054159471957 -4.58868207503205 -4.45399547468710
-4.58868207503205 -4.45399547468710 -1.57054159471957
4.58868207503205 4.45399547468710 -1.57054159471957
-4.45399547468710 -1.57054159471957 -4.58868207503205
4.45399547468710 1.57054159471957 -4.58868207503205
-2.18857558346947 2.97064808628216 -5.45399547468710
2.18857558346947 -2.97064808628216 -5.45399547468710
-1.97064808628216 -2.40010649156259 -5.80660957221936
1.97064808628216 2.40010649156259 -5.80660957221936
-4.23606797749979 1.00000000000000 -4.94129617256431
4.23606797749979 -1.00000000000000 -4.94129617256431
-0.352614097532262 1.40010649156259 -6.42464356096925
0.352614097532262 -1.40010649156259 -6.42464356096925

5 34 28 13 50 5
5 22 16 14 41 23
5 38 44 35 18 19
5 41 47 46 21 30
5 54 50 4 53 0
5 9 13 28 25 56
5 51 55 32 33 16
5 1 0 40 15 55
5 17 23 52 5 50
5 28 34 45 10 29
5 36 30 25 28 11
5 27 33 54 9 42
5 33 27 2 57 24
5 8 12 29 24 57
5 21 15 17 48 49
5 7 11 59 1 52
5 15 21 56 3 44
5 10 6 7 38 37
5 46 40 0 58 12
5 49 43 37 30 21
5 39 45 34 19 18
5 45 39 9 54 14
5 37 31 24 29 10
5 0 1 41 14 54
5 16 22 53 4 51
5 47 41 1 59 13
5 58 59 11 44 3
5 40 46 47 20 31
5 25 19 48 17 32
5 43 49 18 35 26
5 5 3 26 27 34
5 23 17 15 40 22
5 13 9 39 6 47
5 48 42 36 31 20
5 19 25 30 37 38
5 29 35 44 11 28
5 12 8 38 7 46
5 53 57 20 47 6
5 55 51 5 52 1
5 3 5 51 12 58
5 26 32 55 8 43
5 59 58 10 45 2
5 52 56 21 46 7
5 6 10 58 0 53
5 2 4 50 13 59
5 4 2 27 26 35
5 11 7 6 39 36
5 57 53 22 43 8
5 30 36 42 23 41
5 35 29 12 51 4
5 56 52 23 42 9
5 18 24 31 36 39
5 44 38 8 55 15
5 14 20 57 2 45
5 31 37 43 22 40
5 32 26 3 56 25
5 20 14 16 49 48
5 42 48 19 34 27
5 50 54 33 32 17
5 24 18 49 16 33
