OFF
60 60 0

0.370437368066003 0.821413095342092 5.53495990486740
-0.370437368066003 -0.821413095342092 5.53495990486740
-1.98847135681590 1.82141309534209 4.91692591611751
1.98847135681590 -1.82141309534209 4.91692591611751
-3.54648854805151 1.59938025223385 4.03882733632584
3.54648854805151 -1.59938025223385 4.03882733632584
-1.59938025223385 4.03882733632584 3.54648854805151
1.59938025223385 -4.03882733632584 3.54648854805151
-3.31754566388366 -1.00000000000000 4.40926470439184
3.31754566388366 1.00000000000000 4.40926470439184
-1.82141309534209 4.91692591611751 1.98847135681590
1.82141309534209 -4.91692591611751 1.98847135681590
-2.21741424098374 -2.42079334757594 4.54648854805151
2.21741424098374 2.42079334757594 4.54648854805151
1.00000000000000 4.40926470439184 3.31754566388366
-1.00000000000000 -4.40926470439184 3.31754566388366
-4.54648854805151 -2.21741424098374 2.42079334757594
4.54648854805151 2.21741424098374 2.42079334757594
-4.03882733632584 3.54648854805151 1.59938025223385
4.03882733632584 -3.54648854805151 1.59938025223385
2.42079334757594 4.54648854805151 2.21741424098374
-2.42079334757594 -4.54648854805151 2.21741424098374
-4.40926470439184 -3.31754566388366 1.00000000000000
4.40926470439184 3.31754566388366 1.00000000000000
-4.91692591611751 1.98847135681590 1.82141309534209
4.91692591611751 -1.98847135681590 1.82141309534209
-5.53495990486740 -0.370437368066003 0.821413095342092
5.53495990486740 0.370437368066003 0.821413095342092
-4.40926470439184 3.31754566388366 -1.00000000000000
4.40926470439184 -3.31754566388366 -1.00000000000000
0.821413095342092 5.53495990486740 0.370437368066003
-0.821413095342092 -5.53495990486740 0.370437368066003
-5.53495990486740 0.370437368066003 -0.821413095342092
5.53495990486740 -0.370437368066003 -0.821413095342092
-4.54648854805151 2.21741424098374 -2.42079334757594
4.54648854805151 -2.21741424098374 -2.42079334757594
-0.821413095342092 5.53495990486740 -0.370437368066003
0.821413095342092 -5.53495990486740 -0.370437368066003
-2.42079334757594 4.54648854805151 -2.21741424098374
2.42079334757594 -4.54648854805151 -2.21741424098374
1.82141309534209 4.91692591611751 -1.98847135681590
-1.82141309534209 -4.91692591611751 -1.98847135681590
-4.91692591611751 -1.98847135681590 -1.82141309534209
4.91692591611751 1.98847135681590 -1.82141309534209
-1.00000000000000 4.40926470439184 -3.31754566388366
1.00000000000000 -4.40926470439184 -3.31754566388366
1.59938025223385 4.03882733632584 -3.54648854805151
-1.59938025223385 -4.03882733632584 -3.54648854805151
-4.03882733632584 -3.54648854805151 -1.59938025223385
4.03882733632584 3.54648854805151 -1.59938025223385
-3.54648854805151 -1.59938025223385 -4.03882733632584
3.54648854805151 1.59938025223385 -4.03882733632584
-2.21741424098374 2.42079334757594 -4.54648854805151
2.21741424098374 -2.42079334757594 -4.54648854805151
-1.98847135681590 -1.82141309534209 -4.91692591611751
1.98847135681590 1.82141309534209 -4.91692591611751
-3.31754566388366 1.00000000000000 -4.40926470439184
3.31754566388366 -1.00000000000000 -4.40926470439184
-0.370437368066003 0.821413095342092 -5.53495990486740
0.370437368066003 -0.821413095342092 -5.53495990486740

5 34 56 30 55 58
5 22 48 18 56 50
5 38 28 59 42 32
5 41 31 57 19 11
5 54 59 28 46 55
5 9 5 4 15 7
5 51 43 38 20 23
5 1 12 10 26 16
5 17 9 36 2 0
5 28 18 48 8 4
5 36 38 43 58 52
5 27 17 55 30 20
5 33 35 3 37 39
5 8 4 5 14 6
5 21 22 0 24 26
5 7 3 35 17 9
5 15 7 47 29 19
5 10 36 9 49 40
5 46 55 17 35 57
5 49 40 53 52 44
5 39 29 58 43 33
5 45 47 7 22 48
5 37 39 42 59 53
5 0 13 11 27 17
5 16 8 37 3 1
5 47 54 16 34 56
5 58 52 41 32 34
5 40 30 56 18 10
5 25 27 45 51 43
5 43 33 14 5 25
5 5 25 21 39 29
5 23 49 19 57 51
5 13 14 33 40 30
5 48 41 52 53 45
5 19 11 13 12 15
5 29 19 49 9 5
5 12 15 32 41 31
5 53 45 27 11 37
5 55 58 29 47 54
5 3 1 23 6 2
5 26 16 54 31 21
5 59 53 40 33 35
5 52 44 26 10 36
5 6 2 34 16 8
5 2 0 22 7 3
5 4 24 20 38 28
5 11 37 8 48 41
5 57 51 50 44 46
5 30 20 24 0 13
5 35 57 31 54 59
5 56 50 51 45 47
5 18 10 12 13 14
5 44 46 6 23 49
5 14 6 46 28 18
5 31 21 25 1 12
5 32 34 2 36 38
5 20 23 1 25 27
5 42 32 15 4 24
5 50 42 39 21 22
5 24 26 44 50 42
