OFF
60 60 0

0.370437368066003 0.821413095342092 5.53495990486740
-0.370437368066003 -0.821413095342092 5.53495990486740
-1.98847135681590 1.82141309534209 4.91692591611751
1.98847135681590 -1.82141309534209 4.91692591611751
-3.54648854805151 1.59938025223385 4.03882733632584
3.54648854805151 -1.59938025223385 4.03882733632584
-1.59938025223385 4.03882733632584 3.54648854805151
1.59938025223385 -4.03882733632584 3.54648854805151
-3.31754566388366 -1.00000000000000 4.40926470439184
3.31754566388366 1.00000000000000 4.40926470439184
-1.82141309534209 4.91692591611751 1.98847135681590
1.82141309534209 -4.91692591611751 1.98847135681590
-2.21741424098374 -2.42079334757594 4.54648854805151
2.21741424098374 2.42079334757594 4.54648854805151
1.00000000000000 4.40926470439184 3.31754566388366
-1.00000000000000 -4.40926470439184 3.31754566388366
-4.54648854805151 -2.21741424098374 2.42079334757594
4.54648854805151 2.21741424098374 2.42079334757594
-4.03882733632584 3.54648854805151 1.59938025223385
4.03882733632584 -3.54648854805151 1.59938025223385
2.42079334757594 4.54648854805151 2.21741424098374
-2.42079334757594 -4.54648854805151 2.21741424098374
-4.40926470439184 -3.31754566388366 1.00000000000000
4.40926470439184 3.31754566388366 1.00000000000000
-4.91692591611751 1.98847135681590 1.82141309534209
4.91692591611751 -1.98847135681590 1.82141309534209
-5.53495990486740 -0.370437368066003 0.821413095342092
5.53495990486740 0.370437368066003 0.821413095342092
-4.40926470439184 3.31754566388366 -1.00000000000000
4.40926470439184 -3.31754566388366 -1.00000000000000
0.821413095342092 5.53495990486740 0.370437368066003
-0.821413095342092 -5.53495990486740 0.370437368066003
-5.53495990486740 0.370437368066003 -0.821413095342092
5.53495990486740 -0.370437368066003 -0.821413095342092
-4.54648854805151 2.21741424098374 -2.42079334757594
4.54648854805151 -2.21741424098374 -2.42079334757594
-0.821413095342092 5.53495990486740 -0.370437368066003
0.821413095342092 -5.53495990486740 -0.370437368066003
-2.42079334757594 4.54648854805151 -2.21741424098374
2.42079334757594 -4.54648854805151 -2.21741424098374
1.82141309534209 4.91692591611751 -1.98847135681590
-1.82141309534209 -4.91692591611751 -1.98847135681590
-4.91692591611751 -1.98847135681590 -1.82141309534209
4.91692591611751 1.98847135681590 -1.82141309534209
-1.00000000000000 4.40926470439184 -3.31754566388366
1.00000000000000 -4.40926470439184 -3.31754566388366
1.59938025223385 4.03882733632584 -3.54648854805151
-1.59938025223385 -4.03882733632584 -3.54648854805151
-4.03882733632584 -3.54648854805151 -1.59938025223385
4.03882733632584 3.54648854805151 -1.59938025223385
-3.54648854805151 -1.59938025223385 -4.03882733632584
3.54648854805151 1.59938025223385 -4.03882733632584
-2.21741424098374 2.42079334757594 -4.54648854805151
2.21741424098374 -2.42079334757594 -4.54648854805151
-1.98847135681590 -1.82141309534209 -4.91692591611751
1.98847135681590 1.82141309534209 -4.91692591611751
-3.31754566388366 1.00000000000000 -4.40926470439184
3.31754566388366 -1.00000000000000 -4.40926470439184
-0.370437368066003 0.821413095342092 -5.53495990486740
0.370437368066003 -0.821413095342092 -5.53495990486740

5 34 28 55 30 58
5 22 16 56 18 50
5 38 44 42 59 32
5 41 47 19 57 11
5 54 50 46 28 55
5 9 13 15 4 7
5 51 55 20 38 23
5 1 0 26 10 16
5 17 23 2 36 0
5 28 34 8 48 4
5 36 30 58 43 52
5 27 33 30 55 20
5 33 27 37 3 39
5 8 12 14 5 6
5 21 15 24 0 26
5 7 11 17 35 9
5 15 21 29 47 19
5 10 6 49 9 40
5 46 40 35 17 57
5 49 43 52 53 44
5 39 45 43 58 33
5 45 39 22 7 48
5 37 31 59 42 53
5 0 1 27 11 17
5 16 22 3 37 1
5 47 41 34 16 56
5 58 59 32 41 34
5 40 46 18 56 10
5 25 19 51 45 43
5 43 49 5 14 25
5 5 3 39 21 29
5 23 17 57 19 51
5 13 9 40 33 30
5 48 42 53 52 45
5 19 25 12 13 15
5 29 35 9 49 5
5 12 8 41 32 31
5 53 57 11 27 37
5 55 51 47 29 54
5 3 5 6 23 2
5 26 32 31 54 21
5 59 58 33 40 35
5 52 56 10 26 36
5 6 10 16 34 8
5 2 4 7 22 3
5 4 2 38 20 28
5 11 7 48 8 41
5 57 53 44 50 46
5 30 36 0 24 13
5 35 29 54 31 59
5 56 52 45 51 47
5 18 24 13 12 14
5 44 38 23 6 49
5 14 20 28 46 18
5 31 37 1 25 12
5 32 26 36 2 38
5 20 14 25 1 27
5 42 48 4 15 24
5 50 54 21 39 22
5 24 18 50 44 42
