OFF
60 60 0

0.370437368066003 0.821413095342092 5.53495990486740
-0.370437368066003 -0.821413095342092 5.53495990486740
-1.98847135681590 1.82141309534209 4.91692591611751
1.98847135681590 -1.82141309534209 4.91692591611751
-3.54648854805151 1.59938025223385 4.03882733632584
3.54648854805151 -1.59938025223385 4.03882733632584
-1.59938025223385 4.03882733632584 3.54648854805151
1.59938025223385 -4.03882733632584 3.54648854805151
-3.31754566388366 -1.00000000000000 4.40926470439184
3.31754566388366 1.00000000000000 4.40926470439184
-1.82141309534209 4.91692591611751 1.98847135681590
1.82141309534209 -4.91692591611751 1.98847135681590
-2.21741424098374 -2.42079334757594 4.54648854805151
2.21741424098374 2.42079334757594 4.54648854805151
1.00000000000000 4.40926470439184 3.31754566388366
-1.00000000000000 -4.40926470439184 3.31754566388366
-4.54648854805151 -2.21741424098374 2.42079334757594
4.54648854805151 2.21741424098374 2.42079334757594
-4.03882733632584 3.54648854805151 1.59938025223385
4.03882733632584 -3.54648854805151 1.59938025223385
2.42079334757594 4.54648854805151 2.21741424098374
-2.42079334757594 -4.54648854805151 2.21741424098374
-4.40926470439184 -3.31754566388366 1.00000000000000
4.40926470439184 3.31754566388366 1.00000000000000
-4.91692591611751 1.98847135681590 1.82141309534209
4.91692591611751 -1.98847135681590 1.82141309534209
-5.53495990486740 -0.370437368066003 0.821413095342092
5.53495990486740 0.370437368066003 0.821413095342092
-4.40926470439184 3.31754566388366 -1.00000000000000
4.40926470439184 -3.31754566388366 -1.00000000000000
0.821413095342092 5.53495990486740 0.370437368066003
-0.821413095342092 -5.53495990486740 0.370437368066003
-5.53495990486740 0.370437368066003 -0.821413095342092
5.53495990486740 -0.370437368066003 -0.821413095342092
-4.54648854805151 2.21741424098374 -2.42079334757594
4.54648854805151 -2.21741424098374 -2.42079334757594
-0.821413095342092 5.53495990486740 -0.370437368066003
0.821413095342092 -5.53495990486740 -0.370437368066003
-2.42079334757594 4.54648854805151 -2.21741424098374
2.42079334757594 -4.54648854805151 -2.21741424098374
1.82141309534209 4.91692591611751 -1.98847135681590
-1.82141309534209 -4.91692591611751 -1.98847135681590
-4.91692591611751 -1.98847135681590 -1.82141309534209
4.91692591611751 1.98847135681590 -1.82141309534209
-1.00000000000000 4.40926470439184 -3.31754566388366
1.00000000000000 -4.40926470439184 -3.31754566388366
1.59938025223385 4.03882733632584 -3.54648854805151
-1.59938025223385 -4.03882733632584 -3.54648854805151
-4.03882733632584 -3.54648854805151 -1.59938025223385
4.03882733632584 3.54648854805151 -1.59938025223385
-3.54648854805151 -1.59938025223385 -4.03882733632584
3.54648854805151 1.59938025223385 -4.03882733632584
-2.21741424098374 2.42079334757594 -4.54648854805151
2.21741424098374 -2.42079334757594 -4.54648854805151
-1.98847135681590 -1.82141309534209 -4.91692591611751
1.98847135681590 1.82141309534209 -4.91692591611751
-3.31754566388366 1.00000000000000 -4.40926470439184
3.31754566388366 -1.00000000000000 -4.40926470439184
-0.370437368066003 0.821413095342092 -5.53495990486740
0.370437368066003 -0.821413095342092 -5.53495990486740

6 34 28 55 58 30 56
6 22 16 56 50 18 48
6 38 44 42 32 59 28
6 41 47 19 11 57 31
6 54 50 46 55 28 59
6 9 13 15 7 4 5
6 51 55 20 23 38 43
6 1 0 26 16 10 12
6 17 23 2 0 36 9
6 28 34 8 4 48 18
6 36 30 58 52 43 38
6 27 33 30 20 55 17
6 33 27 37 39 3 35
6 8 12 14 6 5 4
6 21 15 24 26 0 22
6 7 11 17 9 35 3
6 15 21 29 19 47 7
6 10 6 49 40 9 36
6 46 40 35 57 17 55
6 49 43 52 44 53 40
6 39 45 43 33 58 29
6 45 39 22 48 7 47
6 37 31 59 53 42 39
6 0 1 27 17 11 13
6 16 22 3 1 37 8
6 47 41 34 56 16 54
6 58 59 32 34 41 52
6 40 46 18 10 56 30
6 25 19 51 43 45 27
6 43 49 5 25 14 33
6 5 3 39 29 21 25
6 23 17 57 51 19 49
6 13 9 40 30 33 14
6 48 42 53 45 52 41
6 19 25 12 15 13 11
6 29 35 9 5 49 19
6 12 8 41 31 32 15
6 53 57 11 37 27 45
6 55 51 47 54 29 58
6 3 5 6 2 23 1
6 26 32 31 21 54 16
6 59 58 33 35 40 53
6 52 56 10 36 26 44
6 6 10 16 8 34 2
6 2 4 7 3 22 0
6 4 2 38 28 20 24
6 11 7 48 41 8 37
6 57 53 44 46 50 51
6 30 36 0 13 24 20
6 35 29 54 59 31 57
6 56 52 45 47 51 50
6 18 24 13 14 12 10
6 44 38 23 49 6 46
6 14 20 28 18 46 6
6 31 37 1 12 25 21
6 32 26 36 38 2 34
6 20 14 25 27 1 23
6 42 48 4 24 15 32
6 50 54 21 22 39 42
6 24 18 50 42 44 26
