OFF
60 60 0

0.375810434772252 0.194452030032404 4.53458246283426
-0.375810434772252 -0.194452030032404 4.53458246283426
-1.99384442352215 1.19445203003240 3.91654847408437
1.99384442352215 -1.19445203003240 3.91654847408437
-2.54073803931212 1.60807405678838 3.42056007557068
2.54073803931212 -1.60807405678838 3.42056007557068
-1.60807405678838 3.42056007557068 2.54073803931212
1.60807405678838 -3.42056007557068 2.54073803931212
-2.30847441729599 -1.00000000000000 3.79637051034293
2.30847441729599 1.00000000000000 3.79637051034293
-1.19445203003240 3.91654847408437 1.99384442352215
1.19445203003240 -3.91654847408437 1.99384442352215
-2.22610804553827 -1.80252608682078 3.54073803931212
2.22610804553827 1.80252608682078 3.54073803931212
1.00000000000000 3.79637051034293 2.30847441729599
-1.00000000000000 -3.79637051034293 2.30847441729599
-3.54073803931212 -2.22610804553827 1.80252608682078
3.54073803931212 2.22610804553827 1.80252608682078
-3.42056007557068 2.54073803931212 1.60807405678838
3.42056007557068 -2.54073803931212 1.60807405678838
1.80252608682078 3.54073803931212 2.22610804553827
-1.80252608682078 -3.54073803931212 2.22610804553827
-3.79637051034293 -2.30847441729599 1.00000000000000
3.79637051034293 2.30847441729599 1.00000000000000
-3.91654847408437 1.99384442352215 1.19445203003240
3.91654847408437 -1.99384442352215 1.19445203003240
-4.53458246283426 -0.375810434772252 0.194452030032404
4.53458246283426 0.375810434772252 0.194452030032404
-3.79637051034293 2.30847441729599 -1.00000000000000
3.79637051034293 -2.30847441729599 -1.00000000000000
0.194452030032404 4.53458246283426 0.375810434772252
-0.194452030032404 -4.53458246283426 0.375810434772252
-4.53458246283426 0.375810434772252 -0.194452030032404
4.53458246283426 -0.375810434772252 -0.194452030032404
-3.54073803931212 2.22610804553827 -1.80252608682078
3.54073803931212 -2.22610804553827 -1.80252608682078
-0.194452030032404 4.53458246283426 -0.375810434772252
0.194452030032404 -4.53458246283426 -0.375810434772252
-1.80252608682078 3.54073803931212 -2.22610804553827
1.80252608682078 -3.54073803931212 -2.22610804553827
1.19445203003240 3.91654847408437 -1.99384442352215
-1.19445203003240 -3.91654847408437 -1.99384442352215
-3.91654847408437 -1.99384442352215 -1.19445203003240
3.91654847408437 1.99384442352215 -1.19445203003240
-1.00000000000000 3.79637051034293 -2.30847441729599
1.00000000000000 -3.79637051034293 -2.30847441729599
1.60807405678838 3.42056007557068 -2.54073803931212
-1.60807405678838 -3.42056007557068 -2.54073803931212
-3.42056007557068 -2.54073803931212 -1.60807405678838
3.42056007557068 2.54073803931212 -1.60807405678838
-2.54073803931212 -1.60807405678838 -3.42056007557068
2.54073803931212 1.60807405678838 -3.42056007557068
-2.22610804553827 1.80252608682078 -3.54073803931212
2.22610804553827 -1.80252608682078 -3.54073803931212
-1.99384442352215 -1.19445203003240 -3.91654847408437
1.99384442352215 1.19445203003240 -3.91654847408437
-2.30847441729599 1.00000000000000 -3.79637051034293
2.30847441729599 -1.00000000000000 -3.79637051034293
-0.375810434772252 0.194452030032404 -4.53458246283426
0.375810434772252 -0.194452030032404 -4.53458246283426

5 34 7 33 32 25
5 22 27 46 21 49
5 38 5 31 36 11
5 41 10 17 48 20
5 54 3 20 47 13
5 9 58 48 17 50
5 51 21 2 57 8
5 1 57 56 3 58
5 17 47 26 27 42
5 28 33 7 38 19
5 36 15 45 10 37
5 27 22 28 25 32
5 33 28 22 43 26
5 8 59 49 16 51
5 21 51 36 31 40
5 7 34 40 15 44
5 15 36 51 12 46
5 10 41 35 18 39
5 46 16 11 44 15
5 49 12 42 23 22
5 39 4 30 37 10
5 45 30 4 53 6
5 37 14 44 11 36
5 0 56 57 2 59
5 16 46 27 26 43
5 47 17 10 45 14
5 58 9 8 55 1
5 40 11 16 49 21
5 25 24 52 5 34
5 43 42 12 51 16
5 5 38 54 9 56
5 23 26 47 20 48
5 13 48 58 0 54
5 48 13 43 22 23
5 19 52 24 29 28
5 29 32 6 39 18
5 12 49 59 1 55
5 53 18 1 59 2
5 55 2 21 46 12
5 3 54 38 7 52
5 26 23 29 24 33
5 59 8 9 54 0
5 52 19 0 58 3
5 6 35 41 14 45
5 2 55 39 6 53
5 4 39 55 8 57
5 11 40 34 19 38
5 57 1 18 35 4
5 30 45 15 40 31
5 35 6 32 33 24
5 56 0 19 34 5
5 18 53 25 28 29
5 44 31 5 52 7
5 14 37 50 13 47
5 31 44 14 41 30
5 32 29 23 42 27
5 20 50 37 30 41
5 42 43 13 50 17
5 50 20 3 56 9
5 24 25 53 4 35
