OFF
60 60 0

0.397204951952868 1.17490683772378 6.17700323926390
-0.397204951952868 -1.17490683772378 6.17700323926390
-2.01523894070276 2.17490683772378 5.55896925051400
2.01523894070276 -2.17490683772378 5.55896925051400
-4.16176429856113 1.64269111275951 4.43563193923318
4.16176429856113 -1.64269111275951 4.43563193923318
-1.64269111275951 4.43563193923318 4.16176429856113
1.64269111275951 -4.43563193923318 4.16176429856113
-3.91627813775449 -1.00000000000000 4.83283689118605
3.91627813775449 1.00000000000000 4.83283689118605
-2.17490683772378 5.55896925051400 2.01523894070276
2.17490683772378 -5.55896925051400 2.01523894070276
-2.26072510150940 -2.81759795048329 5.16176429856113
2.26072510150940 2.81759795048329 5.16176429856113
1.00000000000000 4.83283689118605 3.91627813775449
-1.00000000000000 -4.83283689118605 3.91627813775449
-5.16176429856113 -2.26072510150940 2.81759795048329
5.16176429856113 2.26072510150940 2.81759795048329
-4.43563193923318 4.16176429856113 1.64269111275951
4.43563193923318 -4.16176429856113 1.64269111275951
2.81759795048329 5.16176429856113 2.26072510150940
-2.81759795048329 -5.16176429856113 2.26072510150940
-4.83283689118605 -3.91627813775449 1.00000000000000
4.83283689118605 3.91627813775449 1.00000000000000
-5.55896925051400 2.01523894070276 2.17490683772378
5.55896925051400 -2.01523894070276 2.17490683772378
-6.17700323926390 -0.397204951952868 1.17490683772378
6.17700323926390 0.397204951952868 1.17490683772378
-4.83283689118605 3.91627813775449 -1.00000000000000
4.83283689118605 -3.91627813775449 -1.00000000000000
1.17490683772378 6.17700323926390 0.397204951952868
-1.17490683772378 -6.17700323926390 0.397204951952868
-6.17700323926390 0.397204951952868 -1.17490683772378
6.17700323926390 -0.397204951952868 -1.17490683772378
-5.16176429856113 2.26072510150940 -2.81759795048329
5.16176429856113 -2.26072510150940 -2.81759795048329
-1.17490683772378 6.17700323926390 -0.397204951952868
1.17490683772378 -6.17700323926390 -0.397204951952868
-2.81759795048329 5.16176429856113 -2.26072510150940
2.81759795048329 -5.16176429856113 -2.26072510150940
2.17490683772378 5.55896925051400 -2.01523894070276
-2.17490683772378 -5.55896925051400 -2.01523894070276
-5.55896925051400 -2.01523894070276 -2.17490683772378
5.55896925051400 2.01523894070276 -2.17490683772378
-1.00000000000000 4.83283689118605 -3.91627813775449
1.00000000000000 -4.83283689118605 -3.91627813775449
1.64269111275951 4.43563193923318 -4.16176429856113
-1.64269111275951 -4.43563193923318 -4.16176429856113
-4.43563193923318 -4.16176429856113 -1.64269111275951
4.43563193923318 4.16176429856113 -1.64269111275951
-4.16176429856113 -1.64269111275951 -4.43563193923318
4.16176429856113 1.64269111275951 -4.43563193923318
-2.26072510150940 2.81759795048329 -5.16176429856113
2.26072510150940 -2.81759795048329 -5.16176429856113
-2.01523894070276 -2.17490683772378 -5.55896925051400
2.01523894070276 2.17490683772378 -5.55896925051400
-3.91627813775449 1.00000000000000 -4.83283689118605
3.91627813775449 -1.00000000000000 -4.83283689118605
-0.397204951952868 1.17490683772378 -6.17700323926390
0.397204951952868 -1.17490683772378 -6.17700323926390

5 34 16 11 26 57
5 22 7 33 15 58
5 38 20 3 30 22
5 41 32 6 42 5
5 54 31 5 41 49
5 9 49 59 23 31
5 51 45 15 53 13
5 1 25 53 5 42
5 17 35 41 33 8
5 28 46 27 44 1
5 36 2 21 6 54
5 27 11 16 19 10
5 33 40 34 49 41
5 8 48 58 22 30
5 21 39 55 37 28
5 7 22 28 21 20
5 15 4 30 8 33
5 10 26 47 24 51
5 46 28 22 38 39
5 49 9 8 17 34
5 39 21 2 31 23
5 45 51 36 57 26
5 37 3 20 7 55
5 0 24 52 4 43
5 16 34 40 32 9
5 47 29 23 39 38
5 58 43 13 51 24
5 40 33 7 43 4
5 25 1 18 3 46
5 43 58 48 55 7
5 5 14 44 13 53
5 23 6 32 14 59
5 13 12 42 1 44
5 48 8 9 16 35
5 19 57 56 35 16
5 29 47 26 45 0
5 12 13 43 0 45
5 53 52 24 58 15
5 55 30 4 40 48
5 3 37 50 11 18
5 26 10 17 18 11
5 59 42 12 50 25
5 52 53 25 59 14
5 6 23 29 20 21
5 2 36 51 10 19
5 4 15 45 12 52
5 11 27 46 25 50
5 57 19 0 29 36
5 30 55 39 46 3
5 35 17 10 27 56
5 56 18 1 28 37
5 18 56 57 34 17
5 44 50 37 56 27
5 14 5 31 9 32
5 31 54 38 47 2
5 32 41 35 48 40
5 20 38 54 36 29
5 42 59 49 54 6
5 50 44 14 52 12
5 24 0 19 2 47
