OFF
60 60 0

0.399808301815521 0.527983511308669 5.13707496743414
-0.399808301815521 -0.527983511308669 5.13707496743414
-2.01784229056542 1.52798351130867 4.51904097868425
2.01784229056542 -1.52798351130867 4.51904097868425
-3.11923267686873 1.64690342132189 3.79292092138045
3.11923267686873 -1.64690342132189 3.79292092138045
-1.64690342132189 3.79292092138045 3.11923267686873
1.64690342132189 -3.79292092138045 3.11923267686873
-2.87213755736236 -1.00000000000000 4.19272922319598
2.87213755736236 1.00000000000000 4.19272922319598
-1.52798351130867 4.51904097868425 2.01784229056542
1.52798351130867 -4.51904097868425 2.01784229056542
-2.26493741007178 -2.17488693263056 4.11923267686873
2.26493741007178 2.17488693263056 4.11923267686873
1.00000000000000 4.19272922319598 2.87213755736236
-1.00000000000000 -4.19272922319598 2.87213755736236
-4.11923267686873 -2.26493741007178 2.17488693263056
4.11923267686873 2.26493741007178 2.17488693263056
-3.79292092138045 3.11923267686873 1.64690342132189
3.79292092138045 -3.11923267686873 1.64690342132189
2.17488693263056 4.11923267686873 2.26493741007178
-2.17488693263056 -4.11923267686873 2.26493741007178
-4.19272922319598 -2.87213755736236 1.00000000000000
4.19272922319598 2.87213755736236 1.00000000000000
-4.51904097868425 2.01784229056542 1.52798351130867
4.51904097868425 -2.01784229056542 1.52798351130867
-5.13707496743414 -0.399808301815521 0.527983511308669
5.13707496743414 0.399808301815521 0.527983511308669
-4.19272922319598 2.87213755736236 -1.00000000000000
4.19272922319598 -2.87213755736236 -1.00000000000000
0.527983511308669 5.13707496743414 0.399808301815521
-0.527983511308669 -5.13707496743414 0.399808301815521
-5.13707496743414 0.399808301815521 -0.527983511308669
5.13707496743414 -0.399808301815521 -0.527983511308669
-4.11923267686873 2.26493741007178 -2.17488693263056
4.11923267686873 -2.26493741007178 -2.17488693263056
-0.527983511308669 5.13707496743414 -0.399808301815521
0.527983511308669 -5.13707496743414 -0.399808301815521
-2.17488693263056 4.11923267686873 -2.26493741007178
2.17488693263056 -4.11923267686873 -2.26493741007178
1.52798351130867 4.51904097868425 -2.01784229056542
-1.52798351130867 -4.51904097868425 -2.01784229056542
-4.51904097868425 -2.01784229056542 -1.52798351130867
4.51904097868425 2.01784229056542 -1.52798351130867
-1.00000000000000 4.19272922319598 -2.87213755736236
1.00000000000000 -4.19272922319598 -2.87213755736236
1.64690342132189 3.79292092138045 -3.11923267686873
-1.64690342132189 -3.79292092138045 -3.11923267686873
-3.79292092138045 -3.11923267686873 -1.64690342132189
3.79292092138045 3.11923267686873 -1.64690342132189
-3.11923267686873 -1.64690342132189 -3.79292092138045
3.11923267686873 1.64690342132189 -3.79292092138045
-2.26493741007178 2.17488693263056 -4.11923267686873
2.26493741007178 -2.17488693263056 -4.11923267686873
-2.01784229056542 -1.52798351130867 -4.51904097868425
2.01784229056542 1.52798351130867 -4.51904097868425
-2.87213755736236 1.00000000000000 -4.19272922319598
2.87213755736236 -1.00000000000000 -4.19272922319598
-0.399808301815521 0.527983511308669 -5.13707496743414
0.399808301815521 -0.527983511308669 -5.13707496743414

5 34 38 32 30 14
5 22 26 21 18 6
5 38 52 36 59 57
5 41 45 48 57 55
5 54 56 47 28 24
5 9 0 17 4 18
5 51 46 57 38 34
5 1 2 3 10 30
5 17 20 27 36 44
5 28 32 38 48 47
5 36 40 10 43 27
5 27 43 25 55 59
5 33 25 43 3 0
5 8 1 16 5 19
5 21 12 31 0 9
5 7 19 15 35 53
5 15 31 12 47 50
5 10 14 18 9 3
5 46 49 44 17 13
5 49 51 23 53 39
5 39 53 37 58 56
5 45 37 53 7 5
5 37 41 11 42 26
5 0 3 2 11 31
5 16 21 26 37 45
5 47 48 45 16 12
5 58 54 55 41 37
5 40 44 49 56 54
5 25 29 5 45 41
5 43 23 51 14 10
5 5 7 9 21 16
5 23 27 20 19 7
5 13 17 0 33 29
5 48 50 22 52 38
5 19 5 29 13 20
5 29 33 39 49 46
5 12 16 1 32 28
5 53 35 59 27 23
5 55 57 46 29 25
5 3 9 7 23 43
5 26 42 24 54 58
5 59 55 54 40 36
5 52 34 58 26 22
5 6 18 14 34 52
5 2 8 6 22 42
5 4 6 8 20 17
5 11 15 19 8 2
5 57 59 35 50 48
5 30 10 40 24 32
5 35 39 33 31 15
5 56 58 34 51 49
5 18 4 28 12 21
5 44 36 52 6 4
5 14 30 13 46 51
5 31 11 41 25 33
5 32 24 42 2 1
5 20 13 30 1 8
5 42 22 50 15 11
5 50 47 56 39 35
5 24 28 4 44 40
