OFF
60 60 0

0.431683416590579 0.618033988749895 5.36622983451361
-0.431683416590579 -0.618033988749895 5.36622983451361
-2.04971740534047 1.61803398874989 4.74819584576371
2.04971740534047 -1.61803398874989 4.74819584576371
-3.31651242917313 1.69847844042324 3.93454641792303
3.31651242917313 -1.69847844042324 3.93454641792303
-1.69847844042324 3.93454641792303 3.31651242917313
1.69847844042324 -3.93454641792303 3.31651242917313
-3.04971740534047 -1.00000000000000 4.36622983451361
3.04971740534047 1.00000000000000 4.36622983451361
-1.61803398874989 4.74819584576371 2.04971740534047
1.61803398874989 -4.74819584576371 2.04971740534047
-2.31651242917313 -2.31651242917313 4.31651242917313
2.31651242917313 2.31651242917313 4.31651242917313
1.00000000000000 4.36622983451361 3.04971740534047
-1.00000000000000 -4.36622983451361 3.04971740534047
-4.31651242917313 -2.31651242917313 2.31651242917313
4.31651242917313 2.31651242917313 2.31651242917313
-3.93454641792303 3.31651242917313 1.69847844042324
3.93454641792303 -3.31651242917313 1.69847844042324
2.31651242917313 4.31651242917313 2.31651242917313
-2.31651242917313 -4.31651242917313 2.31651242917313
-4.36622983451361 -3.04971740534047 1.00000000000000
4.36622983451361 3.04971740534047 1.00000000000000
-4.74819584576371 2.04971740534047 1.61803398874989
4.74819584576371 -2.04971740534047 1.61803398874989
-5.36622983451361 -0.431683416590579 0.618033988749895
5.36622983451361 0.431683416590579 0.618033988749895
-4.36622983451361 3.04971740534047 -1.00000000000000
4.36622983451361 -3.04971740534047 -1.00000000000000
0.618033988749895 5.36622983451361 0.431683416590579
-0.618033988749895 -5.36622983451361 0.431683416590579
-5.36622983451361 0.431683416590579 -0.618033988749895
5.36622983451361 -0.431683416590579 -0.618033988749895
-4.31651242917313 2.31651242917313 -2.31651242917313
4.31651242917313 -2.31651242917313 -2.31651242917313
-0.618033988749895 5.36622983451361 -0.431683416590579
0.618033988749895 -5.36622983451361 -0.431683416590579
-2.31651242917313 4.31651242917313 -2.31651242917313
2.31651242917313 -4.31651242917313 -2.31651242917313
1.61803398874989 4.74819584576371 -2.04971740534047
-1.61803398874989 -4.74819584576371 -2.04971740534047
-4.74819584576371 -2.04971740534047 -1.61803398874989
4.74819584576371 2.04971740534047 -1.61803398874989
-1.00000000000000 4.36622983451361 -3.04971740534047
1.00000000000000 -4.36622983451361 -3.04971740534047
1.69847844042324 3.93454641792303 -3.31651242917313
-1.69847844042324 -3.93454641792303 -3.31651242917313
-3.93454641792303 -3.31651242917313 -1.69847844042324
3.93454641792303 3.31651242917313 -1.69847844042324
-3.31651242917313 -1.69847844042324 -3.93454641792303
3.31651242917313 1.69847844042324 -3.93454641792303
-2.31651242917313 2.31651242917313 -4.31651242917313
2.31651242917313 -2.31651242917313 -4.31651242917313
-2.04971740534047 -1.61803398874989 -4.74819584576371
2.04971740534047 1.61803398874989 -4.74819584576371
-3.04971740534047 1.00000000000000 -4.36622983451361
3.04971740534047 -1.00000000000000 -4.36622983451361
-0.431683416590579 0.618033988749895 -5.36622983451361
0.431683416590579 -0.618033988749895 -5.36622983451361

6 34 28 13 53 6 35
6 22 16 14 59 2 55
6 38 44 35 16 51 21
6 41 47 46 3 58 9
6 54 50 4 43 26 23
6 9 13 28 37 10 41
6 51 55 32 9 56 0
6 1 0 40 48 20 50
6 17 23 52 12 46 16
6 28 34 45 0 54 3
6 36 30 25 50 17 47
6 27 33 54 6 53 18
6 33 27 2 47 13 48
6 8 12 29 36 11 40
6 21 15 17 34 5 38
6 7 11 59 14 45 30
6 15 21 56 27 42 43
6 10 6 7 55 1 57
6 46 40 0 45 14 37
6 49 43 37 28 29 32
6 39 45 34 17 50 20
6 45 39 9 32 25 24
6 37 31 24 51 16 46
6 0 1 41 49 21 51
6 16 22 53 13 47 17
6 47 41 1 44 15 36
6 58 59 11 18 39 4
6 40 46 47 2 59 8
6 25 19 48 40 31 44
6 43 49 18 11 36 15
6 5 3 26 57 8 59
6 23 17 15 58 3 54
6 13 9 39 38 19 52
6 48 42 36 29 28 33
6 19 25 30 22 23 26
6 29 35 44 1 55 2
6 12 8 38 39 18 53
6 53 57 20 21 49 12
6 55 51 5 42 27 22
6 3 5 51 24 33 28
6 26 32 55 7 52 19
6 59 58 10 19 38 5
6 52 56 21 20 48 13
6 6 10 58 15 44 31
6 2 4 50 25 32 29
6 4 2 27 56 9 58
6 11 7 6 54 0 56
6 57 53 22 30 41 10
6 30 36 42 5 34 7
6 35 29 12 52 7 34
6 56 52 23 31 40 11
6 18 24 31 23 22 27
6 44 38 8 33 24 25
6 14 20 57 26 43 42
6 31 37 43 4 35 6
6 32 26 3 46 12 49
6 20 14 16 35 4 39
6 42 48 19 10 37 14
6 50 54 33 8 57 1
6 24 18 49 41 30 45
