<svg xmlns="http://www.w3.org/2000/svg" viewBox="-60 -60 120 120" width="120" height="120">
<defs>
<filter id="haze" x="-.5" y="-.5" width="2" height="2"><feGaussianBlur stdDeviation="9"/></filter>
<radialGradient id="shade" cx=".35" cy=".3" r=".8"><stop offset="0" stop-color="#fff" stop-opacity=".35"/><stop offset=".55" stop-color="#fff" stop-opacity="0"/><stop offset="1" stop-color="#000" stop-opacity=".45"/></radialGradient>
</defs>
<rect x="-60" y="-60" width="120" height="120" fill="#05060b"/>
<g filter="url(#haze)"><circle cx="1.39" cy="3.59" r="27.73" fill="#0c1a3e" opacity=".74"/><circle cx="42.09" cy="4.56" r="19.28" fill="#0c1a3e" opacity=".71"/><circle cx="12.93" cy="-5.96" r="25.68" fill="#1c1036" opacity=".84"/><circle cx="-9.6" cy="20.42" r="28.9" fill="#0c1a3e" opacity=".56"/><circle cx="-38.58" cy="-26.87" r="24.33" fill="#0c1a3e" opacity=".65"/><circle cx="9.9" cy="-44.7" r="27.55" fill="#1c1036" opacity=".73"/><circle cx="-9.79" cy="41.31" r="30.89" fill="#0c1a3e" opacity=".81"/><circle cx="-21.89" cy="14.77" r="22.03" fill="#0c1a3e" opacity=".52"/><circle cx="28.91" cy="57.32" r="22.75" fill="#1c1036" opacity=".56"/></g>
<g><circle cx="29.23" cy="-18.33" r=".44" fill="#c9d6ff" opacity=".51"/><circle cx="41.46" cy="-42.81" r=".55" fill="#c9d6ff" opacity=".62"/><circle cx="-13.83" cy="-56.95" r=".28" fill="#c9d6ff" opacity=".63"/><circle cx="-.33" cy="3.13" r=".34" fill="#c9d6ff" opacity=".48"/><circle cx="28.11" cy="-49.33" r=".48" fill="#c9d6ff" opacity=".27"/><circle cx="-6.66" cy="16.18" r=".59" fill="#c9d6ff" opacity=".44"/><circle cx="-4.06" cy="-17.65" r=".27" fill="#c9d6ff" opacity=".58"/><circle cx="-9.67" cy="31.14" r=".36" fill="#c9d6ff" opacity=".5"/><circle cx="-18.26" cy="41.09" r=".31" fill="#c9d6ff" opacity=".3"/><circle cx="15.63" cy="14.84" r=".29" fill="#c9d6ff" opacity=".42"/><circle cx="-14.69" cy="52.48" r=".55" fill="#c9d6ff" opacity=".53"/><circle cx="-10.69" cy="50.25" r=".46" fill="#c9d6ff" opacity=".45"/><circle cx="-23.06" cy="1.74" r=".25" fill="#c9d6ff" opacity=".65"/><circle cx="-23.81" cy="-11.02" r=".29" fill="#c9d6ff" opacity=".29"/><circle cx="29.41" cy="5.34" r=".43" fill="#c9d6ff" opacity=".3"/><circle cx="7.16" cy="14.64" r=".56" fill="#c9d6ff" opacity=".68"/><circle cx="11.78" cy="12.45" r=".45" fill="#c9d6ff" opacity=".47"/><circle cx="-48.67" cy="18.21" r=".48" fill="#c9d6ff" opacity=".7"/><circle cx="25.26" cy="-43.79" r=".3" fill="#c9d6ff" opacity=".54"/><circle cx="56.65" cy="-18.78" r=".57" fill="#c9d6ff" opacity=".42"/><circle cx="31.28" cy="18.46" r=".27" fill="#c9d6ff" opacity=".38"/><circle cx="19.68" cy="-.91" r=".47" fill="#c9d6ff" opacity=".35"/><circle cx="26.17" cy="-22.21" r=".28" fill="#c9d6ff" opacity=".5"/><circle cx="-14.29" cy="-38.27" r=".54" fill="#c9d6ff" opacity=".67"/><circle cx="30.07" cy="-59.39" r=".4" fill="#c9d6ff" opacity=".63"/><circle cx="8.31" cy="24.03" r=".47" fill="#c9d6ff" opacity=".25"/><circle cx="-.47" cy="-1.06" r=".31" fill="#c9d6ff" opacity=".61"/><circle cx="-52.36" cy="-49.83" r=".6" fill="#c9d6ff" opacity=".53"/><circle cx="24.47" cy="40.17" r=".57" fill="#c9d6ff" opacity=".69"/><circle cx="-53.93" cy="-39.79" r=".46" fill="#c9d6ff" opacity=".43"/><circle cx="-9.92" cy="3.95" r=".27" fill="#c9d6ff" opacity=".28"/><circle cx="-4.49" cy="-27.54" r=".4" fill="#c9d6ff" opacity=".58"/><circle cx="-10.34" cy="-19.42" r=".46" fill="#c9d6ff" opacity=".42"/><circle cx="57.04" cy="-24.38" r=".41" fill="#c9d6ff" opacity=".36"/><circle cx="22.08" cy="-21.93" r=".45" fill="#c9d6ff" opacity=".54"/><circle cx="-59.66" cy="-44.31" r=".31" fill="#c9d6ff" opacity=".62"/><circle cx="-43.72" cy="38.02" r=".32" fill="#c9d6ff" opacity=".53"/><circle cx="39.07" cy="28.67" r=".53" fill="#c9d6ff" opacity=".29"/><circle cx="-49.37" cy="29.29" r=".33" fill="#c9d6ff" opacity=".3"/><circle cx="-18.87" cy="-48.35" r=".56" fill="#c9d6ff" opacity=".54"/><circle cx="26.48" cy="9.34" r=".51" fill="#c9d6ff" opacity=".57"/><circle cx="-13.95" cy="31.67" r=".33" fill="#c9d6ff" opacity=".34"/><circle cx="-43.37" cy="15.04" r=".25" fill="#c9d6ff" opacity=".5"/><circle cx="55.91" cy="43.89" r=".43" fill="#c9d6ff" opacity=".64"/><circle cx="-53.28" cy="3.35" r=".52" fill="#c9d6ff" opacity=".36"/><circle cx="57.93" cy="-43.33" r=".56" fill="#c9d6ff" opacity=".46"/><circle cx="51.24" cy="58.85" r=".39" fill="#c9d6ff" opacity=".46"/><circle cx="-7.72" cy="-48.14" r=".32" fill="#c9d6ff" opacity=".29"/><circle cx="-49.4" cy="52.44" r=".44" fill="#c9d6ff" opacity=".51"/><circle cx="-32.21" cy="52.11" r=".28" fill="#c9d6ff" opacity=".63"/><circle cx="-27.42" cy="-52.44" r=".4" fill="#c9d6ff" opacity=".42"/><circle cx="-43.18" cy="-15.35" r=".3" fill="#c9d6ff" opacity=".65"/><circle cx="9.48" cy="-4.69" r=".6" fill="#c9d6ff" opacity=".41"/><circle cx="8.3" cy="5.23" r=".34" fill="#c9d6ff" opacity=".48"/><circle cx="53.45" cy="-23.8" r=".42" fill="#c9d6ff" opacity=".43"/><circle cx="-44.71" cy="-31.56" r=".47" fill="#c9d6ff" opacity=".26"/><circle cx="-48.94" cy="28.95" r=".31" fill="#c9d6ff" opacity=".35"/><circle cx="-8.17" cy="33.95" r=".46" fill="#c9d6ff" opacity=".52"/><circle cx="21.05" cy="-14.65" r=".52" fill="#c9d6ff" opacity=".66"/><circle cx="-20.52" cy="25.26" r=".28" fill="#c9d6ff" opacity=".31"/><circle cx="2.74" cy="21.85" r=".28" fill="#c9d6ff" opacity=".66"/><circle cx="49.43" cy="-43.96" r=".56" fill="#c9d6ff" opacity=".42"/><circle cx="25.41" cy="8.44" r=".52" fill="#c9d6ff" opacity=".68"/><circle cx="-6.76" cy="-33.02" r=".36" fill="#c9d6ff" opacity=".57"/><circle cx="24.45" cy="-54.08" r=".5" fill="#c9d6ff" opacity=".31"/><circle cx="-8.64" cy="30.78" r=".4" fill="#c9d6ff" opacity=".68"/><circle cx="28.93" cy="-45.3" r=".28" fill="#c9d6ff" opacity=".33"/><circle cx="-58.01" cy="53.19" r=".34" fill="#c9d6ff" opacity=".54"/><circle cx="-24.95" cy="-21.24" r=".5" fill="#c9d6ff" opacity=".59"/><circle cx="13.23" cy="56.89" r=".44" fill="#c9d6ff" opacity=".61"/></g>
<circle cx="-28" cy="-30" r="4.6" fill="#2f6fd6"/><circle cx="-28" cy="-30" r="4.6" fill="url(#shade)"/>
<circle cx="18" cy="-34" r="2.9" fill="#8fbf4a"/><circle cx="18" cy="-34" r="2.9" fill="url(#shade)"/>
<circle cx="34" cy="-10" r="5.45" fill="#d9b04c"/><circle cx="34" cy="-10" r="5.45" fill="url(#shade)"/>
<ellipse cx="34" cy="-10" rx="9.27" ry="2.45" transform="rotate(-24 34 -10)" fill="none" stroke="#e6e0cf" stroke-opacity=".55" stroke-width=".7"/>
<circle cx="-6" cy="4" r="6.3" fill="#2e8b57"/><circle cx="-6" cy="4" r="6.3" fill="url(#shade)"/>
<ellipse cx="-6" cy="4" rx="10.71" ry="2.84" transform="rotate(-24 -6 4)" fill="none" stroke="#e6e0cf" stroke-opacity=".55" stroke-width=".7"/>
<circle cx="-38" cy="16" r="3.75" fill="#c9d3d8"/><circle cx="-38" cy="16" r="3.75" fill="url(#shade)"/>
<circle cx="22" cy="26" r="3.75" fill="#8e5bd6"/><circle cx="22" cy="26" r="3.75" fill="url(#shade)"/>
<circle cx="-14" cy="38" r="4.6" fill="#ff6a2a"/><circle cx="-14" cy="38" r="4.6" fill="url(#shade)"/>
<path d="M-8.43 30.26l1.6 2-1.6 2-1.6-2z" fill="#ffe7a8" stroke="#8a5a1a" stroke-width=".4"/>
<circle cx="44" cy="36" r="2.05" fill="#8a4b35"/><circle cx="44" cy="36" r="2.05" fill="url(#shade)"/>
<circle cx="-46" cy="-6" r="2.05" fill="#6e7c3a"/><circle cx="-46" cy="-6" r="2.05" fill="url(#shade)"/>
<circle cx="2" cy="-48" r="2.05" fill="#9fe3ff"/><circle cx="2" cy="-48" r="2.05" fill="url(#shade)"/>
<circle cx="-22" cy="-12" r="2.05" fill="#8fbf4a"/><circle cx="-22" cy="-12" r="2.05" fill="url(#shade)"/>
<circle cx="12" cy="8" r="2.05" fill="#c9d3d8"/><circle cx="12" cy="8" r="2.05" fill="url(#shade)"/>
<circle cx="48" cy="-32" r="2.9" fill="#2e8b57"/><circle cx="48" cy="-32" r="2.9" fill="url(#shade)"/>
<circle cx="-2" cy="24" r="2.05" fill="#d9b04c"/><circle cx="-2" cy="24" r="2.05" fill="url(#shade)"/>
<circle cx="28" cy="48" r="2.05" fill="#2f6fd6"/><circle cx="28" cy="48" r="2.05" fill="url(#shade)"/>
<circle cx="-40" cy="40" r="2.05" fill="#8e5bd6"/><circle cx="-40" cy="40" r="2.05" fill="url(#shade)"/>
<circle cx="-28" cy="-30" r="9.28" fill="none" stroke="rgb(255,100,255)" stroke-opacity=".88" stroke-width="1.15"/>
<circle cx="34" cy="-10" r="9.56" fill="none" stroke="rgb(225,225,80)" stroke-opacity=".91" stroke-width="1.1"/>
<circle cx="34" cy="-10" r="12.78" fill="none" stroke="rgb(255,160,60)" stroke-opacity=".81" stroke-width="1.89"/>
<circle cx="-6" cy="4" r="12.49" fill="none" stroke="rgb(120,255,120)" stroke-opacity=".86" stroke-width="1.71"/>
<circle cx="-38" cy="16" r="9.27" fill="none" stroke="rgb(180,140,255)" stroke-opacity=".83" stroke-width="1.24"/>
<circle cx="22" cy="26" r="7.79" fill="none" stroke="rgb(80,200,255)" stroke-opacity=".89" stroke-width=".9"/>
<circle cx="-14" cy="38" r="8.14" fill="none" stroke="rgb(255,100,100)" stroke-opacity=".92" stroke-width=".88"/>
</svg>
