<svg xmlns="http://www.w3.org/2000/svg" viewBox="0 0 120 120" width="120" height="120" font-family="Georgia, serif">
<rect width="120" height="120" fill="#1e1e23"/>
<path d="M 16 14 V 100 H 108" fill="none" stroke="#b6b1a7" stroke-width="1.5"/><path d="M 25 31.6 L 26.8 43 L 28.6 51.1 L 30.4 57.3 L 32.2 62 L 34 65.8 L 35.8 68.9 L 37.6 71.5 L 39.4 73.7 L 41.2 75.6 L 43 77.2 L 44.8 78.6 L 46.6 79.9 L 48.4 81 L 50.2 82 L 52 82.9 L 53.8 83.7 L 55.6 84.5 L 57.4 85.1 L 59.2 85.8 L 61 86.3 L 62.8 86.8 L 64.6 87.3 L 66.4 87.8 L 68.2 88.2 L 70 88.6 L 71.8 89 L 73.6 89.3 L 75.4 89.6 L 77.2 89.9 L 79 90.2 L 80.8 90.5 L 82.6 90.8 L 84.4 91 L 86.2 91.2 L 88 91.5 L 89.8 91.7 L 91.6 91.9 L 93.4 92 L 95.2 92.2 L 97 92.4 L 98.8 92.6 L 100.6 92.7 L 102.4 92.9 L 104.2 93 L 106 93.2" fill="none" stroke="#7aa6e0" stroke-width="3" stroke-linecap="round"/><path d="M 35.8 68.9 H 53.8 V 83.7" fill="none" stroke="#ef7a8c" stroke-width="1.8" stroke-dasharray="4 3"/><circle cx="35.8" cy="68.9" r="3.8" fill="#ef7a8c"/><circle cx="53.8" cy="83.7" r="3.8" fill="#ef7a8c"/><text x="64" y="34" font-size="13" fill="#e6e2d8">x·y=k</text>
</svg>
